<?xml version="1.0" encoding="utf-8"?>
<!-- Generator: Adobe Illustrator 19.0.0, SVG Export Plug-In . SVG Version: 6.00 Build 0)  -->
<svg version="1.1" id="Layer_1" xmlns="http://www.w3.org/2000/svg" xmlns:xlink="http://www.w3.org/1999/xlink" x="0px" y="0px"
	 viewBox="0 0 81.3 75.2" style="enable-background:new 0 0 81.3 75.2;" xml:space="preserve">
<style type="text/css">
	.st0{fill:#26698F;}
</style>
<g id="XMLID_16_">
	<g id="XMLID_129_">
		<path id="XMLID_141_" class="st0" d="M13.8,43.8h1.3v13.6h-1.3V43.8z"/>
		<path id="XMLID_139_" class="st0" d="M19.9,46.7v10.7h-1.2V43.5h0.1l9.2,11V43.8h1.2v13.9h-0.1L19.9,46.7z"/>
		<path id="XMLID_137_" class="st0" d="M32.7,43.8h1.3v13.6h-1.3V43.8z"/>
		<path id="XMLID_135_" class="st0" d="M36.7,50.6c0-4,3-7,6.9-7c2.3,0,4.1,0.9,5.3,2.5l-1,0.7c-1-1.3-2.5-2.1-4.4-2.1
			c-3.2,0-5.5,2.5-5.5,5.8c0,3.3,2.4,5.8,5.6,5.8c2,0,3.5-0.8,4.6-2.3l1,0.7c-1.3,1.8-3.2,2.7-5.7,2.7
			C39.7,57.5,36.7,54.6,36.7,50.6z"/>
		<path id="XMLID_133_" class="st0" d="M51.9,43.8h1.3v13.6h-1.3V43.8z"/>
		<path id="XMLID_130_" class="st0" d="M55.8,50.6c0-4,3.1-7,7-7c3.9,0,7,2.9,7,7c0,4-3.1,7-7,7C59,57.5,55.8,54.6,55.8,50.6z
			 M68.4,50.6c0-3.3-2.4-5.8-5.6-5.8c-3.2,0-5.6,2.5-5.6,5.8c0,3.3,2.4,5.8,5.6,5.8C66.1,56.4,68.4,53.9,68.4,50.6z"/>
	</g>
</g>
</svg>
