<?xml version="1.0" encoding="utf-8"?>
<!-- Generator: Adobe Illustrator 19.0.0, SVG Export Plug-In . SVG Version: 6.00 Build 0)  -->
<svg version="1.1" id="Layer_1" xmlns="http://www.w3.org/2000/svg" xmlns:xlink="http://www.w3.org/1999/xlink" x="0px" y="0px"
	 viewBox="0 0 176 75.2" style="enable-background:new 0 0 176 75.2;" xml:space="preserve">
<style type="text/css">
	.st0{fill:#24688E;}
</style>
<g id="XMLID_16_">
	<g id="XMLID_309_">
		<path id="XMLID_337_" class="st0" d="M20.6,43.8h1.3v13.6h-1.3V43.8z"/>
		<path id="XMLID_335_" class="st0" d="M26.7,46.7v10.7h-1.2V43.5h0.1l9.2,11V43.8H36v13.9h-0.1L26.7,46.7z"/>
		<path id="XMLID_333_" class="st0" d="M39.4,54.2c0.7,1.4,2,2.1,3.6,2.1c1.9,0,3-0.9,3-2.3c0-1.5-0.9-2.2-2.6-2.9l-1.1-0.5
			c-2-0.9-3.1-1.8-3.1-3.7c0-1.9,1.5-3.2,3.5-3.2c1.7,0,2.9,0.6,3.7,2l-1,0.6c-0.6-1-1.5-1.5-2.7-1.5c-1.3,0-2.2,0.9-2.2,2.1
			c0,1.3,0.7,1.8,2.4,2.6l1.1,0.5c2.2,1,3.3,2,3.3,4.1c0,2.2-1.7,3.6-4.2,3.6c-2.2,0-3.8-1.1-4.7-2.7L39.4,54.2z"/>
		<path id="XMLID_331_" class="st0" d="M52.4,45h-4.2v-1.2h9.7V45h-4.2v12.4h-1.3V45z"/>
		<path id="XMLID_328_" class="st0" d="M58.6,57.4h-1.3l5.7-13.9h0.1l5.7,13.9h-1.3L66.6,55h-7L58.6,57.4z M63.1,46.3l-3.1,7.5h6.1
			C66.2,53.9,63.1,46.3,63.1,46.3z"/>
		<path id="XMLID_326_" class="st0" d="M71.2,43.8h1.3v12.4h6.3v1.2h-7.6V43.8z"/>
		<path id="XMLID_323_" class="st0" d="M81.4,57.4h-1.3l5.7-13.9H86l5.7,13.9h-1.3L89.4,55h-7L81.4,57.4z M85.9,46.3l-3.1,7.5h6.1
			C89,53.9,85.9,46.3,85.9,46.3z"/>
		<path id="XMLID_321_" class="st0" d="M92.2,50.6c0-4,3-7,6.9-7c2.3,0,4.1,0.9,5.3,2.5l-1,0.7c-1-1.3-2.5-2.1-4.4-2.1
			c-3.2,0-5.5,2.5-5.5,5.8c0,3.3,2.4,5.8,5.6,5.8c2,0,3.5-0.8,4.6-2.3l1,0.7c-1.3,1.8-3.2,2.7-5.7,2.7
			C95.3,57.6,92.2,54.6,92.2,50.6z"/>
		<path id="XMLID_319_" class="st0" d="M107.4,43.8h1.3v13.6h-1.3V43.8z"/>
		<path id="XMLID_316_" class="st0" d="M111.4,50.6c0-4,3.1-7,7-7c3.9,0,7,2.9,7,7c0,4-3.1,7-7,7C114.5,57.6,111.4,54.6,111.4,50.6z
			 M124,50.6c0-3.3-2.4-5.8-5.6-5.8c-3.2,0-5.6,2.5-5.6,5.8c0,3.3,2.4,5.8,5.6,5.8C121.6,56.4,124,53.9,124,50.6z"/>
		<path id="XMLID_314_" class="st0" d="M129.1,46.7v10.7h-1.2V43.5h0.1l9.2,11V43.8h1.2v13.9h-0.1L129.1,46.7z"/>
		<path id="XMLID_312_" class="st0" d="M141.9,43.8h8.2V45h-6.9v6.8h6.2v1.1h-6.2v3.3h7.2v1.2h-8.5V43.8z"/>
		<path id="XMLID_310_" class="st0" d="M153.3,54.2c0.7,1.4,2,2.1,3.6,2.1c1.9,0,3-0.9,3-2.3c0-1.5-0.9-2.2-2.6-2.9l-1.1-0.5
			c-2-0.9-3.1-1.8-3.1-3.7c0-1.9,1.5-3.2,3.5-3.2c1.7,0,2.9,0.6,3.7,2l-1,0.6c-0.6-1-1.5-1.5-2.7-1.5c-1.3,0-2.2,0.9-2.2,2.1
			c0,1.3,0.7,1.8,2.4,2.6l1.1,0.5c2.2,1,3.3,2,3.3,4.1c0,2.2-1.7,3.6-4.2,3.6c-2.2,0-3.8-1.1-4.7-2.7L153.3,54.2z"/>
	</g>
</g>
</svg>
