<?xml version="1.0" encoding="utf-8"?>
<!-- Generator: Adobe Illustrator 19.0.0, SVG Export Plug-In . SVG Version: 6.00 Build 0)  -->
<svg version="1.1" id="Layer_1" xmlns="http://www.w3.org/2000/svg" xmlns:xlink="http://www.w3.org/1999/xlink" x="0px" y="0px"
	 viewBox="0 0 125.5 75.2" style="enable-background:new 0 0 125.5 75.2;" xml:space="preserve">
<style type="text/css">
	.st0{fill:#24688E;}
</style>
<g id="XMLID_92_">
	<g id="XMLID_255_">
		<path id="XMLID_273_" class="st0" d="M11.4,50.9c0-4,3-7,6.9-7c2.3,0,4.1,0.9,5.3,2.5l-1,0.7c-1-1.3-2.5-2.1-4.4-2.1
			c-3.2,0-5.5,2.5-5.5,5.8c0,3.3,2.4,5.8,5.6,5.8c2,0,3.5-0.8,4.6-2.3l1,0.7c-1.3,1.8-3.2,2.7-5.7,2.7C14.5,57.9,11.4,55,11.4,50.9z
			"/>
		<path id="XMLID_270_" class="st0" d="M25.2,50.9c0-4,3.1-7,7-7c3.9,0,7,2.9,7,7c0,4-3.1,7-7,7C28.3,57.9,25.2,55,25.2,50.9z
			 M37.8,50.9c0-3.3-2.4-5.8-5.6-5.8c-3.2,0-5.6,2.5-5.6,5.8c0,3.3,2.4,5.8,5.6,5.8C35.4,56.7,37.8,54.2,37.8,50.9z"/>
		<path id="XMLID_268_" class="st0" d="M43,47v10.7h-1.2V43.8h0.1l9.2,11V44.1h1.2V58h-0.1L43,47z"/>
		<path id="XMLID_266_" class="st0" d="M58.7,45.3h-4.2v-1.2h9.7v1.2H60v12.4h-1.3V45.3z"/>
		<path id="XMLID_263_" class="st0" d="M64.9,57.7h-1.3l5.7-13.9h0.1l5.7,13.9h-1.3l-0.9-2.4h-7L64.9,57.7z M69.4,46.7l-3.1,7.5h6.1
			C72.4,54.2,69.4,46.7,69.4,46.7z"/>
		<path id="XMLID_261_" class="st0" d="M75.7,50.9c0-4,3-7,6.9-7c2.3,0,4.1,0.9,5.3,2.5l-1,0.7c-1-1.3-2.5-2.1-4.4-2.1
			c-3.2,0-5.5,2.5-5.5,5.8c0,3.3,2.4,5.8,5.6,5.8c2,0,3.5-0.8,4.6-2.3l1,0.7c-1.3,1.8-3.2,2.7-5.7,2.7C78.7,57.9,75.7,55,75.7,50.9z
			"/>
		<path id="XMLID_259_" class="st0" d="M93.5,45.3h-4.2v-1.2H99v1.2h-4.2v12.4h-1.3V45.3z"/>
		<path id="XMLID_256_" class="st0" d="M99.5,50.9c0-4,3.1-7,7-7c3.9,0,7,2.9,7,7c0,4-3.1,7-7,7C102.6,57.9,99.5,55,99.5,50.9z
			 M112.1,50.9c0-3.3-2.4-5.8-5.6-5.8c-3.2,0-5.6,2.5-5.6,5.8c0,3.3,2.4,5.8,5.6,5.8C109.7,56.7,112.1,54.2,112.1,50.9z"/>
	</g>
</g>
</svg>
