<?xml version="1.0" encoding="utf-8"?>
<!-- Generator: Adobe Illustrator 19.0.0, SVG Export Plug-In . SVG Version: 6.00 Build 0)  -->
<svg version="1.1" id="Layer_1" xmlns="http://www.w3.org/2000/svg" xmlns:xlink="http://www.w3.org/1999/xlink" x="0px" y="0px"
	 viewBox="0 0 176 75.2" style="enable-background:new 0 0 176 75.2;" xml:space="preserve">
<style type="text/css">
	.st0{fill:#24688E;}
</style>
<g id="XMLID_16_">
	<g id="XMLID_341_">
		<path id="XMLID_373_" class="st0" d="M16.2,43.8h8.2V45h-6.9v6.8h6.2v1.1h-6.2v3.3h7.2v1.2h-8.5V43.8z"/>
		<path id="XMLID_371_" class="st0" d="M27.6,54.2c0.7,1.4,2,2.1,3.6,2.1c1.9,0,3-0.9,3-2.3c0-1.5-0.9-2.2-2.6-2.9l-1.1-0.5
			c-2-0.9-3.1-1.8-3.1-3.7c0-1.9,1.5-3.2,3.5-3.2c1.7,0,2.9,0.6,3.7,2l-1,0.6c-0.6-1-1.5-1.5-2.7-1.5c-1.3,0-2.2,0.9-2.2,2.1
			c0,1.3,0.7,1.8,2.4,2.6l1.1,0.5c2.2,1,3.3,2,3.3,4.1c0,2.2-1.7,3.6-4.2,3.6c-2.2,0-3.8-1.1-4.7-2.7L27.6,54.2z"/>
		<path id="XMLID_368_" class="st0" d="M39.4,57.4h-1.3V43.8h2.9c3.7,0,5.6,2.2,5.6,5.1c0,2.9-1.9,5.1-5.6,5.1h-1.6V57.4z M41,52.8
			c3.1,0,4.3-1.7,4.3-3.9c0-2.3-1.2-4-4.3-4h-1.5v7.9H41z"/>
		<path id="XMLID_366_" class="st0" d="M49.3,43.8h8.2V45h-6.9v6.8h6.2v1.1h-6.2v3.3h7.2v1.2h-8.5V43.8z"/>
		<path id="XMLID_364_" class="st0" d="M59.5,50.6c0-4,3-7,6.9-7c2.3,0,4.1,0.9,5.3,2.5l-1,0.7c-1-1.3-2.5-2.1-4.4-2.1
			c-3.2,0-5.5,2.5-5.5,5.8c0,3.3,2.4,5.8,5.6,5.8c2,0,3.5-0.8,4.6-2.3l1,0.7c-1.3,1.8-3.2,2.7-5.7,2.7
			C62.5,57.6,59.5,54.6,59.5,50.6z"/>
		<path id="XMLID_362_" class="st0" d="M74.6,43.8h1.3v13.6h-1.3V43.8z"/>
		<path id="XMLID_359_" class="st0" d="M79.7,57.4h-1.3l5.7-13.9h0.1l5.7,13.9h-1.3L87.6,55h-7L79.7,57.4z M84.1,46.3l-3.1,7.5h6.1
			C87.2,53.9,84.1,46.3,84.1,46.3z"/>
		<path id="XMLID_357_" class="st0" d="M92.3,43.8h1.3v12.4h6.3v1.2h-7.6V43.8z"/>
		<path id="XMLID_355_" class="st0" d="M102.4,43.8h1.3v13.6h-1.3V43.8z"/>
		<path id="XMLID_352_" class="st0" d="M107.3,43.8h3.4c4.5,0,7.2,2.8,7.2,6.8c0,4-2.7,6.8-7.2,6.8h-3.4V43.8z M110.5,56.2
			c4,0,5.9-2.3,5.9-5.6c0-3.3-1.9-5.6-5.9-5.6h-2v11.2H110.5z"/>
		<path id="XMLID_349_" class="st0" d="M119.8,57.4h-1.3l5.7-13.9h0.1l5.7,13.9h-1.3l-0.9-2.4h-7L119.8,57.4z M124.3,46.3l-3.1,7.5
			h6.1C127.4,53.9,124.3,46.3,124.3,46.3z"/>
		<path id="XMLID_346_" class="st0" d="M132.4,43.8h3.4c4.5,0,7.2,2.8,7.2,6.8c0,4-2.7,6.8-7.2,6.8h-3.4V43.8z M135.7,56.2
			c4,0,5.9-2.3,5.9-5.6c0-3.3-1.9-5.6-5.9-5.6h-2v11.2H135.7z"/>
		<path id="XMLID_344_" class="st0" d="M145.7,43.8h8.2V45H147v6.8h6.2v1.1H147v3.3h7.2v1.2h-8.5V43.8z"/>
		<path id="XMLID_342_" class="st0" d="M157,54.2c0.7,1.4,2,2.1,3.6,2.1c1.9,0,3-0.9,3-2.3c0-1.5-0.9-2.2-2.6-2.9l-1.1-0.5
			c-2-0.9-3.1-1.8-3.1-3.7c0-1.9,1.5-3.2,3.5-3.2c1.7,0,2.9,0.6,3.7,2l-1,0.6c-0.6-1-1.5-1.5-2.7-1.5c-1.3,0-2.2,0.9-2.2,2.1
			c0,1.3,0.7,1.8,2.4,2.6l1.1,0.5c2.2,1,3.3,2,3.3,4.1c0,2.2-1.7,3.6-4.2,3.6c-2.2,0-3.8-1.1-4.7-2.7L157,54.2z"/>
	</g>
</g>
</svg>
