<?xml version="1.0" encoding="utf-8"?>
<!-- Generator: Adobe Illustrator 19.0.0, SVG Export Plug-In . SVG Version: 6.00 Build 0)  -->
<svg version="1.1" id="Layer_1" xmlns="http://www.w3.org/2000/svg" xmlns:xlink="http://www.w3.org/1999/xlink" x="0px" y="0px"
	 viewBox="0 0 176 75.2" style="enable-background:new 0 0 176 75.2;" xml:space="preserve">
<style type="text/css">
	.st0{fill:#24688E;}
</style>
<g id="XMLID_16_">
	<g id="XMLID_293_">
		<path id="XMLID_318_" class="st0" d="M27.4,57.7l-0.9,0.8l-2.3-2.4c-1.1,0.8-2.5,1.2-4,1.2c-3.9,0-7-2.9-7-7c0-4,3.1-7,7-7
			c3.9,0,7,2.9,7,7c0,2-0.8,3.7-2,5L27.4,57.7z M21.7,53.4l0.9-0.8l1.7,1.8c0.9-1,1.5-2.4,1.5-4.1c0-3.3-2.4-5.8-5.6-5.8
			c-3.2,0-5.6,2.5-5.6,5.8c0,3.3,2.4,5.8,5.6,5.8c1.2,0,2.3-0.3,3.2-0.9L21.7,53.4z"/>
		<path id="XMLID_316_" class="st0" d="M29.7,52.5v-9H31v8.9c0,2.5,1.4,3.7,3.5,3.7c2.1,0,3.5-1.2,3.5-3.7v-8.9h1.3v9
			c0,3.2-2.1,4.8-4.8,4.8S29.7,55.7,29.7,52.5z"/>
		<path id="XMLID_314_" class="st0" d="M42.7,43.5h1.3v13.6h-1.3V43.5z"/>
		<path id="XMLID_312_" class="st0" d="M47.6,43.5h8.2v1.2h-6.9v6.8h6.2v1.1h-6.2V56h7.2v1.2h-8.5V43.5z"/>
		<path id="XMLID_310_" class="st0" d="M60.1,46.4v10.7h-1.2V43.3H59l9.2,11V43.5h1.2v13.9h-0.1L60.1,46.4z"/>
		<path id="XMLID_308_" class="st0" d="M72.8,43.5H81v1.2h-6.9v6.8h6.2v1.1h-6.2V56h7.2v1.2h-8.5V43.5z"/>
		<path id="XMLID_306_" class="st0" d="M84.2,54c0.7,1.4,2,2.1,3.6,2.1c1.9,0,3-0.9,3-2.3c0-1.5-0.9-2.2-2.6-2.9l-1.1-0.5
			c-2-0.9-3.1-1.8-3.1-3.7c0-1.9,1.5-3.2,3.5-3.2c1.7,0,2.9,0.6,3.7,2l-1,0.6c-0.6-1-1.5-1.5-2.7-1.5c-1.3,0-2.2,0.9-2.2,2.1
			c0,1.3,0.7,1.8,2.4,2.6l1.1,0.5c2.2,1,3.3,2,3.3,4.1c0,2.2-1.7,3.6-4.2,3.6c-2.2,0-3.8-1.1-4.7-2.7L84.2,54z"/>
		<path id="XMLID_304_" class="st0" d="M98.3,54c0.7,1.4,2,2.1,3.6,2.1c1.9,0,3-0.9,3-2.3c0-1.5-0.9-2.2-2.6-2.9l-1.1-0.5
			c-2-0.9-3.1-1.8-3.1-3.7c0-1.9,1.5-3.2,3.5-3.2c1.7,0,2.9,0.6,3.7,2l-1,0.6c-0.6-1-1.5-1.5-2.7-1.5c-1.3,0-2.2,0.9-2.2,2.1
			c0,1.3,0.7,1.8,2.4,2.6l1.1,0.5c2.2,1,3.3,2,3.3,4.1c0,2.2-1.7,3.6-4.2,3.6c-2.2,0-3.8-1.1-4.7-2.7L98.3,54z"/>
		<path id="XMLID_301_" class="st0" d="M107.8,50.3c0-4,3.1-7,7-7c3.9,0,7,2.9,7,7c0,4-3.1,7-7,7C110.9,57.3,107.8,54.4,107.8,50.3z
			 M120.4,50.3c0-3.3-2.4-5.8-5.6-5.8c-3.2,0-5.6,2.5-5.6,5.8c0,3.3,2.4,5.8,5.6,5.8C118,56.1,120.4,53.6,120.4,50.3z"/>
		<path id="XMLID_299_" class="st0" d="M125.3,43.3L125.3,43.3l5.3,9.3l5.2-9.3h0.1l1.5,13.9h-1.3l-1.1-10.4l-4.4,8h-0.1l-4.4-8
			L125,57.1h-1.2L125.3,43.3z"/>
		<path id="XMLID_296_" class="st0" d="M139.3,50.3c0-4,3.1-7,7-7c3.9,0,7,2.9,7,7c0,4-3.1,7-7,7C142.4,57.3,139.3,54.4,139.3,50.3z
			 M151.9,50.3c0-3.3-2.4-5.8-5.6-5.8c-3.2,0-5.6,2.5-5.6,5.8c0,3.3,2.4,5.8,5.6,5.8C149.5,56.1,151.9,53.6,151.9,50.3z"/>
		<path id="XMLID_294_" class="st0" d="M155.5,54c0.7,1.4,2,2.1,3.6,2.1c1.9,0,3-0.9,3-2.3c0-1.5-0.9-2.2-2.6-2.9l-1.1-0.5
			c-2-0.9-3.1-1.8-3.1-3.7c0-1.9,1.5-3.2,3.5-3.2c1.7,0,2.9,0.6,3.7,2l-1,0.6c-0.6-1-1.5-1.5-2.7-1.5c-1.3,0-2.2,0.9-2.2,2.1
			c0,1.3,0.7,1.8,2.4,2.6l1.1,0.5c2.2,1,3.3,2,3.3,4.1c0,2.2-1.7,3.6-4.2,3.6c-2.2,0-3.8-1.1-4.7-2.7L155.5,54z"/>
	</g>
</g>
</svg>
