<?xml version="1.0" encoding="utf-8"?>
<!-- Generator: Adobe Illustrator 19.0.0, SVG Export Plug-In . SVG Version: 6.00 Build 0)  -->
<svg version="1.1" id="Layer_1" xmlns="http://www.w3.org/2000/svg" xmlns:xlink="http://www.w3.org/1999/xlink" x="0px" y="0px"
	 viewBox="0 0 125.5 75.2" style="enable-background:new 0 0 125.5 75.2;" xml:space="preserve">
<style type="text/css">
	.st0{fill:#3185FF;}
</style>
<g id="XMLID_92_">
	<path id="XMLID_93_" class="st0" d="M11.2,50.9c0-4,3-7,6.9-7c2.3,0,4.1,0.9,5.3,2.5l-1,0.7c-1-1.3-2.5-2.1-4.4-2.1
		c-3.2,0-5.5,2.5-5.5,5.8c0,3.3,2.4,5.8,5.6,5.8c2,0,3.5-0.8,4.6-2.3l1,0.7c-1.3,1.8-3.2,2.7-5.7,2.7C14.3,57.9,11.2,55,11.2,50.9z"
		/>
	<path id="XMLID_95_" class="st0" d="M25,50.9c0-4,3.1-7,7-7c3.9,0,7,2.9,7,7c0,4-3.1,7-7,7C28.1,57.9,25,55,25,50.9z M37.6,50.9
		c0-3.3-2.4-5.8-5.6-5.8c-3.2,0-5.6,2.5-5.6,5.8c0,3.3,2.4,5.8,5.6,5.8C35.2,56.7,37.6,54.2,37.6,50.9z"/>
	<path id="XMLID_98_" class="st0" d="M42.8,47v10.7h-1.2V43.8h0.1l9.2,11V44.1H52V58h-0.1L42.8,47z"/>
	<path id="XMLID_100_" class="st0" d="M58.5,45.3h-4.2v-1.2H64v1.2h-4.2v12.4h-1.3V45.3z"/>
	<path id="XMLID_102_" class="st0" d="M64.7,57.7h-1.3l5.7-13.9h0.1L75,57.7h-1.3l-0.9-2.4h-7L64.7,57.7z M69.2,46.7l-3.1,7.5h6.1
		C72.2,54.2,69.2,46.7,69.2,46.7z"/>
	<path id="XMLID_105_" class="st0" d="M75.5,50.9c0-4,3-7,6.9-7c2.3,0,4.1,0.9,5.3,2.5l-1,0.7c-1-1.3-2.5-2.1-4.4-2.1
		c-3.2,0-5.5,2.5-5.5,5.8c0,3.3,2.4,5.8,5.6,5.8c2,0,3.5-0.8,4.6-2.3l1,0.7c-1.3,1.8-3.2,2.7-5.7,2.7C78.5,57.9,75.5,55,75.5,50.9z"
		/>
	<path id="XMLID_108_" class="st0" d="M93.3,45.3h-4.2v-1.2h9.7v1.2h-4.2v12.4h-1.3V45.3z"/>
	<path id="XMLID_111_" class="st0" d="M99.3,50.9c0-4,3.1-7,7-7c3.9,0,7,2.9,7,7c0,4-3.1,7-7,7C102.4,57.9,99.3,55,99.3,50.9z
		 M111.9,50.9c0-3.3-2.4-5.8-5.6-5.8c-3.2,0-5.6,2.5-5.6,5.8c0,3.3,2.4,5.8,5.6,5.8C109.5,56.7,111.9,54.2,111.9,50.9z"/>
</g>
<path id="XMLID_385_" class="st0" d="M72.4,16.8c-0.3-1.7-1.5-3.6-3.6-4c-1.4-0.3-2.8,0.2-4.1,0.7c-0.9,0.4-1.8,0.7-2.7,0.7
	c-0.9,0-1.8-0.2-2.7-0.5c-1.3-0.4-2.7-0.8-4.1-0.4c-2,0.6-3.1,2.6-3.3,4.3c-0.1,1.2,0.3,2.5,0.7,3.9c0.2,0.6,0.4,1.3,0.6,1.9
	c0,0.1,0,0.1,0.1,0.1c0.2,0.6,0.7,2.1,1.4,4.4l0.6,2.2c0.1,0.4,0.2,0.8,0.3,1.2c0.1,0.2,0.1,0.4,0.2,0.6c0,0,0,0.1,0.1,0.2
	c0,0.1,0,0.1,0.1,0.2l0.1,0.3c0.2,0.5,0.5,0.8,0.8,1.1c0.3,0.4,0.8,0.6,1.2,0.8c0.5,0.2,1,0.3,1.5,0.2c0.5,0,1-0.2,1.4-0.3
	c0.1,0,0.2-0.1,0.3-0.2c0.6,0.4,1.1,0.7,1.6,0.9l0.4,0.2l0.4,0.1c0.1,0,0.3,0.1,0.5,0.1l0.2,0c0.1,0,0.1,0,0.1,0l0.1,0
	c0.1,0,0.1,0,0.2,0c0.5,0,1.1-0.1,1.5-0.3c0.1,0,0.2-0.1,0.3-0.1l0.1-0.1c0.1,0,0.2-0.1,0.3-0.2l0.1-0.1c0.1-0.1,0.2-0.2,0.4-0.3
	l0.1-0.1c0.1-0.1,0.2-0.1,0.2-0.2c0.3-0.4,0.6-0.8,0.9-1.3l0.1-0.3c0,0,0,0,0-0.1l0,0c0-0.1,0.1-0.1,0.1-0.2c0,0,0-0.1,0-0.1l0,0
	l0.2-0.7c0.1-0.4,0.2-0.8,0.3-1.2c0-0.2,0.1-0.6,0.2-1c0.3-1.2,0.6-2.7,0.7-3.1c0.1-0.6,0.5-2.9,0.7-3.3c0.1-0.2,0.2-0.5,0.3-0.8
	C72.4,19.9,72.6,18.3,72.4,16.8z M60,33.1C60,33.1,60,33.1,60,33.1c-0.1,0-0.1,0-0.1,0c0,0-0.1,0-0.1,0l-0.1,0c0,0,0,0-0.1,0l-0.1,0
	c-0.3,0-0.6,0-0.9-0.1c-0.5-0.2-1-0.6-1.4-1.3L57,31.4l0,0l0,0l0,0c0,0,0,0,0,0l0,0l0,0c0,0,0,0,0,0l-0.2-0.5
	c-0.1-0.4-0.3-0.8-0.4-1.1c-0.2-0.7-0.5-1.4-0.7-2.1l0-0.1c0-0.1,0-0.1,0-0.1c0.4,0.7,0.8,1.3,1.2,1.9c0.4,0.6,1,1.3,1.6,2
	c0.5,0.6,1,1.2,1.7,1.7L60,33.1z M69.3,27.3c-0.1,0.3-0.2,0.8-0.3,1.3c-0.1,0.5-0.3,1-0.4,1.4c-0.1,0.4-0.2,0.8-0.3,1.2
	c-0.1,0.2-0.1,0.4-0.2,0.6c0,0,0,0,0,0.1l0,0.1c0,0,0,0,0,0.1c0,0,0,0,0,0l-0.2,0.3c-0.2,0.4-0.5,0.7-0.7,1c-0.3,0.3-0.6,0.5-1,0.7
	c-0.4,0.1-0.8,0.2-1.3,0.2c-0.1,0-0.2,0-0.3,0l-0.1,0c-0.1,0-0.1,0-0.2,0l-0.3-0.1l-0.3-0.1c-0.3-0.1-0.6-0.3-0.9-0.4
	c0.2-0.2,0.5-0.4,0.7-0.6c0.6-0.5,1.2-1.1,1.9-1.9c0.9-1,1.7-2.1,2.4-3c0.2-0.2,0.4-0.5,0.5-0.7c0.3-0.4,0.5-0.6,0.7-0.9
	c0.2-0.2,0.3-0.4,0.5-0.7C69.5,25.9,69.5,26.4,69.3,27.3z M70.4,21.5L70.4,21.5c-0.1,0.2-0.4,1-0.7,1.8c-0.4,1.2-1.6,2.6-2.1,3.2
	l-0.1,0.1c-0.4,0.5-0.9,1-1.4,1.6l0,0.1c-0.5,0.6-1.1,1.1-1.7,1.8c-0.5,0.5-1.1,1.1-1.9,1.7c-0.4,0.3-0.7,0.5-1.1,0.8
	c-0.1,0-0.1-0.1-0.2-0.1c-0.6-0.5-1.2-1.1-1.9-1.8c-1-1.1-2-2.3-3-3.6c-0.8-1.1-1.5-2.9-1.7-3.8c-0.2-0.7-0.4-1.4-0.6-2.1
	c-0.4-1.2-0.8-2.4-0.7-3.3c0.1-0.5,0.2-1,0.4-1.4c0.2-0.4,0.4-0.7,0.7-0.9c0.3-0.3,0.6-0.5,1-0.7c0.4-0.1,0.8-0.2,1.3-0.2
	c0.1,0,0.2,0,0.3,0l0.1,0c0.1,0,0.1,0,0.2,0l0.3,0.1l0.3,0.1c0.9,0.4,1.7,1,2.2,1.4c0.6,0.5,1.2,1.1,1.9,1.8c1,1.1,2,2.3,3,3.6
	c0.9,1.3,1.5,2.3,1.8,2.8c0.2,0.4,0.3,0.6,0.4,0.8c0,0.1,0.1,0.2,0.1,0.2l0,0.1c0,0.1,0.1,0.1,0.2,0.1c0,0,0,0,0.1,0
	c0.1,0,0.2-0.2,0.2-0.3l0-0.1c0-0.1,0-0.2-0.1-0.3c0,0,0,0,0,0c-0.1-0.2-0.2-0.5-0.3-0.9c-0.2-0.4-0.4-0.8-0.6-1.4
	c-0.3-0.6-0.6-1.2-0.9-1.7c-0.4-0.7-0.8-1.4-1.2-1.9c-0.4-0.6-1-1.3-1.6-2c-0.5-0.6-1-1.1-1.6-1.6c0.2,0,0.4,0,0.6,0
	c1.1,0,2.1-0.4,3.1-0.8c1.1-0.4,2.2-0.8,3.2-0.6c1.2,0.3,2.2,1.4,2.5,2.9C71.2,18.4,71,19.8,70.4,21.5z"/>
</svg>
