<?xml version="1.0" encoding="utf-8"?>
<!-- Generator: Adobe Illustrator 19.0.0, SVG Export Plug-In . SVG Version: 6.00 Build 0)  -->
<svg version="1.1" id="Layer_1" xmlns="http://www.w3.org/2000/svg" xmlns:xlink="http://www.w3.org/1999/xlink" x="0px" y="0px"
	 viewBox="0 0 176 75.2" style="enable-background:new 0 0 176 75.2;" xml:space="preserve">
<style type="text/css">
	.st0{fill:#3185FF;}
</style>
<path id="XMLID_385_" class="st0" d="M98.2,16.8c-0.3-1.7-1.5-3.6-3.6-4c-1.4-0.3-2.8,0.2-4.1,0.7c-0.9,0.4-1.8,0.7-2.7,0.7
	c-0.9,0-1.8-0.2-2.7-0.5c-1.3-0.4-2.7-0.8-4.1-0.4c-2,0.6-3.1,2.6-3.3,4.3c-0.1,1.2,0.3,2.5,0.7,3.9c0.2,0.6,0.4,1.3,0.6,1.9
	c0,0.1,0,0.1,0.1,0.1c0.2,0.6,0.7,2.1,1.4,4.4l0.6,2.2c0.1,0.4,0.2,0.8,0.3,1.2c0.1,0.2,0.1,0.4,0.2,0.6c0,0,0,0.1,0.1,0.2
	c0,0.1,0,0.1,0.1,0.2l0.1,0.3c0.2,0.5,0.5,0.8,0.8,1.1c0.3,0.4,0.8,0.6,1.2,0.8c0.5,0.2,1,0.3,1.5,0.2c0.5,0,1-0.2,1.4-0.3
	c0.1,0,0.2-0.1,0.3-0.2c0.6,0.4,1.1,0.7,1.6,0.9l0.4,0.2l0.4,0.1c0.1,0,0.3,0.1,0.5,0.1l0.2,0c0.1,0,0.1,0,0.1,0l0.1,0
	c0.1,0,0.1,0,0.2,0c0.5,0,1.1-0.1,1.5-0.3c0.1,0,0.2-0.1,0.3-0.1l0.1-0.1c0.1,0,0.2-0.1,0.3-0.2l0.1-0.1c0.1-0.1,0.2-0.2,0.4-0.3
	l0.1-0.1c0.1-0.1,0.2-0.1,0.2-0.2c0.3-0.4,0.6-0.8,0.9-1.3l0.1-0.3c0,0,0,0,0-0.1l0,0c0-0.1,0.1-0.1,0.1-0.2c0,0,0-0.1,0-0.1l0,0
	l0.2-0.7c0.1-0.4,0.2-0.8,0.3-1.2c0-0.2,0.1-0.6,0.2-1c0.3-1.2,0.6-2.7,0.7-3.1c0.1-0.6,0.5-2.9,0.7-3.3c0.1-0.2,0.2-0.5,0.3-0.8
	C98.3,19.9,98.5,18.3,98.2,16.8z M85.9,33.1C85.9,33.1,85.9,33.1,85.9,33.1c-0.1,0-0.1,0-0.1,0c0,0-0.1,0-0.1,0l-0.1,0
	c0,0,0,0-0.1,0l-0.1,0c-0.3,0-0.6,0-0.9-0.1c-0.5-0.2-1-0.6-1.4-1.3l-0.2-0.4l0,0l0,0l0,0c0,0,0,0,0,0l0,0l0,0c0,0,0,0,0,0l-0.2-0.5
	c-0.1-0.4-0.3-0.8-0.4-1.1c-0.2-0.7-0.5-1.4-0.7-2.1l0-0.1c0-0.1,0-0.1,0-0.1c0.4,0.7,0.8,1.3,1.2,1.9c0.4,0.6,1,1.3,1.6,2
	c0.5,0.6,1,1.2,1.7,1.7L85.9,33.1z M95.1,27.3c-0.1,0.3-0.2,0.8-0.3,1.3c-0.1,0.5-0.3,1-0.4,1.4c-0.1,0.4-0.2,0.8-0.3,1.2
	c-0.1,0.2-0.1,0.4-0.2,0.6c0,0,0,0,0,0.1l0,0.1c0,0,0,0,0,0.1c0,0,0,0,0,0l-0.2,0.3c-0.2,0.4-0.5,0.7-0.7,1c-0.3,0.3-0.6,0.5-1,0.7
	c-0.4,0.1-0.8,0.2-1.3,0.2c-0.1,0-0.2,0-0.3,0l-0.1,0c-0.1,0-0.1,0-0.2,0l-0.3-0.1l-0.3-0.1c-0.3-0.1-0.6-0.3-0.9-0.4
	c0.2-0.2,0.5-0.4,0.7-0.6c0.6-0.5,1.2-1.1,1.9-1.9c0.9-1,1.7-2.1,2.4-3c0.2-0.2,0.4-0.5,0.5-0.7c0.3-0.4,0.5-0.6,0.7-0.9
	c0.2-0.2,0.3-0.4,0.5-0.7C95.4,25.9,95.4,26.4,95.1,27.3z M96.2,21.5L96.2,21.5c-0.1,0.2-0.4,1-0.7,1.8c-0.4,1.2-1.6,2.6-2.1,3.2
	l-0.1,0.1c-0.4,0.5-0.9,1-1.4,1.6l0,0.1c-0.5,0.6-1.1,1.1-1.7,1.8c-0.5,0.5-1.1,1.1-1.9,1.7c-0.4,0.3-0.7,0.5-1.1,0.8
	c-0.1,0-0.1-0.1-0.2-0.1c-0.6-0.5-1.2-1.1-1.9-1.8c-1-1.1-2-2.3-3-3.6c-0.8-1.1-1.5-2.9-1.7-3.8c-0.2-0.7-0.4-1.4-0.6-2.1
	c-0.4-1.2-0.8-2.4-0.7-3.3c0.1-0.5,0.2-1,0.4-1.4c0.2-0.4,0.4-0.7,0.7-0.9c0.3-0.3,0.6-0.5,1-0.7c0.4-0.1,0.8-0.2,1.3-0.2
	c0.1,0,0.2,0,0.3,0l0.1,0c0.1,0,0.1,0,0.2,0l0.3,0.1l0.3,0.1c0.9,0.4,1.7,1,2.2,1.4c0.6,0.5,1.2,1.1,1.9,1.8c1,1.1,2,2.3,3,3.6
	c0.9,1.3,1.5,2.3,1.8,2.8c0.2,0.4,0.3,0.6,0.4,0.8c0,0.1,0.1,0.2,0.1,0.2l0,0.1c0,0.1,0.1,0.1,0.2,0.1c0,0,0,0,0.1,0
	c0.1,0,0.2-0.2,0.2-0.3l0-0.1c0-0.1,0-0.2-0.1-0.3c0,0,0,0,0,0c-0.1-0.2-0.2-0.5-0.3-0.9c-0.2-0.4-0.4-0.8-0.6-1.4
	c-0.3-0.6-0.6-1.2-0.9-1.7c-0.4-0.7-0.8-1.4-1.2-1.9c-0.4-0.6-1-1.3-1.6-2c-0.5-0.6-1-1.1-1.6-1.6c0.2,0,0.4,0,0.6,0
	c1.1,0,2.1-0.4,3.1-0.8c1.1-0.4,2.2-0.8,3.2-0.6c1.2,0.3,2.2,1.4,2.5,2.9C97.1,18.4,96.9,19.8,96.2,21.5z"/>
<g id="XMLID_16_">
	<path id="XMLID_17_" class="st0" d="M27.4,57.7l-0.9,0.8l-2.3-2.4c-1.1,0.8-2.5,1.2-4,1.2c-3.9,0-7-2.9-7-7c0-4,3.1-7,7-7
		c3.9,0,7,2.9,7,7c0,2-0.8,3.7-2,5L27.4,57.7z M21.7,53.4l0.9-0.8l1.7,1.8c0.9-1,1.5-2.4,1.5-4.1c0-3.3-2.4-5.8-5.6-5.8
		c-3.2,0-5.6,2.5-5.6,5.8c0,3.3,2.4,5.8,5.6,5.8c1.2,0,2.3-0.3,3.2-0.9L21.7,53.4z"/>
	<path id="XMLID_20_" class="st0" d="M29.7,52.5v-9H31v8.9c0,2.5,1.4,3.7,3.5,3.7c2.1,0,3.5-1.2,3.5-3.7v-8.9h1.3v9
		c0,3.2-2.1,4.8-4.8,4.8S29.7,55.7,29.7,52.5z"/>
	<path id="XMLID_22_" class="st0" d="M42.7,43.5h1.3v13.6h-1.3V43.5z"/>
	<path id="XMLID_24_" class="st0" d="M47.6,43.5h8.2v1.2h-6.9v6.8h6.2v1.1h-6.2V56h7.2v1.2h-8.5V43.5z"/>
	<path id="XMLID_26_" class="st0" d="M60.1,46.4v10.7h-1.2V43.3H59l9.2,11V43.5h1.2v13.9h-0.1L60.1,46.4z"/>
	<path id="XMLID_28_" class="st0" d="M72.8,43.5H81v1.2h-6.9v6.8h6.2v1.1h-6.2V56h7.2v1.2h-8.5V43.5z"/>
	<path id="XMLID_64_" class="st0" d="M84.2,54c0.7,1.4,2,2.1,3.6,2.1c1.9,0,3-0.9,3-2.3c0-1.5-0.9-2.2-2.6-2.9l-1.1-0.5
		c-2-0.9-3.1-1.8-3.1-3.7c0-1.9,1.5-3.2,3.5-3.2c1.7,0,2.9,0.6,3.7,2l-1,0.6c-0.6-1-1.5-1.5-2.7-1.5c-1.3,0-2.2,0.9-2.2,2.1
		c0,1.3,0.7,1.8,2.4,2.6l1.1,0.5c2.2,1,3.3,2,3.3,4.1c0,2.2-1.7,3.6-4.2,3.6c-2.2,0-3.8-1.1-4.7-2.7L84.2,54z"/>
	<path id="XMLID_69_" class="st0" d="M98.3,54c0.7,1.4,2,2.1,3.6,2.1c1.9,0,3-0.9,3-2.3c0-1.5-0.9-2.2-2.6-2.9l-1.1-0.5
		c-2-0.9-3.1-1.8-3.1-3.7c0-1.9,1.5-3.2,3.5-3.2c1.7,0,2.9,0.6,3.7,2l-1,0.6c-0.6-1-1.5-1.5-2.7-1.5c-1.3,0-2.2,0.9-2.2,2.1
		c0,1.3,0.7,1.8,2.4,2.6l1.1,0.5c2.2,1,3.3,2,3.3,4.1c0,2.2-1.7,3.6-4.2,3.6c-2.2,0-3.8-1.1-4.7-2.7L98.3,54z"/>
	<path id="XMLID_71_" class="st0" d="M107.8,50.3c0-4,3.1-7,7-7c3.9,0,7,2.9,7,7c0,4-3.1,7-7,7C110.9,57.3,107.8,54.4,107.8,50.3z
		 M120.4,50.3c0-3.3-2.4-5.8-5.6-5.8c-3.2,0-5.6,2.5-5.6,5.8c0,3.3,2.4,5.8,5.6,5.8C118,56.1,120.4,53.6,120.4,50.3z"/>
	<path id="XMLID_74_" class="st0" d="M125.3,43.3L125.3,43.3l5.3,9.3l5.2-9.3h0.1l1.5,13.9h-1.3l-1.1-10.4l-4.4,8h-0.1l-4.4-8
		L125,57.1h-1.2L125.3,43.3z"/>
	<path id="XMLID_91_" class="st0" d="M139.3,50.3c0-4,3.1-7,7-7c3.9,0,7,2.9,7,7c0,4-3.1,7-7,7C142.4,57.3,139.3,54.4,139.3,50.3z
		 M151.9,50.3c0-3.3-2.4-5.8-5.6-5.8c-3.2,0-5.6,2.5-5.6,5.8c0,3.3,2.4,5.8,5.6,5.8C149.5,56.1,151.9,53.6,151.9,50.3z"/>
	<path id="XMLID_94_" class="st0" d="M155.5,54c0.7,1.4,2,2.1,3.6,2.1c1.9,0,3-0.9,3-2.3c0-1.5-0.9-2.2-2.6-2.9l-1.1-0.5
		c-2-0.9-3.1-1.8-3.1-3.7c0-1.9,1.5-3.2,3.5-3.2c1.7,0,2.9,0.6,3.7,2l-1,0.6c-0.6-1-1.5-1.5-2.7-1.5c-1.3,0-2.2,0.9-2.2,2.1
		c0,1.3,0.7,1.8,2.4,2.6l1.1,0.5c2.2,1,3.3,2,3.3,4.1c0,2.2-1.7,3.6-4.2,3.6c-2.2,0-3.8-1.1-4.7-2.7L155.5,54z"/>
</g>
</svg>
