<?xml version="1.0" encoding="utf-8"?>
<!-- Generator: Adobe Illustrator 19.0.0, SVG Export Plug-In . SVG Version: 6.00 Build 0)  -->
<svg version="1.1" id="Layer_1" xmlns="http://www.w3.org/2000/svg" xmlns:xlink="http://www.w3.org/1999/xlink" x="0px" y="0px"
	 viewBox="0 0 81.3 75.2" style="enable-background:new 0 0 81.3 75.2;" xml:space="preserve">
<style type="text/css">
	.st0{fill:#3185FF;}
</style>
<g id="XMLID_16_">
	<path id="XMLID_17_" class="st0" d="M13.8,43.8h1.3v13.6h-1.3V43.8z"/>
	<path id="XMLID_19_" class="st0" d="M19.9,46.7v10.7h-1.2V43.5h0.1l9.2,11V43.8h1.2v13.9h-0.1L19.9,46.7z"/>
	<path id="XMLID_21_" class="st0" d="M32.7,43.8h1.3v13.6h-1.3V43.8z"/>
	<path id="XMLID_23_" class="st0" d="M36.7,50.6c0-4,3-7,6.9-7c2.3,0,4.1,0.9,5.3,2.5l-1,0.7c-1-1.3-2.5-2.1-4.4-2.1
		c-3.2,0-5.5,2.5-5.5,5.8c0,3.3,2.4,5.8,5.6,5.8c2,0,3.5-0.8,4.6-2.3l1,0.7c-1.3,1.8-3.2,2.7-5.7,2.7C39.7,57.5,36.7,54.6,36.7,50.6
		z"/>
	<path id="XMLID_25_" class="st0" d="M51.9,43.8h1.3v13.6h-1.3V43.8z"/>
	<path id="XMLID_27_" class="st0" d="M55.8,50.6c0-4,3.1-7,7-7c3.9,0,7,2.9,7,7c0,4-3.1,7-7,7C59,57.5,55.8,54.6,55.8,50.6z
		 M68.4,50.6c0-3.3-2.4-5.8-5.6-5.8c-3.2,0-5.6,2.5-5.6,5.8c0,3.3,2.4,5.8,5.6,5.8C66.1,56.4,68.4,53.9,68.4,50.6z"/>
</g>
<path id="XMLID_385_" class="st0" d="M51.2,16.8c-0.3-1.7-1.5-3.6-3.6-4c-1.4-0.3-2.8,0.2-4.1,0.7c-0.9,0.4-1.8,0.7-2.7,0.7
	c-0.9,0-1.8-0.2-2.7-0.5c-1.3-0.4-2.7-0.8-4.1-0.4c-2,0.6-3.1,2.6-3.3,4.3c-0.1,1.2,0.3,2.5,0.7,3.9c0.2,0.6,0.4,1.3,0.6,1.9
	c0,0.1,0,0.1,0.1,0.1c0.2,0.6,0.7,2.1,1.4,4.4l0.6,2.2c0.1,0.4,0.2,0.8,0.3,1.2c0.1,0.2,0.1,0.4,0.2,0.6c0,0,0,0.1,0.1,0.2
	c0,0.1,0,0.1,0.1,0.2l0.1,0.3c0.2,0.5,0.5,0.8,0.8,1.1c0.3,0.4,0.8,0.6,1.2,0.8c0.5,0.2,1,0.3,1.5,0.2c0.5,0,1-0.2,1.4-0.3
	c0.1,0,0.2-0.1,0.3-0.2c0.6,0.4,1.1,0.7,1.6,0.9l0.4,0.2l0.4,0.1c0.1,0,0.3,0.1,0.5,0.1l0.2,0c0.1,0,0.1,0,0.1,0l0.1,0
	c0.1,0,0.1,0,0.2,0c0.5,0,1.1-0.1,1.5-0.3c0.1,0,0.2-0.1,0.3-0.1l0.1-0.1c0.1,0,0.2-0.1,0.3-0.2l0.1-0.1c0.1-0.1,0.2-0.2,0.4-0.3
	l0.1-0.1c0.1-0.1,0.2-0.1,0.2-0.2c0.3-0.4,0.6-0.8,0.9-1.3l0.1-0.3c0,0,0,0,0-0.1l0,0c0-0.1,0.1-0.1,0.1-0.2c0,0,0-0.1,0-0.1l0,0
	l0.2-0.7c0.1-0.4,0.2-0.8,0.3-1.2c0-0.2,0.1-0.6,0.2-1c0.3-1.2,0.6-2.7,0.7-3.1c0.1-0.6,0.5-2.9,0.7-3.3c0.1-0.2,0.2-0.5,0.3-0.8
	C51.3,19.9,51.5,18.3,51.2,16.8z M38.8,33.1C38.8,33.1,38.8,33.1,38.8,33.1c-0.1,0-0.1,0-0.1,0c0,0-0.1,0-0.1,0l-0.1,0
	c0,0,0,0-0.1,0l-0.1,0c-0.3,0-0.6,0-0.9-0.1c-0.5-0.2-1-0.6-1.4-1.3l-0.2-0.4l0,0l0,0l0,0c0,0,0,0,0,0l0,0l0,0c0,0,0,0,0,0l-0.2-0.5
	c-0.1-0.4-0.3-0.8-0.4-1.1c-0.2-0.7-0.5-1.4-0.7-2.1l0-0.1c0-0.1,0-0.1,0-0.1c0.4,0.7,0.8,1.3,1.2,1.9c0.4,0.6,1,1.3,1.6,2
	c0.5,0.6,1,1.2,1.7,1.7L38.8,33.1z M48.1,27.3c-0.1,0.3-0.2,0.8-0.3,1.3c-0.1,0.5-0.3,1-0.4,1.4c-0.1,0.4-0.2,0.8-0.3,1.2
	c-0.1,0.2-0.1,0.4-0.2,0.6c0,0,0,0,0,0.1l0,0.1c0,0,0,0,0,0.1c0,0,0,0,0,0l-0.2,0.3c-0.2,0.4-0.5,0.7-0.7,1c-0.3,0.3-0.6,0.5-1,0.7
	c-0.4,0.1-0.8,0.2-1.3,0.2c-0.1,0-0.2,0-0.3,0l-0.1,0c-0.1,0-0.1,0-0.2,0l-0.3-0.1l-0.3-0.1c-0.3-0.1-0.6-0.3-0.9-0.4
	c0.2-0.2,0.5-0.4,0.7-0.6c0.6-0.5,1.2-1.1,1.9-1.9c0.9-1,1.7-2.1,2.4-3c0.2-0.2,0.4-0.5,0.5-0.7c0.3-0.4,0.5-0.6,0.7-0.9
	c0.2-0.2,0.3-0.4,0.5-0.7C48.4,25.9,48.3,26.4,48.1,27.3z M49.2,21.5L49.2,21.5c-0.1,0.2-0.4,1-0.7,1.8c-0.4,1.2-1.6,2.6-2.1,3.2
	l-0.1,0.1c-0.4,0.5-0.9,1-1.4,1.6l0,0.1c-0.5,0.6-1.1,1.1-1.7,1.8c-0.5,0.5-1.1,1.1-1.9,1.7c-0.4,0.3-0.7,0.5-1.1,0.8
	c-0.1,0-0.1-0.1-0.2-0.1c-0.6-0.5-1.2-1.1-1.9-1.8c-1-1.1-2-2.3-3-3.6c-0.8-1.1-1.5-2.9-1.7-3.8c-0.2-0.7-0.4-1.4-0.6-2.1
	c-0.4-1.2-0.8-2.4-0.7-3.3c0.1-0.5,0.2-1,0.4-1.4c0.2-0.4,0.4-0.7,0.7-0.9c0.3-0.3,0.6-0.5,1-0.7c0.4-0.1,0.8-0.2,1.3-0.2
	c0.1,0,0.2,0,0.3,0l0.1,0c0.1,0,0.1,0,0.2,0l0.3,0.1l0.3,0.1c0.9,0.4,1.7,1,2.2,1.4c0.6,0.5,1.2,1.1,1.9,1.8c1,1.1,2,2.3,3,3.6
	c0.9,1.3,1.5,2.3,1.8,2.8c0.2,0.4,0.3,0.6,0.4,0.8c0,0.1,0.1,0.2,0.1,0.2l0,0.1c0,0.1,0.1,0.1,0.2,0.1c0,0,0,0,0.1,0
	c0.1,0,0.2-0.2,0.2-0.3l0-0.1c0-0.1,0-0.2-0.1-0.3c0,0,0,0,0,0c-0.1-0.2-0.2-0.5-0.3-0.9c-0.2-0.4-0.4-0.8-0.6-1.4
	c-0.3-0.6-0.6-1.2-0.9-1.7c-0.4-0.7-0.8-1.4-1.2-1.9c-0.4-0.6-1-1.3-1.6-2c-0.5-0.6-1-1.1-1.6-1.6c0.2,0,0.4,0,0.6,0
	c1.1,0,2.1-0.4,3.1-0.8c1.1-0.4,2.2-0.8,3.2-0.6c1.2,0.3,2.2,1.4,2.5,2.9C50.1,18.4,49.9,19.8,49.2,21.5z"/>
</svg>
