<?xml version="1.0" encoding="utf-8"?>
<!-- Generator: Adobe Illustrator 19.0.0, SVG Export Plug-In . SVG Version: 6.00 Build 0)  -->
<svg version="1.1" id="Layer_1" xmlns="http://www.w3.org/2000/svg" xmlns:xlink="http://www.w3.org/1999/xlink" x="0px" y="0px"
	 viewBox="0 0 293.7 41.7" style="enable-background:new 0 0 293.7 41.7;" xml:space="preserve">
<style type="text/css">
	.st0{fill:#293387;}
</style>
<g id="XMLID_34_">
	<path id="XMLID_91_" class="st0" d="M254.7,27.6h1.3c0.2-0.6,0.4-2.2,0.4-3.5v-0.5c0-0.9-0.4-1.4-1.3-1.4H255
		c-0.9,0-1.3,0.5-1.3,1.4c0,0.8,0.3,1.1,1.1,1.4V27.6z M251.1,27.6h1.3c0.2-0.6,0.4-2.2,0.4-3.5v-0.5c0-0.9-0.5-1.4-1.3-1.4h-0.1
		c-0.9,0-1.3,0.5-1.3,1.4c0,0.8,0.3,1.1,1.1,1.4V27.6z M248,28.4c0-1.2-0.3-2.2-0.9-2.8c-0.6-0.6-1.4-0.9-2.5-0.9
		c-0.6,0-1.2,0.1-1.7,0.4c-0.5,0.2-1.1,0.6-1.6,1v-1.1h-3.2v9.9h3.2v-7c0.3-0.2,0.7-0.4,1-0.4c0.3-0.1,0.6-0.1,0.9-0.1
		c0.4,0,0.7,0,0.9,0.1c0.2,0.1,0.4,0.3,0.5,0.5c0.1,0.2,0.2,0.5,0.2,0.9c0,0.4,0.1,0.8,0.1,1.2v4.9h3.2V28.4z M230.4,20.1l-2.2,3.5
		h2.2l3.1-3.3v-0.2H230.4z M231.2,32.8c-0.3,0.1-0.5,0.1-0.8,0.1c-0.3,0-0.6-0.1-0.9-0.2c-0.3-0.1-0.5-0.3-0.7-0.5
		c-0.2-0.2-0.3-0.6-0.4-1c-0.1-0.4-0.2-0.9-0.2-1.4c0-0.6,0.1-1.1,0.2-1.5c0.1-0.4,0.3-0.7,0.5-0.9c0.2-0.2,0.4-0.4,0.7-0.5
		c0.2-0.1,0.5-0.1,0.8-0.1c0.3,0,0.6,0.1,0.9,0.2c0.3,0.1,0.5,0.3,0.7,0.5c0.2,0.2,0.3,0.5,0.4,0.9c0.1,0.4,0.2,0.9,0.2,1.5
		c0,0.6-0.1,1.1-0.2,1.5c-0.1,0.4-0.3,0.7-0.5,0.9C231.7,32.5,231.5,32.7,231.2,32.8 M234.4,26c-0.9-0.9-2.3-1.4-4-1.4
		c-1.7,0-3,0.5-4,1.4c-1,0.9-1.4,2.2-1.4,3.8c0,1.6,0.5,2.9,1.4,3.8c0.9,0.9,2.3,1.4,4,1.4c1.7,0,3-0.5,4-1.4
		c0.9-0.9,1.4-2.2,1.4-3.8C235.8,28.3,235.3,27,234.4,26 M222.8,21.1h-3.3v2.4h3.3V21.1z M222.7,24.9h-3.2v9.9h3.2V24.9z
		 M215.9,34.9c0.5-0.1,1.1-0.3,1.6-0.6v-2.7H217c-0.1,0.1-0.3,0.2-0.4,0.4c-0.2,0.1-0.3,0.3-0.5,0.4c-0.2,0.1-0.5,0.2-0.8,0.3
		c-0.3,0.1-0.7,0.1-1.1,0.1c-0.9,0-1.5-0.2-2-0.7c-0.5-0.5-0.7-1.2-0.7-2.2c0-0.9,0.2-1.6,0.7-2.2c0.5-0.5,1.1-0.8,1.9-0.8
		c0.4,0,0.7,0,1,0.1c0.3,0.1,0.6,0.2,0.8,0.3c0.3,0.1,0.5,0.3,0.6,0.4c0.2,0.1,0.3,0.3,0.4,0.4h0.4v-2.7c-0.5-0.2-1-0.4-1.6-0.6
		c-0.6-0.1-1.2-0.2-1.9-0.2c-0.8,0-1.5,0.1-2.2,0.3c-0.7,0.2-1.3,0.5-1.8,0.9c-0.6,0.4-1,1-1.3,1.7c-0.3,0.7-0.5,1.5-0.5,2.4
		c0,0.9,0.1,1.6,0.4,2.3c0.3,0.7,0.7,1.2,1.2,1.6c0.5,0.4,1.1,0.7,1.9,0.9c0.7,0.2,1.5,0.3,2.4,0.3C214.8,35.1,215.4,35,215.9,34.9
		 M206.1,28.4c0-1.2-0.3-2.2-0.9-2.8c-0.6-0.6-1.4-0.9-2.5-0.9c-0.6,0-1.2,0.1-1.7,0.4c-0.5,0.2-1.1,0.6-1.6,1v-1.1h-3.2v9.9h3.2v-7
		c0.3-0.2,0.7-0.4,1-0.4c0.3-0.1,0.6-0.1,0.9-0.1c0.4,0,0.7,0,0.9,0.1c0.2,0.1,0.4,0.3,0.5,0.5c0.1,0.2,0.2,0.5,0.2,0.9
		c0,0.4,0.1,0.8,0.1,1.2v4.9h3.2V28.4z M186.7,28.6c0-0.7,0.3-1.2,0.7-1.5c0.4-0.3,0.9-0.5,1.5-0.5c0.7,0,1.1,0.2,1.4,0.5
		c0.3,0.3,0.5,0.8,0.5,1.5H186.7z M193.9,29.4c0-1.5-0.4-2.7-1.2-3.5c-0.8-0.8-2-1.2-3.6-1.2c-1.7,0-3.1,0.5-4.1,1.4
		c-1,1-1.5,2.2-1.5,3.9c0,1.6,0.5,2.9,1.6,3.8c1.1,0.9,2.6,1.3,4.6,1.3c0.8,0,1.5-0.1,2.1-0.2c0.6-0.1,1.3-0.3,2-0.6v-2.5h-0.4
		c-0.4,0.3-0.9,0.5-1.5,0.8c-0.6,0.2-1.3,0.4-1.9,0.4c-1.1,0-1.9-0.2-2.4-0.6c-0.5-0.4-0.8-1-0.9-1.8h7.2V29.4z M179.2,24.9
		l-2.3,6.8l-2.3-6.8h-3.3l3.8,9.9h3.6l3.8-9.9H179.2z M163,28.6c0-0.7,0.3-1.2,0.7-1.5c0.4-0.3,0.9-0.5,1.5-0.5
		c0.7,0,1.1,0.2,1.4,0.5c0.3,0.3,0.5,0.8,0.5,1.5H163z M170.3,29.4c0-1.5-0.4-2.7-1.2-3.5c-0.8-0.8-2-1.2-3.6-1.2
		c-1.7,0-3.1,0.5-4.1,1.4c-1,1-1.5,2.2-1.5,3.9c0,1.6,0.5,2.9,1.6,3.8c1.1,0.9,2.6,1.3,4.6,1.3c0.8,0,1.5-0.1,2.1-0.2
		c0.6-0.1,1.3-0.3,2-0.6v-2.5h-0.4c-0.4,0.3-0.9,0.5-1.5,0.8c-0.6,0.2-1.3,0.4-1.9,0.4c-1.1,0-1.9-0.2-2.4-0.6
		c-0.5-0.4-0.8-1-0.9-1.8h7.2V29.4z M158.7,24.9c-0.1,0-0.2,0-0.4,0c-0.1,0-0.3,0-0.4,0c-0.4,0-0.9,0.1-1.4,0.3
		c-0.5,0.2-1.1,0.6-1.8,1.2v-1.4h-3.2v9.9h3.2v-6.6c0.4-0.1,0.8-0.2,1.1-0.3c0.3-0.1,0.7-0.1,1.2-0.1c0.2,0,0.4,0,0.7,0
		c0.3,0,0.5,0.1,0.6,0.1h0.3V24.9z M145.4,32c-0.4,0.5-1,0.7-1.9,0.7c-0.2,0-0.5,0-0.7,0c-0.2,0-0.5-0.1-0.7-0.2v-5
		c0.3-0.2,0.6-0.3,0.9-0.4c0.3-0.1,0.6-0.1,0.9-0.1c0.7,0,1.2,0.2,1.6,0.6c0.3,0.4,0.5,1.1,0.5,2.1C146,30.8,145.8,31.5,145.4,32
		 M148.3,26c-0.7-0.9-1.6-1.4-2.9-1.4c-0.7,0-1.2,0.1-1.8,0.4c-0.5,0.2-1,0.6-1.5,0.9v-1H139v13.5h3.2v-4.1c0.4,0.2,0.8,0.4,1.2,0.5
		c0.4,0.1,0.9,0.2,1.4,0.2c0.6,0,1.2-0.1,1.7-0.4c0.5-0.2,1-0.6,1.4-1c0.4-0.4,0.7-1,1-1.7c0.2-0.7,0.4-1.4,0.4-2.2
		C149.3,28.2,149,26.9,148.3,26 M126.6,29.6c-2.2,0.3-3.3,1.2-3.3,2.8c0,0.5,0.1,0.8,0.3,1.2c0.2,0.3,0.4,0.6,0.7,0.8
		c0.3,0.2,0.6,0.4,1,0.5c0.4,0.1,0.8,0.2,1.2,0.2c0.7,0,1.3-0.1,1.9-0.4c0.6-0.3,1.1-0.6,1.6-1.2c0,0.2,0,0.3,0,0.5
		c0,0.2,0.1,0.3,0.1,0.4c0.1,0.1,0.2,0.2,0.3,0.3c0.1,0.1,0.3,0.1,0.4,0.2c0.2,0,0.3,0.1,0.5,0.1c0.2,0,0.3,0,0.5-0.1
		c0.2,0,0.3-0.1,0.4-0.1v-0.8c-0.5,0.2-0.8,0.2-0.9,0.1c-0.2-0.1-0.2-0.4-0.2-0.8v-5.1c0-0.5-0.1-1-0.3-1.4
		c-0.2-0.4-0.4-0.7-0.7-0.9c-0.3-0.2-0.7-0.4-1.1-0.5c-0.4-0.1-0.9-0.2-1.3-0.2c-0.5,0-1,0.1-1.4,0.2c-0.4,0.1-0.8,0.3-1.2,0.5
		c-0.3,0.2-0.6,0.6-0.8,1c-0.2,0.4-0.3,0.9-0.4,1.4h1.1c0-0.4,0.1-0.7,0.3-1c0.1-0.3,0.3-0.5,0.6-0.6c0.2-0.2,0.5-0.3,0.8-0.3
		c0.3-0.1,0.7-0.1,1-0.1c0.8,0,1.4,0.2,1.8,0.5c0.4,0.4,0.5,0.8,0.5,1.4c0,0.2,0,0.4-0.1,0.5c0,0.2-0.2,0.3-0.3,0.4
		c-0.2,0.1-0.4,0.1-0.7,0.2c-0.3,0-0.5,0.1-0.7,0.1L126.6,29.6z M129.9,31.4c0,0.5-0.1,0.9-0.3,1.2c-0.2,0.3-0.4,0.6-0.8,0.8
		c-0.3,0.2-0.7,0.4-1.1,0.5c-0.4,0.1-0.8,0.2-1.3,0.2c-0.3,0-0.5,0-0.7-0.1c-0.2-0.1-0.5-0.2-0.6-0.3c-0.2-0.1-0.3-0.3-0.5-0.5
		c-0.1-0.2-0.2-0.5-0.2-0.7c0-0.6,0.2-1.1,0.7-1.4c0.5-0.3,1.1-0.5,1.9-0.6c0.5,0,0.9-0.1,1.4-0.1c0.5-0.1,0.9-0.2,1.4-0.4V31.4z
		 M121,21.9H120v13h1.1V21.9z M107.5,32.4c0,0.4,0.1,0.7,0.2,1c0.1,0.3,0.3,0.6,0.6,0.8c0.2,0.2,0.6,0.4,0.9,0.6
		c0.4,0.1,0.8,0.2,1.2,0.2s0.9,0,1.3-0.1c0.4-0.1,0.7-0.2,1-0.4c0.3-0.2,0.5-0.4,0.7-0.7c0.2-0.3,0.2-0.6,0.2-1
		c0-0.5-0.1-0.9-0.4-1.2c-0.2-0.3-0.6-0.5-0.9-0.7c-0.4-0.2-0.8-0.3-1.2-0.4s-0.8-0.2-1.2-0.3c-0.4-0.1-0.7-0.3-0.9-0.4
		c-0.2-0.2-0.4-0.5-0.4-0.8c0-0.4,0.2-0.7,0.5-1c0.3-0.2,0.7-0.4,1.3-0.4s1,0.1,1.4,0.4c0.4,0.2,0.6,0.7,0.7,1.3h0.9
		c-0.1-0.9-0.4-1.5-1-1.9s-1.2-0.6-2-0.6c-0.9,0-1.5,0.2-2,0.6c-0.5,0.4-0.7,0.9-0.7,1.6c0,0.5,0.1,0.9,0.4,1.2
		c0.2,0.3,0.6,0.5,0.9,0.6c0.4,0.2,0.8,0.3,1.2,0.3c0.4,0.1,0.8,0.2,1.2,0.3s0.7,0.2,0.9,0.4c0.2,0.2,0.4,0.5,0.4,0.8
		c0,0.2,0,0.4-0.1,0.5c-0.1,0.2-0.2,0.3-0.4,0.5s-0.4,0.2-0.6,0.3c-0.2,0.1-0.5,0.1-0.9,0.1c-0.7,0-1.2-0.1-1.6-0.4
		c-0.4-0.3-0.6-0.7-0.8-1.4H107.5z M106.2,31.1c0-1.4-0.3-2.5-0.9-3.2c-0.6-0.7-1.4-1.1-2.5-1.1c-0.6,0-1.1,0.1-1.5,0.3
		c-0.4,0.2-0.8,0.5-1.1,0.9s-0.5,0.8-0.7,1.3c-0.2,0.5-0.2,1-0.2,1.6s0.1,1.1,0.2,1.6s0.4,0.9,0.6,1.3c0.3,0.4,0.7,0.7,1.1,0.9
		c0.5,0.2,1,0.3,1.6,0.3c0.5,0,0.9-0.1,1.3-0.2c0.4-0.1,0.7-0.3,1-0.5c0.3-0.2,0.5-0.5,0.7-0.8c0.2-0.3,0.3-0.7,0.4-1h-1
		c-0.1,0.6-0.4,1-0.8,1.3c-0.4,0.3-0.9,0.5-1.5,0.5c-0.4,0-0.8-0.1-1.1-0.2c-0.3-0.2-0.6-0.4-0.8-0.7c-0.2-0.3-0.4-0.6-0.5-1
		c-0.1-0.4-0.2-0.8-0.2-1.2H106.2z M100.1,30.4c0-0.4,0.1-0.7,0.3-1c0.1-0.3,0.3-0.6,0.5-0.9c0.2-0.2,0.5-0.5,0.8-0.6
		s0.7-0.2,1.1-0.2s0.8,0.1,1.1,0.2c0.3,0.1,0.6,0.3,0.8,0.6c0.2,0.2,0.4,0.5,0.5,0.9c0.1,0.3,0.2,0.7,0.2,1.1H100.1z M90.2,34.8h2.3
		V30c0-0.9-0.3-1.5-0.9-1.9c-0.6-0.4-1.5-0.6-2.8-0.6c-0.5,0-1.1,0-1.6,0.1c-0.5,0.1-0.9,0.2-1.2,0.2v1.7h0.2
		c0.2-0.1,0.5-0.2,0.9-0.3c0.4-0.1,0.8-0.2,1.2-0.2c0.6,0,1.1,0.1,1.4,0.2c0.3,0.2,0.5,0.4,0.5,0.8v0c-0.7,0-1.3,0.1-1.9,0.2
		c-0.6,0.1-1.2,0.2-1.6,0.4c-0.4,0.2-0.8,0.5-1,0.8c-0.2,0.3-0.3,0.8-0.3,1.3c0,0.7,0.2,1.2,0.7,1.6s1,0.6,1.7,0.6
		c0.3,0,0.6,0,0.8-0.1c0.2,0,0.5-0.1,0.7-0.2c0.2-0.1,0.3-0.2,0.5-0.3s0.3-0.2,0.5-0.3V34.8z M89.6,33.3c-0.2,0.1-0.5,0.1-0.7,0.1
		c-0.3,0-0.5,0-0.6-0.1c-0.1,0-0.3-0.1-0.3-0.2c-0.1-0.1-0.2-0.2-0.2-0.3c0-0.1,0-0.2,0-0.4c0-0.2,0.1-0.4,0.2-0.5
		c0.1-0.1,0.3-0.2,0.5-0.3c0.2-0.1,0.5-0.1,0.8-0.2c0.4,0,0.7-0.1,1-0.1V33C90,33.1,89.8,33.2,89.6,33.3 M82.2,27.7l-1.6,4.9
		L79,27.7h-2.4l2.7,7.1h2.6l2.7-7.1H82.2z M75.3,24.9h-2.4v1.7h2.4V24.9z M75.3,27.7H73v7.1h2.3V27.7z M71,31.3
		c-0.3-0.3-0.7-0.6-1.3-0.7c-0.3-0.1-0.5-0.1-0.8-0.2c-0.3,0-0.5-0.1-0.8-0.1c-0.4-0.1-0.7-0.2-0.8-0.3s-0.2-0.2-0.2-0.4
		c0-0.2,0.1-0.3,0.4-0.4c0.3-0.1,0.6-0.2,0.9-0.2c0.4,0,0.9,0.1,1.3,0.2c0.4,0.1,0.8,0.3,1.2,0.6h0.2V28c-0.3-0.1-0.7-0.2-1.1-0.3
		c-0.5-0.1-1-0.2-1.5-0.2c-1.1,0-2,0.2-2.7,0.7c-0.7,0.5-1,1-1,1.7c0,0.5,0.2,1,0.5,1.3c0.3,0.4,0.8,0.6,1.4,0.8
		c0.2,0.1,0.5,0.1,0.8,0.2c0.3,0,0.5,0.1,0.7,0.1c0.4,0.1,0.6,0.1,0.7,0.2c0.1,0.1,0.2,0.2,0.2,0.4c0,0.2-0.1,0.3-0.3,0.4
		c-0.2,0.1-0.5,0.1-1,0.1c-0.3,0-0.7,0-1-0.1c-0.3-0.1-0.6-0.2-0.8-0.3c-0.3-0.1-0.5-0.2-0.6-0.3c-0.2-0.1-0.3-0.2-0.4-0.3h-0.2v1.9
		c0.3,0.1,0.7,0.3,1.2,0.4s1.1,0.2,1.7,0.2c1.1,0,2.1-0.2,2.7-0.7c0.7-0.5,1-1,1-1.8C71.5,32.1,71.3,31.6,71,31.3 M60.9,34.8h2.3V30
		c0-0.9-0.3-1.5-0.9-1.9c-0.6-0.4-1.5-0.6-2.8-0.6c-0.5,0-1.1,0-1.6,0.1c-0.5,0.1-0.9,0.2-1.2,0.2v1.7h0.2c0.2-0.1,0.5-0.2,0.9-0.3
		c0.4-0.1,0.8-0.2,1.2-0.2c0.6,0,1.1,0.1,1.4,0.2c0.3,0.2,0.5,0.4,0.5,0.8v0c-0.7,0-1.3,0.1-1.9,0.2c-0.6,0.1-1.2,0.2-1.6,0.4
		c-0.4,0.2-0.8,0.5-1,0.8c-0.2,0.3-0.3,0.8-0.3,1.3c0,0.7,0.2,1.2,0.7,1.6s1,0.6,1.7,0.6c0.3,0,0.6,0,0.8-0.1c0.2,0,0.5-0.1,0.7-0.2
		c0.2-0.1,0.3-0.2,0.5-0.3s0.3-0.2,0.5-0.3V34.8z M60.3,33.3c-0.2,0.1-0.5,0.1-0.7,0.1c-0.3,0-0.5,0-0.6-0.1s-0.3-0.1-0.3-0.2
		c-0.1-0.1-0.2-0.2-0.2-0.3c0-0.1,0-0.2,0-0.4c0-0.2,0.1-0.4,0.2-0.5c0.1-0.1,0.3-0.2,0.5-0.3c0.2-0.1,0.5-0.1,0.8-0.2
		c0.4,0,0.7-0.1,1-0.1V33C60.7,33.1,60.5,33.2,60.3,33.3 M53,27.7l-1.6,4.9l-1.7-4.9h-2.4l2.7,7.1h2.6l2.7-7.1H53z M46,30.2
		c0-0.9-0.2-1.6-0.7-2c-0.4-0.4-1-0.7-1.8-0.7c-0.5,0-0.9,0.1-1.2,0.3c-0.4,0.2-0.8,0.4-1.2,0.7v-0.8h-2.3v7.1h2.3v-5.1
		c0.2-0.1,0.5-0.3,0.7-0.3c0.2-0.1,0.4-0.1,0.6-0.1c0.3,0,0.5,0,0.7,0.1c0.2,0.1,0.3,0.2,0.4,0.3c0.1,0.1,0.1,0.3,0.2,0.6
		c0,0.3,0,0.6,0,0.9v3.5H46V30.2z M36.8,24.9h-2.4v1.7h2.4V24.9z M36.7,27.7h-2.3v7.1h2.3V27.7z"/>
	<path id="XMLID_36_" class="st0" d="M280.7,13.2c0-0.5,0.2-0.9,0.5-1.2c0.3-0.3,0.8-0.5,1.3-0.5c0.5,0,0.9,0.1,1.2,0.4
		c0.3,0.3,0.4,0.7,0.4,1.2H280.7z M285.1,13.4c0-0.9-0.2-1.5-0.7-2c-0.4-0.5-1.1-0.7-1.9-0.7c-0.9,0-1.6,0.3-2.1,0.9
		c-0.5,0.6-0.8,1.4-0.8,2.3c0,1,0.3,1.8,0.8,2.3c0.6,0.5,1.3,0.8,2.3,0.8c0.4,0,0.8,0,1.1-0.1c0.4-0.1,0.7-0.2,1-0.4v-1.1H285
		c-0.2,0.2-0.5,0.3-0.9,0.5c-0.4,0.2-0.8,0.2-1.2,0.2c-0.3,0-0.6,0-0.8-0.1c-0.3-0.1-0.5-0.2-0.7-0.4c-0.2-0.2-0.3-0.4-0.5-0.7
		c-0.1-0.3-0.2-0.6-0.2-1h4.4V13.4z M278.9,15.9L278.9,15.9c-0.1,0-0.3,0.1-0.4,0.1c-0.2,0-0.4,0.1-0.5,0.1c-0.3,0-0.5,0-0.6-0.1
		s-0.2-0.2-0.3-0.3c-0.1-0.2-0.1-0.3-0.1-0.5s0-0.4,0-0.7v-2.7h2.1v-0.8h-2.1V9.1h-1v1.7h-0.7v0.8h0.7v3.2c0,0.7,0.2,1.3,0.5,1.6
		c0.3,0.3,0.8,0.5,1.4,0.5c0.2,0,0.4,0,0.6,0c0.2,0,0.4-0.1,0.6-0.1V15.9z M273.8,12.9c0-0.7-0.2-1.3-0.5-1.7
		c-0.3-0.4-0.8-0.6-1.5-0.6c-0.4,0-0.7,0.1-1,0.2c-0.3,0.1-0.7,0.4-1,0.6v-0.7h-1v6h1v-4.5c0.3-0.2,0.6-0.4,0.9-0.5s0.6-0.2,0.9-0.2
		c0.3,0,0.5,0,0.7,0.1c0.2,0.1,0.3,0.2,0.4,0.3c0.1,0.1,0.1,0.3,0.2,0.6c0,0.2,0,0.5,0,0.8v3.4h1V12.9z M262.9,13.2
		c0-0.5,0.2-0.9,0.5-1.2c0.3-0.3,0.8-0.5,1.3-0.5c0.5,0,0.9,0.1,1.2,0.4c0.3,0.3,0.4,0.7,0.4,1.2H262.9z M267.3,13.4
		c0-0.9-0.2-1.5-0.7-2c-0.4-0.5-1.1-0.7-1.9-0.7c-0.9,0-1.6,0.3-2.1,0.9c-0.5,0.6-0.8,1.4-0.8,2.3c0,1,0.3,1.8,0.8,2.3
		c0.6,0.5,1.3,0.8,2.3,0.8c0.4,0,0.8,0,1.1-0.1c0.4-0.1,0.7-0.2,1-0.4v-1.1h-0.1c-0.2,0.2-0.5,0.3-0.9,0.5c-0.4,0.2-0.8,0.2-1.2,0.2
		c-0.3,0-0.6,0-0.8-0.1c-0.3-0.1-0.5-0.2-0.7-0.4c-0.2-0.2-0.3-0.4-0.5-0.7c-0.1-0.3-0.2-0.6-0.2-1h4.4V13.4z M260.3,12.9
		c0-0.7-0.2-1.3-0.5-1.7c-0.3-0.4-0.8-0.6-1.5-0.6c-0.4,0-0.7,0.1-1.1,0.2c-0.3,0.2-0.7,0.4-1.1,0.7c-0.1-0.3-0.4-0.5-0.6-0.7
		c-0.3-0.2-0.6-0.3-1-0.3c-0.4,0-0.7,0.1-1,0.2c-0.3,0.1-0.6,0.4-0.9,0.6v-0.7h-1v6h1v-4.5c0.3-0.2,0.6-0.4,0.8-0.5
		c0.3-0.1,0.6-0.2,0.8-0.2c0.3,0,0.5,0,0.7,0.1c0.2,0.1,0.3,0.2,0.4,0.3c0.1,0.1,0.1,0.3,0.1,0.6c0,0.2,0,0.5,0,0.8v3.4h1V13
		c0-0.1,0-0.2,0-0.3c0-0.1,0-0.2,0-0.3c0.3-0.2,0.6-0.4,0.8-0.5c0.3-0.1,0.6-0.2,0.8-0.2c0.3,0,0.5,0,0.7,0.1
		c0.2,0.1,0.3,0.2,0.4,0.3c0.1,0.1,0.1,0.3,0.1,0.6c0,0.2,0,0.5,0,0.7v3.4h1V12.9z M247.8,15.8c-0.3,0.1-0.6,0.2-1,0.2
		c-0.4,0-0.7-0.1-1-0.3c-0.2-0.2-0.3-0.4-0.3-0.8c0-0.3,0.1-0.5,0.3-0.7c0.2-0.2,0.4-0.3,0.7-0.4c0.2-0.1,0.6-0.1,1-0.2
		c0.4,0,0.8-0.1,1.1-0.1v1.7C248.4,15.5,248.1,15.7,247.8,15.8 M249.6,12.7c0-0.4-0.1-0.7-0.2-1c-0.1-0.3-0.3-0.5-0.5-0.6
		c-0.2-0.2-0.5-0.3-0.8-0.4c-0.3-0.1-0.7-0.1-1.1-0.1c-0.4,0-0.7,0-1.1,0.1c-0.4,0.1-0.7,0.1-0.9,0.2v1h0.1c0.3-0.1,0.7-0.2,1-0.3
		c0.3-0.1,0.6-0.1,0.9-0.1c0.2,0,0.4,0,0.6,0c0.2,0,0.4,0.1,0.5,0.2c0.2,0.1,0.3,0.2,0.3,0.4c0.1,0.2,0.1,0.3,0.1,0.6v0.2
		c-0.6,0-1.1,0.1-1.6,0.1c-0.5,0.1-1,0.2-1.3,0.3c-0.4,0.2-0.6,0.4-0.8,0.7c-0.2,0.3-0.3,0.6-0.3,1.1c0,0.6,0.2,1,0.6,1.4
		c0.4,0.4,0.8,0.5,1.4,0.5c0.3,0,0.5,0,0.8-0.1c0.2-0.1,0.4-0.1,0.6-0.2c0.1-0.1,0.3-0.2,0.4-0.3c0.2-0.1,0.3-0.2,0.4-0.3v0.6h1
		V12.7z M243,12.9c0-0.7-0.2-1.3-0.5-1.7c-0.3-0.4-0.8-0.6-1.5-0.6c-0.4,0-0.7,0.1-1.1,0.2c-0.3,0.2-0.7,0.4-1.1,0.7
		c-0.1-0.3-0.4-0.5-0.6-0.7c-0.3-0.2-0.6-0.3-1-0.3c-0.4,0-0.7,0.1-1,0.2c-0.3,0.1-0.6,0.4-0.9,0.6v-0.7h-1v6h1v-4.5
		c0.3-0.2,0.6-0.4,0.8-0.5c0.3-0.1,0.6-0.2,0.8-0.2c0.3,0,0.5,0,0.7,0.1c0.2,0.1,0.3,0.2,0.4,0.3c0.1,0.1,0.1,0.3,0.1,0.6
		c0,0.2,0,0.5,0,0.8v3.4h1V13c0-0.1,0-0.2,0-0.3c0-0.1,0-0.2,0-0.3c0.3-0.2,0.6-0.4,0.8-0.5c0.3-0.1,0.6-0.2,0.8-0.2
		c0.3,0,0.5,0,0.7,0.1c0.2,0.1,0.3,0.2,0.4,0.3c0.1,0.1,0.1,0.3,0.1,0.6c0,0.2,0,0.5,0,0.7v3.4h1V12.9z M232.3,10.8h-1v6h1V10.8z
		 M232.3,8.8h-1.1v1h1.1V8.8z M229.3,12.9c0-0.7-0.2-1.3-0.5-1.7c-0.3-0.4-0.8-0.6-1.5-0.6c-0.4,0-0.7,0.1-1,0.2
		c-0.3,0.1-0.7,0.4-1,0.6v-0.7h-1v6h1v-4.5c0.3-0.2,0.6-0.4,0.9-0.5c0.3-0.1,0.6-0.2,0.9-0.2c0.3,0,0.5,0,0.7,0.1
		c0.2,0.1,0.3,0.2,0.4,0.3c0.1,0.1,0.1,0.3,0.2,0.6c0,0.2,0,0.5,0,0.8v3.4h1V12.9z M222.1,7.8l-1,2h0.8l1.5-2H222.1z M222.3,10.8h-1
		v6h1V10.8z M219.3,12.9c0-0.7-0.2-1.3-0.5-1.7c-0.3-0.4-0.8-0.6-1.5-0.6c-0.4,0-0.7,0.1-1.1,0.2c-0.3,0.2-0.7,0.4-1.1,0.7
		c-0.1-0.3-0.4-0.5-0.6-0.7c-0.3-0.2-0.6-0.3-1-0.3c-0.4,0-0.7,0.1-1,0.2c-0.3,0.1-0.6,0.4-0.9,0.6v-0.7h-1v6h1v-4.5
		c0.3-0.2,0.6-0.4,0.8-0.5c0.3-0.1,0.6-0.2,0.8-0.2c0.3,0,0.5,0,0.7,0.1c0.2,0.1,0.3,0.2,0.4,0.3c0.1,0.1,0.1,0.3,0.1,0.6
		s0,0.5,0,0.8v3.4h1V13c0-0.1,0-0.2,0-0.3c0-0.1,0-0.2,0-0.3c0.3-0.2,0.6-0.4,0.8-0.5c0.3-0.1,0.6-0.2,0.8-0.2c0.3,0,0.5,0,0.7,0.1
		c0.2,0.1,0.3,0.2,0.4,0.3c0.1,0.1,0.1,0.3,0.1,0.6c0,0.2,0,0.5,0,0.7v3.4h1V12.9z M198.6,11.6c-2.2,0.3-3.3,1.2-3.3,2.8
		c0,0.5,0.1,0.8,0.3,1.2c0.2,0.3,0.4,0.6,0.7,0.8c0.3,0.2,0.6,0.4,1,0.5c0.4,0.1,0.8,0.2,1.2,0.2c0.7,0,1.3-0.1,1.9-0.4
		c0.6-0.3,1.1-0.6,1.6-1.2c0,0.2,0,0.3,0,0.5c0,0.2,0.1,0.3,0.1,0.4c0.1,0.1,0.2,0.2,0.3,0.3c0.1,0.1,0.3,0.1,0.4,0.2
		c0.2,0,0.3,0.1,0.5,0.1c0.2,0,0.3,0,0.5-0.1c0.2,0,0.3-0.1,0.4-0.1v-0.8c-0.5,0.2-0.8,0.2-0.9,0.1c-0.1-0.1-0.2-0.4-0.2-0.8v-5.1
		c0-0.5-0.1-1-0.3-1.4c-0.2-0.4-0.4-0.7-0.7-0.9c-0.3-0.2-0.7-0.4-1.1-0.5c-0.4-0.1-0.9-0.2-1.3-0.2c-0.5,0-1,0.1-1.4,0.2
		c-0.5,0.1-0.8,0.3-1.2,0.5c-0.3,0.2-0.6,0.6-0.8,1c-0.2,0.4-0.3,0.9-0.4,1.4h1.1c0-0.4,0.1-0.7,0.3-1c0.2-0.3,0.3-0.5,0.6-0.6
		c0.2-0.2,0.5-0.3,0.8-0.3c0.3-0.1,0.7-0.1,1-0.1c0.8,0,1.4,0.2,1.8,0.5c0.4,0.4,0.5,0.8,0.5,1.4c0,0.2,0,0.4-0.1,0.5
		c0,0.2-0.2,0.3-0.3,0.4c-0.2,0.1-0.4,0.2-0.7,0.2c-0.3,0-0.5,0.1-0.7,0.1L198.6,11.6z M202,13.4c0,0.5-0.1,0.9-0.3,1.2
		c-0.2,0.3-0.4,0.6-0.8,0.8c-0.3,0.2-0.7,0.4-1.1,0.5c-0.4,0.1-0.8,0.2-1.3,0.2c-0.3,0-0.5,0-0.7-0.1c-0.2-0.1-0.5-0.2-0.6-0.3
		c-0.2-0.1-0.3-0.3-0.4-0.5c-0.1-0.2-0.2-0.5-0.2-0.7c0-0.6,0.2-1.1,0.7-1.4c0.5-0.3,1.1-0.5,1.9-0.6c0.5,0,0.9-0.1,1.4-0.1
		c0.5-0.1,0.9-0.2,1.4-0.4V13.4z M192.1,6.5l2.5-2.5h-1.4l-2,2.5H192.1z M193.1,7.5H192v9.3h1.1V7.5z M188.1,9.1L188.1,9.1
		c-0.2-0.3-0.4-0.6-0.6-0.8c-0.2-0.2-0.5-0.4-0.8-0.6c-0.3-0.2-0.6-0.3-0.9-0.4c-0.3-0.1-0.6-0.1-0.9-0.1c-0.8,0-1.4,0.1-1.9,0.4
		c-0.5,0.3-1,0.6-1.3,1c-0.3,0.4-0.6,1-0.7,1.6c-0.2,0.6-0.2,1.2-0.2,1.9c0,0.6,0.1,1.3,0.3,1.9c0.2,0.6,0.4,1.1,0.8,1.6
		c0.3,0.4,0.8,0.8,1.3,1.1c0.5,0.3,1.1,0.4,1.8,0.4c0.7,0,1.3-0.1,1.9-0.4c0.6-0.3,1.1-0.7,1.4-1.3c0,0.5,0,1.1-0.1,1.6
		c-0.1,0.5-0.2,1-0.4,1.4c-0.2,0.4-0.6,0.7-1,1s-1,0.4-1.8,0.4c-0.3,0-0.6,0-0.9-0.1s-0.6-0.1-0.8-0.3s-0.5-0.3-0.6-0.5
		c-0.2-0.2-0.3-0.5-0.4-0.9h-1.2c0,0.3,0.1,0.6,0.3,0.9s0.4,0.6,0.7,0.9c0.3,0.3,0.7,0.5,1.2,0.7c0.5,0.2,1.1,0.3,1.8,0.3
		c0.9,0,1.6-0.1,2.2-0.4c0.6-0.3,1-0.6,1.3-1c0.3-0.4,0.5-0.9,0.7-1.5c0.1-0.6,0.2-1.2,0.2-1.8V7.5h-1.1V9.1z M187.8,13.7
		c-0.1,0.5-0.4,0.9-0.6,1.2c-0.3,0.4-0.6,0.6-1,0.8c-0.4,0.2-0.8,0.3-1.3,0.3c-0.6,0-1.1-0.1-1.5-0.3c-0.4-0.2-0.7-0.5-1-0.9
		c-0.3-0.4-0.5-0.8-0.6-1.3c-0.1-0.5-0.2-1.1-0.1-1.6c0-0.6,0.1-1.1,0.2-1.6c0.2-0.5,0.4-0.8,0.7-1.1c0.3-0.3,0.6-0.5,1-0.7
		c0.4-0.2,0.8-0.2,1.3-0.2c0.5,0,1,0.1,1.4,0.3c0.4,0.2,0.7,0.5,1,0.8c0.3,0.4,0.5,0.8,0.6,1.3s0.2,1,0.2,1.6
		C188.1,12.7,188,13.2,187.8,13.7 M177.6,13.6c-0.1,0.5-0.3,0.9-0.6,1.3c-0.3,0.4-0.6,0.7-1,0.9c-0.4,0.2-0.9,0.3-1.4,0.3
		c-0.5,0-1-0.1-1.4-0.3c-0.4-0.2-0.7-0.5-1-0.8c-0.3-0.3-0.5-0.8-0.6-1.3s-0.2-1-0.2-1.6c0-0.5,0.1-1,0.2-1.5
		c0.1-0.5,0.3-0.9,0.6-1.3c0.3-0.4,0.6-0.7,1-0.9c0.4-0.2,0.9-0.3,1.4-0.3c0.6,0,1.1,0.1,1.5,0.3c0.4,0.2,0.7,0.5,1,0.8
		c0.3,0.4,0.4,0.8,0.6,1.3c0.1,0.5,0.2,1,0.2,1.5C177.7,12.7,177.7,13.1,177.6,13.6 M176.3,16.7c0.5-0.2,1-0.6,1.4-1
		c0.4-0.4,0.7-0.9,0.9-1.5c0.2-0.6,0.3-1.3,0.3-2c0-0.7-0.1-1.3-0.3-1.9c-0.2-0.6-0.4-1.1-0.8-1.6c-0.4-0.4-0.8-0.8-1.4-1
		c-0.5-0.3-1.2-0.4-1.9-0.4c-0.7,0-1.3,0.1-1.9,0.4c-0.5,0.3-1,0.6-1.3,1.1c-0.4,0.4-0.6,1-0.8,1.6c-0.2,0.6-0.3,1.2-0.3,1.9
		c0,0.8,0.1,1.5,0.3,2.1s0.5,1.1,0.9,1.5c0.4,0.4,0.8,0.7,1.4,0.9s1.1,0.3,1.7,0.3C175.2,17.1,175.8,17,176.3,16.7 M168.1,3.9H167
		v13h1.1V3.9z M163.5,13.6c-0.1,0.5-0.3,0.9-0.6,1.3c-0.3,0.4-0.6,0.7-1,0.9c-0.4,0.2-0.9,0.3-1.4,0.3c-0.5,0-1-0.1-1.4-0.3
		c-0.4-0.2-0.7-0.5-1-0.8c-0.3-0.3-0.5-0.8-0.6-1.3s-0.2-1-0.2-1.6c0-0.5,0.1-1,0.2-1.5c0.1-0.5,0.3-0.9,0.6-1.3
		c0.3-0.4,0.6-0.7,1-0.9c0.4-0.2,0.9-0.3,1.4-0.3c0.6,0,1.1,0.1,1.5,0.3c0.4,0.2,0.7,0.5,1,0.8c0.3,0.4,0.4,0.8,0.6,1.3
		c0.1,0.5,0.2,1,0.2,1.5C163.7,12.7,163.7,13.1,163.5,13.6 M162.3,16.7c0.5-0.2,1-0.6,1.4-1c0.4-0.4,0.7-0.9,0.9-1.5
		c0.2-0.6,0.3-1.3,0.3-2c0-0.7-0.1-1.3-0.3-1.9c-0.2-0.6-0.4-1.1-0.8-1.6c-0.4-0.4-0.8-0.8-1.3-1c-0.5-0.3-1.2-0.4-1.9-0.4
		c-0.7,0-1.3,0.1-1.9,0.4c-0.5,0.3-1,0.6-1.3,1.1c-0.4,0.4-0.6,1-0.8,1.6c-0.2,0.6-0.3,1.2-0.3,1.9c0,0.8,0.1,1.5,0.3,2.1
		s0.5,1.1,0.9,1.5c0.4,0.4,0.8,0.7,1.4,0.9s1.1,0.3,1.7,0.3C161.2,17.1,161.8,17,162.3,16.7 M155.1,16c-0.1,0-0.3,0.1-0.4,0.1
		c-0.1,0-0.3,0-0.4,0c-0.2,0-0.4,0-0.5-0.1c-0.1,0-0.2-0.1-0.3-0.2c-0.1-0.1-0.1-0.2-0.1-0.4c0-0.2,0-0.4,0-0.6V8.4h1.7V7.5h-1.7
		V4.9h-1.1v2.6h-1.3v0.9h1.3v6.8c0,0.7,0.1,1.2,0.4,1.4s0.7,0.4,1.2,0.4c0.3,0,0.5,0,0.7-0.1c0.2-0.1,0.4-0.1,0.5-0.1V16z
		 M142.9,11.8c0-0.3,0-0.6,0-0.9c0-0.3,0.1-0.6,0.2-0.9c0.1-0.2,0.2-0.5,0.4-0.7c0.2-0.2,0.3-0.4,0.6-0.6c0.2-0.2,0.5-0.3,0.7-0.4
		c0.3-0.1,0.6-0.2,0.9-0.2c0.9,0,1.5,0.2,1.9,0.6c0.4,0.4,0.6,1.1,0.6,1.9v6.1h1.1v-6.1c0-0.4,0-0.8-0.1-1.1c0-0.4-0.2-0.7-0.4-1
		c-0.3-0.5-0.8-0.8-1.2-1c-0.5-0.2-1-0.3-1.6-0.3c-0.6,0-1.2,0.1-1.7,0.4s-0.9,0.7-1.3,1.1V7.5h-1.1v9.3h1.1V11.8z M138.5,13.6
		c-0.1,0.5-0.3,0.9-0.6,1.3c-0.3,0.4-0.6,0.7-1,0.9c-0.4,0.2-0.9,0.3-1.4,0.3c-0.5,0-1-0.1-1.4-0.3c-0.4-0.2-0.7-0.5-1-0.8
		c-0.3-0.3-0.5-0.8-0.6-1.3s-0.2-1-0.2-1.6c0-0.5,0.1-1,0.2-1.5c0.1-0.5,0.3-0.9,0.6-1.3c0.3-0.4,0.6-0.7,1-0.9
		c0.4-0.2,0.9-0.3,1.4-0.3c0.6,0,1.1,0.1,1.5,0.3c0.4,0.2,0.7,0.5,1,0.8c0.3,0.4,0.4,0.8,0.6,1.3c0.1,0.5,0.2,1,0.2,1.5
		C138.7,12.7,138.6,13.1,138.5,13.6 M137.3,16.7c0.5-0.2,1-0.6,1.4-1c0.4-0.4,0.7-0.9,0.9-1.5c0.2-0.6,0.3-1.3,0.3-2
		c0-0.7-0.1-1.3-0.3-1.9c-0.2-0.6-0.4-1.1-0.8-1.6c-0.4-0.4-0.8-0.8-1.4-1c-0.5-0.3-1.2-0.4-1.9-0.4c-0.7,0-1.3,0.1-1.9,0.4
		c-0.5,0.3-1,0.6-1.4,1.1c-0.4,0.4-0.6,1-0.8,1.6c-0.2,0.6-0.3,1.2-0.3,1.9c0,0.8,0.1,1.5,0.3,2.1c0.2,0.6,0.5,1.1,0.9,1.5
		c0.4,0.4,0.8,0.7,1.4,0.9c0.5,0.2,1.1,0.3,1.7,0.3C136.2,17.1,136.8,17,137.3,16.7 M128,9c-0.3-0.6-0.8-1-1.4-1.3
		c-0.6-0.3-1.2-0.4-1.9-0.4c-0.7,0-1.3,0.1-1.8,0.4c-0.5,0.3-1,0.6-1.3,1.1c-0.3,0.4-0.6,1-0.8,1.6c-0.2,0.6-0.3,1.2-0.3,1.9
		c0,0.7,0.1,1.3,0.2,1.9c0.2,0.6,0.4,1.1,0.7,1.6c0.3,0.4,0.8,0.8,1.3,1c0.5,0.3,1.2,0.4,1.9,0.4c0.3,0,0.6,0,0.9-0.1
		c0.3-0.1,0.6-0.2,0.9-0.4c0.3-0.2,0.6-0.4,0.8-0.6c0.2-0.2,0.4-0.5,0.6-0.8h0v1.6h1.1v-13H128V9z M127.8,13.7
		c-0.1,0.5-0.3,0.9-0.6,1.3c-0.3,0.4-0.6,0.6-1,0.8c-0.4,0.2-0.8,0.3-1.3,0.3c-0.5,0-0.9-0.1-1.3-0.2c-0.4-0.2-0.7-0.4-1-0.7
		c-0.3-0.3-0.5-0.7-0.7-1.1c-0.2-0.5-0.2-1-0.2-1.6c0-0.6,0-1.1,0.1-1.6c0.1-0.5,0.3-1,0.6-1.3c0.3-0.4,0.6-0.7,1-0.9
		c0.4-0.2,0.9-0.3,1.5-0.3c0.5,0,0.9,0.1,1.3,0.3c0.4,0.2,0.7,0.5,1,0.8c0.3,0.4,0.5,0.8,0.6,1.2c0.1,0.5,0.2,1,0.2,1.5
		C128,12.7,128,13.2,127.8,13.7 M117.5,13.6c-0.1,0.5-0.3,0.9-0.6,1.3c-0.3,0.4-0.6,0.7-1,0.9c-0.4,0.2-0.9,0.3-1.4,0.3
		c-0.5,0-1-0.1-1.4-0.3c-0.4-0.2-0.7-0.5-1-0.8c-0.3-0.3-0.5-0.8-0.6-1.3c-0.1-0.5-0.2-1-0.2-1.6c0-0.5,0.1-1,0.2-1.5
		c0.1-0.5,0.3-0.9,0.6-1.3c0.3-0.4,0.6-0.7,1-0.9c0.4-0.2,0.9-0.3,1.4-0.3c0.6,0,1.1,0.1,1.5,0.3c0.4,0.2,0.7,0.5,1,0.8
		c0.3,0.4,0.4,0.8,0.6,1.3c0.1,0.5,0.2,1,0.2,1.5C117.7,12.7,117.6,13.1,117.5,13.6 M116.3,16.7c0.5-0.2,1-0.6,1.4-1
		c0.4-0.4,0.7-0.9,0.9-1.5c0.2-0.6,0.3-1.3,0.3-2c0-0.7-0.1-1.3-0.3-1.9c-0.2-0.6-0.4-1.1-0.8-1.6c-0.4-0.4-0.8-0.8-1.3-1
		c-0.5-0.3-1.2-0.4-1.9-0.4c-0.7,0-1.4,0.1-1.9,0.4c-0.5,0.3-1,0.6-1.4,1.1c-0.4,0.4-0.6,1-0.8,1.6s-0.3,1.2-0.3,1.9
		c0,0.8,0.1,1.5,0.3,2.1c0.2,0.6,0.5,1.1,0.9,1.5c0.4,0.4,0.8,0.7,1.4,0.9c0.5,0.2,1.1,0.3,1.7,0.3C115.2,17.1,115.8,17,116.3,16.7
		 M99.9,12.7c-1.7,0.2-2.5,1-2.5,2.2c0,0.4,0.1,0.7,0.2,0.9c0.1,0.3,0.3,0.5,0.5,0.7c0.2,0.2,0.5,0.3,0.8,0.4s0.6,0.1,0.9,0.1
		c0.5,0,1-0.1,1.5-0.3c0.5-0.2,0.9-0.5,1.2-0.9c0,0.1,0,0.3,0,0.4c0,0.1,0.1,0.2,0.1,0.3c0.1,0.1,0.1,0.2,0.2,0.3s0.2,0.1,0.3,0.1
		c0.1,0,0.2,0,0.4,0c0.1,0,0.2,0,0.4-0.1c0.1,0,0.2-0.1,0.3-0.1v-0.7c-0.4,0.1-0.6,0.2-0.7,0.1c-0.1-0.1-0.2-0.3-0.2-0.6v-3.9
		c0-0.4-0.1-0.8-0.2-1.1c-0.1-0.3-0.3-0.5-0.6-0.7c-0.2-0.2-0.5-0.3-0.8-0.4c-0.3-0.1-0.7-0.1-1-0.1c-0.4,0-0.8,0-1.1,0.1
		c-0.3,0.1-0.7,0.2-0.9,0.4c-0.3,0.2-0.5,0.4-0.7,0.7c-0.2,0.3-0.3,0.7-0.3,1.1h0.9c0-0.3,0.1-0.6,0.2-0.8c0.1-0.2,0.3-0.4,0.4-0.5
		c0.2-0.1,0.4-0.2,0.6-0.3c0.2-0.1,0.5-0.1,0.8-0.1c0.7,0,1.1,0.1,1.4,0.4c0.3,0.3,0.4,0.6,0.4,1.1c0,0.1,0,0.3,0,0.4
		c0,0.2-0.1,0.3-0.3,0.3c-0.1,0.1-0.3,0.1-0.5,0.2c-0.2,0-0.4,0.1-0.6,0.1L99.9,12.7z M102.5,14.1c0,0.4-0.1,0.7-0.2,0.9
		c-0.2,0.3-0.3,0.5-0.6,0.7c-0.2,0.2-0.5,0.3-0.8,0.4c-0.3,0.1-0.6,0.1-1,0.1c-0.2,0-0.4,0-0.6-0.1c-0.2-0.1-0.4-0.1-0.5-0.2
		c-0.1-0.1-0.3-0.2-0.3-0.4c-0.1-0.2-0.1-0.4-0.1-0.6c0-0.5,0.2-0.9,0.5-1.1c0.4-0.2,0.9-0.4,1.5-0.4c0.4,0,0.7-0.1,1.1-0.1
		c0.4,0,0.7-0.1,1.1-0.3V14.1z M95.6,6.7h-0.8v10.1h0.8V6.7z M89.1,13.4c0-1.3-0.3-2.3-0.8-3c-0.6-0.7-1.4-1-2.4-1
		c-0.5,0-1,0.1-1.4,0.3c-0.4,0.2-0.8,0.5-1,0.8c-0.3,0.4-0.5,0.8-0.7,1.2c-0.2,0.5-0.2,1-0.2,1.5s0.1,1,0.2,1.5
		c0.1,0.5,0.3,0.9,0.6,1.2c0.3,0.3,0.6,0.6,1,0.8c0.4,0.2,0.9,0.3,1.5,0.3c0.5,0,0.9-0.1,1.2-0.2c0.3-0.1,0.6-0.3,0.9-0.5
		c0.3-0.2,0.5-0.5,0.6-0.8s0.3-0.6,0.4-1h-0.9c-0.1,0.5-0.4,0.9-0.8,1.2c-0.4,0.3-0.9,0.4-1.4,0.4c-0.4,0-0.8-0.1-1.1-0.2
		s-0.6-0.4-0.8-0.6c-0.2-0.3-0.4-0.6-0.5-0.9c-0.1-0.4-0.2-0.7-0.2-1.1H89.1z M83.5,12.7c0-0.3,0.1-0.7,0.2-1
		c0.1-0.3,0.3-0.6,0.5-0.8c0.2-0.2,0.4-0.4,0.7-0.6c0.3-0.1,0.6-0.2,1-0.2c0.4,0,0.7,0.1,1,0.2c0.3,0.1,0.5,0.3,0.7,0.5
		c0.2,0.2,0.3,0.5,0.4,0.8c0.1,0.3,0.1,0.6,0.1,1H83.5z M80,10.7c-0.3-0.4-0.6-0.8-1.1-1c-0.5-0.2-1-0.3-1.5-0.3
		c-0.6,0-1,0.1-1.4,0.3c-0.4,0.2-0.7,0.5-1,0.8c-0.3,0.3-0.5,0.8-0.6,1.2c-0.1,0.5-0.2,1-0.2,1.5c0,0.5,0.1,1,0.2,1.5
		c0.1,0.5,0.3,0.9,0.6,1.2c0.3,0.3,0.6,0.6,1,0.8c0.4,0.2,0.9,0.3,1.5,0.3c0.2,0,0.5,0,0.7-0.1c0.2-0.1,0.5-0.2,0.7-0.3
		c0.2-0.1,0.4-0.3,0.6-0.5c0.2-0.2,0.3-0.4,0.5-0.6h0v1.3h0.8V6.7H80V10.7z M79.9,14.4c-0.1,0.4-0.3,0.7-0.5,1
		c-0.2,0.3-0.5,0.5-0.8,0.7c-0.3,0.2-0.7,0.2-1,0.2c-0.4,0-0.7-0.1-1-0.2c-0.3-0.1-0.6-0.3-0.8-0.6c-0.2-0.2-0.4-0.5-0.5-0.9
		s-0.2-0.8-0.2-1.2c0-0.5,0-0.9,0.1-1.3c0.1-0.4,0.2-0.7,0.4-1c0.2-0.3,0.5-0.5,0.8-0.7c0.3-0.2,0.7-0.3,1.1-0.3
		c0.4,0,0.7,0.1,1,0.2c0.3,0.2,0.6,0.4,0.8,0.7c0.2,0.3,0.4,0.6,0.5,1c0.1,0.4,0.2,0.8,0.2,1.2C80,13.6,80,14,79.9,14.4 M62.6,12.3
		c0-0.5,0.2-0.9,0.5-1.1c0.3-0.2,0.6-0.3,1.1-0.3c0.5,0,0.8,0.1,1,0.4c0.2,0.2,0.3,0.6,0.4,1.1H62.6z M67.9,12.9
		c0-1.1-0.3-1.9-0.9-2.5s-1.5-0.9-2.6-0.9c-1.3,0-2.2,0.3-3,1c-0.7,0.7-1.1,1.6-1.1,2.8c0,1.2,0.4,2.1,1.1,2.7c0.8,0.6,1.9,1,3.3,1
		c0.6,0,1.1,0,1.5-0.1c0.5-0.1,0.9-0.2,1.5-0.5v-1.8h-0.3c-0.3,0.2-0.6,0.4-1.1,0.6c-0.5,0.2-0.9,0.3-1.4,0.3
		c-0.8,0-1.3-0.1-1.7-0.4c-0.4-0.3-0.6-0.7-0.6-1.3h5.2V12.9z M58.9,13.3c-0.3-0.3-0.7-0.6-1.3-0.7c-0.3-0.1-0.5-0.1-0.8-0.2
		c-0.3,0-0.5-0.1-0.8-0.1c-0.4-0.1-0.7-0.2-0.8-0.3c-0.1-0.1-0.2-0.2-0.2-0.4c0-0.2,0.1-0.3,0.4-0.4c0.3-0.1,0.6-0.2,0.9-0.2
		c0.4,0,0.9,0.1,1.3,0.2c0.4,0.1,0.8,0.3,1.2,0.6H59V10c-0.3-0.1-0.7-0.2-1.1-0.3c-0.5-0.1-1-0.2-1.5-0.2c-1.1,0-2,0.2-2.7,0.7
		c-0.7,0.5-1,1-1,1.7c0,0.5,0.2,1,0.5,1.3c0.3,0.4,0.8,0.6,1.4,0.8c0.2,0.1,0.5,0.1,0.8,0.2c0.3,0,0.5,0.1,0.7,0.1
		c0.4,0.1,0.6,0.1,0.7,0.2c0.1,0.1,0.2,0.2,0.2,0.4c0,0.2-0.1,0.3-0.3,0.4c-0.2,0.1-0.5,0.1-1,0.1c-0.3,0-0.7,0-1-0.1
		s-0.6-0.2-0.8-0.3c-0.3-0.1-0.5-0.2-0.6-0.3c-0.1-0.1-0.3-0.2-0.4-0.3h-0.2v1.9c0.3,0.1,0.7,0.3,1.2,0.4C54.4,17,55,17,55.6,17
		c1.1,0,2.1-0.2,2.7-0.7s1-1,1-1.8C59.3,14.1,59.2,13.6,58.9,13.3 M48.8,16.8H51V12c0-0.9-0.3-1.5-0.9-1.9c-0.6-0.4-1.5-0.6-2.8-0.6
		c-0.5,0-1.1,0-1.6,0.1c-0.5,0.1-0.9,0.2-1.2,0.2v1.7h0.2c0.2-0.1,0.5-0.2,0.9-0.3c0.4-0.1,0.8-0.2,1.2-0.2c0.6,0,1.1,0.1,1.4,0.2
		c0.3,0.1,0.5,0.4,0.5,0.8v0c-0.7,0-1.3,0.1-1.9,0.2c-0.6,0.1-1.2,0.2-1.6,0.4c-0.4,0.2-0.8,0.5-1,0.8c-0.2,0.3-0.3,0.8-0.3,1.3
		c0,0.7,0.2,1.2,0.7,1.6c0.5,0.4,1,0.6,1.7,0.6c0.3,0,0.6,0,0.8-0.1c0.2,0,0.5-0.1,0.7-0.2c0.2-0.1,0.3-0.2,0.5-0.3
		c0.2-0.1,0.3-0.2,0.5-0.3V16.8z M48.1,15.3c-0.2,0.1-0.5,0.1-0.7,0.1c-0.3,0-0.5,0-0.6-0.1c-0.1,0-0.3-0.1-0.3-0.2
		c-0.1-0.1-0.2-0.2-0.2-0.3c0-0.1,0-0.2,0-0.4c0-0.2,0.1-0.4,0.2-0.5c0.1-0.1,0.3-0.2,0.5-0.3c0.2-0.1,0.5-0.1,0.8-0.2
		c0.4,0,0.7-0.1,1-0.1V15C48.6,15.1,48.4,15.2,48.1,15.3 M40,14.8c-0.3,0.4-0.7,0.5-1.3,0.5c-0.2,0-0.4,0-0.5,0
		c-0.1,0-0.3-0.1-0.5-0.1v-3.6c0.2-0.1,0.4-0.2,0.7-0.3c0.2-0.1,0.5-0.1,0.7-0.1c0.6,0,0.9,0.2,1.2,0.5c0.2,0.3,0.3,0.8,0.3,1.5
		C40.4,13.9,40.3,14.4,40,14.8 M42.1,10.5c-0.5-0.6-1.2-1-2.1-1c-0.5,0-0.9,0.1-1.3,0.3c-0.4,0.2-0.7,0.4-1.1,0.7V6.9h-2.3v9.9h2.2
		l0.1-0.4c0.3,0.2,0.6,0.3,0.9,0.4c0.3,0.1,0.6,0.1,1,0.1c0.9,0,1.7-0.4,2.3-1.1s0.9-1.6,0.9-2.7C42.8,12,42.6,11.1,42.1,10.5
		 M23.4,11.6c-2.2,0.3-3.3,1.2-3.3,2.8c0,0.5,0.1,0.8,0.3,1.2c0.2,0.3,0.4,0.6,0.7,0.8c0.3,0.2,0.6,0.4,1,0.5s0.8,0.2,1.2,0.2
		c0.7,0,1.3-0.1,1.9-0.4c0.6-0.3,1.1-0.6,1.6-1.2c0,0.2,0,0.3,0,0.5c0,0.2,0.1,0.3,0.1,0.4c0.1,0.1,0.2,0.2,0.3,0.3
		c0.1,0.1,0.3,0.1,0.4,0.2c0.2,0,0.3,0.1,0.5,0.1c0.2,0,0.3,0,0.5-0.1c0.2,0,0.3-0.1,0.4-0.1v-0.8c-0.5,0.2-0.8,0.2-0.9,0.1
		c-0.2-0.1-0.2-0.4-0.2-0.8v-5.1c0-0.5-0.1-1-0.3-1.4c-0.2-0.4-0.4-0.7-0.7-0.9c-0.3-0.2-0.7-0.4-1.1-0.5c-0.4-0.1-0.9-0.2-1.3-0.2
		c-0.5,0-1,0.1-1.4,0.2c-0.5,0.1-0.8,0.3-1.2,0.5c-0.3,0.2-0.6,0.6-0.8,1c-0.2,0.4-0.3,0.9-0.4,1.4h1.1c0-0.4,0.1-0.7,0.3-1
		c0.1-0.3,0.3-0.5,0.6-0.6c0.2-0.2,0.5-0.3,0.8-0.3c0.3-0.1,0.7-0.1,1-0.1c0.8,0,1.4,0.2,1.8,0.5c0.4,0.4,0.5,0.8,0.5,1.4
		c0,0.2,0,0.4-0.1,0.5s-0.2,0.3-0.3,0.4c-0.2,0.1-0.4,0.2-0.7,0.2c-0.3,0-0.5,0.1-0.7,0.1L23.4,11.6z M26.7,13.4
		c0,0.5-0.1,0.9-0.3,1.2c-0.2,0.3-0.4,0.6-0.8,0.8c-0.3,0.2-0.7,0.4-1.1,0.5c-0.4,0.1-0.8,0.2-1.3,0.2c-0.3,0-0.5,0-0.7-0.1
		c-0.2-0.1-0.5-0.2-0.6-0.3c-0.2-0.1-0.3-0.3-0.4-0.5c-0.1-0.2-0.2-0.5-0.2-0.7c0-0.6,0.2-1.1,0.7-1.4c0.5-0.3,1.1-0.5,1.9-0.6
		c0.5,0,0.9-0.1,1.4-0.1c0.5-0.1,0.9-0.2,1.4-0.4V13.4z M18.9,16.8v-1h-6.9V3.9h-1.2v13H18.9z M8.1,12.8L8.1,12.8
		c0.5,0,0.8-0.3,0.8-0.8c0-0.4-0.1-0.6-0.6-0.8V9.9H7.6c-0.1,0.3-0.2,1.2-0.2,1.9v0.3C7.4,12.5,7.6,12.8,8.1,12.8 M6.1,12.8
		L6.1,12.8c0.5,0,0.8-0.3,0.8-0.8c0-0.4-0.2-0.6-0.6-0.8V9.9H5.6c-0.1,0.3-0.2,1.2-0.2,1.9v0.3C5.4,12.5,5.6,12.8,6.1,12.8"/>
</g>
</svg>
