<?xml version="1.0" encoding="utf-8"?>
<!-- Generator: Adobe Illustrator 19.0.0, SVG Export Plug-In . SVG Version: 6.00 Build 0)  -->
<svg version="1.1" id="Layer_1" xmlns="http://www.w3.org/2000/svg" xmlns:xlink="http://www.w3.org/1999/xlink" x="0px" y="0px"
	 viewBox="0 0 384.9 39.8" style="enable-background:new 0 0 384.9 39.8;" xml:space="preserve">
<style type="text/css">
	.st0{fill:#293387;}
</style>
<path class="st0" d="M373.8,20.5h1.3c0.2-0.6,0.4-2.2,0.4-3.5v-0.5c0-0.9-0.4-1.4-1.3-1.4H374c-0.9,0-1.3,0.5-1.3,1.4
	c0,0.8,0.3,1.1,1.1,1.4V20.5z M370.1,20.5h1.3c0.2-0.6,0.4-2.2,0.4-3.5v-0.5c0-0.9-0.5-1.4-1.3-1.4h-0.1c-0.9,0-1.3,0.5-1.3,1.4
	c0,0.8,0.3,1.1,1.1,1.4V20.5z M362.5,22.5c-2.2,0.3-3.3,1.2-3.3,2.8c0,0.5,0.1,0.8,0.3,1.2s0.4,0.6,0.7,0.8c0.3,0.2,0.6,0.4,1,0.5
	s0.8,0.2,1.2,0.2c0.7,0,1.3-0.1,1.9-0.4c0.6-0.3,1.1-0.6,1.6-1.2c0,0.2,0,0.3,0,0.5c0,0.1,0.1,0.3,0.1,0.4c0.1,0.1,0.2,0.2,0.3,0.3
	c0.1,0.1,0.3,0.1,0.4,0.2c0.2,0,0.3,0.1,0.5,0.1c0.2,0,0.3,0,0.5-0.1c0.2,0,0.3-0.1,0.4-0.1v-0.8c-0.5,0.2-0.8,0.2-0.9,0.1
	c-0.2-0.1-0.2-0.4-0.2-0.8v-5.1c0-0.5-0.1-1-0.3-1.4c-0.2-0.4-0.4-0.7-0.7-0.9s-0.7-0.4-1.1-0.5c-0.4-0.1-0.9-0.2-1.3-0.2
	c-0.5,0-1,0.1-1.4,0.2c-0.5,0.1-0.8,0.3-1.2,0.5c-0.3,0.2-0.6,0.6-0.8,1s-0.3,0.9-0.4,1.4h1.1c0-0.4,0.1-0.7,0.3-1
	c0.1-0.3,0.3-0.5,0.6-0.6c0.2-0.2,0.5-0.3,0.8-0.3c0.3-0.1,0.7-0.1,1-0.1c0.8,0,1.4,0.2,1.8,0.5c0.4,0.4,0.5,0.8,0.5,1.4
	c0,0.2,0,0.4-0.1,0.5c0,0.2-0.2,0.3-0.3,0.4c-0.2,0.1-0.4,0.2-0.7,0.2c-0.3,0-0.5,0.1-0.7,0.1L362.5,22.5z M365.8,24.3
	c0,0.5-0.1,0.9-0.3,1.2c-0.2,0.3-0.4,0.6-0.8,0.8c-0.3,0.2-0.7,0.4-1.1,0.5c-0.4,0.1-0.8,0.2-1.3,0.2c-0.3,0-0.5,0-0.7-0.1
	c-0.2-0.1-0.5-0.2-0.6-0.3c-0.2-0.1-0.3-0.3-0.4-0.5c-0.1-0.2-0.2-0.5-0.2-0.7c0-0.6,0.2-1.1,0.7-1.4c0.5-0.3,1.1-0.5,1.9-0.6
	c0.5,0,0.9-0.1,1.4-0.1s0.9-0.2,1.4-0.4V24.3z M350.3,24.9c0,0.4,0.1,0.9,0.3,1.2c0.2,0.4,0.4,0.7,0.7,1c0.3,0.3,0.7,0.5,1.1,0.7
	c0.4,0.2,0.9,0.2,1.5,0.2s1.1-0.1,1.5-0.2c0.5-0.1,0.9-0.3,1.2-0.5c0.3-0.2,0.6-0.5,0.8-0.9c0.2-0.3,0.3-0.7,0.3-1.2
	c0-0.6-0.1-1.1-0.4-1.4c-0.3-0.3-0.7-0.6-1.1-0.8c-0.4-0.2-0.9-0.4-1.4-0.5c-0.5-0.1-1-0.2-1.4-0.4s-0.8-0.3-1.1-0.5s-0.4-0.5-0.4-1
	c0-0.5,0.2-0.9,0.5-1.2c0.4-0.3,0.9-0.4,1.6-0.4c0.7,0,1.3,0.1,1.7,0.4c0.5,0.3,0.7,0.8,0.8,1.5h1.1c-0.1-1.1-0.5-1.8-1.1-2.3
	c-0.6-0.4-1.4-0.7-2.5-0.7c-1,0-1.9,0.2-2.4,0.7c-0.6,0.5-0.9,1.1-0.9,1.9c0,0.6,0.1,1.1,0.4,1.4c0.3,0.3,0.7,0.6,1.1,0.8
	c0.4,0.2,0.9,0.3,1.4,0.4c0.5,0.1,1,0.2,1.4,0.3s0.8,0.3,1.1,0.5c0.3,0.2,0.4,0.6,0.4,1c0,0.2,0,0.4-0.1,0.6
	c-0.1,0.2-0.2,0.4-0.4,0.5c-0.2,0.2-0.4,0.3-0.7,0.4c-0.3,0.1-0.6,0.1-1,0.1c-0.8,0-1.4-0.2-1.9-0.5c-0.4-0.3-0.7-0.9-0.9-1.7H350.3
	z M348,14.8h-1.2v1.6h1.2V14.8z M348,18.5h-1.1v9.3h1.1V18.5z M341.9,23.2c0-0.5,0-1,0.1-1.5c0.1-0.5,0.3-0.9,0.5-1.2
	c0.2-0.3,0.5-0.6,0.9-0.8c0.4-0.2,0.9-0.3,1.5-0.3v-1.2c-0.8,0-1.4,0.1-1.9,0.4c-0.5,0.3-0.9,0.8-1.2,1.6h0v-1.7h-1.1v9.3h1.1V23.2z
	 M331.8,22.8c0-0.3,0-0.6,0-0.9c0-0.3,0.1-0.6,0.2-0.9c0.1-0.2,0.2-0.5,0.4-0.7c0.2-0.2,0.3-0.4,0.6-0.6c0.2-0.2,0.5-0.3,0.7-0.4
	c0.3-0.1,0.6-0.2,0.9-0.2c0.9,0,1.5,0.2,1.9,0.6c0.4,0.4,0.6,1,0.6,1.9v6.1h1.1v-6.1c0-0.4,0-0.8-0.1-1.1s-0.2-0.7-0.4-1
	c-0.3-0.5-0.8-0.8-1.2-1s-1-0.3-1.6-0.3c-0.6,0-1.2,0.1-1.7,0.4c-0.5,0.3-0.9,0.7-1.3,1.1v-1.3h-1.1v9.3h1.1V22.8z M327.4,24.6
	c-0.1,0.5-0.3,0.9-0.6,1.3c-0.3,0.4-0.6,0.7-1,0.9s-0.9,0.3-1.4,0.3c-0.5,0-1-0.1-1.4-0.3c-0.4-0.2-0.7-0.5-1-0.8
	c-0.3-0.3-0.5-0.8-0.6-1.3s-0.2-1-0.2-1.6c0-0.5,0.1-1,0.2-1.5c0.1-0.5,0.3-0.9,0.6-1.3c0.3-0.4,0.6-0.7,1-0.9
	c0.4-0.2,0.9-0.3,1.4-0.3c0.6,0,1.1,0.1,1.5,0.3c0.4,0.2,0.7,0.5,1,0.8c0.3,0.4,0.4,0.8,0.6,1.3s0.2,1,0.2,1.5
	C327.6,23.6,327.5,24.1,327.4,24.6 M326.2,27.7c0.5-0.2,1-0.6,1.4-1c0.4-0.4,0.7-0.9,0.9-1.5s0.3-1.3,0.3-2c0-0.7-0.1-1.3-0.3-1.9
	c-0.2-0.6-0.4-1.1-0.8-1.6c-0.4-0.4-0.8-0.8-1.3-1c-0.5-0.3-1.2-0.4-1.9-0.4c-0.7,0-1.3,0.1-1.9,0.4s-1,0.6-1.4,1.1s-0.6,1-0.8,1.6
	c-0.2,0.6-0.3,1.2-0.3,1.9c0,0.8,0.1,1.5,0.3,2.1s0.5,1.1,0.9,1.5c0.4,0.4,0.8,0.7,1.4,0.9s1.1,0.3,1.7,0.3
	C325.1,28,325.7,27.9,326.2,27.7 M311.3,24.9c0,0.4,0.1,0.9,0.3,1.2c0.2,0.4,0.4,0.7,0.7,1c0.3,0.3,0.7,0.5,1.1,0.7
	c0.4,0.2,0.9,0.2,1.5,0.2c0.6,0,1.1-0.1,1.5-0.2c0.5-0.1,0.9-0.3,1.2-0.5c0.3-0.2,0.6-0.5,0.8-0.9c0.2-0.3,0.3-0.7,0.3-1.2
	c0-0.6-0.1-1.1-0.4-1.4c-0.3-0.3-0.7-0.6-1.1-0.8s-0.9-0.4-1.4-0.5c-0.5-0.1-1-0.2-1.4-0.4s-0.8-0.3-1.1-0.5c-0.3-0.2-0.4-0.5-0.4-1
	c0-0.5,0.2-0.9,0.5-1.2c0.4-0.3,0.9-0.4,1.6-0.4s1.3,0.1,1.7,0.4c0.4,0.3,0.7,0.8,0.8,1.5h1.1c-0.1-1.1-0.5-1.8-1.1-2.3
	c-0.6-0.4-1.4-0.7-2.5-0.7c-1,0-1.9,0.2-2.4,0.7c-0.6,0.5-0.9,1.1-0.9,1.9c0,0.6,0.1,1.1,0.4,1.4s0.7,0.6,1.1,0.8s0.9,0.3,1.4,0.4
	s1,0.2,1.4,0.3s0.8,0.3,1.1,0.5s0.4,0.6,0.4,1c0,0.2,0,0.4-0.1,0.6c-0.1,0.2-0.2,0.4-0.4,0.5c-0.2,0.2-0.4,0.3-0.7,0.4
	c-0.3,0.1-0.6,0.1-1,0.1c-0.8,0-1.4-0.2-1.9-0.5c-0.4-0.3-0.7-0.9-0.9-1.7H311.3z M306.2,22.3h-1.8v3.9c-0.2,0.1-0.3,0.2-0.5,0.2
	c-0.2,0.1-0.3,0.1-0.5,0.1c-0.2,0-0.4,0-0.5-0.1c-0.1-0.1-0.2-0.1-0.3-0.3c-0.1-0.1-0.1-0.3-0.1-0.5c0-0.2,0-0.4,0-0.7v-2.7h-1.8
	v3.6c0,0.7,0.2,1.2,0.5,1.5c0.3,0.3,0.8,0.5,1.4,0.5c0.4,0,0.7-0.1,1-0.2c0.3-0.1,0.6-0.3,0.9-0.6v0.6h1.8V22.3z M299.7,26.5h-0.1
	c-0.1,0-0.2,0.1-0.3,0.1c-0.1,0-0.3,0.1-0.4,0.1c-0.2,0-0.4,0-0.5-0.1c-0.1-0.1-0.2-0.2-0.2-0.3c0-0.1-0.1-0.2-0.1-0.4
	c0-0.1,0-0.3,0-0.5v-1.9h1.6v-1.2H298v-1.6h-1.8v1.6h-0.7v1.2h0.7v2.6c0,0.7,0.2,1.1,0.5,1.4c0.3,0.3,0.8,0.4,1.5,0.4
	c0.3,0,0.6,0,0.8,0c0.2,0,0.4-0.1,0.6-0.1V26.5z M287.5,24.3c0-0.4,0.1-0.7,0.4-0.8c0.2-0.2,0.5-0.3,0.8-0.3c0.4,0,0.6,0.1,0.8,0.3
	c0.2,0.2,0.3,0.5,0.3,0.8H287.5z M291.5,24.7c0-0.8-0.2-1.5-0.7-1.9c-0.4-0.5-1.1-0.7-2-0.7c-1,0-1.7,0.3-2.3,0.8
	c-0.6,0.5-0.8,1.2-0.8,2.2c0,0.9,0.3,1.6,0.9,2.1c0.6,0.5,1.4,0.7,2.5,0.7c0.4,0,0.8,0,1.2-0.1c0.4-0.1,0.7-0.2,1.1-0.3v-1.4h-0.2
	c-0.2,0.2-0.5,0.3-0.8,0.4c-0.3,0.1-0.7,0.2-1.1,0.2c-0.6,0-1-0.1-1.3-0.3c-0.3-0.2-0.5-0.6-0.5-1h4V24.7z M282.2,26.5
	c-0.2,0.1-0.3,0.1-0.5,0.1c-0.4,0-0.7-0.1-0.9-0.4s-0.3-0.6-0.3-1.2c0-0.5,0.1-0.9,0.3-1.2c0.2-0.3,0.6-0.4,1-0.4c0.1,0,0.2,0,0.4,0
	c0.1,0,0.3,0.1,0.4,0.1v2.7C282.5,26.4,282.4,26.4,282.2,26.5 M284.4,20.2h-1.8v2.3c-0.2-0.1-0.4-0.2-0.6-0.3s-0.5-0.1-0.8-0.1
	c-0.3,0-0.6,0.1-0.9,0.2c-0.3,0.1-0.6,0.3-0.8,0.6c-0.2,0.3-0.4,0.6-0.6,0.9c-0.1,0.4-0.2,0.8-0.2,1.2c0,0.9,0.2,1.6,0.6,2.1
	c0.4,0.5,0.9,0.8,1.6,0.8c0.3,0,0.6-0.1,0.9-0.2c0.3-0.1,0.5-0.3,0.8-0.5v0.6h1.8V20.2z M271.9,26.6c-0.1,0.1-0.3,0.1-0.5,0.1
	c-0.2,0-0.4,0-0.5-0.1c-0.1-0.1-0.3-0.2-0.4-0.3c-0.1-0.1-0.2-0.3-0.2-0.5c-0.1-0.2-0.1-0.5-0.1-0.8c0-0.3,0-0.6,0.1-0.8
	c0.1-0.2,0.1-0.4,0.3-0.5c0.1-0.1,0.2-0.2,0.4-0.3c0.1,0,0.3-0.1,0.5-0.1s0.3,0,0.5,0.1c0.1,0.1,0.3,0.2,0.4,0.3
	c0.1,0.1,0.2,0.3,0.2,0.5c0.1,0.2,0.1,0.5,0.1,0.8c0,0.3,0,0.6-0.1,0.8s-0.1,0.4-0.3,0.5C272.2,26.5,272.1,26.6,271.9,26.6
	 M273.7,22.9c-0.5-0.5-1.3-0.8-2.2-0.8c-0.9,0-1.7,0.3-2.2,0.8c-0.5,0.5-0.8,1.2-0.8,2.1c0,0.9,0.3,1.6,0.8,2.1
	c0.5,0.5,1.3,0.8,2.2,0.8c1,0,1.7-0.3,2.2-0.8c0.5-0.5,0.8-1.2,0.8-2.1C274.4,24.1,274.2,23.4,273.7,22.9 M264.9,26.5
	c-0.2,0.1-0.3,0.1-0.5,0.1c-0.4,0-0.7-0.1-0.9-0.4s-0.3-0.6-0.3-1.2c0-0.5,0.1-0.9,0.3-1.2c0.2-0.3,0.6-0.4,1-0.4c0.1,0,0.2,0,0.4,0
	c0.1,0,0.3,0.1,0.4,0.1v2.7C265.3,26.4,265.1,26.4,264.9,26.5 M267.2,20.2h-1.8v2.3c-0.2-0.1-0.4-0.2-0.6-0.3
	c-0.2-0.1-0.5-0.1-0.8-0.1c-0.3,0-0.6,0.1-0.9,0.2c-0.3,0.1-0.6,0.3-0.8,0.6c-0.2,0.3-0.4,0.6-0.6,0.9c-0.1,0.4-0.2,0.8-0.2,1.2
	c0,0.9,0.2,1.6,0.6,2.1c0.4,0.5,0.9,0.8,1.6,0.8c0.3,0,0.6-0.1,0.9-0.2c0.3-0.1,0.5-0.3,0.8-0.5v0.6h1.8V20.2z M258.5,27.8h1.7v-3.7
	c0-0.7-0.2-1.1-0.7-1.4c-0.4-0.3-1.2-0.5-2.2-0.5c-0.4,0-0.8,0-1.3,0.1c-0.4,0.1-0.7,0.1-0.9,0.2v1.3h0.2c0.1-0.1,0.4-0.1,0.7-0.2
	c0.3-0.1,0.6-0.2,0.9-0.2c0.5,0,0.8,0.1,1.1,0.2c0.2,0.1,0.4,0.3,0.4,0.6v0c-0.5,0-1,0.1-1.5,0.1c-0.5,0.1-0.9,0.2-1.2,0.3
	c-0.3,0.1-0.6,0.3-0.8,0.6c-0.2,0.3-0.3,0.6-0.3,1c0,0.5,0.2,0.9,0.5,1.2c0.4,0.3,0.8,0.5,1.3,0.5c0.2,0,0.4,0,0.6-0.1
	c0.2,0,0.4-0.1,0.5-0.2c0.1-0.1,0.3-0.1,0.4-0.2c0.1-0.1,0.3-0.2,0.4-0.3V27.8z M258,26.6c-0.2,0.1-0.4,0.1-0.5,0.1
	c-0.2,0-0.4,0-0.5,0s-0.2-0.1-0.3-0.1c-0.1-0.1-0.1-0.1-0.1-0.2c0-0.1,0-0.2,0-0.3c0-0.2,0-0.3,0.1-0.4c0.1-0.1,0.2-0.2,0.4-0.2
	c0.1,0,0.4-0.1,0.6-0.1c0.3,0,0.5-0.1,0.8-0.1v1.1C258.3,26.5,258.2,26.6,258,26.6 M251.3,26.5c-0.2,0.1-0.3,0.1-0.5,0.1
	c-0.4,0-0.7-0.1-0.9-0.4c-0.2-0.2-0.3-0.6-0.3-1.2c0-0.5,0.1-0.9,0.3-1.2c0.2-0.3,0.6-0.4,1-0.4c0.1,0,0.2,0,0.4,0
	c0.1,0,0.3,0.1,0.4,0.1v2.7C251.6,26.4,251.4,26.4,251.3,26.5 M253.5,20.2h-1.8v2.3c-0.2-0.1-0.4-0.2-0.6-0.3
	c-0.2-0.1-0.5-0.1-0.8-0.1c-0.3,0-0.6,0.1-0.9,0.2c-0.3,0.1-0.6,0.3-0.8,0.6c-0.2,0.3-0.4,0.6-0.6,0.9s-0.2,0.8-0.2,1.2
	c0,0.9,0.2,1.6,0.6,2.1c0.4,0.5,0.9,0.8,1.6,0.8c0.3,0,0.6-0.1,0.9-0.2c0.3-0.1,0.5-0.3,0.8-0.5v0.6h1.8V20.2z M246.6,20.2h-1.9v1.3
	h1.9V20.2z M246.5,22.3h-1.8v5.5h1.8V22.3z M243.1,22.3h-1.8v3.9c-0.2,0.1-0.3,0.2-0.5,0.2c-0.2,0.1-0.3,0.1-0.5,0.1
	c-0.2,0-0.4,0-0.5-0.1c-0.1-0.1-0.2-0.1-0.3-0.3c-0.1-0.1-0.1-0.3-0.1-0.5c0-0.2,0-0.4,0-0.7v-2.7h-1.8v3.6c0,0.7,0.2,1.2,0.5,1.5
	c0.3,0.3,0.8,0.5,1.4,0.5c0.4,0,0.7-0.1,1-0.2c0.3-0.1,0.6-0.3,0.9-0.6v0.6h1.8V22.3z M235.6,27.8c0.3-0.1,0.6-0.2,0.9-0.3V26h-0.2
	c-0.1,0.1-0.2,0.1-0.2,0.2c-0.1,0.1-0.2,0.1-0.3,0.2c-0.1,0.1-0.3,0.1-0.4,0.2c-0.2,0.1-0.4,0.1-0.6,0.1c-0.5,0-0.8-0.1-1.1-0.4
	c-0.3-0.3-0.4-0.7-0.4-1.2c0-0.5,0.1-0.9,0.4-1.2c0.3-0.3,0.6-0.4,1.1-0.4c0.2,0,0.4,0,0.6,0.1c0.2,0,0.3,0.1,0.4,0.2
	c0.1,0.1,0.3,0.2,0.4,0.2c0.1,0.1,0.2,0.1,0.2,0.2h0.2v-1.5c-0.3-0.1-0.6-0.2-0.9-0.3c-0.3-0.1-0.7-0.1-1-0.1
	c-0.4,0-0.8,0.1-1.2,0.2c-0.4,0.1-0.7,0.3-1,0.5c-0.3,0.2-0.5,0.6-0.7,0.9c-0.2,0.4-0.3,0.8-0.3,1.3c0,0.5,0.1,0.9,0.2,1.3
	c0.2,0.4,0.4,0.7,0.7,0.9c0.3,0.2,0.6,0.4,1,0.5c0.4,0.1,0.8,0.2,1.3,0.2C235,27.9,235.3,27.9,235.6,27.8 M226.7,20.2h-1.8v7.6h1.8
	V20.2z M219.6,24.3c0-0.4,0.1-0.7,0.4-0.8c0.2-0.2,0.5-0.3,0.8-0.3c0.4,0,0.6,0.1,0.8,0.3c0.2,0.2,0.3,0.5,0.3,0.8H219.6z
	 M223.7,24.7c0-0.8-0.2-1.5-0.7-1.9c-0.4-0.5-1.1-0.7-2-0.7c-1,0-1.7,0.3-2.3,0.8c-0.6,0.5-0.8,1.2-0.8,2.2c0,0.9,0.3,1.6,0.9,2.1
	c0.6,0.5,1.4,0.7,2.5,0.7c0.4,0,0.8,0,1.2-0.1c0.4-0.1,0.7-0.2,1.1-0.3v-1.4h-0.2c-0.2,0.2-0.5,0.3-0.8,0.4
	c-0.3,0.1-0.7,0.2-1.1,0.2c-0.6,0-1-0.1-1.3-0.3c-0.3-0.2-0.5-0.6-0.5-1h4V24.7z M211.5,27.8h1.7v-3.7c0-0.7-0.2-1.1-0.7-1.4
	c-0.4-0.3-1.2-0.5-2.2-0.5c-0.4,0-0.8,0-1.3,0.1c-0.4,0.1-0.7,0.1-0.9,0.2v1.3h0.2c0.1-0.1,0.4-0.1,0.7-0.2c0.3-0.1,0.6-0.2,0.9-0.2
	c0.5,0,0.8,0.1,1.1,0.2c0.2,0.1,0.4,0.3,0.4,0.6v0c-0.5,0-1,0.1-1.5,0.1c-0.5,0.1-0.9,0.2-1.2,0.3c-0.3,0.1-0.6,0.3-0.8,0.6
	c-0.2,0.3-0.3,0.6-0.3,1c0,0.5,0.2,0.9,0.5,1.2c0.4,0.3,0.8,0.5,1.3,0.5c0.2,0,0.4,0,0.6-0.1c0.2,0,0.4-0.1,0.5-0.2
	c0.1-0.1,0.3-0.1,0.4-0.2s0.3-0.2,0.4-0.3V27.8z M211,26.6c-0.2,0.1-0.4,0.1-0.5,0.1c-0.2,0-0.4,0-0.5,0c-0.1,0-0.2-0.1-0.3-0.1
	c-0.1-0.1-0.1-0.1-0.1-0.2c0-0.1,0-0.2,0-0.3c0-0.2,0-0.3,0.1-0.4c0.1-0.1,0.2-0.2,0.4-0.2c0.1,0,0.4-0.1,0.6-0.1
	c0.3,0,0.5-0.1,0.8-0.1v1.1C211.4,26.5,211.2,26.6,211,26.6 M207.2,22.3c-0.1,0-0.1,0-0.2,0c-0.1,0-0.1,0-0.2,0
	c-0.2,0-0.5,0.1-0.8,0.2c-0.3,0.1-0.6,0.3-1,0.7v-0.8h-1.8v5.5h1.8v-3.7c0.2-0.1,0.4-0.1,0.6-0.2c0.2,0,0.4,0,0.7,0
	c0.1,0,0.2,0,0.4,0s0.3,0,0.4,0.1h0.2V22.3z M199.8,27.8h1.7v-3.7c0-0.7-0.2-1.1-0.7-1.4c-0.4-0.3-1.2-0.5-2.2-0.5
	c-0.4,0-0.8,0-1.3,0.1c-0.4,0.1-0.7,0.1-0.9,0.2v1.3h0.2c0.1-0.1,0.4-0.1,0.7-0.2c0.3-0.1,0.6-0.2,0.9-0.2c0.5,0,0.8,0.1,1.1,0.2
	c0.2,0.1,0.4,0.3,0.4,0.6v0c-0.5,0-1,0.1-1.5,0.1s-0.9,0.2-1.2,0.3c-0.3,0.1-0.6,0.3-0.8,0.6c-0.2,0.3-0.3,0.6-0.3,1
	c0,0.5,0.2,0.9,0.5,1.2c0.4,0.3,0.8,0.5,1.3,0.5c0.2,0,0.4,0,0.6-0.1c0.2,0,0.4-0.1,0.5-0.2c0.1-0.1,0.3-0.1,0.4-0.2
	s0.3-0.2,0.4-0.3V27.8z M199.4,26.6c-0.2,0.1-0.4,0.1-0.5,0.1c-0.2,0-0.4,0-0.5,0c-0.1,0-0.2-0.1-0.3-0.1c-0.1-0.1-0.1-0.1-0.1-0.2
	c0-0.1,0-0.2,0-0.3c0-0.2,0-0.3,0.1-0.4c0.1-0.1,0.2-0.2,0.4-0.2c0.1,0,0.4-0.1,0.6-0.1c0.3,0,0.5-0.1,0.8-0.1v1.1
	C199.7,26.5,199.5,26.6,199.4,26.6 M193.1,26.2c-0.2,0.3-0.6,0.4-1,0.4c-0.1,0-0.3,0-0.4,0c-0.1,0-0.3,0-0.4-0.1v-2.8
	c0.2-0.1,0.3-0.2,0.5-0.2c0.2-0.1,0.3-0.1,0.5-0.1c0.4,0,0.7,0.1,0.9,0.4c0.2,0.2,0.3,0.6,0.3,1.2C193.4,25.5,193.3,26,193.1,26.2
	 M194.7,22.9c-0.4-0.5-0.9-0.8-1.6-0.8c-0.4,0-0.7,0.1-1,0.2c-0.3,0.1-0.6,0.3-0.8,0.5v-0.6h-1.8v7.5h1.8v-2.3
	c0.2,0.1,0.4,0.2,0.7,0.3c0.2,0.1,0.5,0.1,0.8,0.1c0.3,0,0.7-0.1,1-0.2c0.3-0.1,0.6-0.3,0.8-0.6c0.2-0.2,0.4-0.5,0.5-0.9
	c0.1-0.4,0.2-0.8,0.2-1.2C195.2,24.1,195.1,23.4,194.7,22.9 M184,22.1c0-1.1-0.3-1.9-0.8-2.5c-0.5-0.6-1.3-0.8-2.2-0.8
	c-0.6,0-1.1,0.1-1.5,0.3c-0.5,0.2-0.9,0.5-1.4,0.9v-1h-2.8v8.8h2.8v-6.2c0.3-0.2,0.6-0.3,0.9-0.4s0.5-0.1,0.8-0.1
	c0.4,0,0.6,0,0.8,0.1c0.2,0.1,0.4,0.2,0.5,0.4c0.1,0.2,0.2,0.4,0.2,0.8c0,0.4,0.1,0.7,0.1,1.1v4.4h2.8V22.1z M168.4,14.7l-1.9,3.1
	h1.9l2.8-2.9v-0.2H168.4z M169.1,26c-0.2,0.1-0.5,0.1-0.7,0.1c-0.3,0-0.6,0-0.8-0.1c-0.2-0.1-0.4-0.2-0.6-0.4
	c-0.2-0.2-0.3-0.5-0.4-0.8c-0.1-0.4-0.1-0.8-0.1-1.2c0-0.5,0.1-1,0.2-1.3c0.1-0.4,0.2-0.6,0.4-0.8c0.2-0.2,0.4-0.4,0.6-0.4
	c0.2-0.1,0.5-0.1,0.7-0.1c0.3,0,0.5,0,0.8,0.1c0.2,0.1,0.4,0.2,0.6,0.5c0.2,0.2,0.3,0.5,0.4,0.8c0.1,0.3,0.1,0.8,0.1,1.3
	c0,0.6,0,1-0.1,1.3c-0.1,0.3-0.2,0.6-0.4,0.8C169.6,25.7,169.4,25.9,169.1,26 M171.9,20c-0.8-0.8-2-1.2-3.6-1.2
	c-1.5,0-2.7,0.4-3.5,1.2c-0.8,0.8-1.3,2-1.3,3.4c0,1.4,0.4,2.6,1.3,3.4c0.8,0.8,2,1.2,3.5,1.2c1.5,0,2.7-0.4,3.5-1.2
	c0.8-0.8,1.3-2,1.3-3.4C173.2,22,172.8,20.8,171.9,20 M161.7,15.6h-3v2.1h3V15.6z M161.6,19h-2.8v8.8h2.8V19z M156.4,23.4
	c-0.4-0.4-0.9-0.7-1.6-0.9c-0.3-0.1-0.7-0.2-1-0.2c-0.3-0.1-0.6-0.1-0.9-0.2c-0.5-0.1-0.9-0.2-1-0.3c-0.1-0.1-0.2-0.3-0.2-0.5
	c0-0.2,0.2-0.4,0.5-0.5s0.7-0.2,1.1-0.2c0.5,0,1.1,0.1,1.6,0.3c0.5,0.2,1,0.4,1.4,0.7h0.2v-2.2c-0.3-0.2-0.8-0.3-1.4-0.4
	c-0.6-0.1-1.2-0.2-1.9-0.2c-1.4,0-2.5,0.3-3.3,0.8c-0.8,0.6-1.2,1.3-1.2,2.1c0,0.7,0.2,1.2,0.6,1.6c0.4,0.4,1,0.8,1.8,1
	c0.3,0.1,0.6,0.1,1,0.2c0.4,0.1,0.6,0.1,0.8,0.2c0.4,0.1,0.7,0.2,0.9,0.3c0.2,0.1,0.2,0.3,0.2,0.5c0,0.2-0.1,0.4-0.4,0.5
	c-0.3,0.1-0.7,0.2-1.2,0.2c-0.4,0-0.8,0-1.2-0.1c-0.4-0.1-0.7-0.2-1-0.3c-0.3-0.1-0.6-0.3-0.8-0.4c-0.2-0.1-0.3-0.2-0.5-0.3h-0.3
	v2.3c0.4,0.2,0.9,0.3,1.5,0.5c0.6,0.1,1.3,0.2,2.1,0.2c1.4,0,2.5-0.3,3.3-0.8c0.8-0.6,1.2-1.3,1.2-2.2
	C156.9,24.4,156.7,23.9,156.4,23.4 M143.9,27.8h2.8v-6c0-1.1-0.4-1.8-1.1-2.3s-1.9-0.7-3.5-0.7c-0.7,0-1.3,0.1-2,0.2
	c-0.7,0.1-1.2,0.2-1.4,0.3v2.1h0.3c0.2-0.1,0.6-0.2,1.1-0.4s1-0.2,1.5-0.2c0.8,0,1.4,0.1,1.8,0.3c0.4,0.2,0.6,0.5,0.6,1v0
	c-0.8,0-1.6,0.1-2.4,0.2c-0.8,0.1-1.4,0.3-1.9,0.5c-0.5,0.2-0.9,0.6-1.2,1c-0.3,0.4-0.4,0.9-0.4,1.6c0,0.8,0.3,1.5,0.8,2
	c0.6,0.5,1.3,0.8,2.1,0.8c0.4,0,0.7,0,1-0.1c0.3-0.1,0.6-0.2,0.9-0.3c0.2-0.1,0.4-0.2,0.6-0.4c0.2-0.2,0.4-0.3,0.6-0.4V27.8z
	 M143.1,25.9c-0.3,0.1-0.6,0.2-0.9,0.2c-0.4,0-0.6,0-0.8-0.1c-0.2,0-0.3-0.1-0.4-0.2c-0.1-0.1-0.2-0.2-0.2-0.3c0-0.1,0-0.3,0-0.4
	c0-0.3,0.1-0.5,0.2-0.7c0.1-0.2,0.4-0.3,0.6-0.4c0.2-0.1,0.6-0.1,1-0.2c0.4-0.1,0.9-0.1,1.2-0.1v1.8
	C143.7,25.7,143.4,25.8,143.1,25.9 M133.1,25.3c-0.4,0.4-0.9,0.7-1.7,0.7c-0.2,0-0.4,0-0.6,0s-0.4-0.1-0.6-0.1v-4.4
	c0.3-0.2,0.5-0.3,0.8-0.3c0.3-0.1,0.6-0.1,0.8-0.1c0.6,0,1.1,0.2,1.4,0.6c0.3,0.4,0.4,1,0.4,1.9C133.6,24.2,133.5,24.9,133.1,25.3
	 M135.6,20c-0.6-0.8-1.5-1.2-2.5-1.2c-0.6,0-1.1,0.1-1.6,0.3c-0.5,0.2-0.9,0.5-1.3,0.8V19h-2.8v12h2.8v-3.7c0.4,0.2,0.7,0.3,1.1,0.4
	c0.3,0.1,0.8,0.2,1.3,0.2c0.5,0,1-0.1,1.5-0.3c0.5-0.2,0.9-0.5,1.3-0.9c0.4-0.4,0.6-0.9,0.9-1.5c0.2-0.6,0.3-1.3,0.3-2
	C136.5,21.9,136.2,20.8,135.6,20 M118.1,22.3h-1.8l2.1,5.4l-0.9,2.1h1.9l3-7.5h-1.8l-1.3,3.5L118.1,22.3z M102.5,21.1
	c0-0.4,0-0.8,0-1.2s0.1-0.8,0.3-1.2c0.1-0.3,0.3-0.6,0.5-0.9c0.2-0.3,0.5-0.5,0.8-0.8c0.3-0.2,0.6-0.4,1-0.5
	c0.4-0.1,0.8-0.2,1.2-0.2c1.2,0,2,0.3,2.5,0.8c0.5,0.6,0.7,1.4,0.7,2.5v8.1h1.4v-8.1c0-0.5,0-1-0.1-1.5s-0.2-0.9-0.5-1.4
	c-0.4-0.7-1-1.1-1.7-1.4s-1.4-0.4-2.1-0.4c-0.9,0-1.6,0.2-2.2,0.6c-0.6,0.4-1.2,0.9-1.8,1.5v-1.7h-1.4v12.4h1.4V21.1z M92.6,14
	l3.3-3.3H94L91.3,14H92.6z M96.7,23.5c-0.2,0.6-0.4,1.2-0.7,1.7c-0.3,0.5-0.8,0.9-1.3,1.2c-0.5,0.3-1.2,0.4-1.9,0.4
	c-0.7,0-1.3-0.1-1.8-0.4c-0.5-0.3-1-0.6-1.3-1.1c-0.4-0.5-0.6-1-0.8-1.7c-0.2-0.6-0.3-1.4-0.3-2.1c0-0.7,0.1-1.3,0.2-2
	c0.2-0.6,0.4-1.2,0.7-1.7c0.3-0.5,0.8-0.9,1.3-1.2c0.5-0.3,1.2-0.4,1.9-0.4c0.8,0,1.4,0.1,1.9,0.4s1,0.6,1.3,1.1s0.6,1,0.7,1.7
	c0.2,0.6,0.2,1.3,0.2,2.1C96.9,22.2,96.8,22.9,96.7,23.5 M95.1,27.6c0.7-0.3,1.3-0.8,1.8-1.3c0.5-0.6,0.9-1.3,1.2-2.1
	c0.3-0.8,0.4-1.7,0.4-2.7c0-0.9-0.1-1.8-0.3-2.6c-0.2-0.8-0.6-1.5-1.1-2.1c-0.5-0.6-1.1-1-1.8-1.4S93.7,15,92.7,15
	c-1,0-1.8,0.2-2.5,0.5c-0.7,0.3-1.3,0.8-1.8,1.4c-0.5,0.6-0.8,1.3-1.1,2.1s-0.4,1.6-0.4,2.6c0,1.1,0.2,2,0.5,2.9s0.7,1.5,1.2,2
	c0.5,0.5,1.1,1,1.8,1.2c0.7,0.3,1.4,0.4,2.2,0.4C93.6,28.1,94.3,28,95.1,27.6 M84.2,10.5h-1.6v2.1h1.6V10.5z M84.1,15.3h-1.4v12.4
	h1.4V15.3z M79.4,19.3c-0.2-1.5-0.8-2.5-1.7-3.2s-2.1-1-3.5-1c-0.9,0-1.7,0.2-2.5,0.5c-0.7,0.4-1.3,0.8-1.8,1.5
	c-0.5,0.6-0.8,1.3-1.1,2.1c-0.2,0.8-0.4,1.6-0.4,2.5c0,0.9,0.1,1.8,0.3,2.6c0.2,0.8,0.6,1.5,1,2.1c0.5,0.6,1.1,1,1.8,1.4
	c0.7,0.3,1.6,0.5,2.6,0.5c0.8,0,1.5-0.1,2.1-0.3s1.1-0.5,1.6-0.9c0.4-0.4,0.8-0.9,1.1-1.5c0.3-0.6,0.5-1.2,0.6-1.9H78
	c-0.2,1-0.6,1.9-1.2,2.4c-0.6,0.6-1.5,0.9-2.6,0.9c-0.8,0-1.4-0.1-1.9-0.4c-0.5-0.3-1-0.7-1.3-1.2c-0.3-0.5-0.6-1.1-0.7-1.7
	S70,22.2,70,21.6c0-0.6,0.1-1.3,0.2-1.9c0.2-0.6,0.4-1.2,0.7-1.7c0.3-0.5,0.8-0.9,1.3-1.2c0.5-0.3,1.2-0.5,1.9-0.5
	c1,0,1.8,0.3,2.4,0.8c0.6,0.5,1.1,1.2,1.3,2.2H79.4z M59.5,20.8c-2.9,0.4-4.3,1.6-4.3,3.7c0,0.6,0.1,1.1,0.3,1.6
	c0.2,0.4,0.5,0.8,0.9,1.1c0.4,0.3,0.8,0.5,1.3,0.7c0.5,0.1,1,0.2,1.6,0.2c0.9,0,1.8-0.2,2.5-0.5c0.8-0.4,1.5-0.9,2.1-1.5
	c0,0.2,0,0.4,0,0.6c0,0.2,0.1,0.4,0.2,0.6c0.1,0.2,0.2,0.3,0.3,0.4s0.3,0.2,0.6,0.2c0.2,0,0.4,0.1,0.6,0.1c0.2,0,0.4,0,0.6-0.1
	c0.2-0.1,0.4-0.1,0.5-0.1v-1.1c-0.6,0.2-1,0.3-1.2,0.1c-0.2-0.2-0.3-0.5-0.3-1.1v-6.8c0-0.7-0.1-1.3-0.3-1.8c-0.2-0.5-0.6-0.9-1-1.2
	c-0.4-0.3-0.9-0.5-1.4-0.6C62,15.1,61.4,15,60.8,15c-0.7,0-1.3,0.1-1.9,0.2c-0.6,0.2-1.1,0.4-1.6,0.7c-0.5,0.3-0.8,0.8-1.1,1.3
	c-0.3,0.5-0.5,1.1-0.5,1.9h1.5c0.1-0.5,0.2-1,0.4-1.4s0.5-0.6,0.8-0.9s0.7-0.4,1.1-0.5c0.4-0.1,0.9-0.1,1.4-0.1
	c1.1,0,1.9,0.2,2.4,0.7s0.7,1.1,0.7,1.8c0,0.2,0,0.5-0.1,0.7s-0.2,0.5-0.4,0.6c-0.2,0.1-0.5,0.2-0.9,0.3c-0.4,0.1-0.7,0.1-1,0.1
	L59.5,20.8z M63.9,23.2c0,0.6-0.1,1.2-0.4,1.6c-0.3,0.5-0.6,0.8-1,1.1s-0.9,0.5-1.5,0.7c-0.5,0.1-1.1,0.2-1.7,0.2
	c-0.3,0-0.7,0-1-0.1c-0.3-0.1-0.6-0.2-0.9-0.4c-0.2-0.2-0.4-0.4-0.6-0.7c-0.2-0.3-0.2-0.6-0.2-1c0-0.8,0.3-1.5,0.9-1.9
	c0.6-0.4,1.5-0.7,2.6-0.7c0.6,0,1.2-0.1,1.9-0.2c0.6-0.1,1.2-0.2,1.8-0.5V23.2z M52.7,19.3c-0.2-1.5-0.8-2.5-1.7-3.2s-2.1-1-3.5-1
	c-0.9,0-1.7,0.2-2.5,0.5c-0.7,0.4-1.3,0.8-1.8,1.5c-0.5,0.6-0.8,1.3-1.1,2.1c-0.2,0.8-0.4,1.6-0.4,2.5c0,0.9,0.1,1.8,0.3,2.6
	c0.2,0.8,0.6,1.5,1,2.1s1.1,1,1.8,1.4c0.7,0.3,1.6,0.5,2.6,0.5c0.8,0,1.5-0.1,2.1-0.3s1.1-0.5,1.6-0.9c0.4-0.4,0.8-0.9,1.1-1.5
	c0.3-0.6,0.5-1.2,0.6-1.9h-1.5c-0.2,1-0.6,1.9-1.2,2.4c-0.6,0.6-1.5,0.9-2.6,0.9c-0.8,0-1.4-0.1-1.9-0.4c-0.5-0.3-1-0.7-1.3-1.2
	c-0.3-0.5-0.6-1.1-0.7-1.7s-0.2-1.3-0.2-1.9c0-0.6,0.1-1.3,0.2-1.9s0.4-1.2,0.7-1.7c0.3-0.5,0.8-0.9,1.3-1.2
	c0.5-0.3,1.2-0.5,1.9-0.5c1,0,1.8,0.3,2.4,0.8c0.6,0.5,1.1,1.2,1.3,2.2H52.7z M38,23.5c-0.2,0.6-0.4,1.2-0.7,1.7
	c-0.3,0.5-0.8,0.9-1.3,1.2c-0.5,0.3-1.2,0.4-1.9,0.4c-0.7,0-1.3-0.1-1.8-0.4c-0.5-0.3-1-0.6-1.3-1.1c-0.4-0.5-0.6-1-0.8-1.7
	c-0.2-0.6-0.3-1.4-0.3-2.1c0-0.7,0.1-1.3,0.2-2s0.4-1.2,0.7-1.7s0.8-0.9,1.3-1.2c0.5-0.3,1.2-0.4,1.9-0.4c0.8,0,1.4,0.1,1.9,0.4
	s1,0.6,1.3,1.1c0.3,0.5,0.6,1,0.7,1.7c0.2,0.6,0.2,1.3,0.2,2.1C38.2,22.2,38.1,22.9,38,23.5 M36.4,27.6c0.7-0.3,1.3-0.8,1.8-1.3
	c0.5-0.6,0.9-1.3,1.2-2.1s0.4-1.7,0.4-2.7c0-0.9-0.1-1.8-0.3-2.6c-0.2-0.8-0.6-1.5-1.1-2.1s-1.1-1-1.8-1.4C35.8,15.2,35,15,34,15
	c-1,0-1.8,0.2-2.5,0.5c-0.7,0.3-1.3,0.8-1.8,1.4s-0.8,1.3-1.1,2.1s-0.4,1.6-0.4,2.6c0,1.1,0.2,2,0.5,2.9c0.3,0.8,0.7,1.5,1.2,2
	c0.5,0.5,1.1,1,1.8,1.2c0.7,0.3,1.4,0.4,2.2,0.4C34.9,28.1,35.6,28,36.4,27.6 M19.1,27.8h1.8l6-17.3h-1.7L20,25.9l-5.2-15.4h-1.7
	L19.1,27.8z M10.6,20.5h0.1c0.9,0,1.3-0.5,1.3-1.3c0-0.8-0.3-1.1-1.1-1.4v-2.6H9.7c-0.2,0.6-0.4,2.2-0.4,3.5v0.5
	C9.3,20.1,9.7,20.5,10.6,20.5 M6.9,20.5h0.1c0.9,0,1.3-0.5,1.3-1.3c0-0.8-0.3-1.1-1.1-1.4v-2.6H6c-0.2,0.6-0.4,2.2-0.4,3.5v0.5
	C5.6,20.1,6.1,20.5,6.9,20.5"/>
</svg>
