<?xml version="1.0" encoding="utf-8"?>
<!-- Generator: Adobe Illustrator 19.0.0, SVG Export Plug-In . SVG Version: 6.00 Build 0)  -->
<svg version="1.1" id="Layer_1" xmlns="http://www.w3.org/2000/svg" xmlns:xlink="http://www.w3.org/1999/xlink" x="0px" y="0px"
	 viewBox="-285 377 40 40" style="enable-background:new -285 377 40 40;" xml:space="preserve">
<style type="text/css">
	.st0{fill:#FFFFFF;}
	.st1{fill:#3185FF;}
</style>
<g id="XMLID_797_">
	<path id="XMLID_801_" class="st0" d="M-1639.2,595c0.1,0,0.2,0,0.3,0l0,0c0.2,0,0.4,0,0.6,0.1c0.3,0,0.5,0.1,0.8,0.2
		c0.5,0.2,1,0.4,1.5,0.8c0.5,0.4,1,0.9,1.3,1.5c0.3,0.5,0.4,1,0.5,1.5c0,0.2,0.1,0.5,0.1,0.7c0,0.1,0,0.1,0,0.2s0,0.2,0,0.3l0,0
		c0,0.2,0,0.4-0.1,0.6c-0.1,0.3-0.1,0.6-0.3,1c-0.3,0.8-0.8,1.6-1.5,2.1c-0.3,0.3-0.7,0.5-1.1,0.7c-0.3,0.2-0.7,0.3-1,0.3
		c-0.2,0-0.3,0.1-0.5,0.1c-0.1,0-0.2,0-0.4,0l0,0c-0.1,0-0.2,0-0.3,0l0,0c-0.1,0-0.2,0-0.3,0c-0.2,0-0.4,0-0.5-0.1
		c-0.3-0.1-0.6-0.2-0.9-0.3c-0.6-0.3-1.1-0.6-1.6-1.1c-0.6-0.6-1-1.2-1.2-1.9c-0.1-0.3-0.2-0.6-0.2-0.9c0-0.2,0-0.3,0-0.5l0,0
		c0-0.1,0-0.2,0-0.3l0,0c0-0.1,0-0.2,0-0.3c0-0.2,0-0.4,0.1-0.6c0.2-0.9,0.6-1.6,1.2-2.3s1.4-1.2,2.3-1.4c0.2-0.1,0.5-0.1,0.7-0.2
		c0.1,0,0.3,0,0.4,0C-1639.3,595-1639.2,595-1639.2,595z M-1641.5,600c0,0.5,0,1,0,1.5c0,0.1,0,0.1,0,0.2c0,0.2,0.1,0.4,0.2,0.5
		c0.2,0.2,0.4,0.3,0.7,0.3c1,0,2,0,3,0h0.1c0.3,0,0.5-0.1,0.6-0.3s0.2-0.4,0.2-0.6c0-1,0-2,0-2.9v-0.1c0-0.2-0.1-0.4-0.3-0.6
		c-0.2-0.2-0.4-0.2-0.7-0.2c-1,0-2,0-2.9,0c-0.1,0-0.1,0-0.2,0c-0.2,0-0.4,0.1-0.5,0.2c-0.2,0.2-0.3,0.4-0.3,0.7
		C-1641.5,599-1641.5,599.5-1641.5,600z"/>
	<path id="XMLID_800_" class="st0" d="M-1637.8,599.5c0.2,0,0.5,0,0.7,0l0,0c0,0.7,0,1.3,0,2c0,0.2-0.2,0.4-0.4,0.5h-0.1
		c-1,0-2,0-3,0c-0.2,0-0.4-0.2-0.5-0.4v-0.1c0-0.6,0-1.3,0-1.9l0,0c0.2,0,0.5,0,0.7,0c-0.1,0.3-0.1,0.7,0,1c0.1,0.2,0.3,0.4,0.5,0.6
		c0.5,0.3,1,0.3,1.5,0c0.2-0.2,0.4-0.4,0.5-0.7C-1637.7,600.1-1637.7,599.8-1637.8,599.5z"/>
	<path id="XMLID_799_" class="st0" d="M-1638.2,600c0,0.5-0.4,0.8-0.9,0.8s-0.8-0.4-0.8-0.9s0.4-0.8,0.9-0.8
		S-1638.2,599.6-1638.2,600z"/>
	<path id="XMLID_798_" class="st0" d="M-1638,598.1c0.3,0,0.6,0,0.8,0c0,0.3,0,0.5,0,0.8l0,0c-0.3,0-0.5,0-0.8,0l0,0
		C-1638,598.7-1638,598.4-1638,598.1L-1638,598.1z"/>
</g>
<g id="XMLID_20_">
	<path class="st1" d="M-265.3,380.5c-9.5,0-17.2,7.7-17.2,17.1s7.7,17.1,17.2,17.1c9.5,0,17.1-7.7,17.1-17.1
		S-255.9,380.5-265.3,380.5z"/>
</g>
<g id="XMLID_516_">
	<g id="XMLID_524_">
		<g>
			<path id="XMLID_9_" class="st0" d="M-256.3,402.5c0,0.9-0.8,1.7-1.7,1.7l-14.8,0c-0.9,0-1.7-0.8-1.7-1.7v-9.8
				c0-0.9,0.8-1.7,1.7-1.7l14.8,0c0.9,0,1.7,0.8,1.7,1.7L-256.3,402.5z"/>
		</g>
	</g>
	<path class="st1" d="M-258.3,401.4l-3.8-3.8l3.8-3.6c0.3-0.2,0.3-0.6,0-0.9c-0.2-0.3-0.6-0.3-0.9,0l-6.2,5.9l-6-5.9
		c-0.2-0.2-0.6-0.2-0.9,0c-0.2,0.3-0.2,0.7,0,0.9l3.7,3.6l-3.7,3.7c-0.2,0.2-0.2,0.6,0,0.9c0.1,0.1,0.3,0.2,0.4,0.2
		c0.2,0,0.3-0.1,0.4-0.2l3.7-3.7l1.9,1.8c0.1,0.1,0.3,0.2,0.4,0.2c0.2,0,0.3-0.1,0.4-0.2l2-1.8l3.8,3.8c0.1,0.1,0.3,0.2,0.4,0.2
		c0.2,0,0.3-0.1,0.4-0.2C-258.1,402-258.1,401.6-258.3,401.4z"/>
</g>
</svg>
