<?xml version="1.0" encoding="utf-8"?>
<!-- Generator: Adobe Illustrator 19.0.0, SVG Export Plug-In . SVG Version: 6.00 Build 0)  -->
<svg version="1.1" id="Layer_1" xmlns="http://www.w3.org/2000/svg" xmlns:xlink="http://www.w3.org/1999/xlink" x="0px" y="0px"
	 viewBox="0 0 338.2 32.7" style="enable-background:new 0 0 338.2 32.7;" xml:space="preserve">
<style type="text/css">
	.st0{fill:#293387;}
</style>
<path id="XMLID_35_" class="st0" d="M328.3,15.6h1.3c0.2-0.6,0.4-2.2,0.4-3.5v-0.5c0-0.9-0.4-1.4-1.3-1.4h-0.1
	c-0.9,0-1.3,0.5-1.3,1.4c0,0.8,0.3,1.1,1.1,1.4V15.6z M324.6,15.6h1.3c0.2-0.6,0.4-2.2,0.4-3.5v-0.5c0-0.9-0.4-1.4-1.3-1.4h-0.1
	c-0.9,0-1.3,0.5-1.3,1.4c0,0.8,0.3,1.1,1.1,1.4V15.6z M312.1,18.9c0,0.6,0.2,1.1,0.4,1.7c0.2,0.5,0.5,1,0.9,1.3
	c0.4,0.4,0.9,0.7,1.5,0.9s1.2,0.3,2,0.3s1.4-0.1,2-0.2c0.6-0.2,1.1-0.4,1.6-0.7c0.4-0.3,0.8-0.7,1.1-1.1c0.3-0.5,0.4-1,0.4-1.6
	c0-0.8-0.2-1.4-0.6-1.9c-0.4-0.4-0.9-0.8-1.5-1.1s-1.2-0.5-1.9-0.6c-0.7-0.1-1.3-0.3-1.9-0.5c-0.6-0.2-1.1-0.4-1.5-0.7
	c-0.4-0.3-0.6-0.7-0.6-1.3c0-0.6,0.2-1.2,0.7-1.5c0.5-0.4,1.2-0.6,2.1-0.6c0.9,0,1.7,0.2,2.3,0.6c0.6,0.4,1,1.1,1.1,2h1.5
	c-0.2-1.4-0.7-2.4-1.5-3s-1.9-0.9-3.3-0.9c-1.4,0-2.5,0.3-3.2,1c-0.8,0.7-1.1,1.5-1.1,2.6c0,0.8,0.2,1.4,0.6,1.9
	c0.4,0.4,0.9,0.8,1.5,1c0.6,0.2,1.2,0.4,1.9,0.5s1.3,0.3,1.9,0.4c0.6,0.2,1.1,0.4,1.5,0.7c0.4,0.3,0.6,0.7,0.6,1.4
	c0,0.3-0.1,0.6-0.2,0.9c-0.1,0.3-0.3,0.5-0.6,0.7c-0.2,0.2-0.6,0.4-0.9,0.5c-0.4,0.1-0.8,0.2-1.4,0.2c-1.1,0-1.9-0.2-2.5-0.7
	c-0.6-0.4-1-1.2-1.2-2.3H312.1z M308.3,18.6c-0.2,0.6-0.4,1.2-0.7,1.7c-0.3,0.5-0.8,0.9-1.3,1.2c-0.5,0.3-1.2,0.4-1.9,0.4
	c-0.7,0-1.3-0.1-1.8-0.4c-0.5-0.3-1-0.6-1.3-1.1c-0.4-0.5-0.6-1-0.8-1.7s-0.3-1.4-0.3-2.1c0-0.7,0.1-1.3,0.2-2
	c0.2-0.6,0.4-1.2,0.7-1.7c0.3-0.5,0.8-0.9,1.3-1.2c0.5-0.3,1.2-0.4,1.9-0.4c0.8,0,1.4,0.1,1.9,0.4c0.5,0.3,1,0.6,1.3,1.1
	c0.3,0.5,0.6,1,0.7,1.7c0.2,0.6,0.2,1.3,0.2,2.1C308.5,17.3,308.4,17.9,308.3,18.6 M306.7,22.7c0.7-0.3,1.3-0.8,1.8-1.3
	c0.5-0.6,0.9-1.3,1.2-2.1c0.3-0.8,0.4-1.7,0.4-2.7c0-0.9-0.1-1.8-0.3-2.6c-0.2-0.8-0.6-1.5-1.1-2.1c-0.5-0.6-1.1-1-1.8-1.4
	c-0.7-0.3-1.6-0.5-2.5-0.5c-1,0-1.8,0.2-2.5,0.5c-0.7,0.3-1.3,0.8-1.8,1.4c-0.5,0.6-0.8,1.3-1.1,2.1c-0.2,0.8-0.4,1.6-0.4,2.6
	c0,1.1,0.2,2,0.5,2.9c0.3,0.8,0.7,1.5,1.2,2c0.5,0.5,1.1,1,1.8,1.2c0.7,0.3,1.4,0.4,2.2,0.4C305.2,23.2,306,23,306.7,22.7
	 M295.9,5.5h-1.6v2.1h1.6V5.5z M294.4,10.4v14.3c0,0.3,0,0.6-0.1,0.8c-0.1,0.2-0.2,0.4-0.3,0.6c-0.1,0.1-0.3,0.2-0.6,0.3
	c-0.3,0-0.6,0-1,0v1.3c0.3,0.1,0.6,0.1,0.9,0.1c0.6,0,1-0.1,1.4-0.2c0.3-0.1,0.6-0.3,0.7-0.6c0.2-0.3,0.3-0.6,0.3-1s0.1-0.9,0.1-1.4
	V10.4H294.4z M289.6,18.6c-0.2,0.6-0.4,1.2-0.7,1.7c-0.3,0.5-0.8,0.9-1.3,1.2c-0.5,0.3-1.2,0.4-1.9,0.4c-0.7,0-1.3-0.1-1.8-0.4
	c-0.5-0.3-1-0.6-1.3-1.1c-0.4-0.5-0.6-1-0.8-1.7s-0.3-1.4-0.3-2.1c0-0.7,0.1-1.3,0.2-2c0.2-0.6,0.4-1.2,0.7-1.7
	c0.3-0.5,0.8-0.9,1.3-1.2c0.5-0.3,1.2-0.4,1.9-0.4c0.8,0,1.4,0.1,1.9,0.4c0.5,0.3,1,0.6,1.3,1.1c0.3,0.5,0.6,1,0.7,1.7
	c0.2,0.6,0.2,1.3,0.2,2.1C289.9,17.3,289.8,17.9,289.6,18.6 M288,22.7c0.7-0.3,1.3-0.8,1.8-1.3s0.9-1.3,1.2-2.1
	c0.3-0.8,0.4-1.7,0.4-2.7c0-0.9-0.1-1.8-0.3-2.6c-0.2-0.8-0.6-1.5-1.1-2.1c-0.5-0.6-1.1-1-1.8-1.4c-0.7-0.3-1.6-0.5-2.5-0.5
	c-1,0-1.8,0.2-2.5,0.5c-0.7,0.3-1.3,0.8-1.8,1.4c-0.5,0.6-0.8,1.3-1.1,2.1c-0.2,0.8-0.4,1.6-0.4,2.6c0,1.1,0.2,2,0.5,2.9
	c0.3,0.8,0.7,1.5,1.2,2c0.5,0.5,1.1,1,1.8,1.2c0.7,0.3,1.4,0.4,2.2,0.4C286.5,23.2,287.3,23,288,22.7 M274.9,20.1
	c-0.2-0.3-0.6-0.4-1-0.6c-0.2-0.1-0.4-0.1-0.6-0.1c-0.2,0-0.4-0.1-0.6-0.1c-0.3-0.1-0.5-0.1-0.6-0.2c-0.1-0.1-0.1-0.2-0.1-0.3
	c0-0.1,0.1-0.3,0.3-0.3c0.2-0.1,0.4-0.1,0.7-0.1c0.3,0,0.7,0.1,1,0.2c0.3,0.1,0.6,0.3,0.9,0.4h0.2v-1.4c-0.2-0.1-0.5-0.2-0.9-0.3
	c-0.4-0.1-0.8-0.1-1.2-0.1c-0.9,0-1.5,0.2-2,0.5c-0.5,0.3-0.7,0.8-0.7,1.3c0,0.4,0.1,0.8,0.4,1s0.6,0.5,1.1,0.6
	c0.2,0,0.4,0.1,0.6,0.1c0.2,0,0.4,0.1,0.5,0.1c0.3,0.1,0.5,0.1,0.6,0.2c0.1,0.1,0.1,0.2,0.1,0.3c0,0.1-0.1,0.3-0.2,0.3
	c-0.2,0.1-0.4,0.1-0.8,0.1c-0.3,0-0.5,0-0.7-0.1c-0.2-0.1-0.4-0.1-0.6-0.2c-0.2-0.1-0.4-0.2-0.5-0.2c-0.1-0.1-0.2-0.1-0.3-0.2h-0.2
	v1.4c0.2,0.1,0.6,0.2,1,0.3c0.4,0.1,0.8,0.1,1.3,0.1c0.9,0,1.6-0.2,2.1-0.5c0.5-0.3,0.8-0.8,0.8-1.4
	C275.2,20.7,275.1,20.4,274.9,20.1 M266.6,21.7c-0.1,0.1-0.3,0.1-0.5,0.1c-0.2,0-0.4,0-0.5-0.1c-0.1-0.1-0.3-0.2-0.4-0.3
	c-0.1-0.1-0.2-0.3-0.2-0.5c-0.1-0.2-0.1-0.5-0.1-0.8c0-0.3,0-0.6,0.1-0.8c0.1-0.2,0.1-0.4,0.3-0.5c0.1-0.1,0.2-0.2,0.4-0.3
	c0.1,0,0.3-0.1,0.5-0.1c0.2,0,0.3,0,0.5,0.1c0.1,0.1,0.3,0.1,0.4,0.3c0.1,0.1,0.2,0.3,0.2,0.5c0.1,0.2,0.1,0.5,0.1,0.8
	c0,0.3,0,0.6-0.1,0.8s-0.1,0.4-0.3,0.5C266.9,21.5,266.8,21.6,266.6,21.7 M268.4,18c-0.5-0.5-1.3-0.8-2.2-0.8
	c-0.9,0-1.7,0.3-2.2,0.8c-0.5,0.5-0.8,1.2-0.8,2.1c0,0.9,0.3,1.6,0.8,2.1c0.5,0.5,1.3,0.8,2.2,0.8c0.9,0,1.7-0.3,2.2-0.8
	c0.5-0.5,0.8-1.2,0.8-2.1C269.2,19.2,268.9,18.5,268.4,18 M261.9,15.2h-1.8v7.6h1.8V15.2z M253.4,22.8h1.7v-3.7
	c0-0.7-0.2-1.1-0.7-1.4c-0.4-0.3-1.2-0.5-2.2-0.5c-0.4,0-0.8,0-1.3,0.1c-0.4,0.1-0.7,0.1-0.9,0.2v1.3h0.2c0.1-0.1,0.4-0.1,0.7-0.2
	c0.3-0.1,0.6-0.2,0.9-0.2c0.5,0,0.8,0.1,1.1,0.2c0.2,0.1,0.4,0.3,0.4,0.6v0c-0.5,0-1,0.1-1.5,0.1c-0.5,0.1-0.9,0.2-1.2,0.3
	c-0.3,0.1-0.6,0.3-0.8,0.6s-0.3,0.6-0.3,1c0,0.5,0.2,0.9,0.5,1.2c0.4,0.3,0.8,0.5,1.3,0.5c0.2,0,0.4,0,0.6-0.1
	c0.2,0,0.4-0.1,0.5-0.2c0.1-0.1,0.3-0.1,0.4-0.2c0.1-0.1,0.3-0.2,0.4-0.3V22.8z M252.9,21.7c-0.2,0.1-0.4,0.1-0.5,0.1
	c-0.2,0-0.4,0-0.5,0s-0.2-0.1-0.3-0.1c-0.1-0.1-0.1-0.1-0.1-0.2c0-0.1,0-0.2,0-0.3c0-0.2,0-0.3,0.1-0.4c0.1-0.1,0.2-0.2,0.4-0.2
	c0.1,0,0.4-0.1,0.6-0.1c0.3,0,0.5-0.1,0.8-0.1v1.1C253.2,21.5,253.1,21.6,252.9,21.7 M239.8,18.7c0-0.5,0.2-0.8,0.4-1
	c0.3-0.2,0.6-0.3,1-0.3c0.4,0,0.8,0.1,1,0.3c0.2,0.2,0.3,0.6,0.3,1H239.8z M244.6,19.2c0-1-0.3-1.8-0.8-2.3s-1.3-0.8-2.4-0.8
	c-1.2,0-2.1,0.3-2.7,1c-0.7,0.6-1,1.5-1,2.6c0,1.1,0.4,1.9,1.1,2.5c0.7,0.6,1.7,0.9,3,0.9c0.5,0,1,0,1.4-0.1s0.9-0.2,1.3-0.4v-1.7
	h-0.2c-0.2,0.2-0.6,0.4-1,0.5c-0.4,0.2-0.8,0.2-1.3,0.2c-0.7,0-1.2-0.1-1.6-0.4c-0.4-0.3-0.6-0.7-0.6-1.2h4.8V19.2z M236.2,13.7
	h-2.1v9.1h2.1V13.7z M229.9,21c-0.3,0.3-0.7,0.5-1.2,0.5c-0.2,0-0.4,0-0.5,0c-0.1,0-0.3-0.1-0.4-0.1V18c0.2-0.1,0.4-0.2,0.6-0.3
	c0.2-0.1,0.4-0.1,0.6-0.1c0.5,0,0.9,0.2,1.1,0.5c0.2,0.3,0.3,0.8,0.3,1.4C230.4,20.1,230.2,20.6,229.9,21 M231.9,17
	c-0.4-0.6-1.1-0.9-1.9-0.9c-0.4,0-0.8,0.1-1.2,0.2c-0.3,0.2-0.7,0.4-1,0.6v-3.2h-2.1v9.1h2l0.1-0.3c0.2,0.1,0.5,0.3,0.8,0.3
	c0.3,0.1,0.6,0.1,1,0.1c0.9,0,1.6-0.3,2.1-1c0.6-0.7,0.9-1.5,0.9-2.5C232.5,18.4,232.3,17.6,231.9,17 M223.7,13.7h-2.2v1.6h2.2V13.7
	z M223.7,16.2h-2.1v6.6h2.1V16.2z M219.8,19.6c-0.3-0.3-0.7-0.5-1.2-0.7c-0.2-0.1-0.5-0.1-0.7-0.2c-0.2,0-0.5-0.1-0.7-0.1
	c-0.4-0.1-0.6-0.2-0.7-0.2c-0.1-0.1-0.2-0.2-0.2-0.4c0-0.2,0.1-0.3,0.3-0.4c0.2-0.1,0.5-0.1,0.9-0.1c0.4,0,0.8,0.1,1.2,0.2
	c0.4,0.1,0.8,0.3,1.1,0.5h0.2v-1.7c-0.3-0.1-0.6-0.2-1.1-0.3s-0.9-0.1-1.4-0.1c-1,0-1.9,0.2-2.5,0.6c-0.6,0.4-0.9,0.9-0.9,1.6
	c0,0.5,0.1,0.9,0.4,1.2c0.3,0.3,0.7,0.6,1.3,0.7c0.2,0.1,0.5,0.1,0.7,0.1c0.3,0,0.5,0.1,0.6,0.1c0.3,0.1,0.6,0.1,0.7,0.2
	c0.1,0.1,0.2,0.2,0.2,0.3c0,0.2-0.1,0.3-0.3,0.4c-0.2,0.1-0.5,0.1-0.9,0.1c-0.3,0-0.6,0-0.9-0.1c-0.3-0.1-0.5-0.1-0.7-0.2
	c-0.3-0.1-0.5-0.2-0.6-0.3c-0.1-0.1-0.3-0.2-0.4-0.2H214v1.7c0.3,0.1,0.7,0.3,1.1,0.4c0.5,0.1,1,0.2,1.6,0.2c1.1,0,1.9-0.2,2.5-0.6
	c0.6-0.4,0.9-1,0.9-1.6C220.2,20.3,220,19.9,219.8,19.6 M212.5,13.7h-2.2v1.6h2.2V13.7z M212.5,16.2h-2.1v6.6h2.1V16.2z M207,16.2
	l-1.5,4.5l-1.5-4.5h-2.2l2.5,6.6h2.4l2.5-6.6H207z M200.6,18.5c0-0.8-0.2-1.4-0.6-1.9c-0.4-0.4-1-0.6-1.7-0.6
	c-0.4,0-0.8,0.1-1.2,0.2c-0.3,0.2-0.7,0.4-1.1,0.7v-0.7H194v6.6h2.1v-4.7c0.2-0.1,0.4-0.2,0.6-0.3c0.2-0.1,0.4-0.1,0.6-0.1
	c0.3,0,0.5,0,0.6,0.1c0.1,0.1,0.3,0.2,0.3,0.3c0.1,0.1,0.1,0.3,0.1,0.6c0,0.3,0,0.5,0,0.8v3.3h2.1V18.5z M192.1,13.7h-2.2v1.6h2.2
	V13.7z M192,16.2h-2.1v6.6h2.1V16.2z M180.1,20.9c0,0.3,0.1,0.6,0.2,0.8c0.1,0.3,0.3,0.5,0.5,0.7c0.2,0.2,0.4,0.3,0.7,0.4
	c0.3,0.1,0.6,0.2,1,0.2s0.7,0,1-0.1s0.6-0.2,0.8-0.3c0.2-0.2,0.4-0.3,0.5-0.6c0.1-0.2,0.2-0.5,0.2-0.8c0-0.4-0.1-0.7-0.3-0.9
	c-0.2-0.2-0.4-0.4-0.7-0.5c-0.3-0.1-0.6-0.2-1-0.3c-0.3-0.1-0.7-0.2-1-0.2c-0.3-0.1-0.5-0.2-0.7-0.4c-0.2-0.1-0.3-0.4-0.3-0.6
	c0-0.3,0.1-0.6,0.4-0.8c0.2-0.2,0.6-0.3,1-0.3c0.5,0,0.8,0.1,1.1,0.3c0.3,0.2,0.5,0.5,0.5,1h0.7c-0.1-0.7-0.3-1.2-0.8-1.5
	c-0.4-0.3-1-0.4-1.6-0.4c-0.7,0-1.2,0.2-1.6,0.5c-0.4,0.3-0.6,0.8-0.6,1.3c0,0.4,0.1,0.7,0.3,0.9c0.2,0.2,0.4,0.4,0.7,0.5
	s0.6,0.2,1,0.3c0.3,0.1,0.7,0.1,1,0.2c0.3,0.1,0.5,0.2,0.7,0.3c0.2,0.1,0.3,0.4,0.3,0.7c0,0.2,0,0.3-0.1,0.4
	c-0.1,0.1-0.2,0.3-0.3,0.4c-0.1,0.1-0.3,0.2-0.5,0.3c-0.2,0.1-0.4,0.1-0.7,0.1c-0.5,0-1-0.1-1.3-0.3c-0.3-0.2-0.5-0.6-0.6-1.1H180.1
	z M179,19.9c0-1.1-0.2-2-0.7-2.6c-0.5-0.6-1.2-0.9-2-0.9c-0.4,0-0.8,0.1-1.2,0.3c-0.4,0.2-0.7,0.4-0.9,0.7c-0.2,0.3-0.4,0.6-0.6,1
	c-0.1,0.4-0.2,0.8-0.2,1.3c0,0.5,0.1,0.9,0.2,1.3s0.3,0.7,0.5,1c0.2,0.3,0.5,0.5,0.9,0.7c0.4,0.2,0.8,0.3,1.3,0.3
	c0.4,0,0.7-0.1,1-0.2c0.3-0.1,0.6-0.2,0.8-0.4c0.2-0.2,0.4-0.4,0.5-0.7c0.1-0.3,0.3-0.5,0.3-0.8h-0.8c-0.1,0.5-0.3,0.8-0.7,1.1
	c-0.3,0.2-0.7,0.4-1.2,0.4c-0.3,0-0.6-0.1-0.9-0.2c-0.3-0.1-0.5-0.3-0.7-0.5c-0.2-0.2-0.3-0.5-0.4-0.8c-0.1-0.3-0.1-0.6-0.1-1H179z
	 M174.2,19.3c0-0.3,0.1-0.6,0.2-0.8s0.2-0.5,0.4-0.7c0.2-0.2,0.4-0.4,0.6-0.5c0.2-0.1,0.5-0.2,0.8-0.2c0.3,0,0.6,0.1,0.9,0.2
	c0.2,0.1,0.5,0.3,0.6,0.5c0.2,0.2,0.3,0.4,0.4,0.7s0.1,0.6,0.1,0.9H174.2z M167.5,19.6c-0.1,0.5-0.3,0.9-0.6,1.3
	c-0.3,0.4-0.6,0.7-1,0.9c-0.4,0.2-0.9,0.3-1.4,0.3c-0.5,0-1-0.1-1.4-0.3c-0.4-0.2-0.7-0.5-1-0.8c-0.3-0.3-0.5-0.8-0.6-1.3
	s-0.2-1-0.2-1.6c0-0.5,0.1-1,0.2-1.5c0.1-0.5,0.3-0.9,0.6-1.3c0.3-0.4,0.6-0.7,1-0.9c0.4-0.2,0.9-0.3,1.4-0.3c0.6,0,1.1,0.1,1.5,0.3
	c0.4,0.2,0.7,0.5,1,0.8c0.3,0.4,0.4,0.8,0.6,1.3c0.1,0.5,0.2,1,0.2,1.5C167.7,18.7,167.7,19.2,167.5,19.6 M166.3,22.7
	c0.5-0.2,1-0.6,1.4-1c0.4-0.4,0.7-0.9,0.9-1.5c0.2-0.6,0.3-1.3,0.3-2c0-0.7-0.1-1.3-0.3-1.9c-0.2-0.6-0.4-1.1-0.8-1.6
	c-0.4-0.4-0.8-0.8-1.4-1c-0.5-0.3-1.2-0.4-1.9-0.4c-0.7,0-1.3,0.1-1.9,0.4c-0.5,0.3-1,0.6-1.3,1.1c-0.4,0.4-0.6,1-0.8,1.6
	c-0.2,0.6-0.3,1.2-0.3,1.9c0,0.8,0.1,1.5,0.3,2.1c0.2,0.6,0.5,1.1,0.9,1.5c0.4,0.4,0.8,0.7,1.4,0.9c0.5,0.2,1.1,0.3,1.7,0.3
	C165.2,23.1,165.8,23,166.3,22.7 M151.9,17.8c0-0.3,0-0.6,0-0.9c0-0.3,0.1-0.6,0.2-0.9c0.1-0.2,0.2-0.5,0.4-0.7
	c0.2-0.2,0.3-0.4,0.6-0.6c0.2-0.2,0.5-0.3,0.7-0.4c0.3-0.1,0.6-0.2,0.9-0.2c0.9,0,1.5,0.2,1.9,0.6c0.4,0.4,0.6,1.1,0.6,1.9v6.1h1.1
	v-6.1c0-0.4,0-0.8-0.1-1.1c0-0.4-0.2-0.7-0.4-1c-0.3-0.5-0.8-0.8-1.2-1c-0.5-0.2-1-0.3-1.6-0.3c-0.6,0-1.2,0.1-1.7,0.4
	c-0.5,0.3-0.9,0.7-1.3,1.1v-1.3h-1.1v9.3h1.1V17.8z M144.4,13.7h-2.1v9.1h2.1V13.7z M138.3,22.8h2.1v-4.5c0-0.8-0.3-1.4-0.8-1.7
	c-0.5-0.4-1.4-0.6-2.6-0.6c-0.5,0-1,0-1.5,0.1s-0.9,0.1-1.1,0.2V18h0.2c0.2-0.1,0.5-0.2,0.8-0.3c0.4-0.1,0.8-0.2,1.1-0.2
	c0.6,0,1,0.1,1.3,0.2s0.4,0.4,0.4,0.8v0c-0.6,0-1.2,0.1-1.8,0.2c-0.6,0.1-1.1,0.2-1.5,0.4c-0.4,0.2-0.7,0.4-0.9,0.7
	c-0.2,0.3-0.3,0.7-0.3,1.2c0,0.6,0.2,1.1,0.6,1.5s0.9,0.6,1.6,0.6c0.3,0,0.5,0,0.7-0.1c0.2,0,0.4-0.1,0.6-0.2
	c0.1-0.1,0.3-0.2,0.5-0.3s0.3-0.2,0.4-0.3V22.8z M137.7,21.4c-0.2,0.1-0.4,0.1-0.6,0.1c-0.3,0-0.5,0-0.6-0.1c-0.1,0-0.2-0.1-0.3-0.2
	c-0.1-0.1-0.2-0.2-0.2-0.2c0-0.1,0-0.2,0-0.3c0-0.2,0.1-0.4,0.2-0.5c0.1-0.1,0.3-0.2,0.5-0.3c0.2-0.1,0.4-0.1,0.8-0.1
	s0.6-0.1,0.9-0.1v1.4C138.1,21.2,137.9,21.4,137.7,21.4 M132.4,13.7h-2.2v1.6h2.2V13.7z M132.3,16.2h-2.1v6.6h2.1V16.2z M127.8,22.9
	c0.4-0.1,0.7-0.2,1-0.4v-1.8h-0.3c-0.1,0.1-0.2,0.2-0.3,0.3c-0.1,0.1-0.2,0.2-0.4,0.2c-0.1,0.1-0.3,0.2-0.5,0.2
	c-0.2,0.1-0.5,0.1-0.7,0.1c-0.6,0-1-0.2-1.3-0.5c-0.3-0.3-0.5-0.8-0.5-1.4c0-0.6,0.2-1.1,0.5-1.5c0.3-0.4,0.7-0.5,1.3-0.5
	c0.3,0,0.5,0,0.7,0.1c0.2,0.1,0.4,0.1,0.5,0.2c0.2,0.1,0.3,0.2,0.4,0.3c0.1,0.1,0.2,0.2,0.3,0.2h0.3v-1.8c-0.3-0.2-0.7-0.3-1.1-0.4
	c-0.4-0.1-0.8-0.1-1.2-0.1c-0.5,0-1,0.1-1.4,0.2c-0.5,0.1-0.9,0.3-1.2,0.6c-0.4,0.3-0.7,0.7-0.9,1.1c-0.2,0.4-0.3,1-0.3,1.6
	c0,0.6,0.1,1.1,0.3,1.5c0.2,0.4,0.5,0.8,0.8,1.1c0.4,0.3,0.8,0.5,1.2,0.6c0.5,0.1,1,0.2,1.6,0.2C127,23,127.4,23,127.8,22.9
	 M121.2,18.5c0-0.8-0.2-1.4-0.6-1.9c-0.4-0.4-1-0.6-1.7-0.6c-0.4,0-0.8,0.1-1.2,0.2s-0.7,0.4-1.1,0.7v-0.7h-2.1v6.6h2.1v-4.7
	c0.2-0.1,0.4-0.2,0.6-0.3c0.2-0.1,0.4-0.1,0.6-0.1c0.3,0,0.5,0,0.6,0.1c0.1,0.1,0.3,0.2,0.3,0.3c0.1,0.1,0.1,0.3,0.1,0.6
	c0,0.3,0,0.5,0,0.8v3.3h2.1V18.5z M108.3,18.7c0-0.5,0.2-0.8,0.4-1c0.3-0.2,0.6-0.3,1-0.3c0.4,0,0.8,0.1,1,0.3
	c0.2,0.2,0.3,0.6,0.3,1H108.3z M113.1,19.2c0-1-0.3-1.8-0.8-2.3c-0.5-0.5-1.3-0.8-2.4-0.8c-1.2,0-2.1,0.3-2.7,1
	c-0.7,0.6-1,1.5-1,2.6c0,1.1,0.4,1.9,1.1,2.5c0.7,0.6,1.7,0.9,3,0.9c0.5,0,1,0,1.4-0.1c0.4-0.1,0.9-0.2,1.3-0.4v-1.7h-0.2
	c-0.2,0.2-0.6,0.4-1,0.5c-0.4,0.2-0.8,0.2-1.3,0.2c-0.7,0-1.2-0.1-1.6-0.4c-0.4-0.3-0.6-0.7-0.6-1.2h4.8V19.2z M104.8,19.6
	c-0.3-0.3-0.7-0.5-1.2-0.7c-0.2-0.1-0.5-0.1-0.7-0.2c-0.2,0-0.5-0.1-0.7-0.1c-0.4-0.1-0.6-0.2-0.7-0.2c-0.1-0.1-0.2-0.2-0.2-0.4
	c0-0.2,0.1-0.3,0.3-0.4c0.2-0.1,0.5-0.1,0.9-0.1c0.4,0,0.8,0.1,1.2,0.2c0.4,0.1,0.8,0.3,1.1,0.5h0.2v-1.7c-0.3-0.1-0.6-0.2-1.1-0.3
	c-0.5-0.1-0.9-0.1-1.4-0.1c-1,0-1.9,0.2-2.5,0.6c-0.6,0.4-0.9,0.9-0.9,1.6c0,0.5,0.1,0.9,0.4,1.2s0.7,0.6,1.3,0.7
	c0.2,0.1,0.5,0.1,0.7,0.1c0.3,0,0.5,0.1,0.6,0.1c0.3,0.1,0.6,0.1,0.7,0.2c0.1,0.1,0.2,0.2,0.2,0.3c0,0.2-0.1,0.3-0.3,0.4
	c-0.2,0.1-0.5,0.1-0.9,0.1c-0.3,0-0.6,0-0.9-0.1c-0.3-0.1-0.5-0.1-0.7-0.2c-0.3-0.1-0.4-0.2-0.6-0.3c-0.1-0.1-0.3-0.2-0.4-0.2h-0.2
	v1.7c0.3,0.1,0.7,0.3,1.1,0.4c0.5,0.1,1,0.2,1.6,0.2c1.1,0,1.9-0.2,2.5-0.6s0.9-1,0.9-1.6C105.2,20.3,105.1,19.9,104.8,19.6
	 M93.2,18.7c0-0.5,0.2-0.8,0.4-1c0.3-0.2,0.6-0.3,1-0.3c0.4,0,0.8,0.1,1,0.3c0.2,0.2,0.3,0.6,0.3,1H93.2z M98,19.2
	c0-1-0.3-1.8-0.8-2.3S95.9,16,94.8,16c-1.2,0-2.1,0.3-2.7,1c-0.7,0.6-1,1.5-1,2.6c0,1.1,0.4,1.9,1.1,2.5c0.7,0.6,1.7,0.9,3,0.9
	c0.5,0,1,0,1.4-0.1c0.4-0.1,0.9-0.2,1.3-0.4v-1.7h-0.2c-0.2,0.2-0.6,0.4-1,0.5c-0.4,0.2-0.8,0.2-1.3,0.2c-0.7,0-1.2-0.1-1.6-0.4
	c-0.4-0.3-0.6-0.7-0.6-1.2H98V19.2z M83.4,22.8h2.1v-4.5c0-0.8-0.3-1.4-0.8-1.7c-0.5-0.4-1.4-0.6-2.6-0.6c-0.5,0-1,0-1.5,0.1
	s-0.9,0.1-1.1,0.2V18h0.2c0.2-0.1,0.5-0.2,0.8-0.3c0.4-0.1,0.8-0.2,1.1-0.2c0.6,0,1,0.1,1.3,0.2c0.3,0.1,0.4,0.4,0.4,0.8v0
	c-0.6,0-1.2,0.1-1.8,0.2c-0.6,0.1-1.1,0.2-1.5,0.4c-0.4,0.2-0.7,0.4-0.9,0.7c-0.2,0.3-0.3,0.7-0.3,1.2c0,0.6,0.2,1.1,0.6,1.5
	c0.4,0.4,0.9,0.6,1.6,0.6c0.3,0,0.5,0,0.7-0.1c0.2,0,0.4-0.1,0.6-0.2c0.1-0.1,0.3-0.2,0.5-0.3s0.3-0.2,0.4-0.3V22.8z M82.8,21.4
	c-0.2,0.1-0.4,0.1-0.6,0.1c-0.3,0-0.5,0-0.6-0.1c-0.1,0-0.2-0.1-0.3-0.2c-0.1-0.1-0.2-0.2-0.2-0.2c0-0.1,0-0.2,0-0.3
	c0-0.2,0.1-0.4,0.2-0.5c0.1-0.1,0.3-0.2,0.5-0.3c0.2-0.1,0.4-0.1,0.8-0.1c0.3,0,0.6-0.1,0.9-0.1v1.4C83.2,21.2,83.1,21.4,82.8,21.4
	 M77.6,19.6c-0.3-0.3-0.7-0.5-1.2-0.7c-0.2-0.1-0.5-0.1-0.7-0.2c-0.2,0-0.5-0.1-0.7-0.1c-0.4-0.1-0.6-0.2-0.7-0.2
	c-0.1-0.1-0.2-0.2-0.2-0.4c0-0.2,0.1-0.3,0.3-0.4c0.2-0.1,0.5-0.1,0.9-0.1c0.4,0,0.8,0.1,1.2,0.2s0.8,0.3,1.1,0.5h0.2v-1.7
	c-0.3-0.1-0.6-0.2-1.1-0.3c-0.5-0.1-0.9-0.1-1.4-0.1c-1,0-1.9,0.2-2.5,0.6c-0.6,0.4-0.9,0.9-0.9,1.6c0,0.5,0.1,0.9,0.4,1.2
	c0.3,0.3,0.7,0.6,1.3,0.7c0.2,0.1,0.5,0.1,0.7,0.1c0.3,0,0.5,0.1,0.6,0.1c0.3,0.1,0.6,0.1,0.7,0.2c0.1,0.1,0.2,0.2,0.2,0.3
	c0,0.2-0.1,0.3-0.3,0.4c-0.2,0.1-0.5,0.1-0.9,0.1c-0.3,0-0.6,0-0.9-0.1c-0.3-0.1-0.5-0.1-0.7-0.2c-0.3-0.1-0.5-0.2-0.6-0.3
	c-0.1-0.1-0.3-0.2-0.4-0.2h-0.2v1.7c0.3,0.1,0.7,0.3,1.1,0.4c0.5,0.1,1,0.2,1.6,0.2c1.1,0,1.9-0.2,2.5-0.6c0.6-0.4,0.9-1,0.9-1.6
	C78,20.3,77.9,19.9,77.6,19.6 M70.4,13.7h-2.2v1.6h2.2V13.7z M70.3,16.2h-2.1v6.6h2.1V16.2z M67,16.2c-0.1,0-0.2,0-0.2,0
	c-0.1,0-0.2,0-0.3,0c-0.3,0-0.6,0.1-0.9,0.2s-0.7,0.4-1.2,0.8v-1h-2.1v6.6h2.1v-4.4c0.3-0.1,0.5-0.2,0.7-0.2c0.2,0,0.5-0.1,0.8-0.1
	c0.1,0,0.3,0,0.5,0c0.2,0,0.3,0,0.4,0.1H67V16.2z M60.4,19.6c-0.3-0.3-0.7-0.5-1.2-0.7c-0.2-0.1-0.5-0.1-0.7-0.2
	c-0.2,0-0.5-0.1-0.7-0.1c-0.4-0.1-0.6-0.2-0.7-0.2c-0.1-0.1-0.2-0.2-0.2-0.4c0-0.2,0.1-0.3,0.3-0.4c0.2-0.1,0.5-0.1,0.9-0.1
	c0.4,0,0.8,0.1,1.2,0.2c0.4,0.1,0.8,0.3,1.1,0.5h0.2v-1.7c-0.3-0.1-0.6-0.2-1.1-0.3s-0.9-0.1-1.4-0.1c-1,0-1.9,0.2-2.5,0.6
	c-0.6,0.4-0.9,0.9-0.9,1.6c0,0.5,0.1,0.9,0.4,1.2s0.7,0.6,1.3,0.7c0.2,0.1,0.5,0.1,0.7,0.1c0.3,0,0.5,0.1,0.6,0.1
	c0.3,0.1,0.6,0.1,0.7,0.2c0.1,0.1,0.2,0.2,0.2,0.3c0,0.2-0.1,0.3-0.3,0.4c-0.2,0.1-0.5,0.1-0.9,0.1c-0.3,0-0.6,0-0.9-0.1
	c-0.3-0.1-0.5-0.1-0.7-0.2c-0.3-0.1-0.5-0.2-0.6-0.3c-0.1-0.1-0.3-0.2-0.4-0.2h-0.2v1.7c0.3,0.1,0.7,0.3,1.1,0.4
	c0.5,0.1,1,0.2,1.6,0.2c1.1,0,1.9-0.2,2.5-0.6c0.6-0.4,0.9-1,0.9-1.6C60.8,20.3,60.7,19.9,60.4,19.6 M53.2,18.5
	c0-0.8-0.2-1.4-0.6-1.9c-0.4-0.4-1-0.6-1.7-0.6c-0.4,0-0.8,0.1-1.1,0.2c-0.3,0.2-0.7,0.4-1.1,0.7v-0.7h-2.1v6.6h2.1v-4.7
	c0.2-0.1,0.4-0.2,0.6-0.3c0.2-0.1,0.4-0.1,0.6-0.1c0.3,0,0.5,0,0.6,0.1c0.2,0.1,0.3,0.2,0.3,0.3c0.1,0.1,0.1,0.3,0.1,0.6
	c0,0.3,0,0.5,0,0.8v3.3h2.1V18.5z M42,21.5c-0.2,0.1-0.4,0.1-0.5,0.1c-0.2,0-0.4,0-0.6-0.1c-0.2-0.1-0.3-0.2-0.4-0.3
	c-0.1-0.2-0.2-0.4-0.3-0.6c-0.1-0.3-0.1-0.6-0.1-0.9c0-0.4,0-0.7,0.1-1c0.1-0.3,0.2-0.5,0.3-0.6c0.1-0.2,0.3-0.3,0.5-0.3
	c0.2-0.1,0.3-0.1,0.5-0.1c0.2,0,0.4,0,0.6,0.1c0.2,0.1,0.3,0.2,0.5,0.3c0.1,0.2,0.2,0.4,0.3,0.6c0.1,0.3,0.1,0.6,0.1,1
	c0,0.4,0,0.7-0.1,1c-0.1,0.2-0.2,0.4-0.3,0.6C42.3,21.3,42.2,21.4,42,21.5 M44.1,17c-0.6-0.6-1.5-0.9-2.7-0.9c-1.1,0-2,0.3-2.7,0.9
	c-0.6,0.6-1,1.5-1,2.6c0,1.1,0.3,1.9,0.9,2.6c0.6,0.6,1.5,0.9,2.7,0.9c1.1,0,2-0.3,2.7-0.9c0.6-0.6,0.9-1.5,0.9-2.6
	C45.1,18.5,44.7,17.6,44.1,17 M36.5,19.6c-0.3-0.3-0.7-0.5-1.2-0.7c-0.2-0.1-0.5-0.1-0.7-0.2c-0.2,0-0.5-0.1-0.7-0.1
	c-0.4-0.1-0.6-0.2-0.7-0.2C33,18.3,33,18.2,33,18c0-0.2,0.1-0.3,0.3-0.4c0.2-0.1,0.5-0.1,0.9-0.1c0.4,0,0.8,0.1,1.2,0.2
	c0.4,0.1,0.8,0.3,1.1,0.5h0.2v-1.7c-0.3-0.1-0.6-0.2-1.1-0.3c-0.5-0.1-0.9-0.1-1.4-0.1c-1,0-1.9,0.2-2.5,0.6
	c-0.6,0.4-0.9,0.9-0.9,1.6c0,0.5,0.1,0.9,0.4,1.2s0.7,0.6,1.3,0.7c0.2,0.1,0.5,0.1,0.7,0.1c0.3,0,0.5,0.1,0.6,0.1
	c0.3,0.1,0.6,0.1,0.7,0.2c0.1,0.1,0.2,0.2,0.2,0.3c0,0.2-0.1,0.3-0.3,0.4c-0.2,0.1-0.5,0.1-0.9,0.1c-0.3,0-0.6,0-0.9-0.1
	c-0.3-0.1-0.5-0.1-0.7-0.2c-0.3-0.1-0.4-0.2-0.6-0.3c-0.1-0.1-0.3-0.2-0.4-0.2h-0.2v1.7c0.3,0.1,0.7,0.3,1.1,0.4
	c0.5,0.1,1,0.2,1.6,0.2c1.1,0,1.9-0.2,2.5-0.6s0.9-1,0.9-1.6C36.9,20.3,36.8,19.9,36.5,19.6 M21.5,17.6c-2.2,0.3-3.3,1.2-3.3,2.8
	c0,0.5,0.1,0.8,0.3,1.2c0.2,0.3,0.4,0.6,0.7,0.8c0.3,0.2,0.6,0.4,1,0.5s0.8,0.2,1.2,0.2c0.7,0,1.3-0.1,1.9-0.4
	c0.6-0.3,1.1-0.6,1.6-1.2c0,0.2,0,0.3,0,0.5c0,0.2,0.1,0.3,0.1,0.4c0.1,0.1,0.2,0.2,0.3,0.3s0.3,0.1,0.4,0.2c0.2,0,0.3,0.1,0.5,0.1
	c0.2,0,0.3,0,0.5-0.1s0.3-0.1,0.4-0.1v-0.8c-0.5,0.2-0.8,0.2-0.9,0.1c-0.2-0.1-0.2-0.4-0.2-0.8v-5.1c0-0.5-0.1-1-0.3-1.4
	c-0.2-0.4-0.4-0.7-0.7-0.9c-0.3-0.2-0.7-0.4-1.1-0.5c-0.4-0.1-0.9-0.2-1.3-0.2c-0.5,0-1,0.1-1.4,0.2c-0.5,0.1-0.8,0.3-1.2,0.5
	c-0.3,0.2-0.6,0.6-0.8,1c-0.2,0.4-0.3,0.9-0.4,1.4h1.1c0-0.4,0.1-0.7,0.3-1c0.1-0.3,0.3-0.5,0.6-0.6c0.2-0.2,0.5-0.3,0.8-0.3
	c0.3-0.1,0.7-0.1,1-0.1c0.8,0,1.4,0.2,1.8,0.5c0.4,0.4,0.5,0.8,0.5,1.4c0,0.2,0,0.4-0.1,0.5s-0.2,0.3-0.3,0.4
	c-0.2,0.1-0.4,0.2-0.7,0.2c-0.3,0-0.5,0.1-0.7,0.1L21.5,17.6z M24.8,19.4c0,0.5-0.1,0.9-0.3,1.2c-0.2,0.3-0.4,0.6-0.8,0.8
	c-0.3,0.2-0.7,0.4-1.1,0.5c-0.4,0.1-0.8,0.2-1.3,0.2c-0.3,0-0.5,0-0.7-0.1c-0.2-0.1-0.5-0.2-0.6-0.3c-0.2-0.1-0.3-0.3-0.4-0.5
	c-0.1-0.2-0.2-0.5-0.2-0.7c0-0.6,0.2-1.1,0.7-1.4c0.5-0.3,1.1-0.5,1.9-0.6c0.5,0,0.9-0.1,1.4-0.1c0.5-0.1,0.9-0.2,1.4-0.4V19.4z
	 M17.1,22.8v-1h-6.9V9.9H8.9v13H17.1z M6.3,18.8L6.3,18.8c0.5,0,0.8-0.3,0.8-0.8c0-0.4-0.1-0.6-0.6-0.8v-1.4H5.8
	c-0.1,0.3-0.2,1.2-0.2,1.9v0.3C5.6,18.5,5.8,18.8,6.3,18.8 M4.2,18.8L4.2,18.8c0.6,0,0.8-0.3,0.8-0.8c0-0.4-0.2-0.6-0.6-0.8v-1.4
	H3.7c-0.1,0.3-0.2,1.2-0.2,1.9v0.3C3.5,18.5,3.8,18.8,4.2,18.8"/>
</svg>
