<?xml version="1.0" encoding="utf-8"?>
<!-- Generator: Adobe Illustrator 19.0.0, SVG Export Plug-In . SVG Version: 6.00 Build 0)  -->
<svg version="1.1" id="Layer_1" xmlns="http://www.w3.org/2000/svg" xmlns:xlink="http://www.w3.org/1999/xlink" x="0px" y="0px"
	 viewBox="0 0 40 40" style="enable-background:new 0 0 40 40;" xml:space="preserve">
<style type="text/css">
	.st0{fill:#0D6DFF;}
</style>
<g>
	<path class="st0" d="M36.8,20c0-9.2-7.4-16.6-16.6-16.6S3.7,10.9,3.7,20c0,8.5,6.4,15.5,14.7,16.5c0-4,0-8.2,0-12.2
		c-1.1,0-2.1,0-3.2,0c0-1.4,0-2.9,0-4.3c1.1,0,2.1,0,3.2,0c0-0.1,0-0.2,0-0.3c0-1,0-2,0.1-3c0.2-1.6,1.1-3,2.5-4
		c1.1-0.9,2.5-1.3,3.9-1.3c1.3,0,2.6,0,3.9,0c0,0,0.1,0,0.2,0c0,1.4,0,2.9,0,4.3c-0.1,0-0.2,0-0.3,0c-1.2,0-2.5,0-3.8,0
		c-1.4,0-2.3,0.9-2.3,2.3c0,0.7,0,1.3,0,2c2.1,0,4.2,0,6.4,0c-0.1,1.4-0.3,2.9-0.5,4.3c-2,0-3.9,0-5.9,0c0,4,0,8,0,12.1
		C30.6,35.3,36.8,28.4,36.8,20z"/>
</g>
</svg>
