<?xml version="1.0" encoding="utf-8"?>
<!-- Generator: Adobe Illustrator 19.0.0, SVG Export Plug-In . SVG Version: 6.00 Build 0)  -->
<svg version="1.1" id="Layer_1" xmlns="http://www.w3.org/2000/svg" xmlns:xlink="http://www.w3.org/1999/xlink" x="0px" y="0px"
	 viewBox="-191 235 408 143" style="enable-background:new -191 235 408 143;" xml:space="preserve">
<style type="text/css">
	.st0{fill:#4374B8;}
	.st1{fill:#4480C1;}
	.st2{fill:#4A98D2;}
	.st3{fill:#44B0E3;}
	.st4{fill:#4060AA;}
	.st5{fill:#2C3585;}
	.st6{fill:#0A9FDA;}
	.st7{fill:#1081C4;}
	.st8{fill:#1E94D2;}
	.st9{fill:#28AAE1;}
	.st10{fill:#0464AD;}
</style>
<g id="XMLID_9973_">
	<path id="XMLID_10295_" class="st0" d="M-120.1,272c0,0-6.9,2.3-12.5,0.1c-5.6-2.2-15.2-6.1-22.7-5.3c-6.3,0.7-22.9,4.3-26.9,25.1
		c-3.1,15.9,11.3,28.5,11.3,28.5s4.2,2.8,6,10.6c1.3,5.6,14.8,36.6,14.8,36.6s0.8,2.9,2.2,1.1c0.9-1.2-1.1-6.7-2.2-10
		c-1.1-3.3-9.7-29-9.7-29s-3-12.6-7.4-14.9c-4.5-2.2-11.8-11.5-9.5-22.2c2.3-11,12.9-21.9,23.3-21.9c10.4,0,9.7,1.7,14.9,3.1
		C-133.3,275.4-124.5,277.2-120.1,272z"/>
	<path id="XMLID_10292_" class="st0" d="M-98.7,278.2c0,0,1.4,11.4-12.2,12.2c0,0,7,2.9,12.1-2.2C-97.1,286.5-96,281.9-98.7,278.2z"
		/>
	<path id="XMLID_10289_" class="st1" d="M-95.7,277.4c0,0,5,7.4,2.4,13.2c-2.6,5.8-9.6,9.6-9.6,9.6s11-0.2,13.2-9
		C-87.4,282.4-91.3,279-95.7,277.4z"/>
	<path id="XMLID_10286_" class="st2" d="M-95.3,274c0,0,10.2-2.8,16,8.8c5.8,11.6-7.8,22.5-7.8,22.5S-74.2,285.6-95.3,274z"/>
	<path id="XMLID_10283_" class="st3" d="M-93.3,269.4c0,0,15.2-4.6,24.3,6.6c9,11.2,1.8,26.5-0.6,28.5
		C-69.6,304.5-63.2,274.2-93.3,269.4z"/>
	<path id="XMLID_10280_" class="st0" d="M-100.4,270c0,0-0.7-11.5,13-11.4c0,0-6.8-3.3-12.2,1.4C-101.5,261.6-102.8,266.1-100.4,270
		z"/>
	<path id="XMLID_10277_" class="st1" d="M-103.4,270.6c0,0-4.5-7.7-1.6-13.4c3-5.6,10.2-9,10.2-9s-11-0.5-13.8,8.2
		C-111.3,265-107.8,268.7-103.4,270.6z"/>
	<path id="XMLID_10274_" class="st2" d="M-104.1,274c0,0-10.4,2.2-15.5-9.8c-5.1-12,9.2-21.9,9.2-21.9S-124.3,261-104.1,274z"/>
	<path id="XMLID_10271_" class="st3" d="M-106.4,278.4c0,0-15.5,3.6-23.8-8.1c-8.3-11.8-0.1-26.5,2.4-28.4
		C-127.8,241.9-136.1,271.7-106.4,278.4z"/>
	<path id="XMLID_10268_" class="st4" d="M-101,277.8c0,0-5.4,10.2-17,3.1c0,0,4.1,6.4,11.2,5.1C-104.4,285.5-100.9,282.4-101,277.8z
		"/>
	<g id="XMLID_10087_">
		<g>
			<path id="XMLID_769_" class="st5" d="M-136.5,357.1h-1.7v-18.3h3.9c4.9,0,7.5,2.9,7.5,6.9c0,3.9-2.6,6.8-7.5,6.8h-2.2V357.1z
				 M-134.5,351c4.2,0,5.8-2.2,5.8-5.3c0-3.1-1.7-5.3-5.8-5.3h-2.1V351H-134.5z"/>
			<path id="XMLID_767_" class="st5" d="M-125,348.3h1.6v1.5c0.6-1.2,1.6-1.7,2.6-1.7c0.6,0,1,0.1,1.4,0.3l-0.6,1.4
				c-0.3-0.2-0.6-0.2-1.1-0.2c-1.3,0-2.3,1.1-2.3,2.9v4.7h-1.6V348.3z"/>
			<path id="XMLID_764_" class="st5" d="M-118.5,352.7c0-2.7,2.1-4.6,4.7-4.6c2.6,0,4.7,2,4.7,4.6c0,2.6-2.1,4.6-4.7,4.6
				C-116.5,357.3-118.5,355.4-118.5,352.7z M-110.9,352.7c0-1.9-1.2-3.2-3-3.2c-1.8,0-3,1.4-3,3.2c0,1.8,1.2,3.2,3,3.2
				C-112.1,356-110.9,354.6-110.9,352.7z"/>
			<path id="XMLID_762_" class="st5" d="M-105,357.1h-1.6v-7.4h-1.2v-1.4h1.2v-7.6c0-1.9,1-2.9,2.6-2.9c1,0,1.7,0.3,2.1,0.9l-1,1
				c-0.2-0.3-0.6-0.5-1.1-0.5c-0.6,0-1,0.4-1,1.4v7.5h2.2v1.4h-2.2V357.1z"/>
			<path id="XMLID_759_" class="st5" d="M-96.9,356c1.4,0,2.2-0.5,2.8-1.2l1,1c-0.8,1-2,1.6-3.8,1.6c-2.9,0-4.8-2-4.8-4.6
				c0-2.7,2.1-4.6,4.6-4.6c2.8,0,4.5,2.2,4.5,5.2h-7.4C-99.7,355-98.6,356-96.9,356z M-94.3,352c-0.2-1.4-1.1-2.5-2.8-2.5
				c-1.5,0-2.6,1-2.9,2.5H-94.3z"/>
			<path id="XMLID_757_" class="st5" d="M-91.3,355.4l1.2-0.8c0.5,0.9,1.4,1.4,2.6,1.4c1.1,0,1.8-0.5,1.8-1.2c0-0.8-0.6-1.1-2.1-1.5
				c-1.7-0.5-2.8-1.2-2.8-2.7c0-1.5,1.2-2.4,2.9-2.4c1.4,0,2.3,0.5,3,1.4l-1.1,0.9c-0.4-0.6-1-0.9-1.9-0.9c-0.9,0-1.4,0.4-1.4,1
				c0,0.8,0.6,1,1.9,1.3c1.9,0.5,3.1,1.3,3.1,2.9c0,1.7-1.3,2.7-3.4,2.7C-89.2,357.3-90.5,356.6-91.3,355.4z"/>
			<path id="XMLID_754_" class="st5" d="M-82.2,344c0-0.6,0.5-1.1,1.1-1.1c0.6,0,1.1,0.5,1.1,1.1c0,0.6-0.5,1.1-1.1,1.1
				C-81.7,345.1-82.2,344.6-82.2,344z M-81.9,348.3h1.7v8.8h-1.7V348.3z"/>
			<path id="XMLID_751_" class="st5" d="M-78,352.7c0-2.7,2.1-4.6,4.7-4.6c2.6,0,4.7,2,4.7,4.6c0,2.6-2.1,4.6-4.7,4.6
				C-75.9,357.3-78,355.4-78,352.7z M-70.3,352.7c0-1.9-1.2-3.2-3-3.2c-1.8,0-3,1.4-3,3.2c0,1.8,1.2,3.2,3,3.2
				C-71.5,356-70.3,354.6-70.3,352.7z"/>
			<path id="XMLID_749_" class="st5" d="M-66.5,348.3h1.6v1.4c0.6-1.1,1.7-1.6,3-1.6c1.9,0,3.4,1.2,3.4,3.6v5.4h-1.6v-5.3
				c0-1.6-0.8-2.3-2.1-2.3c-1.6,0-2.6,1-2.6,2.7v4.9h-1.6V348.3z"/>
			<path id="XMLID_746_" class="st5" d="M-56.4,352.7c0-2.7,1.9-4.6,4.3-4.6c1.4,0,2.5,0.6,3.1,1.7v-1.5h1.6v8.8H-49v-1.5
				c-0.6,1.1-1.7,1.7-3.1,1.7C-54.5,357.3-56.4,355.4-56.4,352.7z M-48.9,352.7c0-1.9-1.1-3.2-2.8-3.2c-1.7,0-2.9,1.3-2.9,3.2
				c0,1.9,1.2,3.2,2.9,3.2C-50,355.9-48.9,354.6-48.9,352.7z"/>
			<path id="XMLID_744_" class="st5" d="M-44.5,338.1h1.7v19.1h-1.7V338.1z"/>
			<path id="XMLID_741_" class="st5" d="M-35.8,356c1.4,0,2.2-0.5,2.8-1.2l1,1c-0.8,1-2,1.6-3.8,1.6c-2.9,0-4.8-2-4.8-4.6
				c0-2.7,2.1-4.6,4.6-4.6c2.8,0,4.5,2.2,4.5,5.2h-7.4C-38.6,355-37.5,356-35.8,356z M-33.2,352c-0.2-1.4-1.1-2.5-2.8-2.5
				c-1.5,0-2.6,1-2.9,2.5H-33.2z"/>
			<path id="XMLID_739_" class="st5" d="M-30.2,355.4l1.2-0.8c0.5,0.9,1.4,1.4,2.6,1.4c1.1,0,1.8-0.5,1.8-1.2c0-0.8-0.6-1.1-2.1-1.5
				c-1.7-0.5-2.8-1.2-2.8-2.7c0-1.5,1.2-2.4,2.9-2.4c1.4,0,2.3,0.5,3,1.4l-1.1,0.9c-0.4-0.6-1-0.9-1.9-0.9c-0.9,0-1.4,0.4-1.4,1
				c0,0.8,0.6,1,1.9,1.3c1.9,0.5,3.1,1.3,3.1,2.9c0,1.7-1.3,2.7-3.4,2.7C-28.1,357.3-29.4,356.6-30.2,355.4z"/>
			<path id="XMLID_736_" class="st5" d="M-11.8,356c1.4,0,2.2-0.5,2.8-1.2l1,1c-0.8,1-2,1.6-3.8,1.6c-2.9,0-4.8-2-4.8-4.6
				c0-2.7,2.1-4.6,4.6-4.6c2.8,0,4.5,2.2,4.5,5.2h-7.4C-14.6,355-13.5,356-11.8,356z M-9.2,352c-0.2-1.4-1.1-2.5-2.8-2.5
				c-1.5,0-2.6,1-2.9,2.5H-9.2z"/>
			<path id="XMLID_734_" class="st5" d="M-5.3,348.3h1.6v1.4c0.6-1.1,1.7-1.6,3-1.6c1.9,0,3.4,1.2,3.4,3.6v5.4H1.1v-5.3
				c0-1.6-0.8-2.3-2.1-2.3c-1.6,0-2.6,1-2.6,2.7v4.9h-1.6V348.3z"/>
			<path id="XMLID_731_" class="st5" d="M14.5,356c1.4,0,2.2-0.5,2.8-1.2l1,1c-0.8,1-2,1.6-3.8,1.6c-2.9,0-4.8-2-4.8-4.6
				c0-2.7,2.1-4.6,4.6-4.6c2.8,0,4.5,2.2,4.5,5.2h-7.4C11.7,355,12.8,356,14.5,356z M17.1,352c-0.2-1.4-1.1-2.5-2.8-2.5
				c-1.5,0-2.6,1-2.9,2.5H17.1z"/>
			<path id="XMLID_729_" class="st5" d="M21.1,338.1h1.7v19.1h-1.7V338.1z"/>
			<path id="XMLID_727_" class="st5" d="M29.9,352.7c0-2.7,2-4.6,4.6-4.6c1.6,0,2.7,0.5,3.5,1.4l-1.1,1c-0.6-0.6-1.4-1-2.4-1
				c-1.7,0-2.8,1.4-2.8,3.2c0,1.8,1.1,3.2,2.8,3.2c1.2,0,2-0.5,2.6-1.1l1.1,1c-0.8,1-2,1.6-3.7,1.6
				C31.9,357.3,29.9,355.4,29.9,352.7z"/>
			<path id="XMLID_725_" class="st5" d="M39.9,353.3v-5h1.6v4.9c0,1.9,0.9,2.7,2.3,2.7c1.5,0,2.3-0.8,2.3-2.7v-4.9h1.6v5
				c0,2.7-1.7,4.1-4,4.1C41.5,357.3,39.9,356,39.9,353.3z"/>
			<path id="XMLID_722_" class="st5" d="M50.2,344c0-0.6,0.5-1.1,1.1-1.1c0.6,0,1.1,0.5,1.1,1.1c0,0.6-0.5,1.1-1.1,1.1
				C50.8,345.1,50.2,344.6,50.2,344z M50.5,348.3h1.7v8.8h-1.7V348.3z"/>
			<path id="XMLID_719_" class="st5" d="M54.4,352.7c0-2.7,1.9-4.6,4.4-4.6c1.5,0,2.6,0.6,3.2,1.7v-11.7h1.6v19.1H62v-1.5
				c-0.6,1.1-1.7,1.7-3.2,1.7C56.3,357.3,54.4,355.4,54.4,352.7z M62.1,352.7c0-1.9-1.2-3.2-3-3.2c-1.8,0-3,1.3-3,3.2
				c0,1.9,1.2,3.2,3,3.2C60.9,355.9,62.1,354.6,62.1,352.7z"/>
			<path id="XMLID_716_" class="st5" d="M65.9,352.7c0-2.7,1.9-4.6,4.3-4.6c1.4,0,2.5,0.6,3.1,1.7v-1.5h1.6v8.8h-1.6v-1.5
				c-0.6,1.1-1.7,1.7-3.1,1.7C67.7,357.3,65.9,355.4,65.9,352.7z M73.3,352.7c0-1.9-1.1-3.2-2.8-3.2c-1.7,0-2.9,1.3-2.9,3.2
				c0,1.9,1.2,3.2,2.9,3.2C72.2,355.9,73.3,354.6,73.3,352.7z"/>
			<path id="XMLID_713_" class="st5" d="M77.1,352.7c0-2.7,1.9-4.6,4.4-4.6c1.5,0,2.6,0.6,3.2,1.7v-11.7h1.6v19.1h-1.6v-1.5
				c-0.6,1.1-1.7,1.7-3.2,1.7C79,357.3,77.1,355.4,77.1,352.7z M84.7,352.7c0-1.9-1.2-3.2-3-3.2c-1.8,0-3,1.3-3,3.2
				c0,1.9,1.2,3.2,3,3.2C83.5,355.9,84.7,354.6,84.7,352.7z"/>
			<path id="XMLID_710_" class="st5" d="M88.5,352.7c0-2.7,2.1-4.6,4.7-4.6c2.6,0,4.7,2,4.7,4.6c0,2.6-2.1,4.6-4.7,4.6
				C90.6,357.3,88.5,355.4,88.5,352.7z M96.2,352.7c0-1.9-1.2-3.2-3-3.2c-1.8,0-3,1.4-3,3.2c0,1.8,1.2,3.2,3,3.2
				C95,356,96.2,354.6,96.2,352.7z"/>
			<path id="XMLID_707_" class="st5" d="M104.4,352.7c0-2.7,1.9-4.6,4.4-4.6c1.5,0,2.6,0.6,3.2,1.7v-11.7h1.6v19.1H112v-1.5
				c-0.6,1.1-1.7,1.7-3.2,1.7C106.3,357.3,104.4,355.4,104.4,352.7z M112,352.7c0-1.9-1.2-3.2-3-3.2c-1.8,0-3,1.3-3,3.2
				c0,1.9,1.2,3.2,3,3.2C110.8,355.9,112,354.6,112,352.7z"/>
			<path id="XMLID_704_" class="st5" d="M120.6,356c1.4,0,2.2-0.5,2.8-1.2l1,1c-0.8,1-2,1.6-3.8,1.6c-2.9,0-4.8-2-4.8-4.6
				c0-2.7,2.1-4.6,4.6-4.6c2.8,0,4.5,2.2,4.5,5.2h-7.4C117.8,355,118.9,356,120.6,356z M123.2,352c-0.2-1.4-1.1-2.5-2.8-2.5
				c-1.5,0-2.6,1-2.9,2.5H123.2z"/>
			<path id="XMLID_702_" class="st5" d="M131.3,349.7v-1.4h1.2v-5.5h1.6v5.5h2.2v1.4h-2.2v5c0,0.8,0.3,1.2,0.9,1.2
				c0.4,0,0.7-0.2,1-0.4l0.7,1.2c-0.4,0.4-1,0.6-1.9,0.6c-1.4,0-2.4-0.8-2.4-2.5v-5.1H131.3z"/>
			<path id="XMLID_700_" class="st5" d="M138.5,353.3v-5h1.6v4.9c0,1.9,0.9,2.7,2.3,2.7c1.5,0,2.3-0.8,2.3-2.7v-4.9h1.6v5
				c0,2.7-1.7,4.1-4,4.1C140.2,357.3,138.5,356,138.5,353.3z"/>
			<path id="XMLID_698_" class="st5" d="M153.2,355.4l1.2-0.8c0.5,0.9,1.4,1.4,2.6,1.4c1.1,0,1.8-0.5,1.8-1.2c0-0.8-0.6-1.1-2.1-1.5
				c-1.7-0.5-2.8-1.2-2.8-2.7c0-1.5,1.2-2.4,2.9-2.4c1.4,0,2.3,0.5,3,1.4l-1.1,0.9c-0.4-0.6-1-0.9-1.9-0.9c-0.9,0-1.4,0.4-1.4,1
				c0,0.8,0.6,1,1.9,1.3c1.9,0.5,3.1,1.3,3.1,2.9c0,1.7-1.3,2.7-3.4,2.7C155.3,357.3,154,356.6,153.2,355.4z"/>
			<path id="XMLID_695_" class="st5" d="M162,352.7c0-2.7,2.1-4.6,4.7-4.6c2.6,0,4.7,2,4.7,4.6c0,2.6-2.1,4.6-4.7,4.6
				C164,357.3,162,355.4,162,352.7z M169.6,352.7c0-1.9-1.2-3.2-3-3.2c-1.8,0-3,1.4-3,3.2c0,1.8,1.2,3.2,3,3.2
				C168.4,356,169.6,354.6,169.6,352.7z"/>
			<path id="XMLID_693_" class="st5" d="M173.5,348.3h1.6v1.4c0.6-1.1,1.7-1.6,3-1.6c1.9,0,3.4,1.2,3.4,3.6v5.4h-1.6v-5.3
				c0-1.6-0.8-2.3-2.1-2.3c-1.6,0-2.6,1-2.6,2.7v4.9h-1.6V348.3z"/>
			<path id="XMLID_691_" class="st5" d="M184.2,348.3h1.6v1.5c0.6-1.2,1.6-1.7,2.6-1.7c0.6,0,1,0.1,1.4,0.3l-0.6,1.4
				c-0.3-0.2-0.6-0.2-1.1-0.2c-1.3,0-2.3,1.1-2.3,2.9v4.7h-1.6V348.3z"/>
			<path id="XMLID_688_" class="st5" d="M191.2,344c0-0.6,0.5-1.1,1.1-1.1c0.6,0,1.1,0.5,1.1,1.1c0,0.6-0.5,1.1-1.1,1.1
				C191.8,345.1,191.2,344.6,191.2,344z M191.5,348.3h1.7v8.8h-1.7V348.3z"/>
			<path id="XMLID_686_" class="st5" d="M195.2,355.4l1.2-0.8c0.5,0.9,1.4,1.4,2.6,1.4c1.1,0,1.8-0.5,1.8-1.2c0-0.8-0.6-1.1-2.1-1.5
				c-1.7-0.5-2.8-1.2-2.8-2.7c0-1.5,1.2-2.4,2.9-2.4c1.4,0,2.3,0.5,3,1.4l-1.1,0.9c-0.4-0.6-1-0.9-1.9-0.9c-0.9,0-1.4,0.4-1.4,1
				c0,0.8,0.6,1,1.9,1.3c1.9,0.5,3.1,1.3,3.1,2.9c0,1.7-1.3,2.7-3.4,2.7C197.3,357.3,196,356.6,195.2,355.4z"/>
			<path id="XMLID_683_" class="st5" d="M203.9,352.7c0-2.7,1.9-4.6,4.3-4.6c1.4,0,2.5,0.6,3.1,1.7v-1.5h1.6v8.8h-1.6v-1.5
				c-0.6,1.1-1.7,1.7-3.1,1.7C205.8,357.3,203.9,355.4,203.9,352.7z M211.4,352.7c0-1.9-1.1-3.2-2.8-3.2c-1.7,0-2.9,1.3-2.9,3.2
				c0,1.9,1.2,3.2,2.9,3.2C210.3,355.9,211.4,354.6,211.4,352.7z"/>
		</g>
	</g>
	<path id="XMLID_10084_" class="st6" d="M-120.1,272c0,0-6.9,2.3-12.5,0.1c-5.6-2.2-15.2-6.1-22.7-5.3c-6.3,0.7-22.9,4.3-26.9,25.1
		c-3.1,15.9,11.3,28.5,11.3,28.5s4.2,2.8,6,10.6c1.3,5.6,14.8,36.6,14.8,36.6s0.8,2.9,2.2,1.1c0.9-1.2-1.1-6.7-2.2-10
		c-1.1-3.3-9.7-29-9.7-29s-3-12.6-7.4-14.9c-4.5-2.2-11.8-11.5-9.5-22.2c2.3-11,12.9-21.9,23.3-21.9c10.4,0,9.7,1.7,14.9,3.1
		C-133.3,275.4-124.5,277.2-120.1,272z"/>
	<path id="XMLID_10081_" class="st7" d="M-98.7,278.2c0,0,1.4,11.4-12.2,12.2c0,0,7,2.9,12.1-2.2C-97.1,286.5-96,281.9-98.7,278.2z"
		/>
	<path id="XMLID_10078_" class="st8" d="M-95.7,277.4c0,0,5,7.4,2.4,13.2c-2.6,5.8-9.6,9.6-9.6,9.6s11-0.2,13.2-9
		C-87.4,282.4-91.3,279-95.7,277.4z"/>
	<path id="XMLID_10075_" class="st6" d="M-95.3,274c0,0,10.2-2.8,16,8.8c5.8,11.6-7.8,22.5-7.8,22.5S-74.2,285.6-95.3,274z"/>
	<path id="XMLID_10072_" class="st9" d="M-93.3,269.4c0,0,15.2-4.6,24.3,6.6c9,11.2,1.8,26.5-0.6,28.5
		C-69.6,304.5-63.2,274.2-93.3,269.4z"/>
	<path id="XMLID_10069_" class="st7" d="M-100.4,270c0,0-0.7-11.5,13-11.4c0,0-6.8-3.3-12.2,1.4C-101.5,261.6-102.8,266.1-100.4,270
		z"/>
	<path id="XMLID_10066_" class="st8" d="M-103.4,270.6c0,0-4.5-7.7-1.6-13.4c3-5.6,10.2-9,10.2-9s-11-0.5-13.8,8.2
		C-111.3,265-107.8,268.7-103.4,270.6z"/>
	<path id="XMLID_10063_" class="st6" d="M-104.1,274c0,0-10.4,2.2-15.5-9.8c-5.1-12,9.2-21.9,9.2-21.9S-124.3,261-104.1,274z"/>
	<path id="XMLID_10060_" class="st9" d="M-106.4,278.4c0,0-15.5,3.6-23.8-8.1c-8.3-11.8-0.1-26.5,2.4-28.4
		C-127.8,241.9-136.1,271.7-106.4,278.4z"/>
	<path id="XMLID_10057_" class="st10" d="M-101,277.8c0,0-5.4,10.2-17,3.1c0,0,4.1,6.4,11.2,5.1C-104.4,285.5-100.9,282.4-101,277.8
		z"/>
	<path id="XMLID_10054_" class="st10" d="M-96.9,271.1c0,0,4.7-10.5,16.8-4.1c0,0-4.5-6.1-11.4-4.4C-94,263.2-97.3,266.5-96.9,271.1
		z"/>
	<g id="XMLID_9979_">
		<g>
			<path id="XMLID_308_" class="st6" d="M-126.6,331.4c-1.7,0-3.3-0.3-4.7-0.9c-1.4-0.6-2.7-1.4-3.7-2.5c-1-1.1-1.8-2.3-2.4-3.7
				c-0.6-1.4-0.9-3-0.9-4.7c0-1.7,0.3-3.2,0.9-4.7c0.6-1.4,1.4-2.7,2.4-3.7c1-1.1,2.3-1.9,3.7-2.5c1.4-0.6,3-0.9,4.7-0.9
				c1.7,0,3.3,0.3,4.7,0.9c1.4,0.6,2.7,1.4,3.7,2.5c1,1.1,1.8,2.3,2.4,3.7c0.6,1.4,0.9,3,0.9,4.7c0,1.7-0.3,3.2-0.9,4.7
				c-0.6,1.4-1.4,2.7-2.4,3.7c-1,1.1-2.3,1.9-3.7,2.5C-123.3,331.1-124.9,331.4-126.6,331.4z M-126.6,328.5c1.3,0,2.4-0.2,3.5-0.7
				c1-0.5,1.9-1.1,2.7-1.9c0.7-0.8,1.3-1.7,1.7-2.8c0.4-1.1,0.6-2.2,0.6-3.5s-0.2-2.4-0.6-3.5c-0.4-1.1-1-2-1.7-2.8
				c-0.7-0.8-1.6-1.4-2.7-1.9c-1-0.5-2.2-0.7-3.5-0.7c-1.3,0-2.4,0.2-3.5,0.7c-1,0.5-1.9,1.1-2.7,1.9c-0.7,0.8-1.3,1.7-1.7,2.8
				c-0.4,1.1-0.6,2.2-0.6,3.5s0.2,2.4,0.6,3.5c0.4,1.1,1,2,1.7,2.8c0.7,0.8,1.6,1.4,2.7,1.9C-129,328.3-127.9,328.5-126.6,328.5z"/>
			<path id="XMLID_305_" class="st6" d="M-111,308.4h7.8c1.6,0,3,0.2,4.2,0.5c1.2,0.4,2.2,0.8,3.1,1.4c0.9,0.6,1.6,1.3,2.2,2.1
				s1,1.6,1.4,2.4c0.3,0.8,0.6,1.6,0.7,2.5c0.1,0.8,0.2,1.6,0.2,2.3c0,1.4-0.3,2.8-0.8,4.2c-0.5,1.3-1.3,2.5-2.3,3.6
				c-1,1-2.3,1.9-3.8,2.5c-1.5,0.6-3.3,0.9-5.3,0.9h-7.3V308.4z M-108,328h3.8c1.3,0,2.5-0.2,3.7-0.5c1.1-0.3,2.2-0.9,3-1.6
				c0.9-0.7,1.5-1.6,2.1-2.6c0.5-1,0.8-2.3,0.8-3.7c0-0.7-0.1-1.6-0.3-2.5c-0.2-1-0.7-1.9-1.3-2.7c-0.6-0.9-1.5-1.6-2.7-2.2
				c-1.1-0.6-2.6-0.9-4.4-0.9h-4.6V328z"/>
			<path id="XMLID_302_" class="st6" d="M-76.8,331.4c-1.7,0-3.3-0.3-4.7-0.9c-1.4-0.6-2.7-1.4-3.7-2.5c-1-1.1-1.8-2.3-2.4-3.7
				c-0.6-1.4-0.9-3-0.9-4.7c0-1.7,0.3-3.2,0.9-4.7c0.6-1.4,1.4-2.7,2.4-3.7c1-1.1,2.3-1.9,3.7-2.5c1.4-0.6,3-0.9,4.7-0.9
				c1.7,0,3.3,0.3,4.7,0.9c1.4,0.6,2.7,1.4,3.7,2.5c1,1.1,1.8,2.3,2.4,3.7c0.6,1.4,0.9,3,0.9,4.7c0,1.7-0.3,3.2-0.9,4.7
				c-0.6,1.4-1.4,2.7-2.4,3.7c-1,1.1-2.3,1.9-3.7,2.5C-73.5,331.1-75.1,331.4-76.8,331.4z M-76.8,328.5c1.3,0,2.4-0.2,3.5-0.7
				c1-0.5,1.9-1.1,2.7-1.9c0.7-0.8,1.3-1.7,1.7-2.8c0.4-1.1,0.6-2.2,0.6-3.5s-0.2-2.4-0.6-3.5c-0.4-1.1-1-2-1.7-2.8
				c-0.7-0.8-1.6-1.4-2.7-1.9c-1-0.5-2.2-0.7-3.5-0.7c-1.3,0-2.4,0.2-3.5,0.7c-1,0.5-1.9,1.1-2.7,1.9c-0.7,0.8-1.3,1.7-1.7,2.8
				c-0.4,1.1-0.6,2.2-0.6,3.5s0.2,2.4,0.6,3.5c0.4,1.1,1,2,1.7,2.8c0.7,0.8,1.6,1.4,2.7,1.9C-79.3,328.3-78.1,328.5-76.8,328.5z"/>
			<path id="XMLID_300_" class="st6" d="M-60.8,308.4h4l12.3,18.4h0.1v-18.4h3v22.4h-3.9l-12.5-18.4h-0.1v18.4h-3V308.4z"/>
			<path id="XMLID_298_" class="st6" d="M-30.9,311.3h-7.2v-2.8h17.5v2.8h-7.2v19.6h-3V311.3z"/>
			<path id="XMLID_296_" class="st6" d="M8.9,308.4h3V328h10.3v2.8H8.9V308.4z"/>
			<path id="XMLID_293_" class="st6" d="M35.6,331.4c-1.7,0-3.3-0.3-4.7-0.9c-1.4-0.6-2.7-1.4-3.7-2.5c-1-1.1-1.8-2.3-2.4-3.7
				c-0.6-1.4-0.9-3-0.9-4.7c0-1.7,0.3-3.2,0.9-4.7c0.6-1.4,1.4-2.7,2.4-3.7c1-1.1,2.3-1.9,3.7-2.5c1.4-0.6,3-0.9,4.7-0.9
				s3.3,0.3,4.7,0.9c1.4,0.6,2.7,1.4,3.7,2.5c1,1.1,1.8,2.3,2.4,3.7c0.6,1.4,0.9,3,0.9,4.7c0,1.7-0.3,3.2-0.9,4.7
				c-0.6,1.4-1.4,2.7-2.4,3.7c-1,1.1-2.3,1.9-3.7,2.5C38.9,331.1,37.3,331.4,35.6,331.4z M35.6,328.5c1.3,0,2.4-0.2,3.5-0.7
				c1-0.5,1.9-1.1,2.7-1.9c0.7-0.8,1.3-1.7,1.7-2.8c0.4-1.1,0.6-2.2,0.6-3.5s-0.2-2.4-0.6-3.5c-0.4-1.1-1-2-1.7-2.8
				c-0.7-0.8-1.6-1.4-2.7-1.9c-1-0.5-2.2-0.7-3.5-0.7s-2.4,0.2-3.5,0.7c-1,0.5-1.9,1.1-2.7,1.9c-0.7,0.8-1.3,1.7-1.7,2.8
				c-0.4,1.1-0.6,2.2-0.6,3.5s0.2,2.4,0.6,3.5c0.4,1.1,1,2,1.7,2.8c0.7,0.8,1.6,1.4,2.7,1.9C33.1,328.3,34.3,328.5,35.6,328.5z"/>
			<path id="XMLID_291_" class="st6" d="M70.7,318.3v11c-0.5,0.3-1.2,0.6-1.9,0.9c-0.7,0.3-1.4,0.5-2.2,0.6
				c-0.7,0.2-1.5,0.3-2.3,0.4c-0.8,0.1-1.5,0.1-2.2,0.1c-1.9,0-3.6-0.3-5.1-0.9c-1.5-0.6-2.7-1.5-3.8-2.6c-1-1.1-1.8-2.3-2.3-3.7
				c-0.5-1.4-0.8-2.9-0.8-4.5c0-1.7,0.3-3.2,0.9-4.7c0.6-1.4,1.4-2.7,2.4-3.7c1-1.1,2.3-1.9,3.7-2.5c1.4-0.6,3-0.9,4.7-0.9
				c2.1,0,3.8,0.3,5.1,0.8c1.3,0.5,2.4,1.2,3.3,2.1l-2.2,2.3c-0.9-0.9-1.9-1.5-2.9-1.9c-1-0.3-2.1-0.5-3.3-0.5
				c-1.3,0-2.4,0.2-3.5,0.7c-1,0.5-1.9,1.1-2.7,1.9c-0.7,0.8-1.3,1.7-1.7,2.8c-0.4,1.1-0.6,2.2-0.6,3.5c0,1.3,0.2,2.4,0.7,3.5
				c0.4,1.1,1.1,2,1.8,2.8c0.8,0.8,1.7,1.4,2.8,1.9c1.1,0.5,2.2,0.7,3.4,0.7c1.1,0,2.1-0.1,3.1-0.3c1-0.2,1.8-0.5,2.5-0.9v-6.2h-5
				v-2.8H70.7z"/>
			<path id="XMLID_289_" class="st6" d="M81.5,321.3L73,308.4h3.9l6.1,9.8l6.3-9.8H93l-8.5,12.8v9.6h-3V321.3z"/>
			<path id="XMLID_287_" class="st6" d="M109.6,319l-7.5-10.6h3.9l5.8,8.6l5.8-8.6h3.8l-7.5,10.6l8.2,11.8h-4l-6.4-9.7l-6.5,9.7
				h-3.8L109.6,319z"/>
			<path id="XMLID_284_" class="st6" d="M124.9,308.4h7.9c1.4,0,2.6,0.2,3.5,0.6c0.9,0.4,1.7,0.9,2.2,1.5c0.5,0.6,0.9,1.3,1.1,2
				c0.2,0.7,0.3,1.5,0.3,2.2c0,0.7-0.1,1.4-0.3,2.2c-0.2,0.7-0.6,1.4-1.1,2c-0.5,0.6-1.3,1.1-2.2,1.5s-2.1,0.6-3.5,0.6h-4.8v9.9h-3
				V308.4z M127.9,318.3h4c0.6,0,1.2,0,1.8-0.1c0.6-0.1,1.1-0.3,1.6-0.5c0.5-0.3,0.8-0.6,1.1-1.1c0.3-0.5,0.4-1.1,0.4-1.9
				c0-0.8-0.1-1.4-0.4-1.9c-0.3-0.5-0.6-0.8-1.1-1.1c-0.5-0.3-1-0.4-1.6-0.5c-0.6-0.1-1.2-0.1-1.8-0.1h-4V318.3z"/>
			<path id="XMLID_282_" class="st6" d="M143.7,308.4h14.5v2.8h-11.4v6.7h10.6v2.8h-10.6v7.2h12v2.8h-15V308.4z"/>
			<path id="XMLID_279_" class="st6" d="M163,308.4h7.9c1.4,0,2.6,0.2,3.5,0.6c0.9,0.4,1.7,0.9,2.2,1.5c0.5,0.6,0.9,1.3,1.1,2
				c0.2,0.7,0.3,1.5,0.3,2.2c0,0.7-0.1,1.4-0.4,2.1c-0.3,0.7-0.6,1.3-1.1,1.8c-0.5,0.5-1.1,1-1.7,1.4c-0.7,0.4-1.5,0.6-2.3,0.7
				l6.4,10.2h-3.8l-5.7-9.9H166v9.9h-3V308.4z M166,318.3h4c0.6,0,1.2,0,1.8-0.1c0.6-0.1,1.1-0.3,1.6-0.5c0.5-0.3,0.8-0.6,1.1-1.1
				c0.3-0.5,0.4-1.1,0.4-1.9c0-0.8-0.1-1.4-0.4-1.9c-0.3-0.5-0.6-0.8-1.1-1.1c-0.5-0.3-1-0.4-1.6-0.5c-0.6-0.1-1.2-0.1-1.8-0.1h-4
				V318.3z"/>
			<path id="XMLID_277_" class="st6" d="M186.4,311.3h-7.2v-2.8h17.5v2.8h-7.2v19.6h-3V311.3z"/>
			<path id="XMLID_275_" class="st6" d="M200.6,326.1c0.5,0.8,1.2,1.4,2.1,1.8c0.9,0.4,1.7,0.6,2.6,0.6c0.5,0,1-0.1,1.5-0.2
				c0.5-0.2,1-0.4,1.4-0.7c0.4-0.3,0.8-0.7,1.1-1.2c0.3-0.5,0.4-1,0.4-1.6c0-0.9-0.3-1.5-0.8-2c-0.5-0.5-1.2-0.8-2-1.1
				c-0.8-0.3-1.7-0.6-2.7-0.9c-1-0.3-1.8-0.7-2.7-1.2c-0.8-0.5-1.5-1.2-2-2c-0.5-0.9-0.8-2-0.8-3.5c0-0.7,0.1-1.3,0.4-2.1
				c0.3-0.7,0.7-1.4,1.3-2c0.6-0.6,1.4-1.1,2.4-1.5c1-0.4,2.1-0.6,3.5-0.6c1.2,0,2.4,0.2,3.5,0.5c1.1,0.3,2.1,1,2.9,2.1l-2.5,2.2
				c-0.4-0.6-0.9-1.1-1.6-1.4c-0.7-0.4-1.5-0.5-2.4-0.5c-0.8,0-1.5,0.1-2.1,0.3c-0.6,0.2-1,0.5-1.3,0.9s-0.6,0.7-0.7,1.1
				c-0.1,0.4-0.2,0.8-0.2,1.1c0,0.9,0.3,1.7,0.8,2.2s1.2,0.9,2,1.2c0.8,0.3,1.7,0.6,2.7,0.9c1,0.3,1.8,0.6,2.7,1.1
				c0.8,0.5,1.5,1.1,2,1.8c0.5,0.8,0.8,1.8,0.8,3.2c0,1.1-0.2,2-0.6,2.9c-0.4,0.9-1,1.6-1.7,2.2c-0.7,0.6-1.5,1-2.5,1.4
				c-0.9,0.3-2,0.5-3,0.5c-1.4,0-2.8-0.3-4.1-0.8c-1.3-0.5-2.3-1.3-3.1-2.3L200.6,326.1z"/>
		</g>
	</g>
	<path id="XMLID_9974_" class="st6" d="M3.5,312.1c-0.3-1.8-1.6-3.8-3.7-4.2c-1.5-0.3-2.9,0.2-4.3,0.7c-1,0.4-1.9,0.7-2.8,0.7
		c-0.9,0-1.9-0.2-2.8-0.6c-1.4-0.4-2.8-0.9-4.3-0.4c-2.1,0.6-3.2,2.7-3.4,4.5c-0.1,1.3,0.3,2.7,0.8,4.1c0.2,0.7,0.4,1.4,0.6,2
		c0,0.1,0,0.1,0.1,0.2c0.2,0.6,0.7,2.2,1.4,4.6l0.6,2.3c0.1,0.4,0.2,0.8,0.3,1.2c0.1,0.2,0.1,0.4,0.2,0.6c0,0,0,0.1,0.1,0.2
		c0,0.1,0.1,0.1,0.1,0.2l0.2,0.3c0.3,0.5,0.5,0.9,0.8,1.2c0.4,0.4,0.8,0.7,1.3,0.8c0.5,0.2,1,0.3,1.5,0.2c0.5,0,1-0.2,1.5-0.4
		c0.1-0.1,0.2-0.1,0.4-0.2c0.6,0.4,1.2,0.8,1.7,1l0.4,0.2l0.4,0.1c0.1,0,0.3,0.1,0.5,0.1l0.3,0c0.1,0,0.1,0,0.2,0l0.1,0
		c0.1,0,0.2,0,0.2,0c0.6,0,1.1-0.1,1.6-0.3c0.1,0,0.2-0.1,0.3-0.1l0.1-0.1c0.1-0.1,0.2-0.1,0.3-0.2l0.1-0.1c0.1-0.1,0.3-0.2,0.4-0.3
		l0.1-0.1c0.1-0.1,0.2-0.2,0.2-0.2c0.4-0.4,0.7-0.9,0.9-1.4l0.2-0.3c0,0,0,0,0-0.1l0-0.1c0-0.1,0.1-0.1,0.1-0.2c0,0,0-0.1,0-0.1
		c0,0,0,0,0,0l0.2-0.7c0.1-0.4,0.2-0.9,0.3-1.3c0-0.2,0.1-0.6,0.2-1.1c0.3-1.2,0.6-2.9,0.7-3.3c0.1-0.7,0.5-3.1,0.7-3.5
		c0.1-0.2,0.2-0.5,0.3-0.8C3.5,315.4,3.8,313.7,3.5,312.1z M-9.5,329.3C-9.5,329.3-9.5,329.3-9.5,329.3c-0.1,0-0.1,0-0.1,0
		c0,0-0.1,0-0.1,0l-0.1,0c0,0,0,0-0.1,0l-0.1,0c-0.3,0-0.7,0-1-0.1c-0.6-0.2-1-0.6-1.4-1.3l-0.3-0.4l0,0l0,0l0,0c0,0,0,0,0,0l0,0
		l0,0c0,0,0,0,0,0l-0.2-0.6c-0.1-0.4-0.3-0.8-0.4-1.2c-0.2-0.8-0.5-1.5-0.7-2.2l0-0.1c0-0.1,0-0.1-0.1-0.2c0.5,0.8,0.9,1.4,1.3,2
		c0.5,0.6,1,1.4,1.7,2.1c0.5,0.6,1.1,1.2,1.7,1.8L-9.5,329.3z M0.2,323.1c-0.1,0.4-0.2,0.8-0.4,1.3c-0.1,0.5-0.3,1-0.4,1.4
		c-0.1,0.4-0.2,0.8-0.3,1.2c-0.1,0.2-0.1,0.4-0.2,0.6c0,0,0,0,0,0.1l0,0.1c0,0,0,0,0,0.1c0,0,0,0,0,0l-0.2,0.3
		c-0.2,0.4-0.5,0.8-0.8,1.1c-0.3,0.3-0.7,0.5-1.1,0.7c-0.4,0.2-0.9,0.2-1.3,0.2c-0.1,0-0.2,0-0.3,0l-0.1,0c-0.1,0-0.1,0-0.2-0.1
		l-0.3-0.1l-0.3-0.1c-0.3-0.1-0.6-0.3-0.9-0.5c0.3-0.2,0.5-0.4,0.8-0.6c0.7-0.5,1.3-1.2,2-2c1-1.1,1.8-2.2,2.6-3.2
		c0.2-0.3,0.4-0.5,0.6-0.7c0.3-0.4,0.5-0.7,0.7-0.9c0.2-0.2,0.3-0.4,0.5-0.7C0.5,321.7,0.5,322.2,0.2,323.1z M1.4,317L1.4,317
		c-0.1,0.2-0.4,1-0.7,1.8c-0.4,1.3-1.7,2.7-2.2,3.4l-0.1,0.1c-0.4,0.5-0.9,1.1-1.5,1.7l0,0.1c-0.5,0.6-1.1,1.2-1.8,1.9
		c-0.6,0.6-1.2,1.1-2,1.8c-0.4,0.3-0.8,0.6-1.1,0.8c-0.1,0-0.1-0.1-0.2-0.1c-0.6-0.5-1.3-1.1-2-1.9c-1-1.1-2.1-2.4-3.1-3.8
		c-0.8-1.1-1.5-3.1-1.8-4c-0.2-0.7-0.4-1.5-0.6-2.2c-0.4-1.3-0.8-2.5-0.7-3.5c0.1-0.5,0.2-1,0.4-1.4c0.2-0.4,0.4-0.7,0.7-1
		c0.3-0.3,0.7-0.5,1.1-0.7c0.4-0.2,0.9-0.2,1.3-0.2c0.1,0,0.2,0,0.3,0l0.1,0c0.1,0,0.1,0,0.2,0.1l0.3,0.1l0.3,0.1
		c0.9,0.4,1.8,1,2.4,1.5c0.6,0.5,1.3,1.1,2,1.9c1,1.1,2.1,2.4,3.1,3.8c1,1.4,1.6,2.4,1.9,2.9c0.2,0.4,0.4,0.7,0.5,0.8
		c0,0.1,0.1,0.2,0.1,0.2l0,0.1c0,0.1,0.1,0.2,0.2,0.2c0,0,0,0,0.1,0c0.1,0,0.2-0.2,0.2-0.3l0-0.1c0-0.1,0-0.2-0.1-0.3c0,0,0,0,0,0
		c-0.1-0.2-0.2-0.5-0.3-0.9c-0.2-0.4-0.4-0.9-0.7-1.4c-0.3-0.7-0.7-1.2-1-1.8c-0.5-0.8-0.9-1.4-1.3-2c-0.5-0.6-1-1.4-1.7-2.1
		c-0.5-0.6-1.1-1.2-1.7-1.7c0.2,0,0.4,0,0.6,0c1.2,0,2.3-0.4,3.3-0.8c1.2-0.5,2.3-0.9,3.4-0.7c1.2,0.3,2.3,1.5,2.6,3.1
		C2.3,313.8,2.1,315.3,1.4,317z"/>
</g>
</svg>
