<?xml version="1.0" encoding="utf-8"?>
<!-- Generator: Adobe Illustrator 19.0.0, SVG Export Plug-In . SVG Version: 6.00 Build 0)  -->
<svg version="1.1" id="Layer_1" xmlns="http://www.w3.org/2000/svg" xmlns:xlink="http://www.w3.org/1999/xlink" x="0px" y="0px"
	 viewBox="0 0 21.4 23.6" style="enable-background:new 0 0 21.4 23.6;" xml:space="preserve">
<style type="text/css">
	.st0{fill:#FFFFFF;}
</style>
<path id="XMLID_7546_" class="st0" d="M18.1,5.9c-0.2-1.3-1.2-2.8-2.8-3.1c-1.1-0.2-2.1,0.2-3.1,0.5c-0.7,0.3-1.4,0.5-2.1,0.5
	c-0.7,0-1.4-0.2-2.1-0.4C7,3.2,6,2.8,4.9,3.2c-1.5,0.4-2.4,2-2.5,3.3c-0.1,0.9,0.2,2,0.6,3c0.2,0.5,0.3,1,0.4,1.5c0,0,0,0.1,0,0.1
	c0.1,0.4,0.6,1.6,1.1,3.4l0.4,1.7c0.1,0.3,0.2,0.6,0.3,0.9c0,0.2,0.1,0.3,0.1,0.5c0,0,0,0.1,0.1,0.1c0,0,0,0.1,0.1,0.1L5.5,18
	c0.2,0.4,0.4,0.6,0.6,0.9c0.3,0.3,0.6,0.5,0.9,0.6c0.4,0.1,0.7,0.2,1.1,0.2c0.4,0,0.8-0.1,1.1-0.3c0.1,0,0.2-0.1,0.3-0.1
	c0.4,0.3,0.9,0.6,1.3,0.7l0.3,0.1l0.3,0.1c0.1,0,0.2,0.1,0.4,0.1l0.2,0c0,0,0.1,0,0.1,0l0,0c0.1,0,0.1,0,0.2,0
	c0.4,0,0.8-0.1,1.2-0.2c0.1,0,0.2-0.1,0.2-0.1l0.1,0c0.1,0,0.2-0.1,0.2-0.1l0.1-0.1c0.1-0.1,0.2-0.1,0.3-0.2l0.1-0.1
	c0.1-0.1,0.1-0.1,0.2-0.2c0.3-0.3,0.5-0.6,0.7-1l0.1-0.2c0,0,0,0,0,0l0,0c0,0,0-0.1,0.1-0.2c0,0,0-0.1,0-0.1l0,0l0.1-0.5
	c0.1-0.3,0.1-0.6,0.2-0.9c0-0.2,0.1-0.4,0.2-0.8c0.2-0.9,0.5-2.1,0.5-2.4c0.1-0.5,0.4-2.3,0.5-2.6c0.1-0.2,0.2-0.3,0.3-0.6
	C18.1,8.3,18.3,7.1,18.1,5.9z M8.5,18.6C8.5,18.6,8.5,18.6,8.5,18.6c0,0-0.1,0-0.1,0c0,0,0,0-0.1,0l-0.1,0c0,0,0,0,0,0l-0.1,0
	c-0.2,0-0.5,0-0.7-0.1c-0.4-0.2-0.8-0.5-1.1-1l-0.2-0.3l0,0l0,0l0,0c0,0,0,0,0,0l0,0l0,0c0,0,0,0,0,0l-0.2-0.4
	c-0.1-0.3-0.2-0.6-0.3-0.9c-0.2-0.6-0.4-1.1-0.5-1.6l0,0c0,0,0-0.1,0-0.1c0.3,0.6,0.6,1,0.9,1.4c0.3,0.5,0.7,1,1.2,1.6
	c0.4,0.4,0.8,0.9,1.3,1.3L8.5,18.6z M15.7,14c-0.1,0.3-0.2,0.6-0.3,1c-0.1,0.4-0.2,0.8-0.3,1.1c-0.1,0.3-0.2,0.6-0.3,0.9
	c0,0.2-0.1,0.3-0.1,0.5c0,0,0,0,0,0l0,0.1c0,0,0,0,0,0c0,0,0,0,0,0l-0.1,0.2c-0.2,0.3-0.4,0.6-0.6,0.8c-0.2,0.2-0.5,0.4-0.8,0.5
	c-0.3,0.1-0.6,0.2-1,0.1c-0.1,0-0.1,0-0.2,0l-0.1,0c-0.1,0-0.1,0-0.2,0l-0.2-0.1L11.3,19c-0.2-0.1-0.4-0.2-0.7-0.3
	c0.2-0.1,0.4-0.3,0.6-0.4c0.5-0.4,1-0.9,1.5-1.5c0.7-0.8,1.3-1.6,1.9-2.3c0.1-0.2,0.3-0.4,0.4-0.5c0.2-0.3,0.4-0.5,0.5-0.7
	c0.1-0.2,0.3-0.3,0.4-0.5C15.9,12.9,15.9,13.3,15.7,14z M16.6,9.5L16.6,9.5c-0.1,0.2-0.3,0.7-0.5,1.4c-0.3,0.9-1.2,2-1.6,2.5
	l-0.1,0.1c-0.3,0.4-0.7,0.8-1.1,1.2l0,0c-0.4,0.4-0.8,0.9-1.3,1.4c-0.4,0.4-0.9,0.8-1.5,1.3c-0.3,0.2-0.6,0.4-0.8,0.6
	c0,0-0.1-0.1-0.1-0.1c-0.5-0.4-0.9-0.8-1.5-1.4c-0.8-0.8-1.5-1.7-2.3-2.8c-0.6-0.8-1.1-2.2-1.4-3C4.3,10.2,4.1,9.7,4,9.1
	c-0.3-1-0.6-1.9-0.5-2.6c0-0.4,0.2-0.7,0.3-1.1C3.9,5.2,4.1,5,4.3,4.8c0.2-0.2,0.5-0.4,0.8-0.5c0.3-0.1,0.6-0.2,1-0.1
	c0.1,0,0.1,0,0.2,0l0.1,0c0.1,0,0.1,0,0.2,0l0.2,0.1L7,4.4c0.7,0.3,1.3,0.7,1.7,1.1c0.5,0.4,0.9,0.8,1.5,1.4
	c0.8,0.8,1.5,1.7,2.3,2.8c0.7,1,1.2,1.8,1.4,2.2c0.2,0.3,0.3,0.5,0.3,0.6c0,0.1,0.1,0.1,0.1,0.2l0,0.1c0,0.1,0.1,0.1,0.2,0.1
	c0,0,0,0,0,0c0.1,0,0.2-0.1,0.1-0.2l0-0.1c0,0,0-0.1-0.1-0.2c0,0,0,0,0,0c-0.1-0.2-0.1-0.4-0.2-0.7c-0.1-0.3-0.3-0.7-0.5-1
	c-0.3-0.5-0.5-0.9-0.7-1.3c-0.3-0.6-0.7-1.1-1-1.5c-0.3-0.5-0.8-1-1.2-1.6C10.6,5.8,10.2,5.4,9.7,5c0.2,0,0.3,0,0.5,0
	c0.9,0,1.7-0.3,2.4-0.6c0.9-0.3,1.7-0.7,2.5-0.5C16.1,4.1,16.8,5,17,6.1C17.2,7.1,17.1,8.2,16.6,9.5z"/>
</svg>
