<?xml version="1.0" encoding="utf-8"?>
<!-- Generator: Adobe Illustrator 19.0.0, SVG Export Plug-In . SVG Version: 6.00 Build 0)  -->
<svg version="1.1" id="Layer_1" xmlns="http://www.w3.org/2000/svg" xmlns:xlink="http://www.w3.org/1999/xlink" x="0px" y="0px"
	 viewBox="0 0 133.7 147.5" style="enable-background:new 0 0 133.7 147.5;" xml:space="preserve">
<style type="text/css">
	.st0{opacity:0.28;fill:#D0DBE5;}
</style>
<path id="XMLID_872_" class="st0" d="M128.5,27.7c-1.9-10.4-9.3-22.1-21.8-24.8c-8.9-1.9-17,1.2-24.9,4.3c-5.7,2.2-11,4.2-16.4,4.3
	C60,11.7,54.6,10,48.8,8.2c-8-2.5-16.4-5.1-25.1-2.5C11.4,9.2,4.8,21.4,3.6,31.9c-0.8,7.5,1.7,15.5,4.5,24c1.3,3.9,2.6,7.9,3.5,11.9
	c0.1,0.4,0.3,0.7,0.4,0.9c1.2,3.5,4.4,13,8.4,26.9l3.4,13.3c0.6,2.4,1.3,4.8,2,7.2c0.4,1.2,0.7,2.5,1.1,3.7c0.1,0.3,0.2,0.6,0.5,1.1
	c0.2,0.4,0.3,0.6,0.5,1l0.9,1.7c1.5,2.8,3.1,5.1,4.9,7c2.1,2.2,4.7,3.8,7.5,4.9c2.8,1,5.9,1.5,9,1.3c3-0.2,6.1-0.9,8.8-2.1
	c0.7-0.3,1.4-0.6,2.1-1c3.5,2.5,6.7,4.4,10.1,5.8l2.4,0.9l2.4,0.7c0.8,0.3,1.8,0.4,3,0.6l1.5,0.2c0.4,0,0.6,0.1,0.9,0.1l0.3,0
	c0.4,0,0.9,0,1.3,0c3.3,0,6.5-0.6,9.5-1.7c0.6-0.2,1.2-0.5,1.8-0.8l0.8-0.4c0.6-0.3,1.2-0.7,1.8-1l0.7-0.4c0.7-0.5,1.5-1.1,2.2-1.7
	l0.5-0.5c0.5-0.4,1-0.9,1.4-1.4c2.1-2.2,4-5,5.5-8.2l0.9-1.8c0.1-0.1,0.1-0.2,0.1-0.3l0.2-0.3c0.2-0.4,0.4-0.8,0.6-1.2
	c0.1-0.2,0.2-0.5,0.2-0.5c0,0,0.1-0.3,0.1-0.3l1.1-4.1c0.6-2.6,1.1-5,1.6-7.4c0.3-1.3,0.8-3.6,1.4-6.2c1.6-7.1,3.8-16.8,4.1-19.3
	c0.6-4,3.1-18.1,4.3-20.5c0.6-1.3,1.3-2.8,2-4.6C128.7,46.8,130.1,36.8,128.5,27.7z M52.5,127.7C52.5,127.7,52.4,127.7,52.5,127.7
	c-0.4,0.1-0.6,0.2-0.8,0.2c-0.2,0-0.3,0.1-0.5,0.1l-0.6,0.2c-0.1,0-0.2,0-0.4,0l-0.4,0c-1.9,0.2-3.9-0.1-5.7-0.7
	c-3.4-1.2-6.1-3.7-8.3-7.7l-1.5-2.5l0,0l0,0l0,0c0,0,0,0,0,0l0,0l0,0c0,0,0,0,0,0l-1.2-3.4c-0.8-2.3-1.6-4.7-2.4-7
	c-1.4-4.5-2.9-8.7-4.3-12.6l-0.1-0.4c-0.1-0.3-0.2-0.6-0.3-0.9c2.7,4.4,5,8.1,7.5,11.5c2.7,3.8,5.9,8.2,9.7,12.5
	c3.1,3.5,6.4,7.1,10.2,10.5L52.5,127.7z M109.4,91.8c-0.5,2-1.3,4.9-2,7.8c-0.8,3-1.6,6-2.2,8.4c-0.6,2.3-1.3,4.7-2,7.2
	c-0.4,1.2-0.7,2.4-1.2,3.7c0,0.1-0.1,0.3-0.1,0.4l-0.2,0.4c0,0.1-0.1,0.2-0.2,0.4c0,0-0.2,0.2-0.2,0.3l-1,1.8
	c-1.4,2.5-2.8,4.6-4.4,6.2c-1.7,1.8-3.9,3.2-6.3,4c-2.4,0.9-5,1.3-7.7,1.1c-0.6,0-1.1-0.1-1.8-0.2l-0.5-0.1
	c-0.4-0.1-0.9-0.1-1.3-0.3l-1.9-0.5l-1.9-0.8c-1.7-0.7-3.5-1.6-5.3-2.7c1.5-1.1,3-2.2,4.4-3.4c3.8-3.2,7.6-6.8,11.9-11.5
	c5.8-6.3,10.7-12.7,15-18.4c1.1-1.5,2.2-2.9,3.3-4.3c1.8-2.3,3-3.9,4.2-5.3c1.1-1.4,2-2.5,3.2-4.1C111.1,83.3,110.8,86.5,109.4,91.8
	z M116.2,56.2l-0.1,0.2c-0.5,1.2-2.2,5.7-3.9,10.6c-2.6,7.4-9.8,16-12.8,19.7l-0.6,0.7c-2.6,3.1-5.5,6.4-8.6,9.9l-0.3,0.3
	c-3.1,3.5-6.5,7-10.2,10.8c-3.3,3.3-7,6.7-11.5,10.4c-2.2,1.8-4.4,3.4-6.6,4.7c-0.3-0.3-0.7-0.5-1-0.8c-3.8-3.1-7.5-6.6-11.7-11.1
	c-6.1-6.5-12.1-13.8-18.2-22.3c-4.6-6.4-9-17.8-10.7-23.4c-1-4.3-2.4-8.5-3.7-12.6c-2.4-7.5-4.7-14.7-4.1-20.3
	c0.3-3,1.2-5.8,2.5-8.4c1.3-2.3,2.6-4.2,4.1-5.7c1.7-1.8,3.9-3.2,6.3-4c2.4-0.9,5-1.2,7.7-1.1c0.5,0,1.1,0.1,1.8,0.2l0.5,0.1
	c0.4,0.1,0.9,0.1,1.3,0.3l1.9,0.5l1.9,0.8c5.4,2.2,10.2,5.8,13.8,8.7c3.8,3.1,7.5,6.6,11.7,11.1c6.1,6.5,12,13.8,18.2,22.3
	c5.7,8,9.4,14.1,11.1,17.1c1.3,2.2,2.1,3.9,2.6,4.9c0.3,0.6,0.4,1,0.6,1.3l0.2,0.5c0.2,0.6,0.8,0.9,1.3,0.9c0.1,0,0.2,0,0.3,0
	c0.8-0.2,1.2-1,1.1-1.7l-0.1-0.5c-0.1-0.4-0.2-0.9-0.4-1.6c0,0-0.1-0.3-0.1-0.3c-0.4-1.3-1-3.2-2-5.4c-1-2.4-2.2-5.2-3.9-8.3
	c-2-3.9-3.8-7.2-5.7-10.4c-2.7-4.6-5.2-8.3-7.7-11.8c-2.7-3.8-5.9-8.2-9.7-12.5c-3.1-3.5-6.2-6.9-9.6-10c1.2,0.1,2.4,0.2,3.7,0.1
	c6.8-0.2,13.1-2.6,19.3-4.9c7-2.7,13.5-5.2,19.9-3.9c7.3,1.6,13.5,8.9,15.1,17.8C121.4,37.1,120.1,46,116.2,56.2z"/>
</svg>
