<?xml version="1.0" encoding="utf-8"?>
<!-- Generator: Adobe Illustrator 19.0.0, SVG Export Plug-In . SVG Version: 6.00 Build 0)  -->
<svg version="1.1" id="Layer_1" xmlns="http://www.w3.org/2000/svg" xmlns:xlink="http://www.w3.org/1999/xlink" x="0px" y="0px"
	 viewBox="-375 287 40 40" style="enable-background:new -375 287 40 40;" xml:space="preserve">
<style type="text/css">
	.st0{fill:#FFFFFF;}
	.st1{fill:#3185FF;}
</style>
<g id="XMLID_797_">
	<path id="XMLID_801_" class="st0" d="M-1354.2,218c0.1,0,0.2,0,0.3,0l0,0c0.2,0,0.4,0,0.6,0.1c0.3,0,0.5,0.1,0.8,0.2
		c0.5,0.2,1,0.4,1.5,0.8c0.5,0.4,1,0.9,1.3,1.5c0.3,0.5,0.4,1,0.5,1.5c0,0.2,0.1,0.5,0.1,0.7c0,0.1,0,0.1,0,0.2c0,0.1,0,0.2,0,0.3
		l0,0c0,0.2,0,0.4-0.1,0.6c-0.1,0.3-0.1,0.6-0.3,1c-0.3,0.8-0.8,1.6-1.5,2.1c-0.3,0.3-0.7,0.5-1.1,0.7c-0.3,0.2-0.7,0.3-1,0.3
		c-0.2,0-0.3,0.1-0.5,0.1c-0.1,0-0.2,0-0.4,0l0,0c-0.1,0-0.2,0-0.3,0l0,0c-0.1,0-0.2,0-0.3,0c-0.2,0-0.4,0-0.5-0.1
		c-0.3-0.1-0.6-0.2-0.9-0.3c-0.6-0.3-1.1-0.6-1.6-1.1c-0.6-0.6-1-1.2-1.2-1.9c-0.1-0.3-0.2-0.6-0.2-0.9c0-0.2,0-0.3,0-0.5l0,0
		c0-0.1,0-0.2,0-0.3l0,0c0-0.1,0-0.2,0-0.3c0-0.2,0-0.4,0.1-0.6c0.2-0.9,0.6-1.6,1.2-2.3c0.6-0.7,1.4-1.2,2.3-1.4
		c0.2-0.1,0.5-0.1,0.7-0.2c0.1,0,0.3,0,0.4,0C-1354.3,218-1354.2,218-1354.2,218z M-1356.5,223c0,0.5,0,1,0,1.5c0,0.1,0,0.1,0,0.2
		c0,0.2,0.1,0.4,0.2,0.5c0.2,0.2,0.4,0.3,0.7,0.3c1,0,2,0,3,0h0.1c0.3,0,0.5-0.1,0.6-0.3s0.2-0.4,0.2-0.6c0-1,0-2,0-2.9v-0.1
		c0-0.2-0.1-0.4-0.3-0.6c-0.2-0.2-0.4-0.2-0.7-0.2c-1,0-2,0-2.9,0c-0.1,0-0.1,0-0.2,0c-0.2,0-0.4,0.1-0.5,0.2
		c-0.2,0.2-0.3,0.4-0.3,0.7C-1356.5,222-1356.5,222.5-1356.5,223z"/>
	<path id="XMLID_800_" class="st0" d="M-1352.8,222.5c0.2,0,0.5,0,0.7,0l0,0c0,0.7,0,1.3,0,2c0,0.2-0.2,0.4-0.4,0.5h-0.1
		c-1,0-2,0-3,0c-0.2,0-0.4-0.2-0.5-0.4v-0.1c0-0.6,0-1.3,0-1.9l0,0c0.2,0,0.5,0,0.7,0c-0.1,0.3-0.1,0.7,0,1c0.1,0.2,0.3,0.4,0.5,0.6
		c0.5,0.3,1,0.3,1.5,0c0.2-0.2,0.4-0.4,0.5-0.7C-1352.7,223.1-1352.7,222.8-1352.8,222.5z"/>
	<path id="XMLID_799_" class="st0" d="M-1353.2,223c0,0.5-0.4,0.8-0.9,0.8s-0.8-0.4-0.8-0.9s0.4-0.8,0.9-0.8
		S-1353.2,222.6-1353.2,223z"/>
	<path id="XMLID_798_" class="st0" d="M-1353,221.1c0.3,0,0.6,0,0.8,0c0,0.3,0,0.5,0,0.8l0,0c-0.3,0-0.5,0-0.8,0l0,0
		C-1353,221.7-1353,221.4-1353,221.1L-1353,221.1z"/>
</g>
<g id="XMLID_20_">
	<path id="XMLID_25_" class="st1" d="M-350.3,305.3c0.8,0,1.7,0,2.5,0v0.1c0,2.2,0,4.5,0,6.7c0,0.8-0.6,1.4-1.2,1.6
		c-0.1,0-0.2,0-0.4,0c-3.4,0-6.8,0-10.2,0c-0.8,0-1.4-0.5-1.6-1.3c0-0.1,0-0.2,0-0.3c0-2.2,0-4.5,0-6.7v-0.1c0.8,0,1.7,0,2.5,0
		c-0.5,1.2-0.5,2.4,0,3.5c0.4,0.8,1,1.5,1.7,2c1.6,1,3.6,1,5.1-0.1c0.9-0.6,1.4-1.4,1.8-2.4C-349.8,307.3-349.9,306.3-350.3,305.3z"
		/>
	<path id="XMLID_24_" class="st1" d="M-351.6,307.1c-0.1,1.7-1.5,2.9-3,2.8c-1.6-0.1-2.9-1.4-2.8-3s1.4-2.9,3-2.8
		C-352.7,304.1-351.6,305.6-351.6,307.1z"/>
	<path id="XMLID_23_" class="st1" d="M-350.9,300.6c0.9,0,1.9,0,2.8,0c0,0.9,0,1.9,0,2.8h-0.1c-0.9,0-1.8,0-2.6,0
		c-0.1,0-0.1,0-0.1-0.1C-350.9,302.4-350.9,301.5-350.9,300.6L-350.9,300.6z"/>
	<path class="st1" d="M-354.5,290c-9.5,0-17.2,7.7-17.2,17.1s7.7,17.1,17.2,17.1s17.1-7.7,17.1-17.1S-345.1,290-354.5,290z
		 M-345.6,313.3c0,1.3-1.1,2.4-2.4,2.4h-12.8c-1.3,0-2.4-1.1-2.4-2.4v-12.6c0-1.3,1.1-2.4,2.4-2.4h12.7c1.3,0,2.4,1.1,2.4,2.4v12.6
		H-345.6z"/>
</g>
</svg>
