<?xml version="1.0" encoding="utf-8"?>
<!-- Generator: Adobe Illustrator 19.0.0, SVG Export Plug-In . SVG Version: 6.00 Build 0)  -->
<svg version="1.1" id="Layer_1" xmlns="http://www.w3.org/2000/svg" xmlns:xlink="http://www.w3.org/1999/xlink" x="0px" y="0px"
	 viewBox="0 0 910.1 679.7" style="enable-background:new 0 0 910.1 679.7;" xml:space="preserve">
<style type="text/css">
	.st0{opacity:0.44;}
	.st1{opacity:0.11;fill:#2E54FF;}
	.st2{opacity:0.44;fill:#2E54FF;}
	.st3{opacity:0.77;fill:#2E54FF;}
	.st4{fill:#2E54FF;}
	.st5{opacity:0.43;fill:#2E54FF;}
</style>
<g id="XMLID_70_" class="st0">
	<g id="XMLID_66_">
		<g id="XMLID_68_">
		</g>
	</g>
	<path id="XMLID_113_" class="st1" d="M307.4,342.4c0,75.2-60.9,136.1-136.1,136.1S35.2,417.6,35.2,342.4s60.9-136.1,136.1-136.1
		S307.4,267.2,307.4,342.4"/>
	<path id="XMLID_112_" class="st1" d="M804.9,225.7c0,75.2-60.9,136.1-136.1,136.1s-136.1-60.9-136.1-136.1S593.6,89.5,668.8,89.5
		S804.9,150.5,804.9,225.7"/>
	<path id="XMLID_111_" class="st2" d="M399.7,110.3c0,46.9-38,84.9-84.9,84.9c-46.9,0-84.9-38-84.9-84.9s38-84.9,84.9-84.9
		C361.7,25.4,399.7,63.4,399.7,110.3"/>
	<path id="XMLID_110_" class="st3" d="M307.4,253.2c0,25.9-21,46.9-46.9,46.9c-25.9,0-46.9-21-46.9-46.9c0-25.9,21-46.9,46.9-46.9
		C286.4,206.3,307.4,227.3,307.4,253.2"/>
	<path id="XMLID_109_" class="st4" d="M668.8,361.8c0,25.9-21,46.9-46.9,46.9c-25.9,0-46.9-21-46.9-46.9c0-25.9,21-46.9,46.9-46.9
		C647.8,314.9,668.8,335.9,668.8,361.8"/>
	<path id="XMLID_108_" class="st2" d="M786.8,361.8c0,12.7-10.3,22.9-22.9,22.9c-12.7,0-22.9-10.3-22.9-22.9
		c0-12.7,10.3-22.9,22.9-22.9C776.5,338.9,786.8,349.2,786.8,361.8"/>
	<path id="XMLID_107_" class="st5" d="M231.1,475.7c0,21.9-17.7,39.6-39.6,39.6c-21.9,0-39.6-17.7-39.6-39.6
		c0-21.9,17.7-39.6,39.6-39.6C213.4,436.1,231.1,453.8,231.1,475.7"/>
	<path id="XMLID_106_" class="st2" d="M592.6,120.2c0,21.9-17.7,39.6-39.6,39.6c-21.9,0-39.6-17.7-39.6-39.6
		c0-21.9,17.7-39.6,39.6-39.6C574.9,80.6,592.6,98.4,592.6,120.2"/>
	<path id="XMLID_105_" class="st4" d="M174.8,167.5c0,12.7-10.3,22.9-22.9,22.9c-12.7,0-22.9-10.3-22.9-22.9
		c0-12.7,10.3-22.9,22.9-22.9C164.5,144.6,174.8,154.8,174.8,167.5"/>
	<path id="XMLID_72_" class="st4" d="M542.9,314.9c0,12.7-10.3,22.9-22.9,22.9c-12.7,0-22.9-10.3-22.9-22.9
		c0-12.7,10.3-22.9,22.9-22.9C532.6,292,542.9,302.3,542.9,314.9"/>
	<path id="XMLID_69_" class="st2" d="M847.2,497.9c0,75.2-60.9,136.1-136.1,136.1S575,573.1,575,497.9s60.9-136.1,136.1-136.1
		S847.2,422.8,847.2,497.9"/>
	<path id="XMLID_67_" class="st2" d="M396.8,554.3c0,36.5-29.5,66-66,66s-66-29.5-66-66c0-36.5,29.5-66,66-66
		S396.8,517.8,396.8,554.3"/>
</g>
</svg>
