<?xml version="1.0" encoding="utf-8"?>
<!-- Generator: Adobe Illustrator 19.0.0, SVG Export Plug-In . SVG Version: 6.00 Build 0)  -->
<svg version="1.1" id="Layer_1" xmlns="http://www.w3.org/2000/svg" xmlns:xlink="http://www.w3.org/1999/xlink" x="0px" y="0px"
	 viewBox="-150 375.6 309.7 43.4" style="enable-background:new -150 375.6 309.7 43.4;" xml:space="preserve">
<style type="text/css">
	.st0{fill:#293387;}
</style>
<path id="XMLID_54_" class="st0" d="M153.3,404.1h-0.7v0.9h0.3v0.3c0,0.2,0,0.3-0.1,0.4s-0.2,0.2-0.2,0.2v0.4
	c0.2-0.1,0.4-0.2,0.5-0.4c0.1-0.2,0.2-0.4,0.2-0.7L153.3,404.1L153.3,404.1z M154.8,404.1h-0.7v0.9h0.3v0.3c0,0.2,0,0.3-0.1,0.4
	s-0.2,0.2-0.2,0.2v0.4c0.2-0.1,0.4-0.2,0.5-0.4c0.1-0.2,0.2-0.4,0.2-0.7L154.8,404.1L154.8,404.1z M151.1,408.7
	c-0.2-0.2-0.6-0.4-1-0.5c-0.1,0-0.3-0.1-0.5-0.1s-0.4-0.1-0.6-0.1c-0.3-0.1-0.5-0.2-0.7-0.3c-0.1-0.1-0.2-0.3-0.2-0.5
	c0-0.3,0.1-0.4,0.3-0.6c0.2-0.1,0.5-0.2,0.8-0.2s0.7,0.1,1,0.2s0.6,0.3,0.9,0.4l0,0v-1c-0.2-0.1-0.5-0.2-0.8-0.3s-0.7-0.1-1-0.1
	s-0.7,0-0.9,0.1c-0.3,0.1-0.5,0.2-0.7,0.4c-0.2,0.2-0.3,0.3-0.4,0.5s-0.1,0.4-0.1,0.6c0,0.4,0.1,0.7,0.3,0.9c0.2,0.2,0.5,0.4,1,0.6
	c0.2,0,0.4,0.1,0.6,0.1s0.4,0.1,0.5,0.1c0.4,0.1,0.6,0.2,0.7,0.3c0.1,0.1,0.2,0.3,0.2,0.5c0,0.3-0.1,0.5-0.3,0.6
	c-0.2,0.1-0.5,0.2-0.9,0.2c-0.3,0-0.7-0.1-1-0.2c-0.4-0.1-0.7-0.3-1-0.5l0,0v1c0.2,0.1,0.5,0.2,0.8,0.3s0.7,0.1,1.1,0.1
	c0.7,0,1.3-0.2,1.7-0.5c0.4-0.3,0.6-0.7,0.6-1.2C151.4,409.3,151.3,409,151.1,408.7 M142.1,407.9c0-0.4,0.2-0.8,0.5-1.1
	c0.3-0.3,0.7-0.4,1.2-0.4s0.9,0.1,1.1,0.4c0.2,0.3,0.4,0.6,0.4,1.1H142.1z M146.1,408.1c0-0.8-0.2-1.4-0.6-1.8
	c-0.4-0.4-1-0.6-1.7-0.6c-0.8,0-1.4,0.3-1.9,0.8s-0.7,1.2-0.7,2.1s0.3,1.6,0.8,2.1s1.2,0.7,2.1,0.7c0.4,0,0.7,0,1-0.1
	c0.3-0.1,0.6-0.2,0.9-0.3v-1l0,0c-0.2,0.1-0.4,0.3-0.8,0.4c-0.4,0.1-0.7,0.2-1.1,0.2c-0.3,0-0.5,0-0.8-0.1c-0.2-0.1-0.4-0.2-0.6-0.4
	c-0.2-0.2-0.3-0.4-0.4-0.6c-0.1-0.2-0.2-0.5-0.2-0.9h4L146.1,408.1L146.1,408.1z M140.4,410.4L140.4,410.4c-0.1,0-0.2,0.1-0.4,0.1
	c-0.2,0-0.3,0.1-0.5,0.1c-0.3,0-0.4,0-0.6-0.1c-0.1-0.1-0.2-0.2-0.3-0.3c-0.1-0.1-0.1-0.3-0.1-0.5c0-0.2,0-0.4,0-0.7v-2.4h1.9v-0.8
	h-1.9v-1.6h-0.9v1.6H137v0.8h0.6v2.9c0,0.7,0.1,1.1,0.4,1.4c0.3,0.3,0.7,0.4,1.3,0.4c0.2,0,0.3,0,0.5,0s0.4-0.1,0.6-0.1V410.4z
	 M135.8,407.7c0-0.7-0.2-1.2-0.5-1.5c-0.3-0.4-0.8-0.5-1.3-0.5c-0.3,0-0.6,0.1-0.9,0.2c-0.3,0.1-0.6,0.3-0.9,0.6v-0.6h-0.9v5.5h0.9
	v-4.1c0.2-0.2,0.5-0.4,0.8-0.5c0.3-0.1,0.5-0.2,0.8-0.2c0.2,0,0.4,0,0.6,0.1s0.3,0.2,0.4,0.3s0.1,0.3,0.2,0.5c0,0.2,0,0.5,0,0.7v3.1
	h0.9v-3.6H135.8z M125.9,407.9c0-0.4,0.2-0.8,0.5-1.1c0.3-0.3,0.7-0.4,1.2-0.4s0.9,0.1,1.1,0.4c0.2,0.3,0.4,0.6,0.4,1.1H125.9z
	 M129.9,408.1c0-0.8-0.2-1.4-0.6-1.8c-0.4-0.4-1-0.6-1.7-0.6c-0.8,0-1.4,0.3-1.9,0.8s-0.7,1.2-0.7,2.1s0.3,1.6,0.8,2.1
	s1.2,0.7,2.1,0.7c0.4,0,0.7,0,1-0.1c0.3-0.1,0.6-0.2,0.9-0.3v-1l0,0c-0.2,0.1-0.4,0.3-0.8,0.4c-0.4,0.1-0.7,0.2-1.1,0.2
	c-0.3,0-0.5,0-0.8-0.1c-0.2-0.1-0.4-0.2-0.6-0.4c-0.2-0.2-0.3-0.4-0.4-0.6c-0.1-0.2-0.2-0.5-0.2-0.9h4L129.9,408.1L129.9,408.1z
	 M123.5,405.8h-0.9v5.5h0.9V405.8z M123.6,404h-1v1h1V404z M121.4,409.9L121.4,409.9c-0.1,0.1-0.2,0.1-0.3,0.2
	c-0.1,0.1-0.2,0.1-0.4,0.2c-0.2,0.1-0.3,0.1-0.5,0.2c-0.2,0-0.4,0.1-0.6,0.1c-0.5,0-0.9-0.2-1.2-0.5c-0.3-0.4-0.4-0.9-0.4-1.5
	c0-0.7,0.2-1.2,0.5-1.5s0.7-0.5,1.2-0.5c0.3,0,0.6,0.1,0.9,0.2c0.3,0.1,0.6,0.3,0.9,0.5l0,0v-1c-0.3-0.1-0.5-0.2-0.8-0.3
	s-0.6-0.1-0.9-0.1c-0.8,0-1.5,0.3-1.9,0.8c-0.5,0.5-0.7,1.2-0.7,2.1c0,0.5,0.1,0.9,0.2,1.3s0.3,0.7,0.6,0.9c0.2,0.2,0.5,0.4,0.8,0.5
	c0.3,0.1,0.7,0.2,1.1,0.2c0.3,0,0.6,0,0.9-0.1s0.6-0.2,0.9-0.3v-1.4H121.4z M114,410.4c-0.3,0.1-0.6,0.2-0.9,0.2
	c-0.4,0-0.7-0.1-0.9-0.2c-0.2-0.2-0.3-0.4-0.3-0.7c0-0.3,0.1-0.5,0.2-0.7c0.2-0.2,0.4-0.3,0.6-0.3c0.2-0.1,0.5-0.1,0.9-0.1
	s0.7-0.1,1-0.1v1.5C114.5,410.1,114.2,410.3,114,410.4 M115.6,407.6c0-0.4-0.1-0.6-0.2-0.9c-0.1-0.2-0.3-0.4-0.5-0.6
	s-0.5-0.3-0.7-0.3c-0.3-0.1-0.6-0.1-1-0.1c-0.3,0-0.7,0-1,0.1c-0.3,0.1-0.6,0.1-0.8,0.2v0.9l0,0c0.3-0.1,0.6-0.2,0.9-0.3
	s0.6-0.1,0.8-0.1c0.2,0,0.4,0,0.6,0s0.3,0.1,0.5,0.2c0.1,0.1,0.2,0.2,0.3,0.3c0.1,0.1,0.1,0.3,0.1,0.5v0.1c-0.5,0-1,0.1-1.5,0.1
	c-0.5,0.1-0.9,0.2-1.2,0.3c-0.3,0.1-0.6,0.3-0.8,0.6c-0.2,0.3-0.3,0.6-0.3,1c0,0.5,0.2,0.9,0.5,1.2c0.3,0.3,0.8,0.5,1.2,0.5
	c0.3,0,0.5,0,0.7-0.1c0.2-0.1,0.4-0.1,0.5-0.2s0.3-0.1,0.4-0.2c0.1-0.1,0.2-0.2,0.3-0.2v0.6h0.9v-3.6H115.6z M108.6,410
	c-0.3,0.3-0.7,0.5-1.2,0.5c-0.2,0-0.5,0-0.6-0.1c-0.2,0-0.4-0.1-0.7-0.2v-3.1c0.2-0.2,0.5-0.3,0.8-0.4s0.5-0.2,0.8-0.2
	c0.5,0,0.8,0.2,1,0.5c0.2,0.3,0.3,0.8,0.3,1.5C109,409.2,108.8,409.7,108.6,410 M109.4,406.4c-0.4-0.5-0.9-0.7-1.5-0.7
	c-0.3,0-0.7,0.1-1,0.2c-0.3,0.1-0.6,0.3-0.8,0.5v-0.6h-0.9v7.5h0.9V411c0.2,0.1,0.5,0.2,0.7,0.3c0.2,0.1,0.5,0.1,0.8,0.1
	s0.6-0.1,0.9-0.2c0.3-0.1,0.5-0.3,0.8-0.6c0.2-0.3,0.4-0.6,0.5-0.9c0.1-0.4,0.2-0.8,0.2-1.2C109.9,407.6,109.8,406.9,109.4,406.4
	 M100,408.7c-0.2-0.2-0.6-0.4-1-0.5c-0.1,0-0.3-0.1-0.5-0.1s-0.4-0.1-0.6-0.1c-0.3-0.1-0.5-0.2-0.7-0.3c-0.1-0.1-0.2-0.3-0.2-0.5
	c0-0.3,0.1-0.4,0.3-0.6c0.2-0.1,0.5-0.2,0.9-0.2c0.3,0,0.7,0.1,1,0.2s0.6,0.3,0.9,0.4l0,0v-1c-0.2-0.1-0.5-0.2-0.8-0.3
	s-0.7-0.1-1-0.1s-0.7,0-0.9,0.1c-0.3,0.1-0.5,0.2-0.7,0.4c-0.2,0.2-0.3,0.3-0.4,0.5c-0.1,0.2-0.1,0.4-0.1,0.6c0,0.4,0.1,0.7,0.3,0.9
	c0.2,0.2,0.5,0.4,1,0.6c0.2,0,0.4,0.1,0.6,0.1c0.2,0,0.4,0.1,0.5,0.1c0.4,0.1,0.6,0.2,0.7,0.3c0.1,0.1,0.2,0.3,0.2,0.5
	c0,0.3-0.1,0.5-0.3,0.6c-0.2,0.1-0.5,0.2-0.9,0.2c-0.3,0-0.7-0.1-1-0.2c-0.4-0.1-0.7-0.3-1-0.5l0,0v1c0.2,0.1,0.5,0.2,0.8,0.3
	s0.7,0.1,1.1,0.1c0.7,0,1.3-0.2,1.7-0.5c0.4-0.3,0.6-0.7,0.6-1.2C100.3,409.3,100.2,409,100,408.7 M94.6,405.8h-0.9v5.5h0.9V405.8z
	 M94.7,404h-1v1h1V404z M91.9,407.7c0-0.7-0.1-1.2-0.4-1.5c-0.3-0.4-0.7-0.5-1.3-0.5c-0.3,0-0.7,0.1-1,0.2c-0.3,0.1-0.6,0.4-1,0.7
	c-0.1-0.3-0.3-0.5-0.6-0.6s-0.6-0.2-0.9-0.2c-0.3,0-0.6,0.1-0.9,0.2c-0.3,0.1-0.6,0.3-0.9,0.6V406H84v5.5h0.9v-4.1
	c0.2-0.2,0.5-0.4,0.8-0.5c0.3-0.1,0.5-0.2,0.8-0.2s0.5,0,0.6,0.1c0.1,0.1,0.2,0.2,0.3,0.3s0.1,0.3,0.1,0.5s0,0.4,0,0.7v3.1h0.9v-3.5
	c0-0.1,0-0.2,0-0.3s0-0.2,0-0.3c0.3-0.2,0.5-0.4,0.8-0.5c0.3-0.1,0.5-0.2,0.8-0.2s0.5,0,0.6,0.1s0.2,0.2,0.3,0.3s0.1,0.3,0.1,0.5
	c0,0.2,0,0.4,0,0.7v3.1h0.9L91.9,407.7L91.9,407.7z M76,408.5c0-0.2,0-0.3,0-0.5c0-0.2,0-0.3,0.1-0.5c0-0.1,0.1-0.3,0.2-0.4
	c0.1-0.1,0.2-0.2,0.3-0.3c0.1-0.1,0.3-0.2,0.4-0.2c0.2-0.1,0.3-0.1,0.5-0.1c0.5,0,0.8,0.1,1,0.3c0.2,0.2,0.3,0.6,0.3,1v3.4h0.6v-3.4
	c0-0.2,0-0.4,0-0.6c0-0.2-0.1-0.4-0.2-0.6c-0.2-0.3-0.4-0.5-0.7-0.6s-0.6-0.2-0.9-0.2c-0.4,0-0.7,0.1-0.9,0.2
	c-0.3,0.2-0.5,0.4-0.7,0.6v-0.7h-0.6v5.2H76L76,408.5L76,408.5z M74.2,408.8c0-0.9-0.2-1.6-0.6-2.1c-0.4-0.5-1-0.7-1.7-0.7
	c-0.4,0-0.7,0.1-1,0.2s-0.5,0.3-0.7,0.6c-0.2,0.2-0.4,0.5-0.5,0.9s-0.2,0.7-0.2,1.1s0,0.7,0.1,1.1c0.1,0.3,0.2,0.6,0.4,0.9
	c0.2,0.2,0.4,0.4,0.7,0.6c0.3,0.1,0.7,0.2,1.1,0.2c0.3,0,0.6,0,0.9-0.1c0.2-0.1,0.5-0.2,0.6-0.4c0.2-0.2,0.3-0.3,0.4-0.5
	c0.1-0.2,0.2-0.4,0.3-0.7h-0.7c-0.1,0.4-0.3,0.7-0.6,0.9c-0.3,0.2-0.6,0.3-1,0.3c-0.3,0-0.5-0.1-0.8-0.2s-0.4-0.3-0.5-0.4
	c-0.1-0.2-0.3-0.4-0.3-0.6c-0.1-0.2-0.1-0.5-0.1-0.8h4.2V408.8z M70.2,408.3c0-0.2,0.1-0.5,0.2-0.7c0.1-0.2,0.2-0.4,0.3-0.6
	c0.1-0.2,0.3-0.3,0.5-0.4s0.4-0.1,0.7-0.1s0.5,0,0.7,0.1s0.4,0.2,0.5,0.4c0.1,0.2,0.2,0.4,0.3,0.6s0.1,0.5,0.1,0.7H70.2z
	 M63.4,401.3c-0.2-0.3-0.4-0.6-0.7-0.9c-0.3-0.2-0.6-0.4-1-0.5c-0.4-0.1-0.8-0.2-1.2-0.2c-0.3,0-0.7,0-1,0.1
	c-0.3,0.1-0.7,0.2-0.9,0.4c-0.3,0.2-0.5,0.4-0.7,0.7c-0.2,0.3-0.3,0.6-0.3,1c0,0.3,0.1,0.6,0.3,0.9c0.2,0.3,0.4,0.4,0.6,0.6
	c0.2,0.2,0.5,0.3,0.8,0.4c0.3,0.1,0.6,0.2,0.8,0.3l2,0.5c0.4,0.1,0.9,0.2,1.3,0.3c0.4,0.2,0.8,0.4,1.1,0.7s0.6,0.6,0.8,1
	s0.3,0.9,0.3,1.4c0,0.7-0.2,1.2-0.5,1.7s-0.7,0.9-1.2,1.2c-0.5,0.3-1,0.5-1.6,0.6c-0.6,0.1-1.2,0.2-1.8,0.2c-1.5,0-2.6-0.3-3.5-1
	s-1.4-1.8-1.5-3.3H57c0.1,1,0.4,1.8,1.1,2.3c0.7,0.5,1.5,0.8,2.5,0.8c0.4,0,0.7,0,1.1-0.1c0.4-0.1,0.8-0.2,1.1-0.4
	c0.3-0.2,0.6-0.4,0.8-0.7c0.2-0.3,0.3-0.7,0.3-1.1s-0.1-0.7-0.2-0.9c-0.2-0.2-0.4-0.5-0.6-0.6c-0.3-0.2-0.5-0.3-0.9-0.4
	c-0.3-0.1-0.7-0.2-1-0.3l-1.9-0.4c-0.5-0.1-1-0.3-1.4-0.4c-0.4-0.2-0.8-0.4-1.1-0.6c-0.3-0.2-0.6-0.6-0.7-0.9
	c-0.2-0.4-0.3-0.8-0.3-1.3c0-0.6,0.1-1.2,0.4-1.6s0.6-0.8,1.1-1.1s0.9-0.5,1.5-0.6s1.1-0.2,1.6-0.2c0.6,0,1.2,0.1,1.7,0.2
	s1,0.4,1.4,0.7c0.4,0.3,0.7,0.8,1,1.2c0.3,0.4,0.4,1.1,0.4,1.8h-1.5C63.7,402,63.6,401.6,63.4,401.3 M51.7,404.5
	c-0.1,0.2-0.3,0.3-0.6,0.4c-0.3,0.1-0.5,0.1-0.7,0.2c-0.6,0.1-1.3,0.2-2,0.3c-0.7,0.1-1.3,0.2-1.9,0.4c-0.6,0.2-1,0.4-1.4,0.8
	c-0.4,0.3-0.5,0.8-0.5,1.4c0,0.4,0.1,0.7,0.2,1c0.2,0.3,0.4,0.6,0.6,0.8c0.3,0.2,0.6,0.4,0.9,0.5c0.3,0.1,0.7,0.2,1,0.2
	c0.6,0,1.1-0.1,1.7-0.3c0.5-0.2,1-0.4,1.4-0.8c0.4-0.3,0.7-0.7,0.9-1.2s0.3-1,0.3-1.6L51.7,404.5L51.7,404.5z M44.1,400.8
	c0.3-0.5,0.6-1,1-1.3c0.4-0.3,1-0.6,1.5-0.7c0.6-0.2,1.2-0.2,2-0.2c0.5,0,1.1,0.1,1.6,0.2c0.5,0.1,1,0.3,1.5,0.6
	c0.4,0.3,0.8,0.7,1.1,1.2s0.4,1.2,0.4,2v6.6c0,0.6,0.3,0.9,0.9,0.9c0.2,0,0.3,0,0.5-0.1v1.3c-0.2,0-0.3,0.1-0.5,0.1
	c-0.1,0-0.3,0-0.5,0c-0.4,0-0.7-0.1-0.9-0.2s-0.4-0.3-0.5-0.4c-0.1-0.2-0.2-0.4-0.3-0.7c0-0.3-0.1-0.6-0.1-0.9l0,0
	c-0.3,0.4-0.5,0.8-0.8,1.1c-0.3,0.3-0.6,0.6-0.9,0.8c-0.3,0.2-0.7,0.4-1.2,0.5s-1,0.2-1.6,0.2s-1.1-0.1-1.6-0.2s-0.9-0.4-1.3-0.6
	c-0.4-0.3-0.7-0.7-0.9-1.1c-0.2-0.5-0.3-1-0.3-1.6c0-0.9,0.2-1.5,0.6-2c0.4-0.5,0.9-0.9,1.5-1.1c0.6-0.3,1.3-0.4,2.1-0.5
	s1.6-0.2,2.4-0.3c0.3,0,0.6-0.1,0.8-0.1s0.4-0.1,0.6-0.3c0.2-0.1,0.3-0.3,0.4-0.5c0.1-0.2,0.1-0.5,0.1-0.8c0-0.5-0.1-0.9-0.3-1.3
	c-0.2-0.3-0.4-0.6-0.7-0.8c-0.3-0.2-0.6-0.3-1-0.4s-0.8-0.1-1.3-0.1c-1,0-1.7,0.2-2.4,0.7c-0.6,0.5-0.9,1.2-1,2.2h-1.5
	C43.7,402,43.9,401.3,44.1,400.8 M32.4,398.9v2.1l0,0c0.3-0.8,0.8-1.4,1.5-1.8c0.7-0.5,1.5-0.7,2.4-0.7s1.6,0.1,2.2,0.3
	c0.6,0.2,1.1,0.5,1.4,0.9c0.4,0.4,0.6,0.9,0.7,1.5c0.1,0.6,0.2,1.3,0.2,2v8h-1.5v-7.7c0-0.5,0-1-0.1-1.5s-0.3-0.9-0.5-1.2
	c-0.2-0.3-0.6-0.6-1-0.8s-0.9-0.3-1.5-0.3s-1.1,0.1-1.6,0.3c-0.5,0.2-0.9,0.5-1.2,0.9s-0.6,0.8-0.8,1.3s-0.3,1.1-0.3,1.7v7.2h-1.5
	v-12.2H32.4z M26.3,404.5c-0.1,0.2-0.3,0.3-0.6,0.4c-0.3,0.1-0.5,0.1-0.7,0.2c-0.6,0.1-1.3,0.2-2,0.3c-0.7,0.1-1.3,0.2-1.9,0.4
	c-0.6,0.2-1,0.4-1.4,0.8c-0.4,0.3-0.5,0.8-0.5,1.4c0,0.4,0.1,0.7,0.2,1c0.2,0.3,0.4,0.6,0.6,0.8c0.2,0.2,0.6,0.4,0.9,0.5
	c0.3,0.1,0.7,0.2,1,0.2c0.6,0,1.1-0.1,1.7-0.3c0.5-0.2,1-0.4,1.4-0.8c0.4-0.3,0.7-0.7,0.9-1.2s0.3-1,0.3-1.6L26.3,404.5L26.3,404.5z
	 M18.8,400.8c0.3-0.5,0.6-1,1-1.3c0.4-0.3,1-0.6,1.5-0.7c0.5-0.1,1.2-0.2,2-0.2c0.5,0,1.1,0.1,1.6,0.2c0.5,0.1,1,0.3,1.5,0.6
	c0.4,0.3,0.8,0.7,1.1,1.2s0.4,1.2,0.4,2v6.6c0,0.6,0.3,0.9,0.9,0.9c0.2,0,0.3,0,0.5-0.1v1.3c-0.2,0-0.3,0.1-0.5,0.1
	c-0.1,0-0.3,0-0.5,0c-0.4,0-0.7-0.1-0.9-0.2s-0.4-0.3-0.5-0.4c-0.1-0.2-0.2-0.4-0.3-0.7c0-0.3-0.1-0.6-0.1-0.9l0,0
	c-0.3,0.4-0.5,0.8-0.8,1.1c-0.3,0.3-0.6,0.6-0.9,0.8c-0.3,0.2-0.7,0.4-1.2,0.5c-0.4,0.1-1,0.2-1.6,0.2s-1.1-0.1-1.6-0.2
	s-0.9-0.4-1.3-0.6c-0.4-0.3-0.7-0.7-0.9-1.1c-0.2-0.5-0.3-1-0.3-1.6c0-0.9,0.2-1.5,0.6-2c0.4-0.5,0.9-0.9,1.5-1.1
	c0.6-0.3,1.3-0.4,2.1-0.5s1.6-0.2,2.4-0.3c0.3,0,0.6-0.1,0.8-0.1s0.4-0.1,0.6-0.3c0.2-0.1,0.3-0.3,0.4-0.5c0.1-0.2,0.1-0.5,0.1-0.8
	c0-0.5-0.1-0.9-0.3-1.3c-0.2-0.3-0.4-0.6-0.7-0.8c-0.3-0.2-0.6-0.3-1-0.4s-0.8-0.1-1.3-0.1c-1,0-1.7,0.2-2.4,0.7
	c-0.6,0.5-0.9,1.2-1,2.2h-1.5C18.4,402,18.5,401.3,18.8,400.8 M14,401.3c-0.2-0.3-0.4-0.6-0.7-0.9c-0.3-0.2-0.6-0.4-1-0.5
	c-0.4-0.1-0.8-0.2-1.2-0.2c-0.3,0-0.7,0-1,0.1c-0.3,0.1-0.7,0.2-0.9,0.4c-0.3,0.2-0.5,0.4-0.7,0.7c-0.2,0.3-0.3,0.6-0.3,1
	c0,0.3,0.1,0.6,0.3,0.9c0.2,0.2,0.4,0.4,0.6,0.6c0.3,0.2,0.5,0.3,0.8,0.4c0.3,0.1,0.6,0.2,0.8,0.3l2,0.5c0.4,0.1,0.9,0.2,1.3,0.3
	c0.4,0.2,0.8,0.4,1.1,0.7s0.6,0.6,0.8,1s0.3,0.9,0.3,1.4c0,0.7-0.2,1.2-0.5,1.7s-0.7,0.9-1.2,1.2c-0.5,0.3-1,0.5-1.6,0.6
	c-0.6,0.1-1.2,0.2-1.8,0.2c-1.5,0-2.6-0.3-3.5-1s-1.4-1.8-1.5-3.3h1.5c0.1,1,0.4,1.8,1.1,2.3c0.7,0.5,1.5,0.8,2.5,0.8
	c0.4,0,0.7,0,1.1-0.1c0.4-0.1,0.8-0.2,1.1-0.4c0.3-0.2,0.6-0.4,0.8-0.7c0.2-0.3,0.3-0.7,0.3-1.1s-0.1-0.7-0.2-0.9
	c-0.2-0.2-0.4-0.5-0.6-0.6c-0.3-0.2-0.5-0.3-0.9-0.4c-0.3-0.1-0.7-0.2-1-0.3l-1.9-0.4c-0.5-0.1-1-0.3-1.4-0.4
	c-0.4-0.2-0.8-0.4-1.1-0.6c-0.3-0.2-0.6-0.6-0.7-0.9c-0.2-0.4-0.3-0.8-0.3-1.3c0-0.6,0.1-1.2,0.4-1.6c0.3-0.4,0.6-0.8,1.1-1.1
	c0.4-0.3,0.9-0.5,1.5-0.6s1.1-0.2,1.6-0.2c0.6,0,1.2,0.1,1.7,0.2c0.5,0.2,1,0.4,1.4,0.7c0.4,0.3,0.7,0.8,1,1.2
	c0.2,0.5,0.4,1.1,0.4,1.8H14C14.3,402,14.2,401.6,14,401.3 M1.2,407.8c-0.3-0.3-0.7-0.6-1.3-0.7c-0.3-0.1-0.5-0.1-0.8-0.2
	c-0.3,0-0.5-0.1-0.8-0.1c-0.4-0.1-0.7-0.2-0.8-0.3s-0.2-0.2-0.2-0.4s0.1-0.3,0.4-0.4c0.3-0.1,0.6-0.2,0.9-0.2c0.4,0,0.9,0.1,1.3,0.2
	c0.4,0.1,0.8,0.3,1.2,0.6h0.2v-1.8c-0.3-0.1-0.7-0.2-1.1-0.3s-1-0.2-1.5-0.2c-1.1,0-2,0.2-2.7,0.7c-0.6,0.5-1,1-1,1.7
	c0,0.5,0.2,1,0.5,1.3c0.3,0.4,0.8,0.6,1.4,0.8c0.2,0.1,0.5,0.1,0.8,0.2c0.3,0,0.5,0.1,0.7,0.1c0.4,0.1,0.6,0.1,0.7,0.2
	c0.1,0.1,0.2,0.2,0.2,0.4c0,0.2-0.1,0.3-0.3,0.4s-0.5,0.1-1,0.1c-0.3,0-0.7,0-1-0.1s-0.6-0.2-0.8-0.3c-0.3-0.1-0.5-0.2-0.6-0.3
	s-0.3-0.2-0.4-0.3H-5v1.9c0.3,0.1,0.7,0.3,1.2,0.4s1.1,0.2,1.7,0.2c1.1,0,2.1-0.2,2.7-0.7c0.7-0.5,1-1,1-1.8
	C1.6,408.5,1.5,408.1,1.2,407.8 M-8.9,411.3h2.3v-4.9c0-0.9-0.3-1.5-0.9-1.9c-0.6-0.4-1.5-0.6-2.8-0.6c-0.5,0-1.1,0-1.6,0.1
	s-0.9,0.2-1.2,0.2v1.7h0.2c0.2-0.1,0.5-0.2,0.9-0.3s0.8-0.2,1.2-0.2c0.6,0,1.1,0.1,1.4,0.2c0.3,0.2,0.5,0.4,0.5,0.8l0,0
	c-0.7,0-1.3,0.1-1.9,0.2c-0.6,0.1-1.2,0.2-1.6,0.4c-0.4,0.2-0.8,0.5-1,0.8c-0.2,0.3-0.4,0.8-0.4,1.3c0,0.7,0.2,1.2,0.7,1.6
	s1,0.6,1.7,0.6c0.3,0,0.6,0,0.8-0.1c0.2,0,0.5-0.1,0.7-0.2c0.2-0.1,0.3-0.2,0.5-0.3s0.3-0.2,0.5-0.3L-8.9,411.3L-8.9,411.3z
	 M-9.6,409.8c-0.2,0.1-0.5,0.1-0.7,0.1c-0.3,0-0.5,0-0.6-0.1c-0.1,0-0.3-0.1-0.3-0.2c-0.1-0.1-0.2-0.2-0.2-0.3c0-0.1,0-0.2,0-0.4
	c0-0.2,0.1-0.4,0.2-0.5c0.1-0.1,0.3-0.2,0.5-0.3s0.5-0.1,0.8-0.2c0.4,0,0.7-0.1,1-0.1v1.5C-9.1,409.6-9.3,409.7-9.6,409.8
	 M-15.2,407.8c-0.3-0.3-0.7-0.6-1.3-0.7c-0.3-0.1-0.5-0.1-0.8-0.2c-0.3,0-0.5-0.1-0.8-0.1c-0.4-0.1-0.7-0.2-0.8-0.3
	s-0.2-0.2-0.2-0.4s0.1-0.3,0.4-0.4c0.3-0.1,0.6-0.2,0.9-0.2c0.4,0,0.9,0.1,1.3,0.2c0.4,0.1,0.8,0.3,1.2,0.6h0.2v-1.8
	c-0.3-0.1-0.7-0.2-1.1-0.3c-0.5-0.1-1-0.2-1.5-0.2c-1.1,0-2,0.2-2.7,0.7c-0.6,0.5-1,1-1,1.7c0,0.5,0.2,1,0.5,1.3
	c0.3,0.4,0.8,0.6,1.4,0.8c0.2,0.1,0.5,0.1,0.8,0.2c0.3,0,0.5,0.1,0.7,0.1c0.4,0.1,0.6,0.1,0.7,0.2c0.1,0.1,0.2,0.2,0.2,0.4
	c0,0.2-0.1,0.3-0.3,0.4s-0.5,0.1-1,0.1c-0.3,0-0.7,0-1-0.1s-0.6-0.2-0.8-0.3c-0.3-0.1-0.5-0.2-0.6-0.3s-0.3-0.2-0.4-0.3h-0.2v1.9
	c0.3,0.1,0.7,0.3,1.2,0.4s1.1,0.2,1.7,0.2c1.1,0,2.1-0.2,2.7-0.7c0.7-0.5,1-1,1-1.8C-14.8,408.5-14.9,408.1-15.2,407.8 M-23.1,401.4
	h-2.4v1.7h2.4V401.4z M-23.1,404.1h-2.3v7.1h2.3V404.1z M-26.7,404.1c-0.1,0-0.2,0-0.3,0c-0.1,0-0.2,0-0.3,0c-0.3,0-0.7,0.1-1,0.2
	c-0.4,0.1-0.8,0.4-1.3,0.9v-1h-2.3v7.1h2.3v-4.8c0.3-0.1,0.6-0.2,0.8-0.2c0.2,0,0.5-0.1,0.9-0.1c0.1,0,0.3,0,0.5,0s0.4,0,0.5,0.1
	h0.2C-26.7,406.3-26.7,404.1-26.7,404.1z M-34,406.6c0-0.9-0.2-1.6-0.7-2c-0.4-0.4-1-0.7-1.8-0.7c-0.5,0-0.9,0.1-1.2,0.3
	c-0.4,0.2-0.8,0.4-1.2,0.7v-0.8h-2.3v7.1h2.3v-5.1c0.2-0.1,0.5-0.3,0.7-0.3c0.2-0.1,0.4-0.1,0.6-0.1c0.3,0,0.5,0,0.7,0.1
	c0.2,0.1,0.3,0.2,0.4,0.3s0.1,0.3,0.2,0.6c0,0.3,0,0.6,0,0.9v3.5h2.3V406.6z M-46.1,409.8c-0.2,0.1-0.4,0.1-0.6,0.1s-0.5,0-0.6-0.1
	c-0.2-0.1-0.3-0.2-0.5-0.4c-0.1-0.2-0.2-0.4-0.3-0.7c-0.1-0.3-0.1-0.6-0.1-1s0-0.8,0.1-1.1s0.2-0.5,0.3-0.7c0.2-0.2,0.3-0.3,0.5-0.4
	s0.4-0.1,0.6-0.1s0.4,0,0.6,0.1s0.4,0.2,0.5,0.4c0.1,0.2,0.2,0.4,0.3,0.7c0.1,0.3,0.1,0.6,0.1,1.1s0,0.8-0.1,1.1
	c-0.1,0.3-0.2,0.5-0.3,0.7C-45.7,409.6-45.9,409.7-46.1,409.8 M-43.8,404.9c-0.7-0.7-1.6-1-2.9-1c-1.2,0-2.2,0.3-2.9,1
	c-0.7,0.7-1,1.6-1,2.8c0,1.2,0.3,2.1,1,2.8s1.6,1,2.9,1c1.2,0,2.2-0.3,2.9-1c0.7-0.7,1-1.6,1-2.8C-42.8,406.5-43.1,405.6-43.8,404.9
	 M-52,407.8c-0.3-0.3-0.7-0.6-1.3-0.7c-0.3-0.1-0.5-0.1-0.8-0.2c-0.3,0-0.5-0.1-0.8-0.1c-0.4-0.1-0.7-0.2-0.8-0.3
	c-0.1-0.1-0.2-0.2-0.2-0.4s0.1-0.3,0.4-0.4s0.6-0.2,0.9-0.2c0.4,0,0.9,0.1,1.3,0.2s0.8,0.3,1.2,0.6h0.2v-1.8
	c-0.3-0.1-0.7-0.2-1.1-0.3c-0.5-0.1-1-0.2-1.5-0.2c-1.1,0-2,0.2-2.7,0.7c-0.6,0.5-1,1-1,1.7c0,0.5,0.2,1,0.5,1.3
	c0.3,0.4,0.8,0.6,1.4,0.8c0.2,0.1,0.5,0.1,0.8,0.2c0.3,0,0.5,0.1,0.7,0.1c0.4,0.1,0.6,0.1,0.7,0.2s0.2,0.2,0.2,0.4
	c0,0.2-0.1,0.3-0.3,0.4c-0.2,0.1-0.5,0.1-1,0.1c-0.3,0-0.7,0-1-0.1s-0.6-0.2-0.8-0.3c-0.3-0.1-0.5-0.2-0.6-0.3
	c-0.2-0.1-0.3-0.2-0.4-0.3h-0.2v1.9c0.3,0.1,0.7,0.3,1.2,0.4s1.1,0.2,1.7,0.2c1.1,0,2.1-0.2,2.7-0.7c0.7-0.5,1-1,1-1.8
	C-51.6,408.5-51.7,408.1-52,407.8 M-65,408c0-0.4,0-0.7,0.1-1.1c0.1-0.3,0.2-0.6,0.4-0.9c0.2-0.3,0.4-0.5,0.7-0.6
	c0.3-0.1,0.7-0.2,1.1-0.2v-0.8c-0.6,0-1,0.1-1.4,0.3c-0.3,0.2-0.6,0.6-0.8,1.1l0,0v-1.3h-0.8v6.7h0.7V408z M-67.4,408.1
	c0-1.2-0.3-2.1-0.8-2.8c-0.5-0.6-1.3-1-2.2-1c-0.5,0-0.9,0.1-1.3,0.3s-0.7,0.4-1,0.8c-0.3,0.3-0.5,0.7-0.6,1.1s-0.2,0.9-0.2,1.4
	s0.1,1,0.2,1.4c0.1,0.4,0.3,0.8,0.6,1.1c0.3,0.3,0.6,0.6,1,0.7s0.9,0.3,1.4,0.3c0.4,0,0.8-0.1,1.1-0.2c0.3-0.1,0.6-0.3,0.8-0.5
	c0.2-0.2,0.4-0.4,0.6-0.7s0.3-0.6,0.4-0.9h-0.9c-0.1,0.5-0.4,0.9-0.7,1.1c-0.4,0.3-0.8,0.4-1.3,0.4c-0.4,0-0.7-0.1-1-0.2
	s-0.5-0.3-0.7-0.6c-0.2-0.2-0.3-0.5-0.4-0.8s-0.1-0.7-0.1-1h5.1V408.1z M-72.6,407.4c0-0.3,0.1-0.6,0.2-0.9c0.1-0.3,0.3-0.5,0.4-0.8
	c0.2-0.2,0.4-0.4,0.7-0.5c0.3-0.1,0.6-0.2,0.9-0.2s0.7,0.1,0.9,0.2c0.3,0.1,0.5,0.3,0.7,0.5c0.2,0.2,0.3,0.5,0.4,0.8
	c0.1,0.3,0.1,0.6,0.1,0.9H-72.6z M-74.8,406.7c-0.1-0.8-0.4-1.4-0.9-1.7c-0.5-0.4-1.1-0.6-1.9-0.6c-0.5,0-0.9,0.1-1.3,0.3
	c-0.4,0.2-0.7,0.5-1,0.8s-0.5,0.7-0.6,1.1s-0.2,0.9-0.2,1.3c0,0.5,0.1,1,0.2,1.4c0.1,0.4,0.3,0.8,0.6,1.1c0.3,0.3,0.6,0.6,1,0.7
	s0.9,0.3,1.4,0.3c0.4,0,0.8-0.1,1.1-0.2c0.3-0.1,0.6-0.3,0.9-0.5c0.2-0.2,0.4-0.5,0.6-0.8c0.2-0.3,0.3-0.6,0.3-1h-0.8
	c-0.1,0.6-0.3,1-0.7,1.3c-0.4,0.3-0.8,0.5-1.4,0.5c-0.4,0-0.8-0.1-1-0.2c-0.3-0.2-0.5-0.4-0.7-0.6c-0.2-0.3-0.3-0.6-0.4-0.9
	c-0.1-0.3-0.1-0.7-0.1-1s0-0.7,0.1-1s0.2-0.7,0.4-0.9c0.2-0.3,0.4-0.5,0.7-0.7c0.3-0.2,0.6-0.2,1-0.2c0.5,0,0.9,0.1,1.3,0.4
	c0.3,0.3,0.6,0.7,0.7,1.2L-74.8,406.7L-74.8,406.7z M-81.8,408.1c0-1.2-0.3-2.1-0.8-2.8c-0.5-0.6-1.3-1-2.2-1
	c-0.5,0-0.9,0.1-1.3,0.3c-0.4,0.2-0.7,0.4-1,0.8c-0.3,0.3-0.5,0.7-0.6,1.1c-0.1,0.4-0.2,0.9-0.2,1.4s0.1,1,0.2,1.4
	c0.1,0.4,0.3,0.8,0.6,1.1c0.3,0.3,0.6,0.6,1,0.7c0.4,0.2,0.9,0.3,1.4,0.3c0.4,0,0.8-0.1,1.1-0.2c0.3-0.1,0.6-0.3,0.8-0.5
	c0.2-0.2,0.4-0.4,0.6-0.7s0.3-0.6,0.4-0.9h-0.9c-0.1,0.5-0.4,0.9-0.7,1.1c-0.4,0.3-0.8,0.4-1.3,0.4c-0.4,0-0.7-0.1-1-0.2
	c-0.3-0.1-0.5-0.3-0.7-0.6c-0.2-0.2-0.3-0.5-0.4-0.8c-0.1-0.3-0.1-0.7-0.1-1h5.1V408.1z M-87.1,407.4c0-0.3,0.1-0.6,0.2-0.9
	c0.1-0.3,0.3-0.5,0.4-0.8c0.2-0.2,0.4-0.4,0.7-0.5c0.3-0.1,0.6-0.2,0.9-0.2s0.7,0.1,0.9,0.2c0.3,0.1,0.5,0.3,0.7,0.5
	c0.2,0.2,0.3,0.5,0.4,0.8c0.1,0.3,0.1,0.6,0.1,0.9H-87.1z M-89.5,401.9h-0.8v9.4h0.8V401.9z M-97.5,410.1L-97.5,410.1
	c0.1,0.2,0.3,0.4,0.5,0.6c0.2,0.2,0.4,0.3,0.6,0.4c0.2,0.1,0.4,0.2,0.7,0.3c0.2,0.1,0.4,0.1,0.7,0.1c0.5,0,1-0.1,1.4-0.3
	c0.4-0.2,0.7-0.4,0.9-0.7s0.4-0.7,0.5-1.1s0.2-0.9,0.2-1.4s-0.1-0.9-0.2-1.4c-0.1-0.4-0.3-0.8-0.6-1.1c-0.2-0.3-0.6-0.6-0.9-0.8
	c-0.4-0.2-0.8-0.3-1.3-0.3s-0.9,0.1-1.4,0.3c-0.4,0.2-0.8,0.5-1,0.9v-3.7h-0.8v9.4h0.8v-1.2H-97.5z M-97.4,406.8
	c0.1-0.3,0.3-0.6,0.4-0.9c0.2-0.3,0.4-0.5,0.7-0.6c0.3-0.2,0.6-0.2,1-0.2c0.4,0,0.7,0.1,1,0.2c0.3,0.2,0.5,0.4,0.7,0.7
	c0.2,0.3,0.3,0.6,0.4,1c0.1,0.4,0.1,0.8,0.1,1.2s-0.1,0.8-0.2,1.1c-0.1,0.3-0.3,0.6-0.5,0.8c-0.2,0.2-0.2,0.4-0.5,0.5
	c-0.3,0.1-0.6,0.2-0.9,0.2c-0.4,0-0.7-0.1-1-0.2c-0.3-0.1-0.5-0.3-0.7-0.6c-0.2-0.3-0.3-0.6-0.4-0.9c-0.1-0.4-0.1-0.7-0.1-1.1
	C-97.5,407.5-97.5,407.1-97.4,406.8 M-103.6,407.5c-1.6,0.2-2.4,0.9-2.4,2c0,0.3,0.1,0.6,0.2,0.9c0.1,0.2,0.3,0.4,0.5,0.6
	c0.2,0.2,0.4,0.3,0.7,0.4c0.3,0.1,0.6,0.1,0.9,0.1c0.5,0,1-0.1,1.4-0.3s0.8-0.5,1.1-0.8c0,0.1,0,0.2,0,0.3s0,0.2,0.1,0.3
	c0,0.1,0.1,0.2,0.2,0.2c0.1,0.1,0.2,0.1,0.3,0.1s0.2,0,0.4,0c0.1,0,0.2,0,0.3-0.1c0.1-0.1,0.2-0.1,0.3-0.1v-0.5
	c-0.3,0.1-0.5,0.1-0.7,0.1c-0.1-0.1-0.2-0.3-0.2-0.6v-3.7c0-0.4-0.1-0.7-0.2-1c-0.1-0.3-0.3-0.5-0.5-0.6c-0.2-0.2-0.5-0.3-0.8-0.4
	c-0.3-0.1-0.6-0.1-1-0.1s-0.7,0-1,0.1c-0.3,0.1-0.6,0.2-0.9,0.4c-0.2,0.2-0.4,0.4-0.6,0.7c-0.2,0.3-0.2,0.6-0.3,1h0.8
	c0-0.3,0.1-0.5,0.2-0.7c0.1-0.2,0.2-0.4,0.4-0.5c0.2-0.1,0.4-0.2,0.6-0.2c0.2,0,0.5-0.1,0.7-0.1c0.6,0,1,0.1,1.3,0.4
	c0.3,0.3,0.4,0.6,0.4,1c0,0.1,0,0.3,0,0.4c0,0.1-0.1,0.2-0.2,0.3s-0.3,0.1-0.5,0.1s-0.4,0.1-0.5,0.1L-103.6,407.5z M-101.2,408.8
	c0,0.3-0.1,0.6-0.2,0.9c-0.1,0.2-0.3,0.5-0.6,0.6c-0.2,0.2-0.5,0.3-0.8,0.4c-0.3,0.1-0.6,0.1-0.9,0.1c-0.2,0-0.4,0-0.5-0.1
	c-0.2,0-0.3-0.1-0.5-0.2c-0.1-0.1-0.2-0.2-0.3-0.4s-0.1-0.3-0.1-0.5c0-0.5,0.2-0.8,0.5-1s0.8-0.4,1.4-0.4c0.3,0,0.7-0.1,1-0.1
	s0.7-0.1,1-0.3C-101.2,407.8-101.2,408.8-101.2,408.8z M-106.9,410.7c-0.1,0-0.2,0-0.3,0.1c-0.1,0-0.2,0-0.3,0c-0.2,0-0.3,0-0.4-0.1
	c-0.1-0.1-0.1-0.1-0.2-0.2c0-0.1-0.1-0.2-0.1-0.3s0-0.3,0-0.4v-4.6h1.3v-0.6h-1.3v-1.9h-0.8v1.9h-0.9v0.6h0.9v4.9
	c0,0.5,0.1,0.9,0.3,1c0.2,0.2,0.5,0.3,0.9,0.3c0.2,0,0.4,0,0.5-0.1c0.2,0,0.3-0.1,0.4-0.1C-106.9,411.2-106.9,410.7-106.9,410.7z
	 M-116.1,409.2c0,0.3,0.1,0.6,0.2,0.9c0.1,0.3,0.3,0.5,0.5,0.7c0.2,0.2,0.5,0.4,0.8,0.5c0.3,0.1,0.7,0.2,1.1,0.2
	c0.4,0,0.8,0,1.1-0.1c0.3-0.1,0.6-0.2,0.9-0.4c0.2-0.2,0.4-0.4,0.6-0.6c0.1-0.2,0.2-0.5,0.2-0.9c0-0.4-0.1-0.8-0.3-1
	c-0.2-0.2-0.5-0.4-0.8-0.6c-0.3-0.1-0.7-0.3-1-0.3c-0.4-0.1-0.7-0.2-1-0.3c-0.3-0.1-0.6-0.2-0.8-0.4c-0.2-0.2-0.3-0.4-0.3-0.7
	s0.1-0.6,0.4-0.8c0.3-0.2,0.6-0.3,1.1-0.3s0.9,0.1,1.2,0.3c0.3,0.2,0.5,0.6,0.6,1.1h0.8c-0.1-0.8-0.4-1.3-0.8-1.6
	c-0.5-0.3-1-0.5-1.8-0.5c-0.8,0-1.3,0.2-1.7,0.5c-0.4,0.4-0.6,0.8-0.6,1.4c0,0.4,0.1,0.8,0.3,1c0.2,0.2,0.5,0.4,0.8,0.6
	c0.3,0.1,0.7,0.2,1,0.3c0.4,0.1,0.7,0.1,1,0.2c0.3,0.1,0.6,0.2,0.8,0.4c0.2,0.2,0.3,0.4,0.3,0.7c0,0.2,0,0.3-0.1,0.5
	c-0.1,0.1-0.2,0.3-0.3,0.4c-0.1,0.1-0.3,0.2-0.5,0.3c-0.2,0.1-0.5,0.1-0.7,0.1c-0.6,0-1-0.1-1.4-0.4c-0.3-0.2-0.5-0.6-0.7-1.2
	C-115.2,409.2-116.1,409.2-116.1,409.2z M-117.2,408.1c0-1.2-0.3-2.1-0.8-2.8c-0.5-0.6-1.3-1-2.2-1c-0.5,0-0.9,0.1-1.3,0.3
	s-0.7,0.4-1,0.8c-0.3,0.3-0.5,0.7-0.6,1.1s-0.2,0.9-0.2,1.4s0.1,1,0.2,1.4c0.1,0.4,0.3,0.8,0.6,1.1c0.3,0.3,0.6,0.6,1,0.7
	c0.4,0.2,0.9,0.3,1.4,0.3c0.4,0,0.8-0.1,1.1-0.2s0.6-0.3,0.8-0.5c0.2-0.2,0.4-0.4,0.6-0.7c0.2-0.3,0.3-0.6,0.4-0.9h-0.9
	c-0.1,0.5-0.4,0.9-0.7,1.1c-0.4,0.3-0.8,0.4-1.3,0.4c-0.4,0-0.7-0.1-1-0.2c-0.3-0.1-0.5-0.3-0.7-0.6c-0.2-0.2-0.3-0.5-0.4-0.8
	c-0.1-0.3-0.1-0.7-0.1-1h5.1V408.1z M-122.5,407.4c0-0.3,0.1-0.6,0.2-0.9c0.1-0.3,0.3-0.5,0.4-0.8c0.2-0.2,0.4-0.4,0.7-0.5
	c0.3-0.1,0.6-0.2,0.9-0.2c0.3,0,0.7,0.1,0.9,0.2c0.3,0.1,0.5,0.3,0.7,0.5c0.2,0.2,0.3,0.5,0.4,0.8c0.1,0.3,0.1,0.6,0.1,0.9H-122.5z
	 M-124.5,408.1c0-1.2-0.3-2.1-0.8-2.8c-0.5-0.6-1.3-1-2.2-1c-0.5,0-0.9,0.1-1.3,0.3c-0.4,0.2-0.7,0.4-1,0.8
	c-0.3,0.3-0.5,0.7-0.6,1.1c-0.1,0.4-0.2,0.9-0.2,1.4s0.1,1,0.2,1.4c0.1,0.4,0.3,0.8,0.6,1.1c0.3,0.3,0.6,0.6,1,0.7
	c0.4,0.1,0.9,0.3,1.4,0.3c0.4,0,0.8-0.1,1.1-0.2c0.3-0.1,0.6-0.3,0.8-0.5c0.2-0.2,0.4-0.4,0.6-0.7c0.2-0.3,0.3-0.6,0.4-0.9h-0.9
	c-0.1,0.5-0.4,0.9-0.7,1.1c-0.4,0.3-0.8,0.4-1.3,0.4c-0.4,0-0.7-0.1-1-0.2c-0.3-0.1-0.5-0.3-0.7-0.6c-0.2-0.2-0.3-0.5-0.4-0.8
	s-0.1-0.7-0.1-1h5.1V408.1z M-129.7,407.4c0-0.3,0.1-0.6,0.2-0.9c0.1-0.3,0.3-0.5,0.4-0.8c0.2-0.2,0.4-0.4,0.7-0.5
	c0.3-0.1,0.6-0.2,0.9-0.2s0.7,0.1,0.9,0.2c0.3,0.1,0.5,0.3,0.7,0.5c0.2,0.2,0.3,0.5,0.4,0.8c0.1,0.3,0.1,0.6,0.1,0.9H-129.7z
	 M-133.7,408c0-0.4,0-0.7,0.1-1.1c0.1-0.3,0.2-0.6,0.4-0.9c0.2-0.3,0.4-0.5,0.7-0.6c0.3-0.1,0.7-0.2,1.1-0.2v-0.8
	c-0.6,0-1,0.1-1.4,0.3c-0.3,0.2-0.6,0.6-0.8,1.1l0,0v-1.3h-0.8v6.7h0.8L-133.7,408L-133.7,408z M-141.5,408.4
	c-1.2,0.2-1.8,0.7-1.8,1.6c0,0.3,0,0.5,0.1,0.7c0.1,0.2,0.2,0.3,0.4,0.5c0.2,0.1,0.3,0.2,0.6,0.3c0.2,0.1,0.4,0.1,0.7,0.1
	c0.4,0,0.7-0.1,1.1-0.2c0.3-0.1,0.6-0.4,0.9-0.6c0,0.1,0,0.2,0,0.3s0,0.2,0.1,0.2c0.1,0,0.1,0.1,0.1,0.2c0.1,0,0.1,0.1,0.2,0.1
	c0.1,0,0.2,0,0.3,0c0.1,0,0.2,0,0.3,0s0.2,0,0.2-0.1V411c-0.3,0.1-0.4,0.1-0.5,0c-0.1-0.1-0.1-0.2-0.1-0.4v-3c0-0.3,0-0.6-0.1-0.8
	c-0.1-0.2-0.2-0.4-0.4-0.5c-0.2-0.1-0.4-0.2-0.6-0.3s-0.5-0.1-0.7-0.1c-0.3,0-0.5,0-0.8,0.1c-0.2,0.1-0.5,0.2-0.7,0.3
	c-0.2,0.1-0.3,0.3-0.5,0.5c-0.1,0.2-0.2,0.5-0.2,0.8h0.6c0-0.2,0.1-0.4,0.2-0.6c0.1-0.1,0.2-0.3,0.3-0.4c0.1-0.1,0.3-0.2,0.5-0.2
	s0.4-0.1,0.6-0.1c0.5,0,0.8,0.1,1,0.3s0.3,0.4,0.3,0.8c0,0.1,0,0.2,0,0.3c0,0.1-0.1,0.2-0.2,0.2c-0.1,0-0.2,0.1-0.4,0.1
	s-0.3,0-0.4,0.1L-141.5,408.4z M-139.7,409.4c0,0.3-0.1,0.5-0.2,0.7c-0.1,0.2-0.2,0.3-0.4,0.5s-0.4,0.2-0.6,0.3
	c-0.2,0.1-0.5,0.1-0.7,0.1c-0.1,0-0.3,0-0.4-0.1c-0.1,0-0.3-0.1-0.4-0.2c-0.1-0.1-0.2-0.2-0.2-0.3c0-0.1-0.1-0.3-0.1-0.4
	c0-0.4,0.1-0.6,0.4-0.8c0.3-0.2,0.6-0.3,1.1-0.3c0.3,0,0.5,0,0.8-0.1c0.3,0,0.5-0.1,0.8-0.2L-139.7,409.4L-139.7,409.4z"/>
<path id="XMLID_7_" class="st0" d="M107.1,391.2c0-0.3,0-0.7,0.1-1c0.1-0.3,0.2-0.6,0.3-0.8c0.2-0.2,0.4-0.4,0.6-0.6
	c0.3-0.1,0.6-0.2,1-0.2v-0.8c-0.5,0-0.9,0.1-1.3,0.3c-0.3,0.2-0.6,0.5-0.8,1l0,0v-1.2h-0.7v6.2h0.7L107.1,391.2L107.1,391.2z
	 M104.6,385.6h-0.8v1.1h0.8V385.6z M104.5,388.1h-0.7v6.2h0.7V388.1z M101.2,391.4c0,0.3,0,0.7-0.1,0.9c-0.1,0.3-0.2,0.5-0.4,0.7
	c-0.2,0.2-0.4,0.4-0.6,0.5c-0.2,0.1-0.5,0.2-0.8,0.2c-0.6,0-1-0.1-1.2-0.4c-0.2-0.3-0.4-0.7-0.4-1.2V388H97v4.1c0,0.3,0,0.6,0.1,0.9
	c0.1,0.3,0.2,0.5,0.4,0.7s0.4,0.4,0.7,0.5s0.6,0.2,1,0.2c0.3,0,0.5,0,0.7-0.1s0.4-0.2,0.5-0.3c0.2-0.1,0.3-0.2,0.4-0.3
	c0.1-0.1,0.2-0.2,0.3-0.3v0.9h0.7v-6.2h-0.7v3.3H101.2z M90.5,393.2L90.5,393.2c0.1,0.2,0.3,0.4,0.4,0.5s0.3,0.3,0.5,0.4
	s0.4,0.2,0.6,0.2c0.2,0.1,0.4,0.1,0.6,0.1c0.5,0,0.9-0.1,1.3-0.3c0.4-0.2,0.6-0.4,0.9-0.7c0.2-0.3,0.4-0.6,0.5-1
	c0.1-0.4,0.2-0.8,0.2-1.3c0-0.4-0.1-0.8-0.2-1.2c-0.1-0.4-0.3-0.8-0.5-1.1c-0.2-0.3-0.5-0.5-0.9-0.7c-0.3-0.2-0.8-0.3-1.2-0.3
	s-0.9,0.1-1.3,0.3c-0.4,0.2-0.7,0.5-1,0.9v-3.4h-0.7v8.6h0.7L90.5,393.2L90.5,393.2z M90.6,390.1c0.1-0.3,0.2-0.6,0.4-0.8
	c0.2-0.2,0.4-0.4,0.7-0.6c0.3-0.1,0.6-0.2,0.9-0.2c0.4,0,0.7,0.1,1,0.2s0.5,0.4,0.7,0.6c0.2,0.3,0.3,0.6,0.4,0.9
	c0.1,0.3,0.1,0.7,0.1,1.1c0,0.4-0.1,0.7-0.2,1c-0.1,0.3-0.3,0.6-0.4,0.8c-0.2,0.2-0.4,0.4-0.7,0.5s-0.5,0.2-0.8,0.2
	s-0.6-0.1-0.9-0.2c-0.3-0.1-0.5-0.3-0.7-0.6c-0.2-0.2-0.3-0.5-0.4-0.8c-0.1-0.3-0.1-0.7-0.1-1C90.5,390.8,90.6,390.5,90.6,390.1
	 M87.9,385.6h-0.8v1.1h0.8V385.6z M87.9,388.1h-0.7v6.2h0.7V388.1z M83.8,391.2c0-0.3,0-0.7,0.1-1c0.1-0.3,0.2-0.6,0.3-0.8
	c0.2-0.2,0.4-0.4,0.6-0.6c0.3-0.1,0.6-0.2,1-0.2v-0.8c-0.5,0-0.9,0.1-1.3,0.3c-0.3,0.2-0.6,0.5-0.8,1l0,0v-1.2H83v6.2h0.7
	L83.8,391.2L83.8,391.2z M81.9,393.7c-0.1,0-0.2,0-0.3,0.1c-0.1,0-0.2,0-0.3,0c-0.2,0-0.3,0-0.4,0c-0.1,0-0.1-0.1-0.2-0.2
	s-0.1-0.2-0.1-0.3c0-0.1,0-0.2,0-0.4v-4.3h1.2V388h-1.2v-1.7H80v1.7h-0.9v0.6H80v4.5c0,0.5,0.1,0.8,0.3,1s0.5,0.3,0.8,0.3
	c0.2,0,0.3,0,0.5-0.1c0.1,0,0.3-0.1,0.3-0.1L81.9,393.7L81.9,393.7z M73.8,390.9c0-0.2,0-0.4,0-0.6c0-0.2,0.1-0.4,0.1-0.6
	c0.1-0.2,0.1-0.3,0.2-0.5c0.1-0.1,0.2-0.3,0.4-0.4c0.1-0.1,0.3-0.2,0.5-0.3s0.4-0.1,0.6-0.1c0.6,0,1,0.1,1.2,0.4
	c0.2,0.3,0.4,0.7,0.4,1.3v4.1h0.7v-4.1c0-0.3,0-0.5,0-0.7c0-0.2-0.1-0.5-0.3-0.7c-0.2-0.3-0.5-0.6-0.8-0.7s-0.7-0.2-1.1-0.2
	c-0.4,0-0.8,0.1-1.1,0.3s-0.6,0.4-0.9,0.7v-0.9H73v6.2h0.7v-3.2H73.8z M70.8,392.1c-0.1,0.3-0.2,0.6-0.4,0.8
	c-0.2,0.2-0.4,0.4-0.7,0.6c-0.3,0.1-0.6,0.2-1,0.2c-0.3,0-0.6-0.1-0.9-0.2c-0.3-0.1-0.5-0.3-0.7-0.5c-0.2-0.2-0.3-0.5-0.4-0.8
	c-0.1-0.3-0.1-0.7-0.1-1.1c0-0.3,0-0.7,0.1-1s0.2-0.6,0.4-0.8c0.2-0.2,0.4-0.4,0.7-0.6c0.3-0.1,0.6-0.2,1-0.2s0.7,0.1,1,0.2
	s0.5,0.3,0.6,0.6c0.2,0.2,0.3,0.5,0.4,0.8c0.1,0.3,0.1,0.7,0.1,1C70.9,391.5,70.9,391.8,70.8,392.1 M70,394.2
	c0.4-0.2,0.7-0.4,0.9-0.7c0.2-0.3,0.4-0.6,0.6-1c0.1-0.4,0.2-0.8,0.2-1.3s-0.1-0.9-0.2-1.3c-0.1-0.4-0.3-0.7-0.5-1
	c-0.2-0.3-0.5-0.5-0.9-0.7c-0.4-0.2-0.8-0.3-1.3-0.3s-0.9,0.1-1.3,0.3c-0.4,0.2-0.7,0.4-0.9,0.7c-0.2,0.3-0.4,0.6-0.5,1
	c-0.1,0.4-0.2,0.8-0.2,1.3s0.1,1,0.2,1.4c0.2,0.4,0.4,0.7,0.6,1c0.3,0.3,0.6,0.5,0.9,0.6c0.3,0.1,0.7,0.2,1.1,0.2
	C69.3,394.4,69.7,394.4,70,394.2 M64.8,390c-0.1-0.7-0.4-1.3-0.8-1.6c-0.4-0.3-1-0.5-1.7-0.5c-0.5,0-0.9,0.1-1.2,0.3
	c-0.3,0.2-0.7,0.4-0.9,0.7c-0.2,0.3-0.4,0.7-0.5,1.1s-0.2,0.8-0.2,1.2c0,0.5,0.1,0.9,0.2,1.3s0.3,0.7,0.5,1c0.2,0.3,0.5,0.5,0.9,0.7
	c0.4,0.2,0.8,0.3,1.3,0.3c0.4,0,0.7-0.1,1-0.2c0.3-0.1,0.6-0.3,0.8-0.5c0.2-0.2,0.4-0.4,0.5-0.7s0.2-0.6,0.3-0.9h-0.8
	c-0.1,0.5-0.3,0.9-0.6,1.2c-0.3,0.3-0.8,0.4-1.3,0.4c-0.4,0-0.7-0.1-1-0.2s-0.5-0.3-0.6-0.6c-0.2-0.2-0.3-0.5-0.4-0.8
	c-0.1-0.3-0.1-0.6-0.1-1c0-0.3,0-0.6,0.1-1c0.1-0.3,0.2-0.6,0.4-0.9c0.2-0.3,0.4-0.5,0.6-0.6c0.3-0.2,0.6-0.2,0.9-0.2
	c0.5,0,0.9,0.1,1.2,0.4c0.3,0.3,0.5,0.6,0.7,1.1C64.1,390,64.8,390,64.8,390z M54.9,391.3c0-1.1-0.2-2-0.7-2.6s-1.2-0.9-2-0.9
	c-0.4,0-0.8,0.1-1.2,0.3s-0.6,0.4-0.9,0.7c-0.2,0.3-0.4,0.6-0.6,1c-0.1,0.4-0.2,0.8-0.2,1.3s0.1,0.9,0.2,1.3c0.1,0.4,0.3,0.7,0.5,1
	c0.2,0.3,0.5,0.5,0.9,0.7s0.8,0.3,1.3,0.3c0.4,0,0.7-0.1,1-0.2s0.6-0.2,0.8-0.4c0.2-0.2,0.4-0.4,0.5-0.7s0.3-0.5,0.3-0.8H54
	c-0.1,0.5-0.3,0.8-0.7,1.1c-0.3,0.2-0.7,0.4-1.2,0.4c-0.3,0-0.6-0.1-0.9-0.2c-0.3-0.1-0.5-0.3-0.7-0.5s-0.3-0.5-0.4-0.8
	c-0.1-0.3-0.1-0.6-0.1-1C50,391.3,54.9,391.3,54.9,391.3z M50.1,390.7c0-0.3,0.1-0.6,0.2-0.8c0.1-0.3,0.2-0.5,0.4-0.7
	c0.2-0.2,0.4-0.4,0.6-0.5c0.2-0.1,0.5-0.2,0.8-0.2s0.6,0.1,0.9,0.2c0.2,0.1,0.5,0.3,0.6,0.5c0.2,0.2,0.3,0.4,0.4,0.7
	c0.1,0.3,0.1,0.6,0.1,0.9h-4V390.7z M47.1,389.1c-0.2-0.4-0.6-0.7-1-0.9c-0.4-0.2-0.8-0.3-1.3-0.3s-0.9,0.1-1.2,0.3
	c-0.3,0.2-0.6,0.4-0.9,0.7c-0.2,0.3-0.4,0.7-0.5,1.1s-0.2,0.8-0.2,1.2c0,0.5,0.1,0.9,0.2,1.3s0.3,0.7,0.5,1c0.2,0.3,0.5,0.5,0.9,0.7
	c0.4,0.2,0.8,0.3,1.3,0.3c0.2,0,0.4,0,0.6-0.1c0.2-0.1,0.4-0.1,0.6-0.2c0.2-0.1,0.4-0.2,0.5-0.4c0.1-0.2,0.3-0.3,0.4-0.5l0,0v1.1
	h0.7v-8.8H47L47.1,389.1L47.1,389.1z M47,392.2c-0.1,0.3-0.2,0.6-0.4,0.8c-0.2,0.2-0.4,0.4-0.7,0.6c-0.3,0.1-0.6,0.2-0.9,0.2
	c-0.3,0-0.6-0.1-0.8-0.2s-0.5-0.3-0.7-0.5s-0.3-0.5-0.4-0.8c-0.1-0.3-0.2-0.6-0.2-1c0-0.4,0-0.8,0.1-1.1c0.1-0.3,0.2-0.6,0.4-0.9
	c0.2-0.3,0.4-0.5,0.7-0.6s0.6-0.2,1-0.2c0.3,0,0.6,0.1,0.9,0.2c0.3,0.1,0.5,0.3,0.7,0.6c0.2,0.2,0.3,0.5,0.4,0.8
	c0.1,0.3,0.1,0.7,0.1,1C47.1,391.5,47.1,391.9,47,392.2 M34.2,390.8c-1.4,0.2-2.2,0.8-2.2,1.9c0,0.3,0.1,0.6,0.2,0.8
	c0.1,0.2,0.3,0.4,0.5,0.6s0.4,0.3,0.7,0.3s0.5,0.1,0.8,0.1c0.5,0,0.9-0.1,1.3-0.3c0.4-0.2,0.7-0.4,1-0.8c0,0.1,0,0.2,0,0.3
	s0,0.2,0.1,0.3c0,0.1,0.1,0.2,0.2,0.2c0.1,0.1,0.2,0.1,0.3,0.1s0.2,0,0.3,0s0.2,0,0.3,0s0.2-0.1,0.2-0.1v-0.6
	c-0.3,0.1-0.5,0.1-0.6,0.1c-0.1-0.1-0.2-0.3-0.2-0.5v-3.4c0-0.4-0.1-0.7-0.2-0.9c-0.1-0.2-0.3-0.4-0.5-0.6c-0.2-0.1-0.4-0.3-0.7-0.3
	c-0.3-0.1-0.6-0.1-0.9-0.1c-0.3,0-0.7,0-1,0.1s-0.6,0.2-0.8,0.4c-0.2,0.2-0.4,0.4-0.6,0.6c-0.1,0.3-0.2,0.6-0.3,0.9h0.7
	c0-0.3,0.1-0.5,0.2-0.7c0.1-0.2,0.2-0.3,0.4-0.4c0.2-0.1,0.3-0.2,0.5-0.2s0.4-0.1,0.7-0.1c0.6,0,1,0.1,1.2,0.4
	c0.2,0.2,0.4,0.5,0.4,0.9c0,0.1,0,0.2,0,0.4c0,0.2-0.1,0.2-0.2,0.3c-0.1,0.1-0.3,0.1-0.5,0.1s-0.3,0.1-0.5,0.1L34.2,390.8z
	 M36.4,392c0,0.3-0.1,0.6-0.2,0.8c-0.1,0.2-0.3,0.4-0.5,0.6c-0.2,0.1-0.5,0.3-0.7,0.3c-0.3,0.1-0.6,0.1-0.8,0.1s-0.3,0-0.5-0.1
	c-0.2,0-0.3-0.1-0.4-0.2c-0.1-0.1-0.2-0.2-0.3-0.3c-0.1-0.1-0.1-0.3-0.1-0.5c0-0.4,0.2-0.7,0.5-0.9c0.3-0.2,0.7-0.3,1.3-0.4
	c0.3,0,0.6-0.1,0.9-0.1c0.3,0,0.6-0.1,0.9-0.3L36.4,392L36.4,392z M30.5,385.6h-0.7v8.6h0.7V385.6z M20,392.3c0,0.3,0.1,0.6,0.2,0.8
	c0.1,0.3,0.3,0.5,0.5,0.7c0.2,0.2,0.4,0.3,0.7,0.5c0.3,0.2,0.6,0.2,1,0.2s0.7,0,1-0.1c0.3-0.1,0.6-0.2,0.8-0.3s0.4-0.3,0.5-0.6
	c0.1-0.2,0.2-0.5,0.2-0.8c0-0.4-0.1-0.7-0.3-0.9c-0.2-0.2-0.4-0.4-0.7-0.5s-0.6-0.2-1-0.3s-0.7-0.2-1-0.2c-0.3-0.1-0.5-0.2-0.7-0.4
	c-0.2-0.1-0.3-0.4-0.3-0.6c0-0.3,0.1-0.6,0.4-0.8c0.2-0.2,0.6-0.3,1-0.3c0.5,0,0.8,0.1,1.1,0.3c0.3,0.2,0.5,0.5,0.5,1h0.7
	c-0.1-0.7-0.3-1.2-0.8-1.5c-0.5-0.3-1-0.5-1.6-0.5c-0.7,0-1.2,0.2-1.6,0.5c-0.4,0.3-0.6,0.8-0.6,1.3c0,0.4,0.1,0.7,0.3,0.9
	c0.2,0.2,0.4,0.4,0.7,0.5s0.6,0.2,1,0.3c0.3,0.1,0.7,0.1,1,0.2s0.5,0.2,0.7,0.3c0.2,0.1,0.3,0.4,0.3,0.7c0,0.2,0,0.3-0.1,0.4
	s-0.2,0.3-0.3,0.4s-0.3,0.2-0.5,0.3c-0.2,0.1-0.4,0.1-0.7,0.1c-0.5,0-1-0.1-1.3-0.3s-0.5-0.6-0.6-1.1H20V392.3z M18.9,391.3
	c0-1.1-0.2-2-0.7-2.6s-1.2-0.9-2-0.9c-0.4,0-0.8,0.1-1.2,0.3s-0.6,0.4-0.9,0.7c-0.2,0.3-0.4,0.6-0.6,1c-0.2,0.4-0.2,0.8-0.2,1.3
	s0.1,0.9,0.2,1.3c0.1,0.4,0.3,0.7,0.5,1c0.2,0.3,0.5,0.5,0.9,0.7s0.8,0.3,1.3,0.3c0.4,0,0.7-0.1,1-0.2s0.6-0.2,0.8-0.4
	c0.2-0.2,0.4-0.4,0.5-0.7s0.3-0.5,0.3-0.8H18c-0.1,0.5-0.3,0.8-0.7,1.1c-0.3,0.2-0.7,0.4-1.2,0.4c-0.3,0-0.6-0.1-0.9-0.2
	c-0.3-0.1-0.5-0.3-0.7-0.5s-0.3-0.5-0.4-0.8c-0.1-0.3-0.1-0.6-0.1-1C14,391.3,18.9,391.3,18.9,391.3z M14.1,390.7
	c0-0.3,0.1-0.6,0.2-0.8c0.1-0.3,0.2-0.5,0.4-0.7c0.2-0.2,0.4-0.4,0.6-0.5c0.2-0.1,0.5-0.2,0.8-0.2s0.6,0.1,0.9,0.2
	c0.2,0.1,0.5,0.3,0.6,0.5c0.2,0.2,0.3,0.4,0.4,0.7c0.1,0.3,0.1,0.6,0.1,0.9h-4V390.7z M8.5,390c0-0.8-0.2-1.4-0.6-1.9
	c-0.4-0.4-1-0.6-1.7-0.6c-0.4,0-0.8,0.1-1.2,0.2c-0.3,0.2-0.7,0.4-1.1,0.7v-0.7H1.8v6.6h2.1v-4.7c0.2-0.1,0.4-0.2,0.6-0.3
	c0.2-0.1,0.4-0.1,0.6-0.1c0.3,0,0.5,0,0.6,0.1c0.2,0.1,0.3,0.2,0.3,0.3c0.1,0.1,0.1,0.3,0.1,0.6c0,0.3,0,0.5,0,0.8v3.3h2.1V390H8.5z
	 M-3.2,384.5l-1.4,2.3h1.4l2.1-2.2v-0.1H-3.2z M-2.6,392.9C-2.8,393-3,393-3.1,393c-0.2,0-0.4,0-0.6-0.1c-0.2-0.1-0.3-0.2-0.4-0.3
	c-0.1-0.2-0.2-0.4-0.3-0.6c-0.1-0.3-0.1-0.6-0.1-0.9c0-0.4,0-0.7,0.1-1s0.2-0.5,0.3-0.6c0.1-0.2,0.3-0.3,0.5-0.3
	c0.2-0.1,0.3-0.1,0.5-0.1s0.4,0,0.6,0.1c0.2,0.1,0.3,0.2,0.5,0.3c0.1,0.2,0.2,0.4,0.3,0.6c0.1,0.3,0.1,0.6,0.1,1s0,0.7-0.1,1
	c-0.1,0.2-0.2,0.4-0.3,0.6C-2.3,392.7-2.5,392.8-2.6,392.9 M-0.5,388.4c-0.6-0.6-1.5-0.9-2.7-0.9c-1.1,0-2,0.3-2.7,0.9
	c-0.6,0.6-1,1.5-1,2.6s0.3,1.9,0.9,2.6s1.5,0.9,2.7,0.9c1.1,0,2-0.3,2.7-0.9c0.6-0.6,0.9-1.5,0.9-2.6S0.1,389-0.5,388.4 M-8.3,385.2
	h-2.2v1.6h2.2V385.2z M-8.3,387.7h-2.1v6.6h2.1V387.7z M-12.9,394.3c0.4-0.1,0.7-0.2,1-0.4v-1.8h-0.3c-0.1,0.1-0.2,0.2-0.3,0.3
	c-0.1,0.1-0.2,0.2-0.4,0.2c-0.1,0.1-0.3,0.2-0.5,0.2c-0.2,0.1-0.5,0.1-0.7,0.1c-0.6,0-1-0.2-1.3-0.5c-0.3-0.3-0.5-0.8-0.5-1.4
	c0-0.6,0.2-1.1,0.5-1.5c0.3-0.4,0.7-0.5,1.3-0.5c0.3,0,0.5,0,0.7,0.1s0.4,0.1,0.5,0.2c0.2,0.1,0.3,0.2,0.4,0.3
	c0.1,0.1,0.2,0.2,0.3,0.2h0.3V388c-0.3-0.2-0.7-0.3-1.1-0.4c-0.4-0.1-0.8-0.1-1.2-0.1c-0.5,0-1,0.1-1.4,0.2
	c-0.5,0.1-0.9,0.3-1.2,0.6c-0.4,0.3-0.7,0.7-0.9,1.1c-0.2,0.4-0.3,1-0.3,1.6c0,0.6,0.1,1.1,0.3,1.5c0.2,0.4,0.5,0.8,0.8,1.1
	c0.4,0.3,0.8,0.5,1.2,0.6c0.5,0.1,1,0.2,1.6,0.2C-13.6,394.4-13.2,394.4-12.9,394.3 M-19.9,394.3c0.4-0.1,0.7-0.2,1-0.4v-1.8h-0.3
	c-0.1,0.1-0.2,0.2-0.3,0.3c-0.1,0.1-0.2,0.2-0.4,0.2c-0.1,0.1-0.3,0.2-0.5,0.2c-0.2,0.1-0.5,0.1-0.7,0.1c-0.6,0-1-0.2-1.3-0.5
	c-0.3-0.3-0.5-0.8-0.5-1.4c0-0.6,0.2-1.1,0.5-1.5c0.3-0.4,0.7-0.5,1.3-0.5c0.3,0,0.5,0,0.7,0.1s0.4,0.1,0.5,0.2
	c0.2,0.1,0.3,0.2,0.4,0.3c0.1,0.1,0.2,0.2,0.3,0.2h0.3V388c-0.3-0.2-0.7-0.3-1.1-0.4c-0.4-0.1-0.8-0.1-1.2-0.1c-0.5,0-1,0.1-1.4,0.2
	c-0.5,0.1-0.9,0.3-1.2,0.6c-0.4,0.3-0.7,0.7-0.9,1.1c-0.2,0.4-0.3,1-0.3,1.6c0,0.6,0.1,1.1,0.3,1.5c0.2,0.4,0.5,0.8,0.8,1.1
	c0.4,0.3,0.8,0.5,1.2,0.6c0.5,0.1,1,0.2,1.6,0.2C-20.7,394.4-20.3,394.4-19.9,394.3 M-28.6,394.3h2.1v-4.5c0-0.8-0.3-1.4-0.8-1.7
	c-0.5-0.4-1.4-0.6-2.6-0.6c-0.5,0-1,0-1.5,0.1s-0.9,0.1-1.1,0.2v1.6h0.2c0.2-0.1,0.5-0.2,0.8-0.3c0.4-0.1,0.8-0.2,1.1-0.2
	c0.6,0,1,0.1,1.3,0.2s0.4,0.4,0.4,0.8l0,0c-0.6,0-1.2,0.1-1.8,0.2s-1.1,0.2-1.5,0.4c-0.4,0.2-0.7,0.4-0.9,0.7
	c-0.2,0.3-0.3,0.7-0.3,1.2c0,0.6,0.2,1.1,0.6,1.5c0.4,0.4,0.9,0.6,1.6,0.6c0.3,0,0.5,0,0.7-0.1c0.2,0,0.4-0.1,0.6-0.2
	c0.1-0.1,0.3-0.2,0.5-0.3c0.2-0.1,0.3-0.2,0.4-0.3v0.7H-28.6z M-29.1,392.9c-0.2,0.1-0.4,0.1-0.6,0.1c-0.3,0-0.5,0-0.6-0.1
	c-0.1-0.1-0.2-0.1-0.3-0.2c-0.1-0.1-0.2-0.2-0.2-0.2c0-0.1,0-0.2,0-0.3c0-0.2,0.1-0.4,0.2-0.5s0.3-0.2,0.5-0.3
	c0.2-0.1,0.4-0.1,0.8-0.1c0.3,0,0.6-0.1,0.9-0.1v1.4C-28.7,392.7-28.9,392.8-29.1,392.9 M-33.4,385.2c-0.2,0-0.4-0.1-0.7-0.1
	c-0.3,0-0.5,0-0.8,0c-0.9,0-1.5,0.2-1.9,0.6s-0.6,1-0.6,1.8v0.2h-0.9v1.4h0.9v5.1h2.1v-5.1h1.6v-1.4h-1.6v-0.1
	c0-0.4,0.1-0.7,0.2-0.9c0.1-0.1,0.4-0.2,0.8-0.2c0.2,0,0.3,0,0.5,0.1c0.1,0,0.3,0.1,0.4,0.1h0.2v-1.5H-33.4z M-39.4,391
	c-0.3-0.3-0.7-0.5-1.2-0.7c-0.2-0.1-0.5-0.1-0.7-0.2s-0.5-0.1-0.7-0.1c-0.4-0.1-0.6-0.2-0.7-0.2c-0.1-0.1-0.2-0.2-0.2-0.4
	c0-0.2,0.1-0.3,0.3-0.4c0.2-0.1,0.5-0.1,0.9-0.1s0.8,0.1,1.2,0.2c0.4,0.1,0.8,0.3,1.1,0.5h0.2v-1.7c-0.3-0.1-0.6-0.2-1.1-0.3
	s-0.9-0.1-1.4-0.1c-1,0-1.9,0.2-2.5,0.6s-0.9,0.9-0.9,1.6c0,0.5,0.1,0.9,0.4,1.2c0.3,0.3,0.7,0.6,1.3,0.7c0.2,0.1,0.5,0.1,0.7,0.1
	c0.3,0,0.5,0.1,0.6,0.1c0.3,0.1,0.6,0.1,0.7,0.2s0.2,0.2,0.2,0.3c0,0.2-0.1,0.3-0.3,0.4c-0.2,0.1-0.5,0.1-0.9,0.1
	c-0.3,0-0.6,0-0.9-0.1s-0.5-0.1-0.7-0.2c-0.3-0.1-0.5-0.2-0.6-0.3s-0.3-0.2-0.4-0.2h-0.2v1.7c0.3,0.1,0.7,0.3,1.1,0.4
	c0.5,0.1,1,0.2,1.6,0.2c1.1,0,1.9-0.2,2.5-0.6s0.9-1,0.9-1.6C-39,391.7-39.2,391.3-39.4,391 M-46.7,385.2h-2.2v1.6h2.2V385.2z
	 M-46.7,387.7h-2.1v6.6h2.1V387.7z M-50.1,392.8h-0.2c-0.1,0-0.2,0.1-0.4,0.1c-0.2,0-0.3,0.1-0.4,0.1c-0.3,0-0.5,0-0.6-0.1
	c-0.1-0.1-0.2-0.2-0.3-0.3c-0.1-0.1-0.1-0.3-0.1-0.5s0-0.4,0-0.6v-2.3h2v-1.4h-2v-1.9h-2.1v1.9h-0.9v1.4h0.9v3.1
	c0,0.8,0.2,1.4,0.6,1.7c0.4,0.3,1,0.5,1.8,0.5c0.4,0,0.7,0,0.9,0c0.3,0,0.5-0.1,0.7-0.1L-50.1,392.8L-50.1,392.8z M-58.3,394.3h2.1
	v-4.5c0-0.8-0.3-1.4-0.8-1.7c-0.5-0.4-1.4-0.6-2.6-0.6c-0.5,0-1,0-1.5,0.1s-0.9,0.1-1.1,0.2v1.6h0.2c0.2-0.1,0.5-0.2,0.8-0.3
	c0.4-0.1,0.8-0.2,1.1-0.2c0.6,0,1,0.1,1.3,0.2s0.4,0.4,0.4,0.8l0,0c-0.6,0-1.2,0.1-1.8,0.2c-0.6,0.1-1.1,0.2-1.5,0.4
	c-0.4,0.2-0.7,0.4-0.9,0.7c-0.2,0.3-0.3,0.7-0.3,1.2c0,0.6,0.2,1.1,0.6,1.5c0.4,0.4,0.9,0.6,1.6,0.6c0.3,0,0.5,0,0.7-0.1
	c0.2,0,0.4-0.1,0.6-0.2c0.1-0.1,0.3-0.2,0.5-0.3c0.2-0.1,0.3-0.2,0.4-0.3v0.7H-58.3z M-58.9,392.9c-0.2,0.1-0.4,0.1-0.6,0.1
	c-0.3,0-0.5,0-0.6-0.1c-0.1-0.1-0.2-0.1-0.3-0.2c-0.1-0.1-0.2-0.2-0.2-0.2c0-0.1,0-0.2,0-0.3c0-0.2,0.1-0.4,0.2-0.5s0.3-0.2,0.5-0.3
	c0.2-0.1,0.4-0.1,0.8-0.1c0.3,0,0.6-0.1,0.9-0.1v1.4C-58.5,392.7-58.7,392.8-58.9,392.9 M-64.1,391c-0.3-0.3-0.7-0.5-1.2-0.7
	c-0.2-0.1-0.5-0.1-0.7-0.2c-0.2,0-0.5-0.1-0.7-0.1c-0.4-0.1-0.6-0.2-0.7-0.2c-0.1-0.1-0.2-0.2-0.2-0.4c0-0.2,0.1-0.3,0.3-0.4
	c0.2-0.1,0.5-0.1,0.9-0.1s0.8,0.1,1.2,0.2c0.4,0.1,0.8,0.3,1.1,0.5h0.1v-1.7c-0.3-0.1-0.6-0.2-1.1-0.3s-0.9-0.1-1.4-0.1
	c-1,0-1.9,0.2-2.5,0.6s-0.9,0.9-0.9,1.6c0,0.5,0.1,0.9,0.4,1.2c0.3,0.3,0.7,0.6,1.3,0.7c0.2,0.1,0.5,0.1,0.7,0.1
	c0.3,0,0.5,0.1,0.6,0.1c0.3,0.1,0.6,0.1,0.7,0.2s0.2,0.2,0.2,0.3c0,0.2-0.1,0.3-0.3,0.4c-0.2,0.1-0.5,0.1-0.9,0.1
	c-0.3,0-0.6,0-0.9-0.1s-0.5-0.1-0.7-0.2c-0.3-0.1-0.5-0.2-0.6-0.3s-0.3-0.2-0.4-0.2H-70v1.7c0.3,0.1,0.7,0.3,1.1,0.4
	c0.5,0.1,1,0.2,1.6,0.2c1.1,0,1.9-0.2,2.5-0.6s0.9-1,0.9-1.6C-63.7,391.7-63.9,391.3-64.1,391 M-75.1,381.3h-1.2v13h1.2V381.3z
	 M-90.6,394.3v-11.6l0,0l4.3,11.6h1.2l4.2-11.6l0,0v11.6h1.2v-13h-1.9l-4.2,11.4l0,0l-4.1-11.4h-1.9v13H-90.6z M-94.4,390.3
	L-94.4,390.3c0.5,0,0.8-0.3,0.8-0.8c0-0.4-0.1-0.6-0.6-0.8v-1.4h-0.7c-0.1,0.3-0.2,1.3-0.2,1.9v0.3C-95.1,390-94.8,390.3-94.4,390.3
	 M-96.4,390.3L-96.4,390.3c0.5,0,0.8-0.3,0.8-0.8c0-0.4-0.2-0.6-0.6-0.8v-1.4h-0.7c-0.1,0.3-0.2,1.3-0.2,1.9v0.3
	C-97.1,390-96.9,390.3-96.4,390.3"/>
</svg>
