<?xml version="1.0" encoding="utf-8"?>
<!-- Generator: Adobe Illustrator 19.0.0, SVG Export Plug-In . SVG Version: 6.00 Build 0)  -->
<svg version="1.1" id="Layer_1" xmlns="http://www.w3.org/2000/svg" xmlns:xlink="http://www.w3.org/1999/xlink" x="0px" y="0px"
	 viewBox="0 0 40 40" style="enable-background:new 0 0 40 40;" xml:space="preserve">
<style type="text/css">
	.st0{fill:#0082FB;}
</style>
<path class="st0" d="M20.4,2.9c-9.4,0-17.1,7.6-17.2,17c0,9.6,7.6,17.3,17,17.3c9.6,0,17.3-7.6,17.3-17.1S29.9,2.9,20.4,2.9z
	 M27.7,25.9c-0.2,0.6-1.6,1.4-2.4,1.7c-0.4,0.1-1.5,0.6-2.5,0.4c-1.2-0.2-2.4-0.3-5-2.8c-2.6-2.5-6.2-8.4-3.4-11.4
	c0,0,1.5-2,2.4-1.4c0.9,0.5,1.8,2.5,1.8,3.7c0,1.2-1.2,1.4-1.5,2.1c-0.3,0.7-0.4,1.2,0.4,2.3c0.8,1.1,2.1,2.6,2.7,3
	c0.6,0.4,1.8,1,2.5-0.3c0.7-1.3,2.1-1.1,2.7-0.5s2.1,2.3,2.1,2.3S27.9,25.2,27.7,25.9z"/>
</svg>
