<?xml version="1.0" encoding="utf-8"?>
<!-- Generator: Adobe Illustrator 19.0.0, SVG Export Plug-In . SVG Version: 6.00 Build 0)  -->
<svg version="1.1" id="Layer_1" xmlns="http://www.w3.org/2000/svg" xmlns:xlink="http://www.w3.org/1999/xlink" x="0px" y="0px"
	 viewBox="-285 377 40 40" style="enable-background:new -285 377 40 40;" xml:space="preserve">
<style type="text/css">
	.st0{fill:#0082FB;}
	.st1{enable-background:new    ;}
	.st2{fill:#FFFFFF;}
</style>
<path class="st0" d="M-265.2,379.2c-9.4,0-17.1,7.6-17.2,17c0,9.6,7.6,17.3,17,17.3c9.6,0,17.3-7.6,17.3-17.1
	S-255.7,379.2-265.2,379.2z"/>
<g>
	<g class="st1">
		<path class="st2" d="M-271.8,387v0.3h-1.1v1.2h-0.4v-1.2h-1.1V387h1.1v-1.2h0.4v1.2H-271.8z"/>
		<path class="st2" d="M-269.1,387.6c0.3,0,0.5,0,0.7,0.1c0.2,0.1,0.4,0.2,0.6,0.4c0.2,0.2,0.3,0.4,0.4,0.6s0.1,0.5,0.1,0.7
			c0,0.3-0.1,0.5-0.2,0.8c-0.1,0.2-0.2,0.4-0.4,0.6c-0.2,0.2-0.4,0.3-0.6,0.4s-0.5,0.1-0.8,0.1c-0.2,0-0.4,0-0.6-0.1
			c-0.2-0.1-0.4-0.1-0.5-0.2c-0.2-0.1-0.3-0.2-0.4-0.4c-0.1-0.1-0.2-0.3-0.3-0.5l0.3-0.2c0.2,0.3,0.4,0.5,0.6,0.7
			c0.3,0.2,0.6,0.3,0.9,0.3c0.2,0,0.4,0,0.6-0.1c0.2-0.1,0.4-0.2,0.5-0.3c0.1-0.1,0.2-0.3,0.3-0.5s0.1-0.4,0.1-0.6
			c0-0.2,0-0.4-0.1-0.6c-0.1-0.2-0.2-0.3-0.3-0.5s-0.3-0.2-0.5-0.3c-0.2-0.1-0.4-0.1-0.6-0.1c-0.3,0-0.5,0.1-0.8,0.2
			c-0.2,0.1-0.4,0.3-0.6,0.5h-0.4c0,0,0-0.1,0-0.2c0-0.1,0.1-0.3,0.1-0.4s0.1-0.3,0.1-0.5c0-0.2,0.1-0.4,0.1-0.6
			c0.1-0.4,0.2-0.9,0.3-1.5h2.8v0.4h-2.5l-0.5,2.3c0.2-0.2,0.4-0.3,0.6-0.4C-269.6,387.6-269.3,387.6-269.1,387.6z"/>
		<path class="st2" d="M-266.4,390.1c0-0.2,0-0.3,0-0.5c0-0.2,0.1-0.4,0.2-0.6c0.1-0.2,0.2-0.4,0.4-0.6s0.4-0.4,0.7-0.5
			c0.1-0.1,0.3-0.1,0.5-0.2c0.2-0.1,0.3-0.2,0.5-0.3c0.2-0.1,0.3-0.2,0.4-0.4c0.1-0.1,0.2-0.3,0.2-0.5c0-0.1,0-0.2-0.1-0.3
			c0-0.1-0.1-0.2-0.2-0.3c-0.1-0.1-0.2-0.2-0.4-0.2c-0.1-0.1-0.3-0.1-0.5-0.1c-0.2,0-0.4,0-0.5,0.1c-0.2,0.1-0.3,0.1-0.4,0.2
			c-0.1,0.1-0.2,0.1-0.3,0.2c-0.1,0.1-0.1,0.1-0.2,0.2l-0.3-0.3c0.1-0.1,0.2-0.2,0.3-0.2s0.2-0.2,0.4-0.3c0.1-0.1,0.3-0.1,0.5-0.2
			s0.4-0.1,0.6-0.1c0.2,0,0.5,0,0.6,0.1c0.2,0.1,0.3,0.2,0.5,0.3s0.2,0.3,0.3,0.4c0.1,0.2,0.1,0.3,0.1,0.5c0,0.2-0.1,0.4-0.2,0.6
			c-0.1,0.2-0.2,0.3-0.4,0.4c-0.2,0.1-0.3,0.2-0.5,0.3s-0.3,0.2-0.5,0.2c-0.3,0.1-0.5,0.2-0.6,0.3s-0.3,0.2-0.4,0.4
			c-0.1,0.1-0.2,0.3-0.2,0.4c0,0.1-0.1,0.3-0.1,0.5h2.9v0.4H-266.4z"/>
		<path class="st2" d="M-257.2,389.7v0.4h-2.6v-0.4h1.2V386c0,0.1-0.1,0.1-0.2,0.2s-0.2,0.1-0.4,0.2c-0.1,0.1-0.3,0.1-0.4,0.2
			c-0.1,0-0.3,0.1-0.4,0.1v-0.4c0.1,0,0.3,0,0.4-0.1c0.2-0.1,0.3-0.2,0.4-0.2c0.1-0.1,0.2-0.2,0.3-0.3s0.1-0.1,0.2-0.2h0.4v4.3
			H-257.2z"/>
	</g>
	<g>
		<g class="st1">
			<path class="st2" d="M-276.2,395.8c0.2,0,0.5,0,0.7,0.1s0.4,0.2,0.5,0.3s0.3,0.3,0.3,0.5s0.1,0.4,0.1,0.7c0,0.3,0,0.5-0.1,0.7
				c-0.1,0.2-0.2,0.4-0.4,0.5c-0.2,0.2-0.4,0.3-0.6,0.4c-0.2,0.1-0.5,0.1-0.8,0.1c-0.4,0-0.7-0.1-1-0.2c-0.3-0.1-0.5-0.3-0.7-0.6
				l0.7-0.8c0.1,0.1,0.3,0.3,0.5,0.3c0.2,0.1,0.3,0.1,0.5,0.1c0.2,0,0.3,0,0.4-0.1c0.1-0.1,0.1-0.2,0.1-0.4c0-0.2,0-0.3-0.1-0.4
				c-0.1-0.1-0.2-0.1-0.4-0.1c-0.1,0-0.2,0-0.3,0.1s-0.1,0.1-0.2,0.2h-1.2l0.6-3.1h2.5v1.2h-1.5l-0.1,0.5c0,0,0,0,0.1,0
				c0,0,0.1,0,0.1,0C-276.3,395.8-276.3,395.8-276.2,395.8z"/>
			<path class="st2" d="M-272.3,395.8c0.2,0,0.5,0,0.7,0.1s0.4,0.2,0.5,0.3s0.3,0.3,0.3,0.5s0.1,0.4,0.1,0.7c0,0.3,0,0.5-0.1,0.7
				c-0.1,0.2-0.2,0.4-0.4,0.5c-0.2,0.2-0.4,0.3-0.6,0.4c-0.2,0.1-0.5,0.1-0.8,0.1c-0.4,0-0.7-0.1-1-0.2c-0.3-0.1-0.5-0.3-0.7-0.6
				l0.7-0.8c0.1,0.1,0.3,0.3,0.5,0.3c0.2,0.1,0.3,0.1,0.5,0.1c0.2,0,0.3,0,0.4-0.1c0.1-0.1,0.1-0.2,0.1-0.4c0-0.2,0-0.3-0.1-0.4
				c-0.1-0.1-0.2-0.1-0.4-0.1c-0.1,0-0.2,0-0.3,0.1s-0.1,0.1-0.2,0.2h-1.2l0.6-3.1h2.5v1.2h-1.5l-0.1,0.5c0,0,0,0,0.1,0
				c0,0,0.1,0,0.1,0C-272.4,395.8-272.3,395.8-272.3,395.8z"/>
			<path class="st2" d="M-266.9,399v-0.9h-1.8v-1.2l2.2-2.9h0.9v2.9h0.6v1.2h-0.6v0.9H-266.9z M-267.4,396.9h0.7v-0.8L-267.4,396.9z
				"/>
			<path class="st2" d="M-262.7,399v-0.9h-1.8v-1.2l2.2-2.9h0.9v2.9h0.6v1.2h-0.6v0.9H-262.7z M-263.2,396.9h0.7v-0.8L-263.2,396.9z
				"/>
			<path class="st2" d="M-258.4,395.8c0.2,0,0.5,0,0.7,0.1c0.2,0.1,0.4,0.2,0.5,0.3s0.3,0.3,0.3,0.5c0.1,0.2,0.1,0.4,0.1,0.7
				c0,0.3,0,0.5-0.1,0.7c-0.1,0.2-0.2,0.4-0.4,0.5c-0.2,0.2-0.4,0.3-0.6,0.4s-0.5,0.1-0.8,0.1c-0.4,0-0.7-0.1-1-0.2
				s-0.5-0.3-0.7-0.6l0.7-0.8c0.1,0.1,0.3,0.3,0.5,0.3c0.2,0.1,0.3,0.1,0.5,0.1c0.2,0,0.3,0,0.4-0.1s0.1-0.2,0.1-0.4
				c0-0.2,0-0.3-0.1-0.4c-0.1-0.1-0.2-0.1-0.4-0.1c-0.1,0-0.2,0-0.3,0.1c-0.1,0-0.1,0.1-0.2,0.2h-1.2l0.6-3.1h2.5v1.2h-1.5l-0.1,0.5
				c0,0,0,0,0.1,0c0,0,0.1,0,0.1,0S-258.5,395.8-258.4,395.8z"/>
			<path class="st2" d="M-252.5,396.4c0,0.2,0,0.5-0.1,0.7c-0.1,0.2-0.2,0.4-0.4,0.6c-0.2,0.2-0.4,0.3-0.6,0.4s-0.5,0.1-0.7,0.1
				c-0.6,0-1.1-0.2-1.4-0.7c-0.3-0.4-0.5-1-0.5-1.8c0-0.4,0-0.8,0.1-1.1c0.1-0.3,0.2-0.6,0.4-0.8c0.2-0.2,0.4-0.4,0.6-0.5
				c0.2-0.1,0.5-0.2,0.8-0.2c0.6,0,1.1,0.2,1.6,0.7l-0.7,0.9c-0.3-0.3-0.5-0.4-0.9-0.4c-0.2,0-0.4,0.1-0.5,0.2
				c-0.1,0.1-0.2,0.3-0.2,0.6c0.2-0.2,0.4-0.2,0.8-0.2c0.3,0,0.5,0,0.7,0.1c0.2,0.1,0.4,0.2,0.6,0.3s0.3,0.3,0.4,0.5
				S-252.5,396.2-252.5,396.4z M-254.4,397.1c0.1,0,0.2,0,0.2-0.1c0.1,0,0.1-0.1,0.2-0.1c0.1-0.1,0.1-0.1,0.1-0.2c0-0.1,0-0.2,0-0.2
				c0-0.2-0.1-0.3-0.2-0.4c-0.1-0.1-0.3-0.2-0.4-0.2s-0.3,0.1-0.4,0.2c-0.1,0.1-0.2,0.3-0.2,0.4c0,0.1,0,0.2,0,0.2
				c0,0.1,0.1,0.1,0.1,0.2c0.1,0.1,0.1,0.1,0.2,0.1C-254.5,397-254.5,397.1-254.4,397.1z"/>
		</g>
	</g>
	<g>
		<g class="st1">
			<path class="st2" d="M-267.3,406.2v-0.9h-1.8v-1.2l2.2-2.9h0.9v2.9h0.6v1.2h-0.6v0.9H-267.3z M-267.8,404.1h0.7v-0.8
				L-267.8,404.1z"/>
			<path class="st2" d="M-261,403.7c0,0.2,0,0.5-0.1,0.7c-0.1,0.2-0.2,0.4-0.4,0.5c-0.2,0.1-0.4,0.3-0.6,0.3
				c-0.2,0.1-0.5,0.1-0.7,0.1c-0.2,0-0.5,0-0.7-0.1s-0.4-0.2-0.6-0.3s-0.3-0.3-0.4-0.5c-0.1-0.2-0.2-0.4-0.2-0.7
				c0-0.1,0-0.2,0.1-0.4c0-0.1,0.1-0.2,0.1-0.3c0.1-0.1,0.1-0.2,0.2-0.2c0.1-0.1,0.1-0.1,0.2-0.2c-0.1-0.1-0.2-0.2-0.3-0.4
				c-0.1-0.2-0.1-0.3-0.1-0.5c0-0.2,0.1-0.5,0.2-0.6c0.1-0.2,0.3-0.3,0.4-0.5c0.2-0.1,0.4-0.2,0.6-0.3c0.2-0.1,0.4-0.1,0.6-0.1
				s0.4,0,0.6,0.1c0.2,0.1,0.4,0.2,0.6,0.3c0.2,0.1,0.3,0.3,0.4,0.5c0.1,0.2,0.2,0.4,0.2,0.6c0,0.2,0,0.3-0.1,0.5s-0.2,0.3-0.3,0.4
				c0.1,0.1,0.1,0.1,0.2,0.2c0.1,0.1,0.1,0.2,0.2,0.3s0.1,0.2,0.1,0.3C-261.1,403.5-261,403.6-261,403.7z M-262.4,403.7
				c0-0.2-0.1-0.3-0.2-0.4s-0.2-0.1-0.4-0.1c-0.2,0-0.3,0-0.4,0.1c-0.1,0.1-0.1,0.2-0.1,0.4c0,0.1,0.1,0.3,0.2,0.3
				c0.1,0.1,0.2,0.1,0.4,0.1c0.2,0,0.3,0,0.4-0.1C-262.5,403.9-262.4,403.8-262.4,403.7z M-263.3,401.8c0,0.1,0,0.2,0.1,0.3
				c0.1,0.1,0.2,0.1,0.3,0.1c0.1,0,0.2,0,0.3-0.1c0.1-0.1,0.1-0.2,0.1-0.3c0-0.1,0-0.2-0.1-0.2c-0.1-0.1-0.2-0.1-0.3-0.1
				c-0.1,0-0.2,0-0.3,0.1C-263.3,401.6-263.3,401.7-263.3,401.8z"/>
			<path class="st2" d="M-260.6,405.3c0-0.2,0-0.4,0.1-0.6c0-0.2,0.1-0.3,0.2-0.5c0.1-0.1,0.2-0.3,0.3-0.4c0.1-0.1,0.3-0.2,0.5-0.3
				c0.3-0.1,0.5-0.2,0.6-0.3c0.1-0.1,0.3-0.2,0.3-0.2c0.1-0.1,0.1-0.1,0.1-0.1s0-0.1,0-0.1c0-0.1,0-0.2-0.1-0.3s-0.2-0.1-0.3-0.1
				c-0.2,0-0.3,0-0.4,0.1c-0.1,0.1-0.3,0.2-0.4,0.4l-0.8-1c0.1-0.1,0.2-0.2,0.3-0.3c0.1-0.1,0.3-0.2,0.5-0.2
				c0.2-0.1,0.4-0.1,0.5-0.1c0.2,0,0.4,0,0.6,0c0.5,0,1,0.1,1.2,0.3s0.4,0.5,0.4,0.9c0,0.1,0,0.3-0.1,0.4s-0.1,0.2-0.2,0.3
				c-0.1,0.1-0.1,0.2-0.2,0.3s-0.2,0.1-0.3,0.2c-0.1,0.1-0.2,0.2-0.4,0.2s-0.3,0.2-0.4,0.2h1.6v1.2H-260.6z"/>
			<path class="st2" d="M-252.5,403.6c0,0.2,0,0.5-0.1,0.7c-0.1,0.2-0.2,0.4-0.4,0.6c-0.2,0.2-0.4,0.3-0.6,0.4s-0.5,0.1-0.7,0.1
				c-0.6,0-1.1-0.2-1.4-0.7c-0.3-0.4-0.5-1-0.5-1.8c0-0.4,0-0.8,0.1-1.1c0.1-0.3,0.2-0.6,0.4-0.8c0.2-0.2,0.4-0.4,0.6-0.5
				c0.2-0.1,0.5-0.2,0.8-0.2c0.6,0,1.1,0.2,1.6,0.7l-0.7,0.9c-0.3-0.3-0.5-0.4-0.9-0.4c-0.2,0-0.4,0.1-0.5,0.2
				c-0.1,0.1-0.2,0.3-0.2,0.6c0.2-0.2,0.4-0.2,0.8-0.2c0.3,0,0.5,0,0.7,0.1c0.2,0.1,0.4,0.2,0.6,0.3s0.3,0.3,0.4,0.5
				S-252.5,403.4-252.5,403.6z M-254.4,404.2c0.1,0,0.2,0,0.2-0.1c0.1,0,0.1-0.1,0.2-0.1c0.1-0.1,0.1-0.1,0.1-0.2c0-0.1,0-0.2,0-0.2
				c0-0.2-0.1-0.3-0.2-0.4c-0.1-0.1-0.3-0.2-0.4-0.2s-0.3,0.1-0.4,0.2c-0.1,0.1-0.2,0.3-0.2,0.4c0,0.1,0,0.2,0,0.2
				c0,0.1,0.1,0.1,0.1,0.2c0.1,0.1,0.1,0.1,0.2,0.1C-254.5,404.2-254.5,404.2-254.4,404.2z"/>
		</g>
	</g>
	<rect x="-273.7" y="404" class="st2" width="2.6" height="1.4"/>
</g>
</svg>
