<?xml version="1.0" encoding="utf-8"?>
<!-- Generator: Adobe Illustrator 19.0.0, SVG Export Plug-In . SVG Version: 6.00 Build 0)  -->
<svg version="1.1" id="Layer_1" xmlns="http://www.w3.org/2000/svg" xmlns:xlink="http://www.w3.org/1999/xlink" x="0px" y="0px"
	 viewBox="0 0 40 40" style="enable-background:new 0 0 40 40;" xml:space="preserve">
<style type="text/css">
	.st0{fill:#FFFFFF;}
	.st1{fill:#0082FB;}
</style>
<g id="XMLID_797_">
	<path id="XMLID_801_" class="st0" d="M-979.2-69c0.1,0,0.2,0,0.3,0c0,0,0,0,0,0c0.2,0,0.4,0,0.6,0.1c0.3,0,0.5,0.1,0.8,0.2
		c0.5,0.2,1,0.4,1.5,0.8c0.5,0.4,1,0.9,1.3,1.5c0.3,0.5,0.4,1,0.5,1.5c0,0.2,0.1,0.5,0.1,0.7c0,0.1,0,0.1,0,0.2c0,0.1,0,0.2,0,0.3
		c0,0,0,0,0,0c0,0.2,0,0.4-0.1,0.6c-0.1,0.3-0.1,0.6-0.3,1c-0.3,0.8-0.8,1.6-1.5,2.1c-0.3,0.3-0.7,0.5-1.1,0.7
		c-0.3,0.2-0.7,0.3-1,0.3c-0.2,0-0.3,0.1-0.5,0.1c-0.1,0-0.2,0-0.4,0c0,0,0,0,0,0c-0.1,0-0.2,0-0.3,0c0,0,0,0,0,0
		c-0.1,0-0.2,0-0.3,0c-0.2,0-0.4,0-0.5-0.1c-0.3-0.1-0.6-0.2-0.9-0.3c-0.6-0.3-1.1-0.6-1.6-1.1c-0.6-0.6-1-1.2-1.2-1.9
		c-0.1-0.3-0.2-0.6-0.2-0.9c0-0.2,0-0.3,0-0.5c0,0,0,0,0,0c0-0.1,0-0.2,0-0.3c0,0,0,0,0,0c0-0.1,0-0.2,0-0.3c0-0.2,0-0.4,0.1-0.6
		c0.2-0.9,0.6-1.6,1.2-2.3c0.6-0.7,1.4-1.2,2.3-1.4c0.2-0.1,0.5-0.1,0.7-0.2c0.1,0,0.3,0,0.4,0C-979.3-69-979.2-69-979.2-69z
		 M-981.5-64c0,0.5,0,1,0,1.5c0,0.1,0,0.1,0,0.2c0,0.2,0.1,0.4,0.2,0.5c0.2,0.2,0.4,0.3,0.7,0.3c1,0,2,0,3,0c0,0,0.1,0,0.1,0
		c0.3,0,0.5-0.1,0.6-0.3c0.1-0.2,0.2-0.4,0.2-0.6c0-1,0-2,0-2.9c0,0,0-0.1,0-0.1c0-0.2-0.1-0.4-0.3-0.6c-0.2-0.2-0.4-0.2-0.7-0.2
		c-1,0-2,0-2.9,0c-0.1,0-0.1,0-0.2,0c-0.2,0-0.4,0.1-0.5,0.2c-0.2,0.2-0.3,0.4-0.3,0.7C-981.5-65-981.5-64.5-981.5-64z"/>
	<path id="XMLID_800_" class="st0" d="M-977.8-64.5c0.2,0,0.5,0,0.7,0c0,0,0,0,0,0c0,0.7,0,1.3,0,2c0,0.2-0.2,0.4-0.4,0.5
		c0,0-0.1,0-0.1,0c-1,0-2,0-3,0c-0.2,0-0.4-0.2-0.5-0.4c0,0,0-0.1,0-0.1c0-0.6,0-1.3,0-1.9c0,0,0,0,0,0c0.2,0,0.5,0,0.7,0
		c-0.1,0.3-0.1,0.7,0,1c0.1,0.2,0.3,0.4,0.5,0.6c0.5,0.3,1,0.3,1.5,0c0.2-0.2,0.4-0.4,0.5-0.7C-977.7-63.9-977.7-64.2-977.8-64.5z"
		/>
	<path id="XMLID_799_" class="st0" d="M-978.2-64c0,0.5-0.4,0.8-0.9,0.8c-0.5,0-0.8-0.4-0.8-0.9c0-0.5,0.4-0.8,0.9-0.8
		C-978.5-64.9-978.2-64.4-978.2-64z"/>
	<path id="XMLID_798_" class="st0" d="M-978-65.9c0.3,0,0.6,0,0.8,0c0,0.3,0,0.5,0,0.8c0,0,0,0,0,0c-0.3,0-0.5,0-0.8,0c0,0,0,0,0,0
		C-978-65.3-978-65.6-978-65.9C-978-65.9-978-65.9-978-65.9z"/>
</g>
<g id="XMLID_793_">
	<path id="XMLID_794_" class="st1" d="M20.5,2.8c9.5,0,17.1,7.7,17.1,17.2c0,9.5-7.7,17.1-17.3,17.1c-9.4,0-17-7.7-17-17.3
		C3.4,10.4,11.1,2.8,20.5,2.8z M16.7,24.4c-1.7,1.3-3.5,1.8-5.5,1.7c0.1,0.1,0.1,0.1,0.1,0.2c0.2,0.1,0.3,0.2,0.5,0.3
		c1.9,1,3.9,1.4,6.1,1.2c5.9-0.5,10.3-5.2,10.3-11.1c0-0.4,0.1-0.7,0.5-1c0.5-0.4,0.9-0.9,1.4-1.4c0,0-0.1,0-0.1-0.1
		c-0.6,0.2-1.2,0.3-1.8,0.5c0.6-0.6,1.2-1.2,1.4-2c-0.7,0.3-1.3,0.5-2,0.7c-0.2,0.1-0.5,0-0.7-0.2c-1.3-1.1-2.8-1.3-4.3-0.6
		c-1.5,0.7-2.3,2-2.2,3.7c0,0.2,0,0.4,0,0.7c-3.3-0.2-5.9-1.6-8.1-4.1c-1,2.1-0.5,3.7,1,5.3c-0.5-0.1-1-0.3-1.6-0.4
		c0.2,2,1.2,3.2,3,3.9c-0.5,0-1,0-1.5,0.1C13.7,23.3,14.9,24.1,16.7,24.4z"/>
</g>
</svg>
