<?xml version="1.0" encoding="utf-8"?>
<!-- Generator: Adobe Illustrator 19.0.0, SVG Export Plug-In . SVG Version: 6.00 Build 0)  -->
<svg version="1.1" id="Layer_1" xmlns="http://www.w3.org/2000/svg" xmlns:xlink="http://www.w3.org/1999/xlink" x="0px" y="0px"
	 viewBox="0 0 292.4 43.4" style="enable-background:new 0 0 292.4 43.4;" xml:space="preserve">
<style type="text/css">
	.st0{fill:#293387;}
</style>
<path id="XMLID_48_" class="st0" d="M279.7,27.4h1.3c0.2-0.6,0.4-2.2,0.4-3.5v-0.5c0-0.9-0.5-1.3-1.3-1.3H280
	c-0.9,0-1.3,0.5-1.3,1.3c0,0.8,0.3,1.1,1.1,1.4V27.4z M276.1,27.4h1.3c0.2-0.6,0.4-2.2,0.4-3.5v-0.5c0-0.9-0.4-1.3-1.3-1.3h-0.1
	c-0.9,0-1.3,0.5-1.3,1.3c0,0.8,0.3,1.1,1.1,1.4V27.4z M268.2,29.8c0-0.5,0.2-0.9,0.5-1.2c0.3-0.2,0.7-0.4,1.2-0.4
	c0.5,0,0.9,0.1,1.1,0.4c0.2,0.3,0.4,0.6,0.4,1.2H268.2z M273.8,30.4c0-1.2-0.3-2.1-0.9-2.7c-0.6-0.6-1.6-0.9-2.8-0.9
	c-1.4,0-2.4,0.4-3.2,1.1c-0.8,0.7-1.2,1.7-1.2,3c0,1.3,0.4,2.3,1.2,3c0.8,0.7,2,1,3.5,1c0.6,0,1.1,0,1.6-0.2c0.5-0.1,1-0.3,1.6-0.5
	v-2h-0.3c-0.3,0.2-0.7,0.4-1.2,0.6c-0.5,0.2-1,0.3-1.5,0.3c-0.8,0-1.4-0.2-1.9-0.5s-0.7-0.8-0.7-1.4h5.6V30.4z M264.8,32.9h-0.2
	c-0.1,0-0.2,0.1-0.4,0.2s-0.4,0.1-0.5,0.1c-0.3,0-0.5,0-0.7-0.1c-0.2-0.1-0.3-0.2-0.3-0.4c-0.1-0.2-0.1-0.3-0.1-0.5
	c0-0.2,0-0.4,0-0.7v-2.7h2.3v-1.7h-2.3v-2.2H260v2.2h-1v1.7h1v3.6c0,0.9,0.2,1.6,0.7,2c0.5,0.4,1.2,0.6,2.1,0.6c0.4,0,0.8,0,1.1-0.1
	c0.3,0,0.6-0.1,0.8-0.2V32.9z M258.5,26.9c-0.1,0-0.2,0-0.3,0c-0.1,0-0.2,0-0.3,0c-0.3,0-0.7,0.1-1.1,0.2c-0.4,0.2-0.9,0.5-1.4,0.9
	v-1.1h-2.5v7.7h2.5v-5.1c0.3-0.1,0.6-0.2,0.9-0.2c0.3,0,0.6-0.1,0.9-0.1c0.2,0,0.3,0,0.6,0c0.2,0,0.4,0,0.5,0.1h0.2V26.9z
	 M248.2,34.6h2.4v-5.2c0-0.9-0.3-1.6-0.9-2c-0.6-0.4-1.6-0.6-3-0.6c-0.6,0-1.2,0-1.8,0.1c-0.6,0.1-1,0.2-1.3,0.2V29h0.2
	c0.2-0.1,0.5-0.2,1-0.3c0.5-0.1,0.9-0.2,1.3-0.2c0.7,0,1.2,0.1,1.5,0.2c0.3,0.2,0.5,0.5,0.5,0.9v0c-0.7,0-1.4,0.1-2.1,0.2
	c-0.7,0.1-1.2,0.2-1.7,0.4c-0.5,0.2-0.8,0.5-1.1,0.8c-0.3,0.4-0.4,0.8-0.4,1.4c0,0.7,0.2,1.3,0.7,1.7c0.5,0.5,1.1,0.7,1.8,0.7
	c0.3,0,0.6,0,0.9-0.1c0.3-0.1,0.5-0.1,0.8-0.2c0.2-0.1,0.4-0.2,0.6-0.3c0.2-0.1,0.4-0.3,0.5-0.4V34.6z M247.5,33
	c-0.3,0.1-0.5,0.2-0.7,0.2c-0.3,0-0.5,0-0.7-0.1c-0.1,0-0.3-0.1-0.4-0.2c-0.1-0.1-0.2-0.2-0.2-0.3c0-0.1,0-0.2,0-0.4
	c0-0.2,0.1-0.4,0.2-0.6c0.1-0.1,0.3-0.3,0.6-0.3c0.2-0.1,0.5-0.1,0.9-0.2c0.4,0,0.7-0.1,1.1-0.1v1.6C248,32.8,247.8,32.9,247.5,33
	 M238.2,27h-1.8v7.6h1.8V27z M231.1,31.2c0-0.4,0.1-0.7,0.4-0.8c0.2-0.2,0.5-0.3,0.8-0.3c0.4,0,0.6,0.1,0.8,0.3
	c0.2,0.2,0.3,0.5,0.3,0.8H231.1z M235.2,31.6c0-0.8-0.2-1.5-0.7-1.9c-0.4-0.5-1.1-0.7-2-0.7c-1,0-1.7,0.3-2.3,0.8
	c-0.6,0.5-0.8,1.2-0.8,2.2c0,0.9,0.3,1.6,0.9,2.1c0.6,0.5,1.4,0.7,2.5,0.7c0.4,0,0.8,0,1.2-0.1c0.4-0.1,0.7-0.2,1.1-0.3v-1.4h-0.2
	c-0.2,0.2-0.5,0.3-0.8,0.4c-0.3,0.1-0.7,0.2-1.1,0.2c-0.6,0-1-0.1-1.3-0.3s-0.5-0.6-0.5-1h4V31.6z M221.1,31.2
	c0-0.4,0.1-0.7,0.4-0.8c0.2-0.2,0.5-0.3,0.8-0.3c0.4,0,0.6,0.1,0.8,0.3c0.2,0.2,0.3,0.5,0.3,0.8H221.1z M225.1,31.6
	c0-0.8-0.2-1.5-0.7-1.9c-0.4-0.5-1.1-0.7-2-0.7c-1,0-1.7,0.3-2.3,0.8c-0.6,0.5-0.8,1.2-0.8,2.2c0,0.9,0.3,1.6,0.9,2.1
	c0.6,0.5,1.4,0.7,2.5,0.7c0.4,0,0.8,0,1.2-0.1c0.4-0.1,0.7-0.2,1.1-0.3v-1.4h-0.2c-0.2,0.2-0.5,0.3-0.8,0.4
	c-0.3,0.1-0.7,0.2-1.1,0.2c-0.6,0-1-0.1-1.3-0.3c-0.3-0.2-0.5-0.6-0.5-1h4V31.6z M215.8,33.3c-0.2,0.1-0.3,0.1-0.5,0.1
	c-0.4,0-0.7-0.1-0.9-0.4s-0.3-0.6-0.3-1.2c0-0.5,0.1-0.9,0.3-1.2c0.2-0.3,0.6-0.4,1-0.4c0.1,0,0.2,0,0.4,0c0.1,0,0.3,0.1,0.4,0.1
	v2.7C216.1,33.2,216,33.3,215.8,33.3 M218,27h-1.8v2.3c-0.2-0.1-0.4-0.2-0.6-0.3c-0.2-0.1-0.5-0.1-0.8-0.1c-0.3,0-0.6,0.1-0.9,0.2
	c-0.3,0.1-0.6,0.3-0.8,0.6c-0.2,0.3-0.4,0.6-0.6,0.9c-0.1,0.4-0.2,0.8-0.2,1.2c0,0.9,0.2,1.6,0.6,2.1c0.4,0.5,0.9,0.8,1.6,0.8
	c0.3,0,0.6-0.1,0.9-0.2c0.3-0.1,0.5-0.3,0.8-0.5v0.6h1.8V27z M211.2,31.9c-0.2-0.3-0.6-0.4-1-0.6c-0.2-0.1-0.4-0.1-0.6-0.1
	c-0.2,0-0.4-0.1-0.6-0.1c-0.3-0.1-0.5-0.1-0.6-0.2c-0.1-0.1-0.1-0.2-0.1-0.3c0-0.1,0.1-0.3,0.3-0.3c0.2-0.1,0.4-0.1,0.7-0.1
	c0.3,0,0.7,0.1,1,0.2c0.3,0.1,0.6,0.3,0.9,0.4h0.2v-1.4c-0.2-0.1-0.5-0.2-0.9-0.3s-0.8-0.1-1.2-0.1c-0.9,0-1.5,0.2-2,0.5
	c-0.5,0.4-0.8,0.8-0.8,1.3c0,0.4,0.1,0.8,0.4,1c0.2,0.3,0.6,0.5,1.1,0.6c0.2,0,0.4,0.1,0.6,0.1c0.2,0,0.4,0.1,0.5,0.1
	c0.3,0.1,0.5,0.1,0.6,0.2c0.1,0.1,0.1,0.2,0.1,0.3c0,0.1-0.1,0.3-0.2,0.3c-0.2,0.1-0.4,0.1-0.8,0.1c-0.3,0-0.5,0-0.7-0.1
	c-0.2-0.1-0.4-0.1-0.6-0.2c-0.2-0.1-0.4-0.2-0.5-0.2c-0.1-0.1-0.2-0.1-0.3-0.2h-0.2v1.4c0.2,0.1,0.6,0.2,1,0.3
	c0.4,0.1,0.8,0.1,1.3,0.1c0.9,0,1.6-0.2,2.1-0.5c0.5-0.3,0.8-0.8,0.8-1.4C211.5,32.5,211.4,32.2,211.2,31.9 M201.5,31.2
	c0-0.4,0.1-0.7,0.4-0.8c0.2-0.2,0.5-0.3,0.8-0.3c0.4,0,0.6,0.1,0.8,0.3c0.2,0.2,0.3,0.5,0.3,0.8H201.5z M205.5,31.6
	c0-0.8-0.2-1.5-0.7-1.9c-0.4-0.5-1.1-0.7-2-0.7c-1,0-1.7,0.3-2.3,0.8c-0.6,0.5-0.8,1.2-0.8,2.2c0,0.9,0.3,1.6,0.9,2.1
	c0.6,0.5,1.4,0.7,2.5,0.7c0.4,0,0.8,0,1.2-0.1c0.4-0.1,0.7-0.2,1.1-0.3v-1.4h-0.2c-0.2,0.2-0.5,0.3-0.8,0.4
	c-0.3,0.1-0.7,0.2-1.1,0.2c-0.6,0-1-0.1-1.3-0.3c-0.3-0.2-0.5-0.6-0.5-1h4V31.6z M196.2,33.3c-0.2,0.1-0.3,0.1-0.5,0.1
	c-0.4,0-0.7-0.1-0.9-0.4c-0.2-0.2-0.3-0.6-0.3-1.2c0-0.5,0.1-0.9,0.3-1.2c0.2-0.3,0.6-0.4,1-0.4c0.1,0,0.2,0,0.4,0
	c0.1,0,0.3,0.1,0.4,0.1v2.7C196.6,33.2,196.4,33.3,196.2,33.3 M198.5,27h-1.8v2.3c-0.2-0.1-0.4-0.2-0.6-0.3s-0.5-0.1-0.8-0.1
	c-0.3,0-0.6,0.1-0.9,0.2c-0.3,0.1-0.6,0.3-0.8,0.6c-0.2,0.3-0.4,0.6-0.6,0.9c-0.1,0.4-0.2,0.8-0.2,1.2c0,0.9,0.2,1.6,0.6,2.1
	c0.4,0.5,0.9,0.8,1.6,0.8c0.3,0,0.6-0.1,0.9-0.2c0.3-0.1,0.5-0.3,0.8-0.5v0.6h1.8V27z M185.3,33.4c-0.4,0.2-0.8,0.3-1.2,0.3
	c-0.5,0-0.9-0.1-1.2-0.3c-0.3-0.2-0.4-0.6-0.4-1c0-0.4,0.1-0.7,0.3-0.9s0.5-0.4,0.9-0.5c0.3-0.1,0.7-0.2,1.3-0.2
	c0.5,0,1-0.1,1.4-0.1v2.1C186,33,185.6,33.2,185.3,33.4 M187.6,29.4c0-0.5-0.1-0.9-0.2-1.2c-0.2-0.3-0.4-0.6-0.7-0.8
	c-0.3-0.2-0.6-0.4-1-0.5c-0.4-0.1-0.9-0.1-1.4-0.1c-0.5,0-0.9,0-1.4,0.1s-0.8,0.2-1.1,0.2v1.3h0.1c0.4-0.2,0.9-0.3,1.3-0.4
	c0.4-0.1,0.8-0.1,1.1-0.1c0.3,0,0.5,0,0.8,0.1c0.3,0,0.5,0.1,0.7,0.2c0.2,0.1,0.3,0.3,0.4,0.5c0.1,0.2,0.2,0.4,0.2,0.7v0.2
	c-0.7,0-1.4,0.1-2.1,0.2c-0.7,0.1-1.2,0.2-1.7,0.4c-0.5,0.2-0.8,0.5-1.1,0.8c-0.2,0.4-0.4,0.8-0.4,1.4c0,0.7,0.2,1.3,0.7,1.7
	c0.5,0.5,1.1,0.7,1.8,0.7c0.4,0,0.7,0,1-0.1c0.3-0.1,0.5-0.2,0.7-0.3c0.2-0.1,0.4-0.2,0.6-0.3c0.2-0.1,0.3-0.2,0.5-0.3v0.8h1.3V29.4
	z M180.1,33.4L180.1,33.4c-0.2,0-0.3,0.1-0.6,0.2c-0.2,0.1-0.4,0.1-0.7,0.1c-0.4,0-0.6,0-0.8-0.1c-0.2-0.1-0.3-0.2-0.4-0.4
	c-0.1-0.2-0.2-0.4-0.2-0.6c0-0.2,0-0.5,0-0.9v-3.5h2.7V27h-2.7v-2.2h-1.3V27h-0.9v1.1h0.9v4.1c0,0.9,0.2,1.6,0.6,2
	c0.4,0.4,1,0.6,1.8,0.6c0.2,0,0.5,0,0.8-0.1c0.3,0,0.5-0.1,0.8-0.2V33.4z M173.6,27h-1.3v5.7c-0.3,0.3-0.7,0.5-1.1,0.7
	c-0.4,0.2-0.8,0.3-1.1,0.3c-0.4,0-0.7,0-0.9-0.1c-0.2-0.1-0.4-0.2-0.5-0.4c-0.1-0.2-0.2-0.4-0.2-0.7c0-0.3-0.1-0.6-0.1-1V27h-1.3v5
	c0,0.9,0.2,1.7,0.7,2.2c0.4,0.5,1.1,0.7,1.9,0.7c0.5,0,0.9-0.1,1.3-0.3c0.4-0.2,0.8-0.4,1.2-0.8v0.8h1.3V27z M165.6,32.7L165.6,32.7
	c-0.2,0.1-0.3,0.2-0.5,0.3c-0.2,0.1-0.3,0.2-0.5,0.3c-0.2,0.1-0.5,0.2-0.7,0.3c-0.3,0.1-0.5,0.1-0.8,0.1c-0.7,0-1.3-0.2-1.7-0.7
	c-0.4-0.5-0.6-1.2-0.6-2.1c0-0.9,0.2-1.7,0.6-2.2c0.4-0.5,1-0.7,1.7-0.7c0.4,0,0.8,0.1,1.2,0.2c0.4,0.2,0.8,0.4,1.2,0.7h0.1v-1.4
	c-0.4-0.2-0.7-0.3-1.2-0.5c-0.4-0.1-0.9-0.2-1.3-0.2c-1.1,0-2,0.4-2.7,1.1c-0.7,0.7-1,1.7-1,2.9c0,0.7,0.1,1.3,0.3,1.8
	c0.2,0.5,0.4,0.9,0.8,1.2c0.3,0.3,0.7,0.6,1.2,0.7c0.5,0.2,1,0.2,1.5,0.2c0.4,0,0.8-0.1,1.2-0.2c0.4-0.1,0.8-0.3,1.2-0.5V32.7z
	 M152.4,29.9c0.1-0.6,0.3-1.1,0.7-1.5c0.4-0.4,1-0.6,1.6-0.6c0.7,0,1.2,0.2,1.5,0.6c0.3,0.4,0.5,0.9,0.5,1.6H152.4z M158,30.2
	c0-1.1-0.3-2-0.8-2.6c-0.6-0.6-1.4-0.9-2.4-0.9c-1.1,0-2,0.4-2.7,1.1c-0.7,0.7-1,1.7-1,3c0,1.3,0.4,2.2,1.1,2.9s1.7,1,3,1
	c0.5,0,1-0.1,1.4-0.2c0.5-0.1,0.9-0.3,1.3-0.5v-1.4h-0.1c-0.2,0.2-0.6,0.4-1.1,0.6c-0.5,0.2-1,0.3-1.6,0.3c-0.4,0-0.8-0.1-1.1-0.2
	c-0.3-0.1-0.6-0.3-0.8-0.5c-0.2-0.2-0.4-0.5-0.6-0.9c-0.1-0.3-0.2-0.8-0.2-1.2h5.6V30.2z M149.1,27h-2.9v1.1h1.6v6.2
	c0,0.4,0,0.7,0,0.9c0,0.3-0.1,0.5-0.2,0.7s-0.3,0.3-0.5,0.4c-0.2,0.1-0.5,0.1-0.8,0.1c-0.2,0-0.4,0-0.6-0.1
	c-0.2-0.1-0.4-0.1-0.5-0.2h-0.1v1.2c0.2,0.1,0.4,0.1,0.7,0.1c0.3,0,0.5,0.1,0.7,0.1c0.8,0,1.4-0.2,1.8-0.7c0.5-0.5,0.7-1.1,0.7-2V27
	z M149.2,24.4h-1.4v1.3h1.4V24.4z M139.2,29.9c0.1-0.6,0.3-1.1,0.7-1.5c0.4-0.4,1-0.6,1.6-0.6c0.7,0,1.2,0.2,1.5,0.6
	c0.3,0.4,0.5,0.9,0.5,1.6H139.2z M144.9,30.2c0-1.1-0.3-2-0.8-2.6c-0.6-0.6-1.4-0.9-2.4-0.9c-1.1,0-2,0.4-2.7,1.1
	c-0.7,0.7-1,1.7-1,3c0,1.3,0.4,2.2,1.1,2.9s1.7,1,3,1c0.5,0,1-0.1,1.4-0.2c0.5-0.1,0.9-0.3,1.3-0.5v-1.4h-0.1
	c-0.2,0.2-0.6,0.4-1.1,0.6c-0.5,0.2-1,0.3-1.6,0.3c-0.4,0-0.8-0.1-1.1-0.2c-0.3-0.1-0.6-0.3-0.8-0.5c-0.2-0.2-0.4-0.5-0.6-0.9
	c-0.1-0.3-0.2-0.8-0.2-1.2h5.6V30.2z M126,29.9c0.1-0.6,0.3-1.1,0.7-1.5c0.4-0.4,1-0.6,1.6-0.6c0.7,0,1.2,0.2,1.5,0.6
	c0.3,0.4,0.5,0.9,0.5,1.6H126z M131.6,30.2c0-1.1-0.3-2-0.8-2.6c-0.6-0.6-1.4-0.9-2.4-0.9c-1.1,0-2,0.4-2.7,1.1c-0.7,0.7-1,1.7-1,3
	c0,1.3,0.4,2.2,1.1,2.9c0.7,0.7,1.7,1,3,1c0.5,0,1-0.1,1.4-0.2c0.5-0.1,0.9-0.3,1.3-0.5v-1.4h-0.1c-0.2,0.2-0.6,0.4-1.1,0.6
	c-0.5,0.2-1,0.3-1.6,0.3c-0.4,0-0.8-0.1-1.1-0.2c-0.3-0.1-0.6-0.3-0.8-0.5c-0.2-0.2-0.4-0.5-0.6-0.9c-0.1-0.3-0.2-0.8-0.2-1.2h5.6
	V30.2z M122.9,31.1c-0.3-0.3-0.8-0.6-1.4-0.7c-0.2,0-0.4-0.1-0.7-0.2c-0.3-0.1-0.6-0.1-0.8-0.2c-0.4-0.1-0.7-0.2-0.9-0.4
	c-0.2-0.2-0.3-0.4-0.3-0.7c0-0.4,0.2-0.6,0.5-0.8c0.3-0.2,0.7-0.3,1.2-0.3c0.5,0,0.9,0.1,1.4,0.2c0.5,0.2,0.9,0.4,1.2,0.6h0.1v-1.4
	c-0.3-0.2-0.7-0.3-1.2-0.4c-0.5-0.1-0.9-0.2-1.4-0.2c-0.5,0-0.9,0.1-1.3,0.2c-0.4,0.1-0.7,0.3-1,0.5c-0.3,0.2-0.5,0.5-0.6,0.7
	c-0.1,0.3-0.2,0.6-0.2,0.9c0,0.5,0.1,0.9,0.4,1.3c0.3,0.3,0.8,0.6,1.4,0.8c0.2,0.1,0.5,0.1,0.8,0.2c0.3,0.1,0.5,0.1,0.7,0.1
	c0.5,0.1,0.8,0.2,1,0.4c0.2,0.2,0.3,0.4,0.3,0.7c0,0.4-0.2,0.7-0.5,0.9s-0.8,0.3-1.3,0.3c-0.5,0-0.9-0.1-1.4-0.3
	c-0.5-0.2-0.9-0.4-1.4-0.7h-0.1v1.4c0.3,0.2,0.7,0.3,1.2,0.4c0.5,0.1,1,0.2,1.6,0.2c1,0,1.8-0.2,2.4-0.7c0.6-0.4,0.9-1,0.9-1.7
	C123.4,31.9,123.2,31.4,122.9,31.1 M111.9,29.2l-1.7,4l-1.7-4h-1l2.2,5.2l-1,2.3h1l3.2-7.5H111.9z M98.8,30.2
	c-1.8,0.2-2.7,1-2.7,2.3c0,0.4,0.1,0.7,0.2,1c0.1,0.3,0.3,0.5,0.6,0.7c0.2,0.2,0.5,0.3,0.8,0.4s0.6,0.1,1,0.1c0.6,0,1.1-0.1,1.6-0.3
	c0.5-0.2,0.9-0.5,1.3-1c0,0.1,0,0.3,0,0.4c0,0.1,0.1,0.2,0.1,0.3s0.1,0.2,0.2,0.3c0.1,0.1,0.2,0.1,0.4,0.1c0.1,0,0.3,0,0.4,0
	c0.1,0,0.3,0,0.4-0.1s0.2-0.1,0.3-0.1v-0.7c-0.4,0.1-0.6,0.2-0.8,0.1c-0.1-0.1-0.2-0.3-0.2-0.7V29c0-0.5-0.1-0.8-0.2-1.1
	c-0.1-0.3-0.3-0.6-0.6-0.7c-0.3-0.2-0.6-0.3-0.9-0.4c-0.3-0.1-0.7-0.1-1.1-0.1c-0.4,0-0.8,0-1.2,0.1c-0.4,0.1-0.7,0.2-1,0.4
	c-0.3,0.2-0.5,0.5-0.7,0.8s-0.3,0.7-0.3,1.2h0.9c0-0.3,0.1-0.6,0.2-0.8s0.3-0.4,0.5-0.5c0.2-0.1,0.4-0.2,0.7-0.3
	c0.3-0.1,0.5-0.1,0.9-0.1c0.7,0,1.2,0.1,1.5,0.4c0.3,0.3,0.4,0.7,0.4,1.1c0,0.1,0,0.3-0.1,0.5c0,0.2-0.1,0.3-0.3,0.4
	c-0.1,0.1-0.3,0.1-0.6,0.2c-0.2,0-0.4,0.1-0.6,0.1L98.8,30.2z M101.5,31.7c0,0.4-0.1,0.7-0.2,1c-0.2,0.3-0.4,0.5-0.6,0.7
	s-0.6,0.3-0.9,0.4C99.4,34,99.1,34,98.7,34c-0.2,0-0.4,0-0.6-0.1c-0.2-0.1-0.4-0.1-0.5-0.3c-0.2-0.1-0.3-0.3-0.4-0.4
	c-0.1-0.2-0.1-0.4-0.1-0.6c0-0.5,0.2-0.9,0.6-1.2c0.4-0.3,0.9-0.4,1.6-0.5c0.4,0,0.8-0.1,1.2-0.1c0.4,0,0.8-0.2,1.2-0.3V31.7z
	 M94.2,23.8h-1v1.3h1V23.8z M94.2,26.8h-0.9v7.8h0.9V26.8z M91.2,29.3c-0.1-0.9-0.5-1.6-1-2s-1.3-0.6-2.2-0.6
	c-0.6,0-1.1,0.1-1.5,0.3c-0.4,0.2-0.8,0.5-1.1,0.9c-0.3,0.4-0.5,0.8-0.7,1.3c-0.2,0.5-0.2,1-0.2,1.6c0,0.6,0.1,1.1,0.2,1.6
	c0.1,0.5,0.4,0.9,0.6,1.3c0.3,0.4,0.7,0.7,1.1,0.9c0.5,0.2,1,0.3,1.6,0.3c0.5,0,0.9-0.1,1.3-0.2c0.4-0.1,0.7-0.3,1-0.6
	c0.3-0.3,0.5-0.6,0.7-0.9c0.2-0.4,0.3-0.7,0.4-1.2h-1c-0.1,0.6-0.4,1.2-0.8,1.5S88.6,34,88,34c-0.5,0-0.9-0.1-1.2-0.3
	c-0.3-0.2-0.6-0.4-0.8-0.7c-0.2-0.3-0.4-0.7-0.5-1s-0.1-0.8-0.1-1.2c0-0.4,0-0.8,0.2-1.2c0.1-0.4,0.3-0.8,0.5-1.1
	c0.2-0.3,0.5-0.6,0.8-0.8c0.3-0.2,0.7-0.3,1.2-0.3c0.6,0,1.1,0.2,1.5,0.5s0.7,0.8,0.8,1.4H91.2z M77.3,30.4c0-0.3,0-0.5,0-0.8
	c0-0.2,0.1-0.5,0.2-0.7c0.1-0.2,0.2-0.4,0.3-0.6c0.1-0.2,0.3-0.3,0.5-0.5s0.4-0.3,0.6-0.3c0.2-0.1,0.5-0.1,0.8-0.1
	c0.7,0,1.2,0.2,1.5,0.5c0.3,0.4,0.5,0.9,0.5,1.6v5.1h0.9v-5.1c0-0.3,0-0.6-0.1-0.9c0-0.3-0.1-0.6-0.3-0.9c-0.3-0.4-0.6-0.7-1-0.9
	c-0.4-0.2-0.9-0.2-1.3-0.2c-0.5,0-1,0.1-1.4,0.4c-0.4,0.2-0.8,0.6-1.1,0.9v-1.1h-0.9v7.8h0.9V30.4z M74.7,30.9
	c0-1.4-0.3-2.5-0.9-3.2c-0.6-0.7-1.5-1.1-2.5-1.1c-0.6,0-1.1,0.1-1.5,0.3c-0.4,0.2-0.8,0.5-1.1,0.9s-0.5,0.8-0.7,1.3s-0.2,1-0.2,1.6
	c0,0.6,0.1,1.1,0.2,1.6c0.1,0.5,0.4,0.9,0.6,1.3c0.3,0.4,0.7,0.7,1.1,0.9c0.4,0.2,1,0.3,1.6,0.3c0.5,0,0.9-0.1,1.3-0.2
	c0.4-0.1,0.7-0.3,1-0.5c0.3-0.2,0.5-0.5,0.7-0.8c0.2-0.3,0.3-0.7,0.4-1h-1c-0.1,0.6-0.4,1-0.8,1.3S71.9,34,71.3,34
	c-0.4,0-0.8-0.1-1.1-0.2c-0.3-0.2-0.6-0.4-0.8-0.7c-0.2-0.3-0.4-0.6-0.5-1c-0.1-0.4-0.2-0.8-0.2-1.2H74.7z M68.7,30.2
	c0-0.4,0.1-0.7,0.3-1c0.1-0.3,0.3-0.6,0.5-0.9c0.2-0.2,0.5-0.5,0.8-0.6s0.7-0.2,1.1-0.2c0.4,0,0.8,0.1,1.1,0.2
	c0.3,0.1,0.6,0.3,0.8,0.6c0.2,0.2,0.4,0.5,0.5,0.9c0.1,0.3,0.2,0.7,0.2,1.1H68.7z M65.9,23.8h-1v1.3h1V23.8z M65.8,26.8h-0.9v7.8
	h0.9V26.8z M62.9,29.3c-0.1-0.9-0.5-1.6-1-2s-1.3-0.6-2.2-0.6c-0.6,0-1.1,0.1-1.5,0.3c-0.4,0.2-0.8,0.5-1.1,0.9
	c-0.3,0.4-0.5,0.8-0.7,1.3s-0.2,1-0.2,1.6c0,0.6,0.1,1.1,0.2,1.6s0.4,0.9,0.6,1.3c0.3,0.4,0.7,0.7,1.1,0.9c0.5,0.2,1,0.3,1.6,0.3
	c0.5,0,0.9-0.1,1.3-0.2c0.4-0.1,0.7-0.3,1-0.6c0.3-0.3,0.5-0.6,0.7-0.9s0.3-0.7,0.4-1.2h-1c-0.1,0.6-0.4,1.2-0.8,1.5
	c-0.4,0.4-0.9,0.6-1.6,0.6c-0.5,0-0.9-0.1-1.2-0.3c-0.3-0.2-0.6-0.4-0.8-0.7c-0.2-0.3-0.4-0.7-0.5-1S57,31.2,57,30.7
	c0-0.4,0-0.8,0.1-1.2c0.1-0.4,0.3-0.8,0.5-1.1c0.2-0.3,0.5-0.6,0.8-0.8c0.3-0.2,0.7-0.3,1.2-0.3c0.6,0,1.1,0.2,1.5,0.5
	c0.4,0.3,0.7,0.8,0.8,1.4H62.9z M48.7,34.6h1.7v-3.7c0-0.7-0.2-1.1-0.7-1.4c-0.4-0.3-1.2-0.5-2.2-0.5c-0.4,0-0.8,0-1.3,0.1
	c-0.4,0.1-0.7,0.1-0.9,0.2v1.3h0.2c0.1-0.1,0.4-0.1,0.7-0.2c0.3-0.1,0.6-0.2,0.9-0.2c0.5,0,0.8,0.1,1.1,0.2c0.2,0.1,0.4,0.3,0.4,0.6
	v0c-0.5,0-1,0.1-1.5,0.1c-0.5,0.1-0.9,0.2-1.2,0.3c-0.3,0.1-0.6,0.3-0.8,0.6c-0.2,0.3-0.3,0.6-0.3,1c0,0.5,0.2,0.9,0.5,1.2
	c0.4,0.3,0.8,0.5,1.3,0.5c0.2,0,0.4,0,0.6-0.1c0.2,0,0.4-0.1,0.5-0.2c0.1-0.1,0.3-0.1,0.4-0.2c0.1-0.1,0.3-0.2,0.4-0.3V34.6z
	 M48.2,33.5c-0.2,0.1-0.4,0.1-0.5,0.1c-0.2,0-0.4,0-0.5,0c-0.1,0-0.2-0.1-0.3-0.1c-0.1-0.1-0.1-0.1-0.1-0.2c0-0.1,0-0.2,0-0.3
	c0-0.2,0-0.3,0.1-0.4c0.1-0.1,0.2-0.2,0.4-0.2c0.1,0,0.4-0.1,0.6-0.1c0.3,0,0.5-0.1,0.8-0.1v1.1C48.5,33.3,48.4,33.4,48.2,33.5
	 M43.7,27h-1.8v7.6h1.8V27z M33.2,31.2c0-0.4,0.1-0.7,0.4-0.8c0.2-0.2,0.5-0.3,0.8-0.3c0.4,0,0.6,0.1,0.8,0.3
	c0.2,0.2,0.3,0.5,0.3,0.8H33.2z M37.3,31.6c0-0.8-0.2-1.5-0.7-1.9c-0.4-0.5-1.1-0.7-2-0.7c-1,0-1.7,0.3-2.3,0.8
	c-0.6,0.5-0.8,1.2-0.8,2.2c0,0.9,0.3,1.6,0.9,2.1c0.6,0.5,1.4,0.7,2.5,0.7c0.4,0,0.8,0,1.2-0.1c0.4-0.1,0.7-0.2,1.1-0.3v-1.4H37
	c-0.2,0.2-0.5,0.3-0.8,0.4c-0.3,0.1-0.7,0.2-1.1,0.2c-0.6,0-1-0.1-1.3-0.3s-0.5-0.6-0.5-1h4V31.6z M28,33.3
	c-0.2,0.1-0.3,0.1-0.5,0.1c-0.4,0-0.7-0.1-0.9-0.4c-0.2-0.2-0.3-0.6-0.3-1.2c0-0.5,0.1-0.9,0.3-1.2c0.2-0.3,0.6-0.4,1-0.4
	c0.1,0,0.2,0,0.4,0c0.1,0,0.3,0.1,0.4,0.1v2.7C28.3,33.2,28.1,33.3,28,33.3 M30.2,27h-1.8v2.3c-0.2-0.1-0.4-0.2-0.6-0.3
	C27.6,29,27.3,29,27,29c-0.3,0-0.6,0.1-0.9,0.2c-0.3,0.1-0.6,0.3-0.8,0.6c-0.2,0.3-0.4,0.6-0.6,0.9c-0.1,0.4-0.2,0.8-0.2,1.2
	c0,0.9,0.2,1.6,0.6,2.1c0.4,0.5,0.9,0.8,1.6,0.8c0.3,0,0.6-0.1,0.9-0.2c0.3-0.1,0.5-0.3,0.8-0.5v0.6h1.8V27z M23.4,31.9
	c-0.2-0.3-0.6-0.4-1-0.6c-0.2-0.1-0.4-0.1-0.6-0.1c-0.2,0-0.4-0.1-0.6-0.1c-0.3-0.1-0.5-0.1-0.6-0.2c-0.1-0.1-0.1-0.2-0.1-0.3
	c0-0.1,0.1-0.3,0.3-0.3c0.2-0.1,0.4-0.1,0.7-0.1c0.3,0,0.7,0.1,1,0.2c0.3,0.1,0.6,0.3,0.9,0.4h0.2v-1.4c-0.2-0.1-0.5-0.2-0.9-0.3
	C22.2,29,21.8,29,21.4,29c-0.9,0-1.5,0.2-2,0.5c-0.5,0.4-0.7,0.8-0.7,1.3c0,0.4,0.1,0.8,0.4,1c0.2,0.3,0.6,0.5,1.1,0.6
	c0.2,0,0.4,0.1,0.6,0.1c0.2,0,0.4,0.1,0.5,0.1c0.3,0.1,0.5,0.1,0.6,0.2c0.1,0.1,0.1,0.2,0.1,0.3c0,0.1-0.1,0.3-0.2,0.3
	c-0.2,0.1-0.4,0.1-0.8,0.1c-0.3,0-0.5,0-0.7-0.1c-0.2-0.1-0.4-0.1-0.6-0.2c-0.2-0.1-0.4-0.2-0.5-0.2c-0.1-0.1-0.2-0.1-0.3-0.2h-0.2
	v1.4c0.2,0.1,0.6,0.2,1,0.3c0.4,0.1,0.8,0.1,1.3,0.1c0.9,0,1.6-0.2,2.1-0.5c0.5-0.3,0.8-0.8,0.8-1.4C23.7,32.5,23.6,32.2,23.4,31.9
	 M13.7,31.2c0-0.4,0.1-0.7,0.4-0.8c0.2-0.2,0.5-0.3,0.8-0.3c0.4,0,0.6,0.1,0.8,0.3c0.2,0.2,0.3,0.5,0.3,0.8H13.7z M17.7,31.6
	c0-0.8-0.2-1.5-0.7-1.9c-0.5-0.5-1.1-0.7-2-0.7c-1,0-1.7,0.3-2.3,0.8c-0.6,0.5-0.8,1.2-0.8,2.2c0,0.9,0.3,1.6,0.9,2.1
	c0.6,0.5,1.4,0.7,2.5,0.7c0.4,0,0.8,0,1.2-0.1c0.4-0.1,0.7-0.2,1.1-0.3v-1.4h-0.2c-0.2,0.2-0.5,0.3-0.8,0.4
	c-0.3,0.1-0.7,0.2-1.1,0.2c-0.6,0-1-0.1-1.3-0.3c-0.3-0.2-0.5-0.6-0.5-1h4V31.6z M8.4,33.3c-0.2,0.1-0.3,0.1-0.5,0.1
	c-0.4,0-0.7-0.1-0.9-0.4c-0.2-0.2-0.3-0.6-0.3-1.2c0-0.5,0.1-0.9,0.3-1.2c0.2-0.3,0.6-0.4,1-0.4c0.1,0,0.2,0,0.4,0
	c0.1,0,0.3,0.1,0.4,0.1v2.7C8.7,33.2,8.6,33.3,8.4,33.3 M10.6,27H8.9v2.3c-0.2-0.1-0.4-0.2-0.6-0.3C8,29,7.7,29,7.4,29
	c-0.3,0-0.6,0.1-0.9,0.2c-0.3,0.1-0.6,0.3-0.8,0.6c-0.2,0.3-0.4,0.6-0.6,0.9C5,31,4.9,31.4,4.9,31.9c0,0.9,0.2,1.6,0.6,2.1
	c0.4,0.5,0.9,0.8,1.6,0.8c0.3,0,0.6-0.1,0.9-0.2c0.3-0.1,0.5-0.3,0.8-0.5v0.6h1.8V27z"/>
<path id="XMLID_4_" class="st0" d="M237.2,15.4c-0.3,0.4-0.7,0.5-1.1,0.5c-0.5,0-0.9-0.2-1.2-0.5c-0.3-0.4-0.4-0.9-0.4-1.6
	c0-0.7,0.1-1.2,0.4-1.6c0.3-0.3,0.7-0.5,1.2-0.5c0.5,0,0.9,0.2,1.2,0.5c0.3,0.3,0.4,0.9,0.4,1.6C237.6,14.6,237.5,15.1,237.2,15.4
	 M237.9,11.8c-0.5-0.5-1.1-0.8-1.8-0.8c-0.8,0-1.4,0.3-1.8,0.8c-0.5,0.5-0.7,1.2-0.7,2.1c0,0.9,0.2,1.6,0.7,2.1
	c0.5,0.5,1.1,0.8,1.8,0.8c0.8,0,1.4-0.3,1.8-0.8c0.5-0.5,0.7-1.2,0.7-2.1C238.6,13,238.3,12.3,237.9,11.8 M231.1,15.4
	c-0.3,0.3-0.7,0.5-1.2,0.5c-0.2,0-0.5,0-0.6-0.1c-0.2,0-0.4-0.1-0.7-0.2v-3.1c0.2-0.2,0.5-0.3,0.8-0.4c0.3-0.1,0.5-0.2,0.8-0.2
	c0.5,0,0.8,0.2,1,0.5c0.2,0.3,0.3,0.8,0.3,1.5C231.5,14.6,231.4,15.1,231.1,15.4 M231.9,11.7c-0.4-0.5-0.9-0.7-1.5-0.7
	c-0.4,0-0.7,0.1-1,0.2c-0.3,0.1-0.6,0.3-0.8,0.5V9h-0.9v7.6h0.9l0.1-0.3c0.2,0.1,0.5,0.2,0.7,0.3c0.2,0.1,0.5,0.1,0.8,0.1
	c0.3,0,0.6-0.1,0.9-0.2c0.3-0.1,0.5-0.3,0.8-0.6c0.2-0.2,0.4-0.6,0.5-0.9c0.1-0.4,0.2-0.8,0.2-1.2C232.5,12.9,232.3,12.2,231.9,11.7
	 M224.3,15.7c-0.3,0.1-0.6,0.2-0.9,0.2c-0.4,0-0.7-0.1-0.9-0.2c-0.2-0.2-0.3-0.4-0.3-0.7c0-0.3,0.1-0.5,0.2-0.7
	c0.2-0.2,0.4-0.3,0.6-0.3c0.2-0.1,0.5-0.1,0.9-0.1c0.4,0,0.7-0.1,1-0.1v1.5C224.8,15.4,224.5,15.6,224.3,15.7 M225.9,12.9
	c0-0.4-0.1-0.6-0.2-0.9c-0.1-0.2-0.3-0.4-0.5-0.6c-0.2-0.2-0.5-0.3-0.7-0.3c-0.3-0.1-0.6-0.1-1-0.1c-0.3,0-0.7,0-1,0.1
	c-0.3,0.1-0.6,0.1-0.8,0.2v0.9h0c0.3-0.1,0.6-0.2,0.9-0.3c0.3-0.1,0.6-0.1,0.8-0.1c0.2,0,0.4,0,0.6,0c0.2,0,0.3,0.1,0.5,0.2
	c0.1,0.1,0.2,0.2,0.3,0.3c0.1,0.1,0.1,0.3,0.1,0.5V13c-0.5,0-1,0.1-1.5,0.1c-0.5,0.1-0.9,0.2-1.2,0.3c-0.3,0.1-0.6,0.3-0.8,0.6
	c-0.2,0.3-0.3,0.6-0.3,1c0,0.5,0.2,0.9,0.5,1.2c0.3,0.3,0.8,0.5,1.2,0.5c0.3,0,0.5,0,0.7-0.1c0.2-0.1,0.4-0.1,0.5-0.2
	c0.1-0.1,0.3-0.1,0.4-0.2c0.1-0.1,0.2-0.2,0.3-0.2v0.6h0.9V12.9z M220.5,15.3L220.5,15.3c-0.1,0.1-0.2,0.1-0.3,0.2
	c-0.1,0.1-0.2,0.1-0.4,0.2c-0.2,0.1-0.3,0.1-0.5,0.2s-0.4,0.1-0.6,0.1c-0.5,0-0.9-0.2-1.2-0.5c-0.3-0.4-0.4-0.9-0.4-1.5
	c0-0.7,0.1-1.2,0.5-1.5c0.3-0.4,0.7-0.5,1.2-0.5c0.3,0,0.6,0.1,0.9,0.2c0.3,0.1,0.6,0.3,0.9,0.5h0v-1c-0.3-0.1-0.5-0.2-0.8-0.3
	s-0.6-0.1-0.9-0.1c-0.8,0-1.5,0.3-1.9,0.8c-0.5,0.5-0.7,1.2-0.7,2.1c0,0.5,0.1,0.9,0.2,1.3c0.1,0.4,0.3,0.7,0.6,0.9
	c0.2,0.2,0.5,0.4,0.8,0.5c0.3,0.1,0.7,0.2,1.1,0.2c0.3,0,0.6,0,0.9-0.1s0.6-0.2,0.9-0.3V15.3z M209.5,15.7c-0.3,0.1-0.6,0.2-0.9,0.2
	c-0.4,0-0.7-0.1-0.9-0.2c-0.2-0.2-0.3-0.4-0.3-0.7c0-0.3,0.1-0.5,0.2-0.7c0.2-0.2,0.4-0.3,0.6-0.3c0.2-0.1,0.5-0.1,0.9-0.1
	c0.4,0,0.7-0.1,1-0.1v1.5C210,15.4,209.8,15.6,209.5,15.7 M211.2,12.9c0-0.4-0.1-0.6-0.2-0.9c-0.1-0.2-0.3-0.4-0.5-0.6
	c-0.2-0.2-0.5-0.3-0.7-0.3c-0.3-0.1-0.6-0.1-1-0.1c-0.3,0-0.7,0-1,0.1c-0.3,0.1-0.6,0.1-0.8,0.2v0.9h0c0.3-0.1,0.6-0.2,0.9-0.3
	c0.3-0.1,0.6-0.1,0.8-0.1c0.2,0,0.4,0,0.6,0c0.2,0,0.3,0.1,0.5,0.2c0.1,0.1,0.2,0.2,0.3,0.3c0.1,0.1,0.1,0.3,0.1,0.5V13
	c-0.5,0-1,0.1-1.5,0.1c-0.5,0.1-0.9,0.2-1.2,0.3c-0.3,0.1-0.6,0.3-0.8,0.6c-0.2,0.3-0.3,0.6-0.3,1c0,0.5,0.2,0.9,0.5,1.2
	c0.3,0.3,0.8,0.5,1.2,0.5c0.3,0,0.5,0,0.7-0.1c0.2-0.1,0.4-0.1,0.5-0.2c0.1-0.1,0.3-0.1,0.4-0.2c0.1-0.1,0.2-0.2,0.3-0.2v0.6h0.9
	V12.9z M199,15.4c-0.4,0.2-0.8,0.3-1.2,0.3c-0.5,0-0.9-0.1-1.2-0.3c-0.3-0.2-0.4-0.5-0.4-1c0-0.4,0.1-0.7,0.3-0.9
	c0.2-0.2,0.5-0.4,0.9-0.5c0.3-0.1,0.7-0.2,1.3-0.2c0.5,0,1-0.1,1.4-0.1v2.1C199.7,15,199.4,15.2,199,15.4 M201.3,11.4
	c0-0.5-0.1-0.9-0.2-1.2c-0.1-0.3-0.4-0.6-0.7-0.8c-0.3-0.2-0.6-0.4-1-0.5c-0.4-0.1-0.9-0.1-1.4-0.1c-0.5,0-0.9,0-1.4,0.1
	c-0.5,0.1-0.8,0.2-1.1,0.2v1.3h0.1c0.4-0.2,0.9-0.3,1.3-0.4c0.4-0.1,0.8-0.1,1.1-0.1c0.3,0,0.5,0,0.8,0.1c0.3,0,0.5,0.1,0.7,0.2
	c0.2,0.1,0.3,0.3,0.4,0.5c0.1,0.2,0.2,0.4,0.2,0.7v0.2c-0.7,0-1.4,0.1-2.1,0.2s-1.2,0.2-1.7,0.4c-0.5,0.2-0.8,0.5-1.1,0.8
	c-0.2,0.4-0.4,0.8-0.4,1.4c0,0.7,0.2,1.3,0.7,1.7c0.5,0.5,1.1,0.7,1.8,0.7c0.4,0,0.7,0,1-0.1c0.3-0.1,0.5-0.2,0.7-0.3
	c0.2-0.1,0.4-0.2,0.6-0.3c0.2-0.1,0.3-0.2,0.5-0.3v0.8h1.3V11.4z M192.6,9l-2.3,6.1L187.9,9h-1.4l3.1,7.6h1.3L194,9H192.6z
	 M179.8,11.9c0.1-0.6,0.3-1.1,0.7-1.5c0.4-0.4,1-0.6,1.6-0.6c0.7,0,1.2,0.2,1.5,0.6c0.3,0.4,0.5,0.9,0.5,1.6H179.8z M185.4,12.2
	c0-1.1-0.3-2-0.8-2.6c-0.6-0.6-1.4-0.9-2.4-0.9c-1.1,0-2,0.4-2.7,1.1c-0.7,0.7-1,1.7-1,3c0,1.3,0.4,2.2,1.1,2.9c0.7,0.7,1.7,1,3,1
	c0.5,0,1-0.1,1.4-0.2c0.5-0.1,0.9-0.3,1.3-0.5v-1.4h-0.1c-0.2,0.2-0.6,0.4-1.1,0.6c-0.5,0.2-1,0.3-1.6,0.3c-0.4,0-0.8-0.1-1.1-0.2
	c-0.3-0.1-0.6-0.3-0.8-0.5c-0.2-0.2-0.4-0.5-0.6-0.9c-0.1-0.3-0.2-0.8-0.2-1.2h5.6V12.2z M176.5,6h-1.3v10.6h1.3V6z M172.6,6h-1.3
	v10.6h1.3V6z M162.1,13.3c0-0.4,0.2-0.8,0.5-1.1c0.3-0.3,0.7-0.4,1.2-0.4c0.5,0,0.9,0.1,1.1,0.4c0.2,0.3,0.4,0.6,0.4,1.1H162.1z
	 M166.1,13.5c0-0.8-0.2-1.4-0.6-1.8c-0.4-0.4-1-0.6-1.7-0.6c-0.8,0-1.4,0.3-1.9,0.8c-0.5,0.5-0.7,1.2-0.7,2.1c0,0.9,0.3,1.6,0.8,2.1
	c0.5,0.5,1.2,0.7,2.1,0.7c0.4,0,0.7,0,1-0.1c0.3-0.1,0.6-0.2,0.9-0.3v-1h0c-0.2,0.1-0.4,0.3-0.8,0.4c-0.4,0.1-0.7,0.2-1.1,0.2
	c-0.3,0-0.5,0-0.8-0.1c-0.2-0.1-0.4-0.2-0.6-0.4c-0.2-0.2-0.3-0.4-0.4-0.6c-0.1-0.2-0.2-0.5-0.2-0.9h4V13.5z M159.8,14.1
	c-0.2-0.2-0.6-0.4-1-0.5c-0.1,0-0.3-0.1-0.5-0.1c-0.2,0-0.4-0.1-0.6-0.1c-0.3-0.1-0.5-0.2-0.7-0.3c-0.1-0.1-0.2-0.3-0.2-0.5
	c0-0.3,0.1-0.4,0.3-0.6c0.2-0.1,0.5-0.2,0.8-0.2c0.3,0,0.7,0.1,1,0.2c0.3,0.1,0.6,0.3,0.9,0.4h0v-1c-0.2-0.1-0.5-0.2-0.8-0.3
	c-0.3-0.1-0.7-0.1-1-0.1c-0.3,0-0.7,0-0.9,0.1c-0.3,0.1-0.5,0.2-0.7,0.4c-0.2,0.2-0.3,0.3-0.4,0.5c-0.1,0.2-0.1,0.4-0.1,0.6
	c0,0.4,0.1,0.7,0.3,0.9s0.5,0.4,1,0.6c0.2,0,0.4,0.1,0.6,0.1c0.2,0,0.4,0.1,0.5,0.1c0.4,0.1,0.6,0.2,0.7,0.3
	c0.1,0.1,0.2,0.3,0.2,0.5c0,0.3-0.1,0.5-0.3,0.6c-0.2,0.1-0.5,0.2-0.9,0.2c-0.3,0-0.7-0.1-1-0.2c-0.4-0.1-0.7-0.3-1-0.5h0v1
	c0.2,0.1,0.5,0.2,0.8,0.3s0.7,0.1,1.1,0.1c0.7,0,1.3-0.2,1.7-0.5c0.4-0.3,0.6-0.7,0.6-1.2C160.2,14.6,160.1,14.3,159.8,14.1
	 M148.8,16.6h2.1v-4.5c0-0.8-0.3-1.4-0.8-1.7c-0.5-0.4-1.4-0.6-2.6-0.6c-0.5,0-1,0-1.5,0.1s-0.9,0.1-1.1,0.2v1.6h0.2
	c0.2-0.1,0.5-0.2,0.9-0.3c0.4-0.1,0.8-0.2,1.1-0.2c0.6,0,1,0.1,1.3,0.2c0.3,0.1,0.4,0.4,0.4,0.8v0c-0.6,0-1.2,0.1-1.8,0.2
	c-0.6,0.1-1.1,0.2-1.5,0.4c-0.4,0.2-0.7,0.4-0.9,0.7c-0.2,0.3-0.3,0.7-0.3,1.2c0,0.6,0.2,1.1,0.6,1.5c0.4,0.4,0.9,0.6,1.6,0.6
	c0.3,0,0.5,0,0.7-0.1c0.2,0,0.4-0.1,0.6-0.2c0.1-0.1,0.3-0.2,0.5-0.3c0.2-0.1,0.3-0.2,0.4-0.3V16.6z M148.3,15.2
	c-0.2,0.1-0.4,0.1-0.6,0.1c-0.3,0-0.5,0-0.6-0.1c-0.1,0-0.2-0.1-0.3-0.2c-0.1-0.1-0.2-0.2-0.2-0.2c0-0.1,0-0.2,0-0.3
	c0-0.2,0.1-0.4,0.2-0.5c0.1-0.1,0.3-0.2,0.5-0.3c0.2-0.1,0.4-0.1,0.8-0.1c0.3,0,0.6-0.1,0.9-0.1v1.4C148.7,15,148.5,15.1,148.3,15.2
	 M141.8,6.8l-1.4,2.3h1.4l2.1-2.2V6.8H141.8z M142.9,10h-2.1v6.6h2.1V10z M136.1,14.8c-0.2,0.1-0.4,0.1-0.6,0.1
	c-0.5,0-0.8-0.1-1-0.4c-0.2-0.2-0.4-0.7-0.4-1.3c0-0.6,0.1-1,0.4-1.3c0.3-0.3,0.7-0.5,1.2-0.5c0.1,0,0.3,0,0.5,0
	c0.2,0,0.3,0.1,0.4,0.1v3C136.5,14.6,136.3,14.7,136.1,14.8 M138.8,10h-2l-0.1,0.3c-0.2-0.1-0.5-0.3-0.8-0.3c-0.3-0.1-0.6-0.1-1-0.1
	c-0.4,0-0.8,0.1-1.2,0.2c-0.4,0.2-0.7,0.4-1,0.6c-0.3,0.3-0.5,0.6-0.6,1c-0.2,0.4-0.2,0.9-0.2,1.4c0,1.1,0.2,2,0.7,2.5
	c0.5,0.6,1.2,0.8,2.1,0.8c0.4,0,0.7-0.1,1-0.2c0.3-0.1,0.6-0.3,0.8-0.5V16c0,0.3,0,0.5-0.1,0.7c-0.1,0.2-0.1,0.4-0.3,0.5
	c-0.1,0.1-0.3,0.2-0.6,0.3c-0.2,0.1-0.6,0.1-1,0.1c-0.3,0-0.6,0-1-0.1c-0.4-0.1-0.7-0.2-0.9-0.3h-0.3v1.6c0.3,0.1,0.7,0.1,1.2,0.2
	c0.4,0.1,0.9,0.1,1.4,0.1c0.6,0,1.1-0.1,1.5-0.2c0.4-0.1,0.8-0.3,1.1-0.5c0.3-0.2,0.6-0.6,0.7-1c0.2-0.4,0.3-0.9,0.3-1.6V10z
	 M127.8,15.3c-0.2,0.1-0.4,0.1-0.5,0.1c-0.2,0-0.4,0-0.6-0.1c-0.2-0.1-0.3-0.2-0.4-0.3c-0.1-0.2-0.2-0.4-0.3-0.6
	c-0.1-0.3-0.1-0.6-0.1-0.9c0-0.4,0-0.7,0.1-1c0.1-0.3,0.2-0.5,0.3-0.6c0.1-0.2,0.3-0.3,0.5-0.3c0.2-0.1,0.3-0.1,0.5-0.1
	c0.2,0,0.4,0,0.6,0.1c0.2,0.1,0.3,0.2,0.5,0.3c0.1,0.2,0.2,0.4,0.3,0.6c0.1,0.3,0.1,0.6,0.1,1c0,0.4,0,0.7-0.1,1s-0.2,0.4-0.3,0.6
	C128.1,15.1,128,15.2,127.8,15.3 M129.9,10.8c-0.6-0.6-1.5-0.9-2.7-0.9c-1.1,0-2,0.3-2.7,0.9c-0.6,0.6-1,1.5-1,2.6
	c0,1.1,0.3,1.9,0.9,2.6c0.6,0.6,1.5,0.9,2.7,0.9c1.1,0,2-0.3,2.7-0.9c0.6-0.6,0.9-1.5,0.9-2.6C130.9,12.2,130.5,11.4,129.9,10.8
	 M122.1,7.5H120v9.1h2.1V7.5z M115.5,15.3c-0.2,0.1-0.4,0.1-0.5,0.1c-0.2,0-0.4,0-0.6-0.1c-0.2-0.1-0.3-0.2-0.4-0.3
	c-0.1-0.2-0.2-0.4-0.3-0.6c-0.1-0.3-0.1-0.6-0.1-0.9c0-0.4,0-0.7,0.1-1c0.1-0.3,0.2-0.5,0.3-0.6c0.1-0.2,0.3-0.3,0.5-0.3
	c0.2-0.1,0.3-0.1,0.5-0.1c0.2,0,0.4,0,0.6,0.1c0.2,0.1,0.3,0.2,0.5,0.3c0.1,0.2,0.2,0.4,0.3,0.6s0.1,0.6,0.1,1c0,0.4,0,0.7-0.1,1
	s-0.2,0.4-0.3,0.6C115.8,15.1,115.7,15.2,115.5,15.3 M117.6,10.8c-0.6-0.6-1.5-0.9-2.7-0.9c-1.1,0-2,0.3-2.7,0.9
	c-0.6,0.6-1,1.5-1,2.6c0,1.1,0.3,1.9,0.9,2.6c0.6,0.6,1.5,0.9,2.7,0.9c1.1,0,2-0.3,2.7-0.9c0.6-0.6,0.9-1.5,0.9-2.6
	C118.5,12.2,118.2,11.4,117.6,10.8 M110.5,15.1h-0.2c-0.1,0-0.2,0.1-0.4,0.1c-0.2,0-0.3,0.1-0.4,0.1c-0.3,0-0.5,0-0.6-0.1
	c-0.1-0.1-0.2-0.2-0.3-0.3c-0.1-0.1-0.1-0.3-0.1-0.5c0-0.2,0-0.4,0-0.6v-2.3h2V10h-2V8.2h-2.1V10h-0.9v1.4h0.9v3.1
	c0,0.8,0.2,1.4,0.6,1.7c0.4,0.3,1,0.5,1.8,0.5c0.4,0,0.7,0,0.9,0c0.3,0,0.5-0.1,0.7-0.1V15.1z M104.4,12.3c0-0.8-0.2-1.4-0.6-1.9
	c-0.4-0.4-1-0.6-1.7-0.6c-0.4,0-0.8,0.1-1.2,0.2c-0.3,0.2-0.7,0.4-1.1,0.7V10h-2.1v6.6h2.1v-4.7c0.2-0.1,0.4-0.2,0.6-0.3
	c0.2-0.1,0.4-0.1,0.6-0.1c0.3,0,0.5,0,0.6,0.1c0.1,0.1,0.3,0.2,0.3,0.3c0.1,0.1,0.1,0.3,0.1,0.6c0,0.3,0,0.5,0,0.8v3.3h2.1V12.3z
	 M93.2,15.3c-0.2,0.1-0.4,0.1-0.5,0.1c-0.2,0-0.4,0-0.6-0.1c-0.2-0.1-0.3-0.2-0.4-0.3c-0.1-0.2-0.2-0.4-0.3-0.6
	c-0.1-0.3-0.1-0.6-0.1-0.9c0-0.4,0-0.7,0.1-1c0.1-0.3,0.2-0.5,0.3-0.6c0.1-0.2,0.3-0.3,0.5-0.3c0.2-0.1,0.3-0.1,0.5-0.1
	c0.2,0,0.4,0,0.6,0.1c0.2,0.1,0.3,0.2,0.5,0.3c0.1,0.2,0.2,0.4,0.3,0.6c0.1,0.3,0.1,0.6,0.1,1c0,0.4,0,0.7-0.1,1s-0.2,0.4-0.3,0.6
	C93.5,15.1,93.4,15.2,93.2,15.3 M95.3,10.8c-0.6-0.6-1.5-0.9-2.7-0.9c-1.1,0-2,0.3-2.7,0.9c-0.6,0.6-1,1.5-1,2.6
	c0,1.1,0.3,1.9,0.9,2.6c0.6,0.6,1.5,0.9,2.7,0.9c1.1,0,2-0.3,2.7-0.9c0.6-0.6,0.9-1.5,0.9-2.6C96.3,12.2,95.9,11.4,95.3,10.8
	 M84.9,15.1c-0.2,0.1-0.4,0.1-0.6,0.1c-0.5,0-0.8-0.1-1.1-0.4c-0.2-0.3-0.3-0.8-0.3-1.4c0-0.6,0.1-1.1,0.4-1.4
	c0.3-0.3,0.7-0.5,1.2-0.5c0.1,0,0.3,0,0.5,0c0.2,0,0.3,0.1,0.5,0.1v3.2C85.3,14.9,85.1,15,84.9,15.1 M87.5,7.5h-2.1v2.8
	c-0.3-0.1-0.5-0.2-0.8-0.3c-0.3-0.1-0.6-0.1-1-0.1c-0.4,0-0.8,0.1-1.1,0.2c-0.4,0.2-0.7,0.4-1,0.7c-0.3,0.3-0.5,0.7-0.7,1.1
	c-0.2,0.4-0.2,0.9-0.2,1.5c0,1,0.2,1.9,0.7,2.5c0.5,0.6,1.1,0.9,1.9,0.9c0.4,0,0.8-0.1,1.1-0.2c0.3-0.1,0.7-0.4,1-0.7v0.7h2.1V7.5z
	 M76.6,15.3c-0.2,0.1-0.4,0.1-0.5,0.1c-0.2,0-0.4,0-0.6-0.1c-0.2-0.1-0.3-0.2-0.4-0.3c-0.1-0.2-0.2-0.4-0.3-0.6
	c-0.1-0.3-0.1-0.6-0.1-0.9c0-0.4,0-0.7,0.1-1c0.1-0.3,0.2-0.5,0.3-0.6c0.1-0.2,0.3-0.3,0.5-0.3c0.2-0.1,0.3-0.1,0.5-0.1
	c0.2,0,0.4,0,0.6,0.1c0.2,0.1,0.3,0.2,0.5,0.3c0.1,0.2,0.2,0.4,0.3,0.6c0.1,0.3,0.1,0.6,0.1,1c0,0.4,0,0.7-0.1,1
	c-0.1,0.2-0.2,0.4-0.3,0.6C76.9,15.1,76.8,15.2,76.6,15.3 M78.7,10.8c-0.6-0.6-1.5-0.9-2.7-0.9c-1.1,0-2,0.3-2.7,0.9
	c-0.6,0.6-1,1.5-1,2.6c0,1.1,0.3,1.9,0.9,2.6c0.6,0.6,1.5,0.9,2.7,0.9c1.1,0,2-0.3,2.7-0.9c0.6-0.6,0.9-1.5,0.9-2.6
	C79.6,12.2,79.3,11.4,78.7,10.8 M66,16.6h1.7v-3.7c0-0.7-0.2-1.1-0.7-1.4c-0.4-0.3-1.2-0.5-2.2-0.5c-0.4,0-0.8,0-1.3,0.1
	c-0.4,0.1-0.7,0.1-0.9,0.2v1.3h0.2c0.1-0.1,0.4-0.1,0.7-0.2c0.3-0.1,0.6-0.2,0.9-0.2c0.5,0,0.8,0.1,1.1,0.2c0.2,0.1,0.4,0.3,0.4,0.6
	v0c-0.5,0-1,0.1-1.5,0.1c-0.5,0.1-0.9,0.2-1.2,0.3c-0.3,0.1-0.6,0.3-0.8,0.6c-0.2,0.3-0.3,0.6-0.3,1c0,0.5,0.2,0.9,0.5,1.2
	c0.4,0.3,0.8,0.5,1.3,0.5c0.2,0,0.4,0,0.6-0.1c0.2,0,0.4-0.1,0.5-0.2c0.1-0.1,0.3-0.1,0.4-0.2c0.1-0.1,0.3-0.2,0.4-0.3V16.6z
	 M65.5,15.5c-0.2,0.1-0.4,0.1-0.5,0.1c-0.2,0-0.4,0-0.5,0c-0.1,0-0.2-0.1-0.3-0.1c-0.1-0.1-0.1-0.1-0.1-0.2c0-0.1,0-0.2,0-0.3
	c0-0.2,0-0.3,0.1-0.4c0.1-0.1,0.2-0.2,0.4-0.2c0.1,0,0.4-0.1,0.6-0.1c0.3,0,0.5-0.1,0.8-0.1v1.1C65.8,15.3,65.7,15.4,65.5,15.5
	 M61.6,15.2h-3.4V9.3h-1.9v7.3h5.2V15.2z M53.4,9.4h0.1c0.9,0,1.3-0.5,1.3-1.3c0-0.8-0.3-1.1-1.1-1.4V4.1h-1.3
	c-0.2,0.6-0.4,2.2-0.4,3.5V8C52.1,8.9,52.5,9.4,53.4,9.4 M49.7,9.4h0.1c0.9,0,1.3-0.5,1.3-1.3c0-0.8-0.3-1.1-1.1-1.4V4.1h-1.3
	c-0.2,0.6-0.4,2.2-0.4,3.5V8C48.4,8.9,48.9,9.4,49.7,9.4"/>
</svg>
